<svg xmlns="http://www.w3.org/2000/svg"><symbol id="play-circle" viewBox="0 0 24 24"><path d="M12 2C6.486 2 2 6.486 2 12s4.486 10 10 10 10-4.486 10-10S17.514 2 12 2zm0 18c-4.411 0-8-3.589-8-8s3.589-8 8-8 8 3.589 8 8-3.589 8-8 8z"/><path d="M9 17l8-5-8-5z"/></symbol><symbol id="user" viewBox="0 0 24 24"><circle cx="12" cy="7" r="3" fill="none"/><path d="M12 2C9.243 2 7 4.243 7 7s2.243 5 5 5 5-2.243 5-5-2.243-5-5-5zm0 8c-1.654 0-3-1.346-3-3s1.346-3 3-3 3 1.346 3 3-1.346 3-3 3zm9 11v-1c0-3.859-3.141-7-7-7h-4c-3.86 0-7 3.141-7 7v1h2v-1c0-2.757 2.243-5 5-5h4c2.757 0 5 2.243 5 5v1h2z"/></symbol><symbol id="star" viewBox="0 0 24 24"><path d="M21.947 9.179a1.001 1.001 0 0 0-.868-.676l-5.701-.453-2.467-5.461a.998.998 0 0 0-1.822-.001L8.622 8.05l-5.701.453a1 1 0 0 0-.619 1.713l4.213 4.107-1.49 6.452a1 1 0 0 0 1.53 1.057L12 18.202l5.445 3.63a1.001 1.001 0 0 0 1.517-1.106l-1.829-6.4 4.536-4.082c.297-.268.406-.686.278-1.065z"/></symbol><symbol id="pdf-download" viewBox="0 0 40 16"><g fill="none" fill-rule="evenodd"><rect width="40" height="16" fill="#0A97CC" rx="2"/><path fill="#FFF" fill-rule="nonzero" d="M18.16 9.07V12h-1.4V4.2h2.96c1.3 0 2.67.48 2.67 2.43 0 1.96-1.35 2.44-2.66 2.44h-1.57zm2.79-2.44c0-.99-.64-1.13-1.12-1.13h-1.67v2.26h1.67c.48 0 1.12-.14 1.12-1.13zM26.21 12h-2.76V4.2h2.76c2.38 0 3.62 1.21 3.62 3.9S28.59 12 26.21 12zm-1.36-1.3h1.36c1.62 0 2.19-1.01 2.19-2.6s-.57-2.6-2.19-2.6h-1.36v5.2zm7.71-2.04V12h-1.4V4.2h5.33v1.3h-3.93v1.86h3.45v1.3h-3.45z"/><path stroke="#FFF" d="M8.5 4v5M6 7.5l2.5 2 2.5-2M4.5 10v2.5h8V10"/></g></symbol><symbol id="arrow-down" viewBox="0 0 24 24"><path d="M16.293 9.293L12 13.586 7.707 9.293l-1.414 1.414L12 16.414l5.707-5.707z"/></symbol><symbol id="arrow-left" viewBox="0 0 24 24"><path d="M13.293 6.293L7.586 12l5.707 5.707 1.414-1.414L10.414 12l4.293-4.293z"/></symbol><symbol id="arrow-right" viewBox="0 0 24 24"><path d="M10.707 17.707L16.414 12l-5.707-5.707-1.414 1.414L13.586 12l-4.293 4.293z"/></symbol><symbol id="cart" viewBox="0 0 24 24"><path d="M5.65 13.68l-.1-1.98h16.794v-2H5.45l-.42-7.98v-.04H1.04v2h2.09l.62 12h18.58v-2H5.65z"/><circle cx="7.77" cy="19.7" r="2"/><circle cx="18.67" cy="19.7" r="2"/></symbol><symbol id="arrow-up" viewBox="0 0 24 24"><path d="M6.293 13.293l1.414 1.414L12 10.414l4.293 4.293 1.414-1.414L12 7.586z"/></symbol><symbol id="check" viewBox="0 0 24 24"><path d="M10 15.586l-3.293-3.293-1.414 1.414L10 18.414l9.707-9.707-1.414-1.414z"/></symbol><symbol id="search" viewBox="0 0 24 24"><path d="M10 18a7.952 7.952 0 0 0 4.897-1.688l4.396 4.396 1.414-1.414-4.396-4.396A7.952 7.952 0 0 0 18 10c0-4.411-3.589-8-8-8s-8 3.589-8 8 3.589 8 8 8zm0-14c3.309 0 6 2.691 6 6s-2.691 6-6 6-6-2.691-6-6 2.691-6 6-6z"/></symbol><symbol id="refine" viewBox="0 0 24 24"><path d="M7.5 14.5c-1.58 0-2.903 1.06-3.337 2.5H2v2h2.163c.434 1.44 1.757 2.5 3.337 2.5s2.903-1.06 3.337-2.5H22v-2H10.837c-.434-1.44-1.757-2.5-3.337-2.5zm0 5c-.827 0-1.5-.673-1.5-1.5s.673-1.5 1.5-1.5S9 17.173 9 18s-.673 1.5-1.5 1.5zm9-11c-1.58 0-2.903 1.06-3.337 2.5H2v2h11.163c.434 1.44 1.757 2.5 3.337 2.5s2.903-1.06 3.337-2.5H22v-2h-2.163c-.434-1.44-1.757-2.5-3.337-2.5zm0 5c-.827 0-1.5-.673-1.5-1.5s.673-1.5 1.5-1.5 1.5.673 1.5 1.5-.673 1.5-1.5 1.5zM12.837 5C12.403 3.56 11.08 2.5 9.5 2.5S6.597 3.56 6.163 5H2v2h4.163C6.597 8.44 7.92 9.5 9.5 9.5s2.903-1.06 3.337-2.5h9.288V5h-9.288zM9.5 7.5C8.673 7.5 8 6.827 8 6s.673-1.5 1.5-1.5S11 5.173 11 6s-.673 1.5-1.5 1.5z"/></symbol><symbol id="cross" viewBox="0 0 24 24"><path d="M16.192 6.344l-4.243 4.242-4.242-4.242-1.414 1.414L10.535 12l-4.242 4.242 1.414 1.414 4.242-4.242 4.243 4.242 1.414-1.414L13.364 12l4.242-4.242z"/></symbol><symbol id="add-to-cart" viewBox="0 0 24 24"><g fill="#010101"><circle cx="6.59" cy="18.7" r="1.5"/><circle cx="14.76" cy="18.7" r="1.5"/><path d="M4.923 12.699h9.949a4.354 4.354 0 0 1-1.551-1.5H4.848l-.315-5.985v-.03H1.54v1.5h1.567l.465 9h13.936v-1.5H4.998l-.075-1.485zm13.306-9.151a4.412 4.412 0 1 0 0 8.826 4.414 4.414 0 0 0 0-8.826zm3.051 5.196h-2.292v2.268h-1.523V8.744h-2.287V7.178h2.287V4.91h1.523v2.268h2.292v1.566z"/></g></symbol></svg>