<svg id="Layer_1" data-name="Layer 1" xmlns="http://www.w3.org/2000/svg" viewBox="0 0 60 60"><defs><style>.cls-1{fill:#fff;}.cls-2{fill:#231f20;}</style></defs><title>Animal Icon Library</title><rect class="cls-1" x="0.75" y="0.75" width="58.5" height="58.5" rx="6.15"/><path class="cls-2" d="M53.1,1.5a5.4,5.4,0,0,1,5.4,5.4V53.1a5.4,5.4,0,0,1-5.4,5.4H6.9a5.4,5.4,0,0,1-5.4-5.4V6.9A5.4,5.4,0,0,1,6.9,1.5H53.1m0-1.5H6.9A6.9,6.9,0,0,0,0,6.9V53.1A6.9,6.9,0,0,0,6.9,60H53.1A6.9,6.9,0,0,0,60,53.1V6.9A6.9,6.9,0,0,0,53.1,0Z"/><path class="cls-2" d="M27.78,33.53A2.7,2.7,0,0,0,28.9,34c-.72.68-.06.82.93.25a1.08,1.08,0,0,1,.18-.11,1.88,1.88,0,0,0-.39,2.29l.06-.08a42.18,42.18,0,0,1,1.24,6.38,4.25,4.25,0,0,1-1.47-.57.82.82,0,0,0-.2-.35s-.19.29-.35.06a.59.59,0,0,0,.51.76,7.46,7.46,0,0,1,1.59.81c.33,1,1.15,2.59,1.3,3.06s.47.38.47.38c-.14-.23,0-.62.23-.35,0-.13-.08-.21-.31-.56A5.05,5.05,0,0,1,32,44a8.41,8.41,0,0,1,.84.7c.25.21,1.88,1,2,1.38s.33.56.48.56.39-.17.32-.29c-.26-.16-.32-.41-.14-.49-.47-.31-1.42-.87-1.81-1.18s-.76-.62-.89-.76A3.79,3.79,0,0,1,34.6,44c.42.23.68.17.6-.1,0,0-.53-.17-.31-.39a6.77,6.77,0,0,1-2.68-.35,1.4,1.4,0,0,1-.68-.93c-.14-.68-1.31-6-1.25-6.26l0,0c0-.21.18-1.36.6-1.63a5.86,5.86,0,0,1,1.79-.7,2.48,2.48,0,0,0,.74-.18c-.45.72-.19.88.16,1.21a20.65,20.65,0,0,1,2.75,4.66c0,.62-.71.62-.91.62a4.8,4.8,0,0,1-1,0,.24.24,0,0,1-.08.33c0,.46.49.44.76.29a3.77,3.77,0,0,1,1.42-.41,1.39,1.39,0,0,1,1.28.66,3.52,3.52,0,0,1,.78,1.22c.14.35.52.53.66.35a.3.3,0,0,1,.29-.46c-.25-.29-.85-.7-1-1.11s.14-.2.43-.08a2.6,2.6,0,0,1,1.15.55c.42.38.73.79,1,.38a.34.34,0,0,1,.21-.17c-.23-.08-.1-.37-.1-.37a9.35,9.35,0,0,0-1.61-.58c.45,0,1-.29,1.4-.18s.46,0,.41-.27c-.26,0-.31-.15-.28-.29a4.25,4.25,0,0,1-2.33.23,3.89,3.89,0,0,1-2.33-2c-.68-1.07-2-2.89-2.23-3.4s-.37-.87.21-1.2,7.29-3.17,8.38-8.67a8.52,8.52,0,0,0-.14-4.06,1.35,1.35,0,0,1,.47-1.52c.25-.33,1.63-2.25,1.94-2.51l.39-.35c.62-.19,2.39-.77,2.85-.89s.1-.29-.36-.29-1.95,0-2.49,0c-2-1.92-5.56-3.32-8.47-.1-1.66,1.83-1.27,3-4.59,6.1s-5.19,4-7.66,3.5a45,45,0,0,1-8.12-3.11c-1-.58-2.08-.91-2.37-.58a1.08,1.08,0,0,0-1.42,0c-.89-.37-1.09-.16-.89.21-.63,0-.49.2-.28.45-.56.19-.25.64.14,1-.31.26-.18.59.16.8-.22.29.05.29.4.64s1.81,1.17,6.9,2.74a18.12,18.12,0,0,0,2.16,1.67c-.43,0-1.71-.48-.78.18s3,2.15,4.22,2.76c-.14.27.08.35.08.35-.78.68-.47.79-.32.93-1.12.35-.38.85-.38.85-.7.31-.55.53-.31.74-.78.14-.24.57-.24.57-.6.42-.19,1,.78.68a15.67,15.67,0,0,0,3.29-2Z"/></svg>