<svg id="Layer_1" data-name="Layer 1" xmlns="http://www.w3.org/2000/svg" viewBox="0 0 60 60"><defs><style>.cls-1{fill:#fff;}.cls-2{fill:#231f20;}</style></defs><title>Animal Icon Library</title><rect class="cls-1" x="0.75" y="0.75" width="58.5" height="58.5" rx="6.15"/><path class="cls-2" d="M53.1,1.5a5.4,5.4,0,0,1,5.4,5.4V53.1a5.4,5.4,0,0,1-5.4,5.4H6.9a5.4,5.4,0,0,1-5.4-5.4V6.9A5.4,5.4,0,0,1,6.9,1.5H53.1m0-1.5H6.9A6.9,6.9,0,0,0,0,6.9V53.1A6.9,6.9,0,0,0,6.9,60H53.1A6.9,6.9,0,0,0,60,53.1V6.9A6.9,6.9,0,0,0,53.1,0Z"/><path class="cls-2" d="M56.5,23.16s-3.74-4.34-5.8-6.22a4.88,4.88,0,0,0,1.5-1.34l.23-.28c.55-.64,1.18-1.48,1-1.81a.3.3,0,0,0-.27-.17c-.13,0-.38,0-1.76,1.22A6.48,6.48,0,0,1,49,16c-.49,0-1.37,0-2.7,0-1.7-1-4.1-2.22-5.78-2.12S35.82,15.06,33.7,16l-4,.06c-6.5.08-13.22.17-17.55.17-2.35,0-3.78,0-4.39-.08a3.47,3.47,0,0,0-3,.84C3.75,18.15,3.88,20.2,4,21.86s.38,3.44.58,4.92A26.75,26.75,0,0,1,5,31.14a18.55,18.55,0,0,1-1.5,5.11.25.25,0,0,0,0,.12c0,.06.86,6.25.56,7.56A.41.41,0,0,0,4,44a9.3,9.3,0,0,0,1.21,2.52.22.22,0,0,0,.18.1H7.93a.23.23,0,0,0,.17-.39L6.69,43.51c0-.37-.33-3.16.11-4.26l0,0A25.12,25.12,0,0,1,8.32,36h0a15.87,15.87,0,0,1,1-1.54h0s0,0,0,0a4.78,4.78,0,0,0,.33-.93,59.25,59.25,0,0,0,7,2.9c.75,0,6.77-.35,7.79-.95l.52.33c1.29.85,4.32,2.84,6.59,2.84a2.78,2.78,0,0,0,.51,0c.14,3.16.22,6,.22,6a.26.26,0,0,0,.05.12l1.4,1.87a.23.23,0,0,0,.18.09h2.52a.23.23,0,0,0,.23-.23.21.21,0,0,0-.08-.17,11.8,11.8,0,0,1-1.39-2.51c0-.12.12-.94,1.3-6,2.14-.44,4.69-1.11,5.77-2.39A16,16,0,0,0,44,31.76c.92-2.25,2-4.8,3.22-5.49a9.7,9.7,0,0,1,4-.75,14.9,14.9,0,0,1,2.77.26.21.21,0,0,0,.21-.06l2.25-2.26a.22.22,0,0,0,0-.3"/></svg>