<svg id="Layer_1" data-name="Layer 1" xmlns="http://www.w3.org/2000/svg" viewBox="0 0 60 60"><defs><style>.cls-1{fill:#fff;}.cls-2{fill:#231f20;}</style></defs><title>Animal Icon Library</title><rect class="cls-1" x="0.75" y="0.75" width="58.5" height="58.5" rx="6.15"/><path class="cls-2" d="M53.1,1.5a5.4,5.4,0,0,1,5.4,5.4V53.1a5.4,5.4,0,0,1-5.4,5.4H6.9a5.4,5.4,0,0,1-5.4-5.4V6.9A5.4,5.4,0,0,1,6.9,1.5H53.1m0-1.5H6.9A6.9,6.9,0,0,0,0,6.9V53.1A6.9,6.9,0,0,0,6.9,60H53.1A6.9,6.9,0,0,0,60,53.1V6.9A6.9,6.9,0,0,0,53.1,0Z"/><polygon class="cls-2" points="7.57 15.04 7.68 15 7.99 14.69 8.1 14.65 8.35 14.41 8.45 14.37 8.59 14.23 9.75 13.63 9.86 13.6 9.93 13.52 10.14 13.52 10.21 13.46 10.42 13.46 10.49 13.38 10.71 13.38 10.77 13.31 10.98 13.31 11.05 13.24 11.27 13.24 11.34 13.18 11.76 13.18 11.94 13.14 12.11 13.1 15.14 13.1 15.21 13.18 15.63 13.18 15.7 13.24 16.12 13.24 16.19 13.31 16.55 13.31 16.62 13.38 16.9 13.38 16.98 13.46 17.15 13.49 17.39 13.6 17.5 13.63 18.07 13.85 18.45 14.02 18.56 14.06 19.22 14.37 19.33 14.41 20.53 15.18 20.78 15.36 20.85 15.43 20.95 15.46 21.41 15.92 21.52 15.96 22.22 16.66 22.26 16.76 22.64 17.15 22.68 17.26 22.92 17.51 22.96 17.61 23.13 17.79 23.17 17.89 23.35 18.07 23.38 18.17 23.63 18.42 23.66 18.52 23.77 18.63 23.8 18.74 24.23 19.51 24.93 20.78 25.14 21.13 25.25 21.38 25.28 21.48 25.46 21.87 25.49 21.97 25.74 22.5 25.77 22.61 25.92 22.75 26.13 22.75 26.2 22.82 26.48 22.82 26.55 22.89 26.83 22.89 26.9 22.96 27.11 22.96 27.18 23.03 27.47 23.03 27.54 23.1 27.82 23.1 27.89 23.17 28.17 23.17 28.24 23.24 28.52 23.24 28.59 23.31 28.87 23.31 28.94 23.38 29.16 23.38 29.23 23.46 29.4 23.49 29.58 23.52 29.68 23.56 29.86 23.59 29.96 23.63 30.77 23.88 30.88 23.91 31.48 24.09 31.58 24.12 32.36 24.41 32.71 24.54 33.06 24.68 33.41 24.82 33.98 25.04 34.55 25.25 34.65 25.36 34.75 25.39 35.1 25.6 36.69 26.41 36.77 26.48 36.86 26.52 37.95 27.05 38.06 27.08 38.45 27.25 38.55 27.29 38.94 27.46 39.05 27.5 39.4 27.64 40.21 27.89 40.32 27.92 40.5 27.96 40.6 27.99 40.77 28.03 40.95 28.06 41.12 28.1 41.48 28.1 41.55 28.17 41.97 28.17 42.15 28.13 42.04 28.1 42.01 27.92 42.11 27.89 42.29 27.86 42.15 27.79 42.18 27.75 42.22 27.64 42.36 27.57 42.4 27.54 42.43 27.57 42.54 27.61 42.57 27.5 42.46 27.46 42.43 27.37 42.64 27.29 42.64 27.08 42.54 27.05 42.5 26.87 42.64 26.8 42.64 26.44 42.57 26.38 42.64 26.3 42.64 26.09 42.57 26.02 42.57 25.74 42.5 25.67 42.57 25.6 42.57 25.32 42.5 25.25 42.57 25.18 42.57 24.97 42.61 24.79 42.74 24.44 42.78 24.34 42.89 24.23 42.92 24.12 43.03 24.09 43.07 23.98 43.28 23.77 43.45 23.73 43.63 23.7 43.66 23.67 43.73 23.73 43.84 23.77 44.09 23.88 44.19 23.98 44.23 24.09 44.47 24.34 44.51 24.44 44.69 24.61 44.72 24.72 44.86 25.07 45.11 25.6 45.14 25.71 45.24 25.95 45.24 26.09 45.35 26.13 45.53 26.09 45.56 26.06 45.63 26.13 45.91 26.13 46.09 26.09 46.13 26.06 46.2 26.13 46.41 26.13 46.48 26.2 46.76 26.2 46.83 26.27 47.04 26.34 47.26 26.34 47.36 26.23 47.47 26.2 47.71 25.95 47.82 25.92 48.52 25.21 48.56 25.11 48.87 24.79 48.91 24.68 49.23 24.37 49.26 24.27 49.33 24.19 49.44 24.16 49.47 24.05 49.58 23.95 49.82 23.84 49.86 23.8 49.97 23.91 50 24.09 50.04 24.12 49.97 24.19 50 24.3 50.04 24.34 49.97 24.41 49.97 24.61 50.04 24.68 49.97 24.75 49.97 25.39 49.9 25.46 49.9 25.81 49.82 25.88 49.82 26.23 49.75 26.3 49.75 26.66 49.68 26.73 49.68 27.15 49.61 27.22 49.61 27.92 49.54 27.99 49.54 28.28 49.68 28.34 49.54 28.42 49.54 28.7 49.65 28.8 49.86 28.73 50.21 28.67 50.25 28.7 50 28.8 49.82 28.84 49.75 28.91 49.79 29.02 49.82 29.05 49.75 29.12 49.75 29.69 49.79 29.72 49.97 29.69 49.9 29.61 50.07 29.58 50.14 29.86 50 30.21 49.97 30.32 50.11 30.39 50.14 30.5 50.25 30.67 50.04 30.81 50.04 31.02 50.25 31.09 50.21 31.2 50.11 31.51 50.18 31.58 50.21 31.76 50.32 31.94 50.11 32.01 50.14 32.11 50.32 32.15 50.32 32.5 50.25 32.57 50.21 32.67 50.18 32.85 50.35 32.89 50.53 32.92 50.35 32.96 50.25 32.99 50.18 33.07 50.21 33.24 50.28 33.38 50.49 33.38 50.56 33.45 50.92 33.45 50.99 33.52 51.2 33.52 51.27 33.59 51.62 33.59 51.69 33.66 52.11 33.66 52.18 33.73 52.39 33.73 52.5 33.84 52.47 33.88 52.39 33.8 52.11 33.8 52.04 33.73 51.76 33.73 51.58 33.7 51.41 33.66 51.23 33.7 52.01 34.19 52.22 34.4 52.18 34.44 52.08 34.33 51.3 33.84 50.95 33.7 50.6 33.55 50.42 33.52 50.25 33.55 50.21 33.66 50.14 33.59 50.04 33.63 50.18 33.77 50.21 33.88 50.6 34.27 50.63 34.37 50.74 34.47 50.77 34.58 50.88 34.69 50.92 34.79 51.16 35.24 51.06 35.28 50.77 34.72 50.74 34.61 50.63 34.51 50.6 34.4 50.49 34.3 50.46 34.19 50.14 33.88 50.11 33.91 50 34.02 49.82 34.05 49.79 34.16 49.58 34.37 49.47 34.4 49.44 34.58 49.3 34.44 49.26 34.47 49.19 34.54 49.16 34.72 49.12 34.9 49.09 35 49.05 35.17 49.12 35.24 49.05 35.32 49.01 35.42 48.95 35.28 48.91 35.32 48.95 35.49 48.98 35.6 48.91 35.67 48.87 35.78 48.7 35.81 48.66 35.91 48.49 35.95 48.56 36.02 48.49 36.09 48.45 36.27 48.38 36.41 48.21 36.38 48.21 36.09 48.13 36.02 48.03 35.98 47.96 35.91 47.85 35.95 47.85 36.16 47.75 36.2 47.68 36.05 47.64 35.95 47.57 35.88 47.47 35.84 47.29 35.88 47.08 35.95 47.04 36.05 46.94 36.02 46.83 35.84 46.8 35.88 46.76 35.98 46.62 35.78 46.45 35.81 46.3 35.88 46.34 36.05 46.37 36.09 46.23 36.16 46.23 36.51 46.2 36.55 46.13 36.48 45.95 36.51 45.88 36.59 45.85 36.76 45.67 36.8 45.63 36.9 45.56 37.04 45.46 37.08 45.46 37.36 45.39 37.43 45.35 37.54 45.32 37.65 45.39 37.71 45.32 37.78 45.3 37.83 45.28 37.89 45.14 38.03 44.79 38.03 44.58 38.38 44.47 38.41 44.44 38.45 44.37 38.31 44.33 38.34 44.3 38.45 44.19 38.49 43.91 38.63 43.88 38.8 43.8 38.87 43.69 38.91 43.66 38.94 43.63 38.84 43.59 38.66 43.49 38.7 43.34 38.84 43.31 38.94 43.21 38.98 43.1 39.09 42.89 39.01 42.82 38.94 42.78 38.98 42.74 39.09 42.61 39.01 42.43 39.05 42.36 39.12 42.36 39.47 42.29 39.54 42.29 40.03 42.22 40.11 42.22 40.38 42.15 40.45 42.15 40.74 42.07 40.81 42.07 41.09 42.01 41.16 42.01 41.44 41.94 41.51 41.94 42.14 41.87 42.22 41.87 42.78 41.8 42.85 41.8 43.77 42.01 43.97 42.04 44.08 42.15 44.19 42.18 44.36 42.29 44.61 42.29 44.96 42.4 45 42.57 44.96 42.74 44.93 42.92 44.89 42.95 44.85 43.03 44.93 43.24 44.93 43.31 45 43.52 45 43.59 45.14 43.69 45.17 43.97 45.46 44.02 45.63 44.12 45.81 44.05 45.88 44.02 46.05 43.97 46.23 43.94 46.34 43.8 46.47 43.69 46.51 43.59 46.62 43.38 46.62 43.31 46.68 43.24 46.62 43.07 46.65 42.71 46.72 42.54 46.76 42.36 46.79 42.33 46.83 42.26 46.76 42.04 46.76 41.87 46.79 41.83 46.83 41.76 46.76 41.48 46.76 41.09 46.65 40.99 46.62 40.81 46.58 40.64 46.54 40.57 46.47 40.35 46.47 40.18 46.3 40.07 46.27 40 46.2 39.72 45.7 39.65 45.35 39.62 45.24 39.58 45.07 39.55 44.96 39.5 44.79 39.47 44.68 39.44 44.51 39.4 44.33 39.33 44.26 39.33 43.83 39.26 43.77 39.26 43.41 39.19 43.34 39.19 42.92 39.12 42.85 39.12 42.64 39.05 42.29 39.02 42.11 38.98 42.01 38.94 41.83 38.91 41.72 38.88 41.55 38.84 41.44 38.81 41.27 38.77 41.16 38.73 40.99 38.7 40.81 38.59 40.56 38.45 40.21 38.34 40.24 38.38 40.42 38.42 40.45 38.24 40.49 38.03 40.42 37.85 40.45 37.82 40.56 37.74 40.63 37.64 40.67 37.67 40.84 37.78 41.02 37.54 41.13 37.43 41.16 37.5 41.23 37.43 41.3 37.43 41.58 37.29 41.66 37.26 41.83 37.15 42.22 37.12 42.32 37.05 42.6 37.15 42.64 37.12 42.81 37.05 42.89 36.77 42.89 36.72 43.06 36.8 43.13 36.83 43.24 36.86 43.27 36.8 43.34 36.8 43.55 36.77 43.59 36.62 43.52 36.55 43.45 36.52 43.49 36.45 43.55 36.52 43.63 36.55 43.73 36.69 43.87 36.8 43.91 36.77 44.08 36.58 44.12 36.55 44.15 36.41 44.08 36.34 44.01 36.3 44.05 36.34 44.15 36.37 44.19 36.3 44.26 36.3 44.61 36.45 44.68 36.41 44.85 36.3 44.96 36.34 45.07 36.45 45.1 36.62 45.28 36.72 45.32 36.83 45.42 36.93 45.46 37.12 45.63 37.22 45.66 37.29 45.74 37.32 45.91 37.47 46.27 37.5 46.3 37.43 46.38 37.4 46.47 37.29 46.58 37.26 46.68 36.83 46.68 36.77 46.76 36.66 46.79 36.48 46.9 36.41 46.83 36.3 46.87 36.27 46.9 36.13 46.83 35.95 46.79 35.78 46.76 35.6 46.79 35.21 46.9 34.29 46.9 34.26 46.79 34.15 46.76 33.95 46.54 33.91 46.44 33.8 46.34 33.77 46.23 33.7 46.16 33.7 45.81 33.63 45.74 33.7 45.66 33.7 45.32 33.63 45.24 33.7 45.17 33.7 44.75 33.67 44.58 33.63 44.4 33.55 44.33 33.55 43.77 33.48 43.7 33.55 43.63 33.55 42.92 33.48 42.85 33.48 42.01 33.41 41.94 33.41 41.02 33.34 40.95 33.41 40.88 33.41 40.11 33.34 40.03 33.34 39.33 33.27 39.26 33.27 38.98 33.2 38.91 33.2 38.7 33.03 38.31 33 38.2 32.62 37.83 32.5 37.71 32.39 37.68 32.26 37.54 31.37 37.08 31.27 37.04 31.02 36.93 30.92 36.9 30.74 36.86 30.56 36.83 30.18 36.65 30 36.62 29.93 36.55 29.72 36.55 29.54 36.59 29.48 36.65 29.44 36.76 29.33 37.01 29.3 37.11 29.16 37.47 28.99 37.83 28.98 37.85 28.94 37.96 28.91 38.13 28.87 38.24 28.7 38.63 28.66 38.73 28.27 39.47 28.2 39.54 28.17 39.65 27.96 40 27.85 40.11 27.82 40.21 27.64 40.38 27.61 40.49 27.5 40.6 27.47 40.7 27.36 40.95 27.32 41.06 27.29 41.23 27.29 41.44 27.36 41.51 27.36 41.86 27.43 41.94 27.47 42.11 27.75 42.6 28.34 43.49 28.45 43.59 28.56 43.63 28.73 43.73 29.01 43.73 29.19 43.7 29.23 43.66 29.26 43.7 29.37 43.73 29.54 43.7 29.58 43.66 29.65 43.73 29.82 43.77 30.07 43.87 30.6 44.89 30.53 44.96 30.46 45.32 30.42 45.42 30.35 45.49 30.18 45.53 29.86 45.7 29.79 45.63 29.51 45.63 29.33 45.66 29.16 45.7 28.94 45.7 28.87 45.77 28.66 45.77 28.59 45.84 28.52 45.77 28.24 45.77 28.06 45.81 28.03 45.84 27.89 45.77 27.71 45.74 27.54 45.7 27.47 45.63 27.25 45.63 27.15 45.53 27.04 45.49 27.01 45.39 26.9 45.35 26.55 45 26.51 44.89 26.26 44.65 26.23 44.54 26.13 44.44 26.09 44.33 25.99 44.22 25.95 44.12 25.77 43.94 25.74 43.83 25.49 43.59 25.46 43.49 25.39 43.41 25 42.81 24.97 42.71 24.86 42.6 24.82 42.49 24.51 41.97 24.47 41.86 24.37 41.76 24.23 41.41 24.02 40.84 23.98 40.74 23.91 40.67 23.91 40.45 23.84 40.38 23.84 40.18 23.73 40.07 23.63 40.18 23.59 40.28 23.56 40.45 23.52 40.56 23.49 40.74 23.45 40.84 23.42 41.02 23.42 41.44 23.49 41.51 23.49 41.8 23.56 41.86 23.56 42.14 23.63 42.22 23.63 42.49 23.7 42.57 23.7 42.78 23.77 42.85 23.77 43.06 23.84 43.13 23.84 43.34 23.91 43.41 23.95 43.59 24.23 44.08 24.33 44.12 25.18 44.4 25.21 44.51 25.32 44.54 25.6 44.82 25.6 45.1 25.67 45.17 25.67 45.39 25.74 45.46 25.6 45.53 25.56 45.63 25.46 45.66 25.28 45.77 25.07 45.7 24.9 45.74 24.58 45.91 24.51 45.84 24.33 45.88 24.3 45.91 24.19 45.81 24.09 45.77 23.91 45.81 23.66 45.91 23.56 45.95 23.28 46.02 23.24 45.99 23.03 45.99 22.85 46.02 22.82 46.05 22.57 45.95 22.39 45.91 22.32 45.84 22.29 45.74 21.69 44.51 21.66 44.4 21.55 44.3 21.2 43.31 21.16 43.2 21.06 42.95 20.91 42.6 20.88 42.49 20.81 42.43 20.81 42.14 20.74 42.07 20.74 41.8 20.67 41.72 20.67 41.44 20.6 41.37 20.6 40.81 20.53 40.74 20.53 40.24 20.46 40.18 20.53 40.11 20.53 38.49 20.46 38.41 20.53 38.34 20.53 37.85 20.6 37.78 20.6 37.29 20.67 37.22 20.67 36.65 20.74 36.59 20.74 34.97 20.67 34.9 20.67 33.7 20.6 33.63 20.6 32.99 20.53 32.92 20.53 32.22 20.46 32.15 20.53 32.08 20.53 31.58 20.46 31.51 20.46 30.74 20.39 30.67 20.46 30.6 20.46 28.98 20.39 28.91 20.46 28.84 20.46 28.42 20.53 28.34 20.53 28.06 20.57 27.89 20.6 27.79 20.64 27.61 20.67 27.5 20.71 27.32 20.74 27.15 20.85 26.76 21.06 26.2 21.09 26.09 21.34 25.57 21.48 25.21 21.52 25.11 21.59 25.04 21.59 24.19 21.66 24.12 21.66 22.65 21.59 22.58 21.59 21.94 21.27 20.92 21.13 20.57 21.09 20.46 20.71 19.65 20.5 19.3 20.46 19.2 20.35 19.09 20.32 18.98 20.14 18.81 20.11 18.7 19.93 18.52 19.9 18.42 19.72 18.25 19.69 18.14 19.19 17.65 19.08 17.61 18.56 17.08 18.45 17.05 18.28 16.87 18.17 16.83 17.92 16.59 17.82 16.55 17.71 16.45 17.36 16.23 17.01 16.03 16.51 15.74 16.41 15.71 15.6 15.32 15.04 15.11 14.93 15.07 14.55 14.97 14.36 14.94 14.29 14.87 14.09 14.87 14.01 14.79 13.31 14.79 13.24 14.73 11.9 14.73 11.72 14.76 11.55 14.79 11.34 14.79 11.27 14.87 10.91 14.87 10.84 14.94 10.67 14.97 10.29 15.15 10.11 15.18 9.72 15.29 9.61 15.32 9.44 15.36 9.33 15.39 9.15 15.43 9.05 15.46 8.87 15.5 8.77 15.54 8.73 15.57 8.66 15.5 8.03 15.5 7.85 15.54 7.82 15.57 7.68 15.5 7.5 15.46 7.5 15.11 7.57 15.04"/></svg>