<svg id="Layer_1" data-name="Layer 1" xmlns="http://www.w3.org/2000/svg" xmlns:xlink="http://www.w3.org/1999/xlink" viewBox="0 0 60 60"><defs><style>.cls-1{fill:none;}.cls-2{fill:#fff;}.cls-3{fill:#231f20;}.cls-4{clip-path:url(#clip-path);}</style><clipPath id="clip-path"><rect class="cls-1" x="3.02" y="13.45" width="53.95" height="33.11"/></clipPath></defs><title>Animal Icon Library</title><rect class="cls-2" x="0.75" y="0.75" width="58.5" height="58.5" rx="6.15"/><path class="cls-3" d="M53.1,1.5a5.4,5.4,0,0,1,5.4,5.4V53.1a5.4,5.4,0,0,1-5.4,5.4H6.9a5.4,5.4,0,0,1-5.4-5.4V6.9A5.4,5.4,0,0,1,6.9,1.5H53.1m0-1.5H6.9A6.9,6.9,0,0,0,0,6.9V53.1A6.9,6.9,0,0,0,6.9,60H53.1A6.9,6.9,0,0,0,60,53.1V6.9A6.9,6.9,0,0,0,53.1,0Z"/><g class="cls-4"><path class="cls-3" d="M50.27,16l.51-.82,0-.06c.09-.36.28-1.24,0-1.56s-.38-.2-.65,0a13.14,13.14,0,0,1-3.1,1.67l-.1.07c-.3.36-3.35,1.2-25,1.2-6.86,0-13.09-.08-15.45-.12h-.1a2.92,2.92,0,0,0-2.24.74c-.81.86-.72,2.34-.61,4.05v.17c.14,1.79.37,3.49.59,5a27.58,27.58,0,0,1,.41,4.43A18.37,18.37,0,0,1,3,36a.51.51,0,0,0,0,.13c0,.06.88,6.34.58,7.67a.24.24,0,0,0,0,.12,10.15,10.15,0,0,0,1.23,2.56.22.22,0,0,0,.19.09H7.58a.21.21,0,0,0,.23-.22.23.23,0,0,0-.06-.16L6.31,43.36c0-.37-.33-3.21.12-4.33l0-.08a22,22,0,0,1,2.38-4.58A4.29,4.29,0,0,0,10,35.43c-.2.86-.19,1.41,0,1.71a.65.65,0,0,0,.52.27c.43,0,.73-.62,1.06-1.38l.12-.27h.31c.43,0,1.07,0,1.37.07.1.43.41,1.47,1.11,1.47a.81.81,0,0,0,.39-.1c.89-.48.48-1.37.31-1.75a.49.49,0,0,1-.06-.13c.08-.17.45-.72.77-1.21s.85-1.28,1.16-1.83l.53.31.15.09c1,.64,4.13,2.56,14.05,2.56h0c.25,4.22.46,9.16.46,9.21a.25.25,0,0,0,.05.13l1.42,1.9a.23.23,0,0,0,.18.08h2.57a.23.23,0,0,0,.23-.22.26.26,0,0,0-.09-.18,13.24,13.24,0,0,1-1.41-2.55c0-.34.68-4.62,1.15-7.37,3.88-.14,6.6-4.7,8.8-8.38,2.38-4,9.15-2.51,9.18-2.5a.27.27,0,0,0,.21-.06L56.91,23a.22.22,0,0,0,0-.32Z"/></g></svg>