<svg id="Layer_1" data-name="Layer 1" xmlns="http://www.w3.org/2000/svg" viewBox="0 0 60 60"><defs><style>.cls-1{fill:#fff;}.cls-2{fill:#231f20;}</style></defs><title>Animal Icon Library</title><rect class="cls-1" x="0.75" y="0.75" width="58.5" height="58.5" rx="6.15"/><path class="cls-2" d="M53.1,1.5a5.4,5.4,0,0,1,5.4,5.4V53.1a5.4,5.4,0,0,1-5.4,5.4H6.9a5.4,5.4,0,0,1-5.4-5.4V6.9A5.4,5.4,0,0,1,6.9,1.5H53.1m0-1.5H6.9A6.9,6.9,0,0,0,0,6.9V53.1A6.9,6.9,0,0,0,6.9,60H53.1A6.9,6.9,0,0,0,60,53.1V6.9A6.9,6.9,0,0,0,53.1,0Z"/><path class="cls-2" d="M54.21,10.06a.57.57,0,0,0-.77.16,4.67,4.67,0,0,1-2.84,2.11,7.45,7.45,0,0,1-1.83.19h-.69c0-.15,0-.32,0-.48a5,5,0,0,1,.15-.77A4.65,4.65,0,0,1,49,9.85a.53.53,0,0,0-.07-.7.54.54,0,0,0-.75,0,5.74,5.74,0,0,0-1.05,1.67,5.1,5.1,0,0,0-.3,1,4.63,4.63,0,0,0-.09.62l-.75,0a7,7,0,0,0-1.5.14l-.17,0a16.83,16.83,0,0,1,1.86-3.16.54.54,0,0,0-.08-.73.56.56,0,0,0-.77.06,16.59,16.59,0,0,0-2.51,3.67,8.27,8.27,0,0,0-.72,2.25A5.51,5.51,0,0,0,42,16a3.78,3.78,0,0,0,.3,1.19l-.32.06-.09,0a3.62,3.62,0,0,0-1.1-.17,4.35,4.35,0,0,0-1.3.21.22.22,0,0,0-.15.16.21.21,0,0,0,.06.21l.15.16a2.66,2.66,0,0,0,2,1.17c-.13.24-.26.48-.39.74-.71,1.35-1.45,2.74-2.5,3.1a7.85,7.85,0,0,1-1.7.11c-1.46,0-3.67-.1-6.22-.21-4.11-.2-9.37-.44-13.87-.34-7,.13-8.37,2.87-9.28,4.67a4.65,4.65,0,0,1-.8,1.26c-1,.94-1,1.52-.91,1.85a.56.56,0,0,0,.49.37l.13,0a6.88,6.88,0,0,0,1.3-.79A6.93,6.93,0,0,0,9.13,32.8c-.49,1-3.16,6.41-3.44,7s-.08,9.61,0,11.4a.25.25,0,0,0,.23.23h2c.8,0,.8,0,.87-.1a.21.21,0,0,0,0-.2l-.6-1.92.07-6.9,6.67-6.34a74.67,74.67,0,0,0,11.77,1.24,14.14,14.14,0,0,0,5.37-.77c-.67,4.58-1.22,11.33-1.22,11.4l-.21,3.37a.2.2,0,0,0,.06.17.21.21,0,0,0,.16.08H33a.22.22,0,0,0,.22-.19l2.36-12.72c.19-.23,1-1.22,1.41-1.58.06,0,5.46-5,6.39-7.1.34-.78.76-2,1.16-3.26A18.6,18.6,0,0,1,46,22.86a12.49,12.49,0,0,1,2.16-.26,6.55,6.55,0,0,0,2.27-.34,4.45,4.45,0,0,0,1-1.81c0-.3-.19-.44-3.09-1.55a22.7,22.7,0,0,1-2.43-1,4.38,4.38,0,0,0-1.78-.67l-.06-.3a.79.79,0,0,0,0-.29A3.85,3.85,0,0,1,44,15a1,1,0,0,1,.81-.75,7.1,7.1,0,0,1,1.57-.12h1.36A10.64,10.64,0,0,0,51,13.74a5.58,5.58,0,0,0,3.41-3,.54.54,0,0,0-.2-.7"/></svg>