<svg id="Layer_1" data-name="Layer 1" xmlns="http://www.w3.org/2000/svg" viewBox="0 0 60 60"><defs><style>.cls-1{fill:#fff;}.cls-2{fill:#231f20;}</style></defs><title>Animal Icon Library</title><rect class="cls-1" x="0.75" y="0.75" width="58.5" height="58.5" rx="6.15"/><path class="cls-2" d="M53.1,1.5a5.4,5.4,0,0,1,5.4,5.4V53.1a5.4,5.4,0,0,1-5.4,5.4H6.9a5.4,5.4,0,0,1-5.4-5.4V6.9A5.4,5.4,0,0,1,6.9,1.5H53.1m0-1.5H6.9A6.9,6.9,0,0,0,0,6.9V53.1A6.9,6.9,0,0,0,6.9,60H53.1A6.9,6.9,0,0,0,60,53.1V6.9A6.9,6.9,0,0,0,53.1,0Z"/><polygon class="cls-2" points="41.47 44.69 41.39 44.61 41.39 44.43 41.3 44.35 41.3 44.27 41.22 44.18 41.3 44.1 41.14 43.93 41.14 43.85 41.03 43.82 40.94 43.65 40.77 43.65 40.72 43.59 40.69 43.57 40.61 43.65 40.19 43.65 40.1 43.57 39.94 43.57 39.87 43.51 39.87 43.34 39.79 43.26 39.79 43.01 39.7 42.92 39.7 42.67 39.62 42.59 39.62 42.42 39.7 42.33 39.62 42.24 39.62 41.99 39.54 41.91 39.54 41.24 39.62 41.15 39.54 41.07 39.54 40.82 39.45 40.73 39.45 40.48 39.54 40.4 39.54 40.15 39.62 40.06 39.54 39.98 39.54 39.73 39.62 39.64 39.62 39.39 39.7 39.3 39.62 39.22 39.62 38.71 39.7 38.63 39.7 38.38 39.76 38.31 39.83 38.38 39.91 38.46 39.91 38.55 39.83 38.63 39.91 38.71 39.91 38.96 39.99 39.05 39.99 41.66 39.91 41.74 39.99 41.83 39.99 42.08 40.08 42.17 40.08 42.59 39.99 42.67 40.08 42.76 40.08 42.92 40.19 43.03 40.27 43.03 40.36 43.12 40.44 43.12 40.61 43.28 40.77 43.28 40.86 43.37 41.03 43.37 41.11 43.45 41.28 43.45 41.36 43.53 41.45 43.53 41.53 43.62 41.79 43.62 41.87 43.7 41.95 43.62 42.21 43.62 42.27 43.68 42.29 43.7 42.38 43.62 42.63 43.62 42.71 43.53 42.8 43.53 42.88 43.45 42.97 43.45 43.05 43.37 43.22 43.37 43.39 43.2 43.47 43.2 43.5 43.09 43.56 43.03 43.64 43.03 43.66 42.92 43.75 42.84 43.66 42.76 43.75 42.67 43.66 42.59 43.66 42.33 43.58 42.24 43.47 42.23 43.3 42.06 42.97 42.06 42.9 41.99 42.88 41.98 42.8 42.06 42.38 42.06 42.23 41.91 42.23 41.83 42.15 41.74 42.15 41.49 42.06 41.4 42.06 41.32 41.98 41.24 41.98 41.15 41.9 41.07 41.9 40.73 41.81 40.65 41.81 40.31 41.73 40.23 41.73 39.8 41.65 39.73 41.65 38.38 41.73 38.29 41.73 37.78 41.81 37.7 41.73 37.62 41.73 37.2 41.81 37.11 41.81 36.61 41.9 36.52 41.9 36.02 41.98 35.94 41.9 35.85 41.9 35.42 41.98 35.34 41.98 34.84 42.06 34.75 41.98 34.67 41.98 34.25 42.06 34.17 42.06 33.32 42.15 33.24 42.15 32.9 42.23 32.82 42.23 32.48 42.32 32.4 42.32 32.15 42.4 32.06 42.4 31.89 42.46 31.84 42.48 31.73 42.63 31.58 42.65 31.47 42.8 31.32 42.82 31.22 42.88 31.16 42.9 31.05 43.05 30.91 43.07 30.8 43.3 30.57 43.39 30.57 43.41 30.46 43.47 30.4 43.5 30.29 43.72 30.07 43.75 29.96 43.98 29.73 44 29.62 44.06 29.55 44.09 29.45 44.14 29.39 44.16 29.28 44.31 29.14 44.34 29.03 44.4 28.97 44.42 28.87 44.48 28.8 44.51 28.69 44.56 28.63 44.59 28.52 44.65 28.47 44.67 28.36 44.73 28.3 44.76 28.19 44.98 27.96 45.07 27.96 45.15 27.88 45.24 27.88 45.32 27.79 45.41 27.79 45.49 27.71 45.66 27.71 45.68 27.6 45.77 27.52 45.77 27.35 45.82 27.29 45.85 27.18 46.02 27.01 46.02 26.84 46.08 26.78 46.1 26.67 46.42 26.36 46.5 26.36 46.53 26.25 46.69 26.08 46.86 26 46.86 25.83 46.95 25.75 46.95 25.33 47.01 25.27 47.03 25.16 47.09 25.1 47.11 24.99 47.18 24.93 47.2 24.83 47.26 24.76 47.28 24.66 47.34 24.59 47.37 24.49 47.43 24.42 47.45 24.32 47.68 24.09 47.7 23.98 47.77 23.92 47.78 23.81 47.85 23.75 47.87 23.64 48.02 23.5 48.04 23.39 48.1 23.33 48.12 23.22 48.19 23.16 48.6 23.16 48.66 23.22 48.77 23.25 48.86 23.25 48.94 23.33 49.03 23.25 49.11 23.25 49.17 23.31 49.28 23.33 49.36 23.33 49.45 23.42 49.7 23.42 49.78 23.5 49.87 23.42 49.95 23.42 50.01 23.47 50.12 23.5 50.21 23.5 50.29 23.58 50.37 23.5 50.88 23.5 50.94 23.56 51.05 23.58 51.21 23.58 51.3 23.67 51.38 23.58 51.55 23.58 51.61 23.64 51.63 23.67 51.72 23.58 51.8 23.58 51.89 23.5 51.98 23.5 52.08 23.39 52.25 23.31 52.25 23.14 52.08 22.97 51.98 22.95 51.91 22.89 51.91 22.8 51.66 22.55 51.55 22.53 51.32 22.3 51.38 22.23 52.48 22.23 52.54 22.3 52.56 22.32 52.65 22.23 52.73 22.23 52.81 22.15 52.98 22.15 53.07 22.07 53.13 22.13 53.16 22.15 53.24 22.07 53.32 22.07 53.34 21.96 53.41 21.9 53.49 21.9 53.57 21.81 53.66 21.81 53.74 21.73 53.76 21.62 53.85 21.54 53.85 20.87 53.76 20.78 53.76 20.7 53.66 20.67 53.51 20.53 53.41 20.51 53.32 20.42 53.16 20.42 53.07 20.34 52.9 20.34 52.81 20.25 52.65 20.25 52.56 20.17 52.4 20.17 52.33 20.11 52.23 20.09 52.16 20.02 52.14 20 52.06 20.09 51.98 20.09 51.89 20 51.72 20 51.63 19.92 51.47 19.92 51.38 19.83 51.21 19.83 51.13 19.75 50.96 19.75 50.9 19.68 50.79 19.67 50.74 19.6 50.62 19.58 50.32 19.26 50.32 19.01 50.23 18.93 50.23 18.68 50.15 18.59 50.15 18.43 50.03 18.4 49.62 17.98 49.53 17.81 49.36 17.81 49.28 17.73 49.11 17.73 49.05 17.66 49.03 17.64 48.94 17.73 48.86 17.64 48.69 17.64 48.6 17.56 48.44 17.56 48.35 17.48 48.19 17.48 48.1 17.39 47.93 17.39 47.87 17.33 47.77 17.3 47.62 17.16 47.51 17.14 47.37 16.99 47.26 16.97 47.11 16.82 47.11 16.74 47.03 16.65 47.03 16.57 46.95 16.49 46.95 16.4 46.86 16.32 46.86 16.15 46.78 16.07 46.78 15.9 46.27 15.39 46.27 15.31 46.16 15.28 46.1 15.22 46 15.2 45.82 15.2 45.74 15.37 45.66 15.54 45.57 15.71 45.55 15.81 45.55 15.9 45.47 15.99 45.55 16.07 45.47 16.15 45.47 16.32 45.38 16.4 45.38 16.49 45.32 16.55 45.01 16.24 45.01 16.15 44.9 16.13 44.84 16.07 44.84 15.99 44.76 15.9 44.65 15.88 44.51 15.73 44.4 15.71 44.34 15.65 44.23 15.62 44.14 15.54 43.98 15.54 43.83 15.39 43.72 15.37 43.66 15.31 43.64 15.28 43.61 15.39 43.61 15.47 43.53 15.56 43.53 15.65 43.45 15.73 43.53 15.81 43.45 15.9 43.45 16.07 43.36 16.15 43.36 16.24 43.28 16.32 43.36 16.4 43.28 16.49 43.28 16.57 43.19 16.65 43.28 16.74 43.28 16.91 43.19 16.99 43.19 17.16 43.11 17.24 43.19 17.33 43.11 17.41 43.11 17.66 43.05 17.73 42.94 17.75 42.88 17.81 42.77 17.84 42.63 17.98 42.52 18 42.29 18.23 42.18 18.25 42.04 18.4 41.93 18.43 41.93 18.51 41.7 18.74 41.59 18.76 41.59 18.85 41.34 19.1 41.34 19.18 41.26 19.26 41.26 19.35 41.17 19.43 41.17 19.52 41.11 19.58 41.01 19.6 40.77 19.83 40.67 19.85 40.61 19.92 40.36 19.92 40.27 20 40.16 20.02 40.1 20.09 39.99 20.11 39.76 20.34 39.66 20.36 39.51 20.51 39.41 20.53 39.35 20.59 39.24 20.61 39.17 20.67 39.07 20.7 38.92 20.84 38.82 20.87 38.76 20.92 38.65 20.95 38.5 21.09 38.4 21.12 38.25 21.26 38.14 21.29 38 21.43 37.89 21.45 37.83 21.52 37.72 21.54 37.58 21.68 37.47 21.71 37.41 21.77 37.3 21.79 37.07 22.02 36.97 22.04 36.82 22.19 36.71 22.21 36.57 22.36 36.46 22.38 36.4 22.44 36.15 22.44 36.09 22.38 36.06 22.36 35.98 22.44 35.89 22.44 35.83 22.38 35.81 22.36 35.73 22.44 35.13 22.44 35.05 22.53 34.72 22.53 34.63 22.61 34.29 22.61 34.21 22.69 33.45 22.69 33.39 22.64 33.37 22.61 33.28 22.69 32.86 22.69 32.78 22.78 31.01 22.78 30.95 22.72 30.93 22.69 30.84 22.78 30.42 22.78 30.34 22.86 29.83 22.86 29.75 22.95 29.41 22.95 29.35 22.89 29.32 22.86 29.24 22.95 28.82 22.95 28.74 23.03 26.97 23.03 26.89 22.95 26.47 22.95 26.4 22.89 26.38 22.86 26.3 22.95 25.96 22.95 25.87 22.86 25.54 22.86 25.48 22.8 25.45 22.78 25.37 22.86 25.11 22.86 25.03 22.78 24.61 22.78 24.55 22.72 24.52 22.69 24.44 22.78 24.19 22.78 24.11 22.69 23.85 22.69 23.79 22.64 23.77 22.61 23.69 22.69 19.98 22.69 19.92 22.64 19.9 22.61 19.81 22.69 19.39 22.69 19.31 22.78 18.8 22.78 18.72 22.86 18.55 22.86 18.46 22.95 18.3 22.95 18.21 23.03 18.04 23.03 17.96 23.11 17.79 23.11 17.71 23.2 17.6 23.22 17.54 23.28 17.37 23.28 17.29 23.36 17.12 23.36 17.04 23.45 16.87 23.45 16.78 23.54 16.68 23.56 16.62 23.62 16.45 23.62 16.28 23.79 16.17 23.81 16.11 23.87 16 23.89 15.86 24.04 15.75 24.06 15.69 24.13 15.58 24.15 15.43 24.3 15.32 24.32 15.27 24.38 15.16 24.4 14.93 24.63 14.82 24.66 14.59 24.88 14.49 24.91 14.17 25.22 14.06 25.24 14.06 25.33 12.57 26.82 12.46 26.84 12.38 26.93 12.38 27.01 12.04 27.35 12.04 27.43 11.7 27.77 11.7 27.85 11.29 28.27 11.29 28.36 10.95 28.69 10.95 28.78 10.78 28.95 10.78 29.03 10.53 29.28 10.53 29.37 10.19 29.71 10.19 29.79 9.94 30.04 9.94 30.13 9.77 30.29 9.77 30.38 9.52 30.63 9.52 30.71 9.18 31.05 9.18 31.13 8.78 31.53 8.67 31.56 8.67 31.64 8.61 31.7 8.51 31.73 8.36 31.87 8.25 31.89 8.25 31.98 7.94 32.29 7.83 32.32 7.69 32.46 7.58 32.48 7.44 32.62 7.33 32.65 7.24 32.73 7.24 32.82 7.02 33.05 6.91 33.07 6.91 33.15 6.6 33.47 6.49 33.49 6.49 33.57 6.32 33.75 6.32 33.83 6.23 33.91 6.23 34 6.15 34.08 6.15 34.34 6.32 34.42 6.49 34.5 6.6 34.53 6.68 34.53 6.76 34.61 6.85 34.61 6.93 34.7 7.27 34.7 7.35 34.78 7.44 34.7 8.03 34.7 8.09 34.75 8.11 34.78 8.19 34.7 8.45 34.7 8.53 34.61 8.61 34.61 8.7 34.53 8.87 34.53 8.95 34.44 9.04 34.44 9.12 34.36 9.2 34.36 9.29 34.28 9.37 34.28 9.46 34.19 9.54 34.19 9.63 34.1 9.71 34.1 9.79 34.02 9.96 34.02 10.05 33.94 10.13 33.94 10.22 33.85 10.3 33.85 10.32 33.75 10.55 33.51 10.64 33.51 10.66 33.41 10.89 33.18 10.91 33.07 11.14 32.84 11.16 32.73 11.39 32.51 11.42 32.4 11.48 32.34 11.5 32.23 11.64 32.09 11.9 32.09 12.01 32.06 12.01 31.73 12.09 31.64 12.09 31.47 12.15 31.41 12.18 31.31 12.26 31.22 12.26 30.88 12.32 30.82 12.34 30.71 12.4 30.65 12.43 30.54 12.51 30.46 12.51 30.29 12.57 30.23 12.6 30.13 12.66 30.07 12.68 29.96 12.93 29.71 12.93 29.54 12.99 29.48 13.02 29.37 13.08 29.31 13.1 29.2 13.33 28.97 13.36 28.87 13.59 28.63 13.61 28.52 13.84 28.3 13.86 28.19 14 28.05 14.09 28.05 14.11 27.94 14.34 27.71 14.36 27.6 14.76 27.2 14.85 27.2 15.1 26.95 15.18 26.95 15.35 26.78 15.41 26.84 15.32 26.93 15.32 27.1 15.24 27.18 15.24 27.43 15.16 27.52 15.16 27.68 15.07 27.77 15.16 27.85 15.16 28.02 15.07 28.1 15.07 28.27 14.99 28.36 15.07 28.44 15.07 29.2 14.99 29.28 15.07 29.37 15.07 29.54 15.16 29.62 15.16 29.79 15.07 29.87 15.16 29.96 15.16 30.13 15.24 30.21 15.24 30.38 15.16 30.46 15.24 30.54 15.27 30.65 15.32 30.71 15.32 30.88 15.41 30.97 15.41 31.31 15.5 31.39 15.5 31.73 15.58 31.81 15.61 31.91 15.66 31.98 15.69 32.09 15.75 32.15 15.75 32.4 15.83 32.48 15.83 32.82 15.92 32.9 15.92 33.15 16 33.24 16 33.57 16.09 33.66 16.09 33.83 16 33.91 16 34.25 15.92 34.34 16 34.42 16 34.59 15.92 34.67 15.92 34.84 15.83 34.92 15.83 35.01 15.75 35.09 15.75 35.18 15.66 35.26 15.66 35.34 15.58 35.42 15.58 35.52 15.32 35.77 15.32 35.85 15.24 35.94 15.24 36.02 15.16 36.1 15.16 36.19 14.91 36.44 14.91 36.52 14.65 36.78 14.65 36.94 14.57 37.03 14.57 37.11 14.49 37.2 14.49 37.28 14.4 37.36 14.4 37.45 14.32 37.53 14.32 37.7 14.23 37.78 14.23 37.87 14.15 37.96 14.15 38.21 14.06 38.29 14.15 38.38 14.15 39.55 14.06 39.64 14.15 39.73 14.15 39.98 14.23 40.06 14.23 40.23 14.15 40.31 14.23 40.4 14.23 40.99 14.32 41.07 14.32 42.24 14.23 42.33 14.32 42.42 14.32 42.67 14.4 42.76 14.43 42.86 14.49 42.92 14.51 43.03 14.74 43.26 14.76 43.37 14.85 43.45 14.93 43.45 15.02 43.53 15.1 43.53 15.18 43.62 15.27 43.62 15.32 43.68 15.32 43.85 15.41 43.93 15.41 44.18 15.58 44.27 15.83 44.52 15.86 44.63 15.94 44.63 16.02 44.71 16.11 44.71 16.2 44.8 18.72 44.8 18.8 44.71 18.82 44.61 18.91 44.52 18.82 44.43 18.82 43.85 18.64 43.65 18.55 43.48 18.38 43.48 18.3 43.4 18.13 43.4 18.07 43.34 18.04 43.32 17.96 43.4 17.29 43.4 17.23 43.34 17.23 43.17 17.14 43.09 17.14 42.92 17.06 42.84 17.06 42.67 16.98 42.59 16.98 42.33 16.89 42.24 16.89 41.99 16.81 41.91 16.81 40.99 16.89 40.9 16.81 40.82 16.81 40.56 16.72 40.48 16.72 40.31 16.81 40.23 16.81 39.98 16.89 39.89 16.81 39.8 16.81 39.64 16.89 39.55 16.89 39.3 16.98 39.22 16.98 39.05 17.06 38.96 17.06 38.8 17.14 38.71 17.14 38.55 17.29 38.4 17.35 38.46 17.35 39.8 17.26 39.89 17.35 39.98 17.35 40.23 17.43 40.31 17.43 40.65 17.52 40.73 17.52 40.99 17.6 41.07 17.6 41.32 17.77 41.49 17.79 41.6 17.94 41.74 17.96 41.85 18.04 41.93 18.13 41.93 18.3 42.1 18.38 42.1 18.44 42.17 18.46 42.27 18.61 42.42 18.64 42.52 18.7 42.59 18.7 42.76 18.86 42.92 18.89 43.03 18.97 43.12 19.06 43.12 19.14 43.2 19.23 43.2 19.31 43.28 19.39 43.2 19.73 43.2 19.79 43.26 19.9 43.28 20.06 43.28 20.15 43.37 20.23 43.28 21.5 43.28 21.56 43.34 21.58 43.37 21.67 43.28 21.75 43.28 21.86 43.17 22.02 43.09 22.02 42.67 22.11 42.59 22.02 42.5 22.02 42.42 21.94 42.33 21.94 42.24 21.84 42.23 21.52 41.91 21.52 41.83 21.41 41.8 21.35 41.74 21.24 41.72 21.18 41.66 21.08 41.64 20.99 41.55 20.82 41.55 20.76 41.49 20.74 41.46 20.66 41.55 20.59 41.49 20.49 41.46 20.42 41.4 20.32 41.38 20.26 41.32 20.26 41.24 20.15 41.21 20.09 41.15 19.98 41.13 19.84 40.99 19.84 40.82 19.92 40.73 19.84 40.65 19.84 40.4 19.75 40.31 19.75 40.06 19.66 39.98 19.66 37.78 19.75 37.7 19.75 37.45 19.84 37.36 19.75 37.28 19.75 37.2 19.84 37.11 19.84 36.86 19.92 36.78 19.84 36.69 19.84 36.52 19.92 36.44 19.92 36.19 20.01 36.1 20.01 35.85 20.06 35.79 20.09 35.68 20.57 35.2 20.66 35.2 20.91 34.95 20.99 34.95 21.01 34.84 21.24 34.61 21.33 34.61 21.5 34.44 21.58 34.44 21.67 34.36 21.75 34.36 21.84 34.28 21.92 34.28 22 34.19 22.08 34.19 22.34 33.94 22.42 33.94 22.45 33.83 22.59 33.69 22.68 33.69 22.93 33.43 23.01 33.43 23.27 33.18 23.35 33.18 23.37 33.07 23.85 32.59 23.94 32.59 24.02 32.51 24.05 32.4 24.27 32.17 24.3 32.06 24.55 31.81 24.55 31.64 24.61 31.58 24.64 31.47 24.7 31.41 24.72 31.31 24.78 31.24 24.8 31.13 24.95 30.99 25.45 30.99 25.54 30.91 25.96 30.91 26.02 30.97 26.13 30.99 26.63 30.99 26.89 31.24 26.97 31.24 27.39 31.66 27.47 31.66 27.73 31.91 28.06 31.91 28.15 32 28.24 31.91 28.57 31.91 28.63 31.98 28.74 32 29.24 32 29.32 32.09 29.49 32.09 29.58 32.17 29.66 32.17 29.75 32.26 29.91 32.26 30 32.34 30.08 32.34 30.17 32.42 30.42 32.42 30.5 32.51 30.68 32.51 30.76 32.59 31.01 32.59 31.09 32.67 31.26 32.67 31.35 32.76 31.6 32.76 31.68 32.84 31.85 32.84 31.94 32.93 32.35 32.93 32.44 33.01 32.61 33.01 32.69 33.09 32.86 33.09 32.94 33.18 33.28 33.18 33.37 33.27 33.54 33.27 33.62 33.35 33.7 33.35 33.79 33.43 34.04 33.43 34.12 33.51 34.21 33.43 34.46 33.43 34.52 33.49 34.63 33.51 34.88 33.51 34.97 33.6 35.22 33.6 35.3 33.69 35.64 33.69 35.73 33.76 35.81 33.69 35.98 33.69 36.04 33.75 36.15 33.76 36.31 33.76 36.37 33.83 36.37 36.35 36.29 36.44 36.29 36.78 36.21 36.86 36.29 36.94 36.29 39.22 36.21 39.3 36.29 39.39 36.29 39.73 36.37 39.8 36.37 40.15 36.29 40.23 36.37 40.31 36.37 40.65 36.46 40.73 36.46 41.15 36.54 41.24 36.54 41.57 36.63 41.66 36.65 41.77 36.71 41.83 36.71 41.99 36.88 42.17 36.91 42.27 36.97 42.33 36.99 42.44 37.05 42.5 37.07 42.61 37.13 42.67 37.13 42.84 37.22 42.92 37.22 43.26 37.3 43.34 37.3 43.59 37.38 43.68 37.38 44.1 37.3 44.18 37.38 44.27 37.41 44.38 37.49 44.46 37.66 44.46 37.75 44.55 37.83 44.55 38 44.71 38.34 44.71 38.42 44.8 41.28 44.8 41.47 44.69"/></svg>