<svg id="Layer_1" data-name="Layer 1" xmlns="http://www.w3.org/2000/svg" xmlns:xlink="http://www.w3.org/1999/xlink" viewBox="0 0 60 60"><defs><style>.cls-1{fill:none;}.cls-2{fill:#fff;}.cls-3{fill:#231f20;}.cls-4{clip-path:url(#clip-path);}</style><clipPath id="clip-path"><rect class="cls-1" x="14.15" y="11.13" width="31.7" height="37.75"/></clipPath></defs><title>Animal Icon Library</title><rect class="cls-2" x="0.75" y="0.75" width="58.5" height="58.5" rx="6.15"/><path class="cls-3" d="M53.1,1.5a5.4,5.4,0,0,1,5.4,5.4V53.1a5.4,5.4,0,0,1-5.4,5.4H6.9a5.4,5.4,0,0,1-5.4-5.4V6.9A5.4,5.4,0,0,1,6.9,1.5H53.1m0-1.5H6.9A6.9,6.9,0,0,0,0,6.9V53.1A6.9,6.9,0,0,0,6.9,60H53.1A6.9,6.9,0,0,0,60,53.1V6.9A6.9,6.9,0,0,0,53.1,0Z"/><g class="cls-4"><path class="cls-3" d="M15.85,35.24c-.28-.69-1.31-1.1-.52-2-.19-.6-1.35-1-.4-1.83l-.78-1.12.09-.13a5.71,5.71,0,0,1,.58.21,17.76,17.76,0,0,0,6.08,1.95A6.47,6.47,0,0,0,26,31.07a10.35,10.35,0,0,1,7.36-2.32,5.19,5.19,0,0,0,1,0c1-.14,1.29-.56,1-1.47A28.47,28.47,0,0,0,34,24.48,16.36,16.36,0,0,1,32.19,17a9.44,9.44,0,0,1,.39-2.48,4.94,4.94,0,0,1,7.3-2.59,6.41,6.41,0,0,1,1.18,1.56,3.63,3.63,0,0,0,.49.7A10.8,10.8,0,0,0,45,16c.37.11.93.58.9.81-.08.53-.7.5-1.13.44-1-.14-2-.33-3-.52a3.7,3.7,0,0,0-3.46.92,3.12,3.12,0,0,0-.46,3.8c.78,1.38,1.73,2.67,2.62,4A16.91,16.91,0,0,1,43,30.7a7.27,7.27,0,0,1-1.75,7A19.82,19.82,0,0,1,32.82,43c-1,.35-2.05.53-3.07.81-.17.05-.44.2-.46.33a7.82,7.82,0,0,0-.08,2.1,1.37,1.37,0,0,0,.89.79,24.08,24.08,0,0,0,3,.62c.77.11,1.55.11,2.33.16.38,0,.8.07.79.55s-.44.52-.81.52H28c-.87,0-1.11-.29-.81-1.13a6.69,6.69,0,0,0,.17-3.38c0-.21-.28-.52-.46-.54a14,14,0,0,1-7.23-3.55c-1.26-1.11-2.39-2.37-3.54-3.6-.36-.38-.81-.85-.27-1.43"/></g></svg>