<svg id="Layer_1" data-name="Layer 1" xmlns="http://www.w3.org/2000/svg" viewBox="0 0 60 60"><defs><style>.cls-1{fill:#fff;}.cls-2{fill:#231f20;}</style></defs><title>Animal Icon Library</title><rect class="cls-1" x="0.75" y="0.75" width="58.5" height="58.5" rx="6.15"/><path class="cls-2" d="M53.1,1.5a5.4,5.4,0,0,1,5.4,5.4V53.1a5.4,5.4,0,0,1-5.4,5.4H6.9a5.4,5.4,0,0,1-5.4-5.4V6.9A5.4,5.4,0,0,1,6.9,1.5H53.1m0-1.5H6.9A6.9,6.9,0,0,0,0,6.9V53.1A6.9,6.9,0,0,0,6.9,60H53.1A6.9,6.9,0,0,0,60,53.1V6.9A6.9,6.9,0,0,0,53.1,0Z"/><path class="cls-2" d="M45.89,18.59a11.19,11.19,0,0,0-1.36-1.72,3.57,3.57,0,0,1-.12-1.15C44,14,39.64,12.75,40,13.19S42.9,15,42.78,16c-.09.24-.14.41-.14.41s-.25-.16-1.15,0a2.72,2.72,0,0,0-1.27.52c-.09,0,.07.38.56.5a5.71,5.71,0,0,0,1.74-.19l-.06.08c-2.14,2.22-5.7,5.9-9.18,6-3.07.08-18.23-.23-18.23-.23a9,9,0,0,0-4.82.58,5.72,5.72,0,0,0,1.95,1.25,5.2,5.2,0,0,0-1,3.26c0,3.25,1.27,4.09,1.15,5.3s-1.39,4.39-1.5,5-.05,5.57,0,6.19a5.34,5.34,0,0,0,1.12,2,2.17,2.17,0,0,0,1.6.08c.35-.21-1-2-1.1-2.56s-.13-5.24.46-5.75a39.24,39.24,0,0,0,3-4c3.32-1.12,10.26,1.88,15.28-.1.77,2.75,1.87,11.94,2.2,12.3a2.19,2.19,0,0,0,2,0c.19-.26-.27-1.56-.27-1.56a1,1,0,0,1-.17-.5c0-.27-.49-5.47-.46-4.85s.11-5.7.11-5.7,1.75-.33,2.9-3.68,5.42-7,5.42-7l2.63,1.05s-.78,1.33.17,1.95,1.69.56,1.63.38-.4,0-.35-.66a2.28,2.28,0,0,1,.69-1.18,3.67,3.67,0,0,0,1.25.07,2.28,2.28,0,0,0,.8-1c0-.09-3.5-4.84-3.88-5.39"/></svg>