<svg id="Layer_1" data-name="Layer 1" xmlns="http://www.w3.org/2000/svg" viewBox="0 0 60 60"><defs><style>.cls-1{fill:#fff;}.cls-2{fill:#231f20;}</style></defs><title>Animal Icon Library</title><rect class="cls-1" x="0.75" y="0.75" width="58.5" height="58.5" rx="6.15"/><path class="cls-2" d="M53.1,1.5a5.4,5.4,0,0,1,5.4,5.4V53.1a5.4,5.4,0,0,1-5.4,5.4H6.9a5.4,5.4,0,0,1-5.4-5.4V6.9A5.4,5.4,0,0,1,6.9,1.5H53.1m0-1.5H6.9A6.9,6.9,0,0,0,0,6.9V53.1A6.9,6.9,0,0,0,6.9,60H53.1A6.9,6.9,0,0,0,60,53.1V6.9A6.9,6.9,0,0,0,53.1,0Z"/><polygon class="cls-2" points="40.61 12.45 40.19 12.03 40.02 11.48 40.15 11 40.61 10.87 41.05 11 41.23 11.15 41.31 11.27 41.55 11.3 41.84 11.21 41.98 10.97 42.13 10.79 42.45 10.78 42.8 10.95 43.02 11.13 43.16 11.36 43.34 11.57 43.54 11.66 43.82 11.62 44.06 11.57 44.31 11.66 44.37 11.94 44.39 12.2 44.52 12.24 44.68 12.11 44.88 11.97 45.17 12.03 45.38 12.49 45.45 12.97 45.67 13.38 45.69 13.92 45.9 14.35 46.05 14.45 47.12 15.62 45.69 15.79 45.34 16.4 44.88 17.24 44.47 18.14 44.31 18.96 44.43 19.58 44.75 20.19 45.04 21.09 45.17 22.66 44.98 24.61 44.55 25.68 44.14 26.29 43.94 26.81 43.76 29.86 43.24 32.23 42.3 34.14 41.03 35.65 39.86 36.64 39.13 37.07 38.64 37.23 38.25 37.43 37.77 37.9 37.23 38.57 36.76 39.32 36.49 39.98 36.37 40.6 36.24 41.24 35.98 41.8 35.52 42.19 35.12 42.5 35.03 42.84 35.1 43.12 35.16 43.25 35.2 43.67 35.52 44.22 35.69 44.45 35.6 44.75 35.8 45.29 36.24 46.21 36.74 47.16 37.18 47.73 37.59 47.96 38.13 48.14 38.76 48.28 39.39 48.45 40.02 48.63 40.44 48.81 40.69 48.93 40.77 48.97 35.87 48.97 35.96 48.86 36.19 48.66 36.52 48.45 36.82 48.34 36.95 48.23 36.82 48.02 36.6 47.84 36.49 47.73 35.35 45.61 35.25 45.55 35.02 45.38 34.74 45.15 34.55 44.84 34.55 43.94 34.2 43.3 33.94 42.53 33.81 42.4 33.53 42.09 33.26 41.64 33.13 41.13 32.26 41.13 32.07 41.98 31.59 42.66 31.03 43.09 30.6 43.33 30.29 43.48 30.08 43.69 30.01 43.9 30.38 44.46 30.24 44.93 30.22 45.47 30.37 46.36 30.62 47.29 30.93 47.93 31.21 48.11 31.66 48.31 32.19 48.51 32.74 48.68 33.24 48.85 33.63 48.95 33.83 49.03 33.76 49.06 33.22 49.06 32.52 49.09 31.75 49.12 31 49.14 30.31 49.17 29.77 49.21 29.37 49.22 29.22 49.22 29.33 49.14 29.58 48.93 29.89 48.73 30.16 48.54 30.34 48.02 30.08 47.39 29.84 46.46 29.75 45.53 29.51 45.11 29.22 44.64 29.25 44.17 29.3 43.77 29.14 43.25 28.78 42.71 28.62 42.31 28.48 41.75 28.31 41.13 28 40.6 27.69 40.35 27.14 40.06 26.48 39.71 25.71 39.33 24.96 38.93 24.25 38.52 23.65 38.06 23.25 37.6 22.71 37.11 22.25 37.17 21.75 37.24 21.13 36.82 20.33 35.72 19.52 34.4 18.88 33.16 18.67 32.39 18.35 31.81 17.59 30.97 16.97 29.98 17 28.82 16.91 28.41 16.04 28.37 15.02 27.04 14.45 22.74 14.51 22.66 14.54 22.43 14.45 22.08 14 21.6 13.39 21.01 12.98 20.33 12.88 19.72 13.23 19.22 13.91 19.05 14.74 19.24 15.48 19.66 15.94 20.19 16.34 20.4 16.94 20.31 17.66 20.44 18.39 21.32 18.7 21.35 19.46 21.49 20.44 21.9 21.38 22.66 22.12 23.43 22.7 23.86 23.19 23.95 23.67 23.8 24.33 23.57 25.59 23.22 27.3 22.74 29.25 22.23 31.18 21.73 32.98 21.3 34.44 20.97 35.35 20.8 36.02 20.4 36.79 19.43 37.67 18.1 38.55 16.54 39.33 15.04 40 13.74 40.44 12.81 40.61 12.45"/></svg>