<svg id="Layer_1" data-name="Layer 1" xmlns="http://www.w3.org/2000/svg" xmlns:xlink="http://www.w3.org/1999/xlink" viewBox="0 0 60 60"><defs><style>.cls-1{fill:none;}.cls-2{fill:#fff;}.cls-3{fill:#231f20;}.cls-4{clip-path:url(#clip-path);}</style><clipPath id="clip-path"><rect class="cls-1" x="3.33" y="7.62" width="53.33" height="44.76"/></clipPath></defs><title>Animal Icon Library</title><rect class="cls-2" x="0.75" y="0.75" width="58.5" height="58.5" rx="6.15"/><path class="cls-3" d="M53.1,1.5a5.4,5.4,0,0,1,5.4,5.4V53.1a5.4,5.4,0,0,1-5.4,5.4H6.9a5.4,5.4,0,0,1-5.4-5.4V6.9A5.4,5.4,0,0,1,6.9,1.5H53.1m0-1.5H6.9A6.9,6.9,0,0,0,0,6.9V53.1A6.9,6.9,0,0,0,6.9,60H53.1A6.9,6.9,0,0,0,60,53.1V6.9A6.9,6.9,0,0,0,53.1,0Z"/><g class="cls-4"><path class="cls-3" d="M53.69,14.31c-.68-.93-1.44-2-1.5-2.12A4.45,4.45,0,0,0,50.78,10l-.12-2.18a.23.23,0,0,0-.15-.21.25.25,0,0,0-.25,0c-.08.07-1.8,1.63-2.36,2.17-3.15.05-7.14,3.73-10.35,6.7a27.26,27.26,0,0,1-3.9,3.25,7,7,0,0,1-3.59.81c-1,0-2.26-.11-3.78-.25s-3.53-.33-6-.44c-1.54-.07-2.87-.08-3.94,0l-.35,0s-.48,0-.74.05a8.87,8.87,0,0,0-2.78.61A12,12,0,0,0,8.1,23.1a5.19,5.19,0,0,0-.49.43,2.4,2.4,0,0,0-.39.41c-2.75,3.24-2.32,9.42-2.31,9.49.15,2,0,4.6-.48,5.68-.18.38-.37.75-.55,1.07-.47.87-.73,1.36-.39,1.58a.39.39,0,0,0,.2.05,6.57,6.57,0,0,0,2.46-1.19l.06-.07c1-1.62,2.75-5.73,2.72-15.12a1.2,1.2,0,0,1,.36-.86,1.17,1.17,0,0,1,.85-.35.3.3,0,0,0,.23-.07.24.24,0,0,0,.15.13,1.19,1.19,0,0,1,.83,1.14c0,8.63-1.41,13.24-2.63,15.59a.17.17,0,0,0,0,.12c.07,1.64.28,4.16.4,5.51,0,.37.05.65.06.77.06.81.09,3.12.1,3.18s.1.57.27,1.45a.22.22,0,0,0,.19.19l.83.15h2.66a.27.27,0,0,0,.18-.08.48.48,0,0,0,.12-.26,7.61,7.61,0,0,0-.43-2l0-.06-.23-.35-.2-.37c-.13-1.85-.43-6.59-.35-7.21a8.77,8.77,0,0,1,3.05-4.35,36.14,36.14,0,0,0,4.43-4.94c.56.19,2.62.83,7.49,2a28.42,28.42,0,0,0,6.6.84,16.66,16.66,0,0,0,2.45-.16c.06,1.42.35,7.68.46,8.55s-.33,6.27-.33,6.36,0,.63.2,1.79a.25.25,0,0,0,.24.21h3.73a.23.23,0,0,0,.2-.11c.14-.21.13-.64-.33-2.1l0-.11a2.43,2.43,0,0,0,0-.72h0A28.64,28.64,0,0,1,40,43.2c.21-2.27,1.38-7.6,1.56-8.42a7.92,7.92,0,0,0,2-1.77c.85-1,1.81-4.95,2.51-7.83.25-1,.45-1.86.58-2.25a24.33,24.33,0,0,1,2.14-4.85,16.94,16.94,0,0,1,3.85,2.82,1.76,1.76,0,0,0,1.28.54h0a3.13,3.13,0,0,0,2.38-1.38,1.55,1.55,0,0,0,.28-1.42,36.26,36.26,0,0,0-2.9-4.33"/></g></svg>