<svg id="Layer_1" data-name="Layer 1" xmlns="http://www.w3.org/2000/svg" viewBox="0 0 60 60"><defs><style>.cls-1{fill:#fff;}.cls-2{fill:#231f20;}</style></defs><title>Animal Icon Library</title><rect class="cls-1" x="0.75" y="0.75" width="58.5" height="58.5" rx="6.15"/><path class="cls-2" d="M53.1,1.5a5.4,5.4,0,0,1,5.4,5.4V53.1a5.4,5.4,0,0,1-5.4,5.4H6.9a5.4,5.4,0,0,1-5.4-5.4V6.9A5.4,5.4,0,0,1,6.9,1.5H53.1m0-1.5H6.9A6.9,6.9,0,0,0,0,6.9V53.1A6.9,6.9,0,0,0,6.9,60H53.1A6.9,6.9,0,0,0,60,53.1V6.9A6.9,6.9,0,0,0,53.1,0Z"/><path class="cls-2" d="M2.87,46.54c0-.6.75-1.72,3.23-1.85s10.91-.55,11.67-.83A3.25,3.25,0,0,0,20,41.73c.39-1.13,1.38-5.74,2.33-8.1a16.32,16.32,0,0,1,2.89-6.05,10.85,10.85,0,0,1,4.72-4.27c2.27-.84,5.06-.91,8.36-1a16.57,16.57,0,0,0,5.54-2c.76-.28,1.27,0,2-.31a5.6,5.6,0,0,0,2-2.39c.49-.53,1-1.4.72-1.57a5.81,5.81,0,0,1-1.7-2.17c-.15-.44-.21-.68.1-.65s1.3,1,1.81,1c0-.52,0-1.27.22-1.31a2.48,2.48,0,0,1,1.54.74c.47.53.54,1.28.58,2.58a11.36,11.36,0,0,1,2,.72c.77.5,1.56,1.52,2.34,2,.52.5,1.54.74,1.56,1.25.26.52-.22,1.31-1.49,1.6a6.43,6.43,0,0,1-2.3-.72c-.61-.15-1.36.32-2.51.05a8.53,8.53,0,0,0-.43.74c-.15.32-.57,1.38-1,2.43-.94,2.88-1.68,3.48-1.15,4.44.34.63,2.11.48,2.69.68a9.34,9.34,0,0,1,1.4.25c1.52.59,1.33,2.3-.44,2.61-.25.26,0,.51-.23.78,0,.26-.18.78-.64.8h-.49c-.31,0-.64-.5-.16-1.55-1.8-.74-4.61-1.18-5.92-2.7l-3,2.15c-.75.54-1.75,1.34-2.5,1.88a8.82,8.82,0,0,1-2.25,1.1c-.25.26-.08.3-.73,1.1a6.57,6.57,0,0,1-1.74,1.82,28.07,28.07,0,0,1-2.76,1.37,3.44,3.44,0,0,0-.22,1.3c0,.41-.23.78-.23,1,0,.52-.32.89-.22,1.31a2.15,2.15,0,0,1,0,1.1,21.47,21.47,0,0,0,2.29.2c1,0,1.77-.31,3-.34,1.26-.29,3.94.15,3.6,1.46.93,0,1.62.27,1.64,1S40,47,39.73,47H31c-2.2,0-2-1.07-2-1.33a1.2,1.2,0,0,1-1-.37c-.27-.51.05-1,.16-1.57a24,24,0,0,0-.09-3c0-.52.23-1.05,0-1.56-.52-.24-1.28-.22-1.55-.74a2.54,2.54,0,0,0-1.29-1c-.74.8-1.32,3.7-1.91,5-1,2.26-1.68,2.8-3.11,3.5C17.82,47.09,9.17,47,7.72,47c-1.64,0-4.83.1-4.85-.5m47.6-15.73c.26.26.51.25.52.51h.51v-.26A.81.81,0,0,1,51,30.8h-.51"/></svg>