<svg id="Layer_1" data-name="Layer 1" xmlns="http://www.w3.org/2000/svg" viewBox="0 0 60 60"><defs><style>.cls-1{fill:#fff;}.cls-2{fill:#231f20;}</style></defs><title>Animal Icon Library</title><rect class="cls-1" x="0.75" y="0.75" width="58.5" height="58.5" rx="6.15"/><path class="cls-2" d="M53.1,1.5a5.4,5.4,0,0,1,5.4,5.4V53.1a5.4,5.4,0,0,1-5.4,5.4H6.9a5.4,5.4,0,0,1-5.4-5.4V6.9A5.4,5.4,0,0,1,6.9,1.5H53.1m0-1.5H6.9A6.9,6.9,0,0,0,0,6.9V53.1A6.9,6.9,0,0,0,6.9,60H53.1A6.9,6.9,0,0,0,60,53.1V6.9A6.9,6.9,0,0,0,53.1,0Z"/><path class="cls-2" d="M8.81,22.83c-.32.41-1.2.34-1.85-.15s-1-1.31-.66-1.74A.8.8,0,0,1,7,20.66a2,2,0,0,1,1.18.44c.68.51,1,1.31.66,1.73M55,25.2c-.13,0-.25.08-.54.34a4.36,4.36,0,0,1-3-.19l-2.34-1.28a2.62,2.62,0,0,0,1.07-2.74,3.56,3.56,0,0,1-.09-.39c-.06-.32-.13-.63-.43-.63s-.36.14-.65.56a4.28,4.28,0,0,1-2.06,1c-.23.06-.44.13-.62.19-2.55-3.18-8.32-4.58-16.46-4-9.25.7-15.48,1.78-17.89,4.95a8,8,0,0,1-1.54.17,3.29,3.29,0,0,0-1.5-3.14,4,4,0,0,0-2.35-.86A2,2,0,0,0,5,19.93a1.86,1.86,0,0,0-.32,1.39A3.88,3.88,0,0,0,6.19,23.7a3.83,3.83,0,0,0,2.63.83,3,3,0,0,1-2,.92.68.68,0,0,0-.57.77.68.68,0,0,0,.67.58H7c2.24-.33,3-1.34,3.27-2.21h0c.28,0,.58,0,.88,0a5.77,5.77,0,0,0-.3,1.87c0,.12,0,.24,0,.36a.2.2,0,0,0,0,.07.16.16,0,0,0,0,.12l0,.14a6.61,6.61,0,0,0,.5,1.84,9.09,9.09,0,0,0,1.9,3.28,12.24,12.24,0,0,0,2.11,3.28c-.62.76-1.58,2.08-1.62,2.14a.23.23,0,0,0,0,.21l1.36,4a.22.22,0,0,0,.21.15h2.81a.22.22,0,0,0,.22-.23.2.2,0,0,0-.06-.15l-.6-1.27c0-.46-.13-1.13-.16-1.44l.08,0a10.88,10.88,0,0,0,5.11-2.72,31.78,31.78,0,0,0,13.56-.09c1.08-.08,2-.19,2.82-.33,0,.88.14,3.16.21,4.21v1.63a.22.22,0,0,0,.23.22h3a.25.25,0,0,0,.18-.08.21.21,0,0,0,0-.19l-.34-1.68c.16-.41,1-2.83,1.31-3.92a2.93,2.93,0,0,0,.09-.76,4.65,4.65,0,0,0,2.3-1.37,4,4,0,0,1,1.27-.27,3.13,3.13,0,0,0,2.79-1.94,33.09,33.09,0,0,0,3.3-1.47c.84-.27,1.28-.51,1.41-.77s.67-3.58.28-3.92c-.05-.23-.18-.28-.28-.28"/></svg>