<svg id="Layer_1" data-name="Layer 1" xmlns="http://www.w3.org/2000/svg" viewBox="0 0 60 60"><defs><style>.cls-1{fill:#fff;}.cls-2{fill:#231f20;}</style></defs><title>Animal Icon Library</title><rect class="cls-1" x="0.75" y="0.75" width="58.5" height="58.5" rx="6.15"/><path class="cls-2" d="M53.1,1.5a5.4,5.4,0,0,1,5.4,5.4V53.1a5.4,5.4,0,0,1-5.4,5.4H6.9a5.4,5.4,0,0,1-5.4-5.4V6.9A5.4,5.4,0,0,1,6.9,1.5H53.1m0-1.5H6.9A6.9,6.9,0,0,0,0,6.9V53.1A6.9,6.9,0,0,0,6.9,60H53.1A6.9,6.9,0,0,0,60,53.1V6.9A6.9,6.9,0,0,0,53.1,0Z"/><path class="cls-2" d="M15.06,42.34c.59,0,1.36.17,1.45-.6-.34-6.88,1.27-14,7.74-16.91,3.24-2.89,10.39,1,11.25-4.93-3.41-2.21-7.59-4.59-9.37-8.59a21.31,21.31,0,0,1,11.24,6.8c3-.67,5,.85,7,2.64A7.73,7.73,0,0,1,47,26c-.17,2-2.39,1.62-3.66,2.29-1.2.43-2.47-1-3.07.34a16.64,16.64,0,0,1-5.54,12.67c1.11,1.79.69,5.7,4.09,5.1.51.26.34.77.43,1.27l-4.52-.25c-1.45-1.19-1.28-4.25-3.31-4.08-1,.85-2.56,1.28-3.07,2.47,1,.42,2.21.67,2.73,1.86l-.69.6c-4-.25-8.6.51-12-.6-1.19.43-2.73,1.79-3.92.35A6.28,6.28,0,0,1,13,45.4c0-1.27.6-2.89,2.05-3.06"/></svg>