<svg id="Layer_1" data-name="Layer 1" xmlns="http://www.w3.org/2000/svg" viewBox="0 0 60 60"><defs><style>.cls-1{fill:#fff;}.cls-2{fill:#231f20;}</style></defs><title>Animal Icon Library</title><rect class="cls-1" x="0.75" y="0.75" width="58.5" height="58.5" rx="6.15"/><path class="cls-2" d="M53.1,1.5a5.4,5.4,0,0,1,5.4,5.4V53.1a5.4,5.4,0,0,1-5.4,5.4H6.9a5.4,5.4,0,0,1-5.4-5.4V6.9A5.4,5.4,0,0,1,6.9,1.5H53.1m0-1.5H6.9A6.9,6.9,0,0,0,0,6.9V53.1A6.9,6.9,0,0,0,6.9,60H53.1A6.9,6.9,0,0,0,60,53.1V6.9A6.9,6.9,0,0,0,53.1,0Z"/><path class="cls-2" d="M52.3,21.32A36.26,36.26,0,0,0,49.36,16c-.78-1.09-1.54-2-2.8-2H46.5a1.47,1.47,0,0,0-.43-.89,2.57,2.57,0,0,0-1.79-.61,3.58,3.58,0,0,0-1,.13.27.27,0,0,0-.18.31,8.44,8.44,0,0,0,1.11,1.92l-.14,0a3.17,3.17,0,0,0-4.85.93,4.1,4.1,0,0,0-4.43.32,3.64,3.64,0,0,0-2.31-.83,3.68,3.68,0,0,0-2.7,1.2,2.68,2.68,0,0,0-2.64.26,4.09,4.09,0,0,0-4.92.83,3.82,3.82,0,0,0-2.19-.69,3.86,3.86,0,0,0-2.88,1.3,4.4,4.4,0,0,0-2.47-.77,4.47,4.47,0,0,0-4.08,2.64,3.13,3.13,0,0,0-2.74,3.09,3.18,3.18,0,0,0,.44,1.6A5,5,0,0,0,10,31.88a3.53,3.53,0,0,0,1,3.06V35a5.44,5.44,0,0,0,1.12,2.24,1.35,1.35,0,0,0-.15.67,8.37,8.37,0,0,1-.52,2.23l0,0s0,.06,0,.24h0s0,0,0,.06c.07.53.37,2.07,1.31,6.86a.27.27,0,0,0,.26.21h2.15a.25.25,0,0,0,.27-.26.23.23,0,0,0,0-.14,14.91,14.91,0,0,0-.51-1.9,30.45,30.45,0,0,1-.81-4.69,6.63,6.63,0,0,1,1-1.94l.42-.29.26-.17a3,3,0,0,0,3.89-.66,3.57,3.57,0,0,0,3.73.4,2.52,2.52,0,0,0,1.74.69,2.56,2.56,0,0,0,2.26-1.34,4.09,4.09,0,0,0,3.14.27,3.1,3.1,0,0,0,1.5.7L32.48,45l-.14,2.26a.22.22,0,0,0,.07.19.25.25,0,0,0,.19.09h2.69a.26.26,0,0,0,.26-.26.24.24,0,0,0,0-.12l-.4-2.1.74-10,.19,0a3.9,3.9,0,0,0,3.89-3.9v0A5,5,0,0,0,44,26.32a2.17,2.17,0,0,0,0-.26,3.67,3.67,0,0,0,1.89-3.12l.51-.5c.39.22,1.45.8,2.73,1.57a2.28,2.28,0,0,0,1.16.37,2.23,2.23,0,0,0,1.69-1l.23-.26c.52-.42.32-1,.14-1.62Z"/></svg>