<svg id="Layer_1" data-name="Layer 1" xmlns="http://www.w3.org/2000/svg" xmlns:xlink="http://www.w3.org/1999/xlink" viewBox="0 0 25 25"><defs><style>.cls-1,.cls-4{fill:none;}.cls-2{clip-path:url(#clip-path);}.cls-3{fill:#231f20;}.cls-4{stroke:#231f20;stroke-width:0.13px;}</style><clipPath id="clip-path"><rect class="cls-1" width="25" height="25"/></clipPath></defs><title>AM WEBSITE ICONS</title><g class="cls-2"><g class="cls-2"><path class="cls-3" d="M13.76,17.37a1.47,1.47,0,0,1-.64.26c.41.39,0,.47-.52.14l-.11-.06a1.09,1.09,0,0,1,.23,1.3l0-.05a22.77,22.77,0,0,0-.7,3.62,2.39,2.39,0,0,0,.83-.32.47.47,0,0,1,.12-.2s.1.16.19,0a.33.33,0,0,1-.29.43,4.52,4.52,0,0,0-.9.46c-.18.58-.65,1.47-.73,1.74s-.27.21-.27.21,0-.35-.13-.2c0-.07,0-.11.18-.31a3.14,3.14,0,0,0,.42-1.11,4.11,4.11,0,0,0-.48.39c-.14.12-1.07.58-1.16.79s-.19.31-.27.31-.22-.09-.19-.16.19-.24.09-.28c.27-.18.8-.49,1-.67a6.32,6.32,0,0,0,.5-.43,2.15,2.15,0,0,0-1,.07c-.23.13-.39.09-.34-.06,0,0,.3-.09.18-.22a3.78,3.78,0,0,0,1.51-.2.73.73,0,0,0,.39-.52c.08-.39.75-3.42.71-3.56l0,0c0-.12-.11-.77-.34-.92a3.12,3.12,0,0,0-1-.4,1.27,1.27,0,0,1-.42-.11c.26.41.11.51-.09.69A12,12,0,0,0,8.9,20.7c0,.35.39.35.51.35A2.65,2.65,0,0,0,10,21a.14.14,0,0,0,0,.19c0,.25-.28.24-.43.16a2,2,0,0,0-.81-.23.78.78,0,0,0-.72.37,2,2,0,0,0-.45.69c-.08.2-.29.3-.37.2s0-.26-.17-.26c.14-.16.48-.39.58-.63s-.08-.11-.25-.05a1.69,1.69,0,0,0-.65.32c-.24.21-.41.44-.56.21a.18.18,0,0,0-.12-.09c.13-.05.06-.21.06-.21A5.42,5.42,0,0,1,7,21.38a3.55,3.55,0,0,0-.8-.11c-.18.05-.25,0-.23-.15.15,0,.18-.08.16-.16a2.42,2.42,0,0,0,1.33.13,2.18,2.18,0,0,0,1.31-1.16C9.2,19.32,10,18.3,10.08,18s.21-.49-.12-.67-4.14-1.8-4.75-4.92a4.71,4.71,0,0,1,.08-2.3A.77.77,0,0,0,5,9.24C4.88,9.06,4.1,8,3.92,7.82l-.22-.2c-.35-.11-1.36-.44-1.62-.51S2,7,2.28,7s1.11,0,1.42,0c1.14-1.08,3.15-1.88,4.8-.06.94,1,.72,1.72,2.6,3.46s3,2.27,4.35,2a24.42,24.42,0,0,0,4.6-1.77c.56-.32,1.18-.51,1.35-.32a.61.61,0,0,1,.8,0c.51-.21.62-.09.51.12.36,0,.28.12.16.26.32.1.14.36-.08.55.17.15.1.34-.1.45.13.17,0,.17-.22.36s-1,.67-3.91,1.56a11,11,0,0,1-1.23,1c.25,0,1-.27.45.1s-1.71,1.22-2.4,1.57c.08.15-.05.19-.05.19.45.39.27.45.19.53.63.2.21.48.21.48.4.18.32.3.18.42.44.08.14.33.14.33.34.23.1.56-.45.38a9,9,0,0,1-1.87-1.12Z"/><path class="cls-4" d="M13.76,17.37a1.47,1.47,0,0,1-.64.26c.41.39,0,.47-.52.14l-.11-.06a1.09,1.09,0,0,1,.23,1.3l0-.05a22.77,22.77,0,0,0-.7,3.62,2.39,2.39,0,0,0,.83-.32.47.47,0,0,1,.12-.2s.1.16.19,0a.33.33,0,0,1-.29.43,4.52,4.52,0,0,0-.9.46c-.18.58-.65,1.47-.73,1.74s-.27.21-.27.21,0-.35-.13-.2c0-.07,0-.11.18-.31a3.14,3.14,0,0,0,.42-1.11,4.11,4.11,0,0,0-.48.39c-.14.12-1.07.58-1.16.79s-.19.31-.27.31-.22-.09-.19-.16.19-.24.09-.28c.27-.18.8-.49,1-.67a6.32,6.32,0,0,0,.5-.43,2.15,2.15,0,0,0-1,.07c-.23.13-.39.09-.34-.06,0,0,.3-.09.18-.22a3.78,3.78,0,0,0,1.51-.2.73.73,0,0,0,.39-.52c.08-.39.75-3.42.71-3.56l0,0c0-.12-.11-.77-.34-.92a3.12,3.12,0,0,0-1-.4,1.27,1.27,0,0,1-.42-.11c.26.41.11.51-.09.69A12,12,0,0,0,8.9,20.7c0,.35.39.35.51.35A2.65,2.65,0,0,0,10,21a.14.14,0,0,0,0,.19c0,.25-.28.24-.43.16a2,2,0,0,0-.81-.23.78.78,0,0,0-.72.37,2,2,0,0,0-.45.69c-.08.2-.29.3-.37.2s0-.26-.17-.26c.14-.16.48-.39.58-.63s-.08-.11-.25-.05a1.69,1.69,0,0,0-.65.32c-.24.21-.41.44-.56.21a.18.18,0,0,0-.12-.09c.13-.05.06-.21.06-.21A5.42,5.42,0,0,1,7,21.38a3.55,3.55,0,0,0-.8-.11c-.18.05-.25,0-.23-.15.15,0,.18-.08.16-.16a2.42,2.42,0,0,0,1.33.13,2.18,2.18,0,0,0,1.31-1.16C9.2,19.32,10,18.3,10.08,18s.21-.49-.12-.67-4.14-1.8-4.75-4.92a4.71,4.71,0,0,1,.08-2.3A.77.77,0,0,0,5,9.24C4.88,9.06,4.1,8,3.92,7.82l-.22-.2c-.35-.11-1.36-.44-1.62-.51S2,7,2.28,7s1.11,0,1.42,0c1.14-1.08,3.15-1.88,4.8-.06.94,1,.72,1.72,2.6,3.46s3,2.27,4.35,2a24.42,24.42,0,0,0,4.6-1.77c.56-.32,1.18-.51,1.35-.32a.61.61,0,0,1,.8,0c.51-.21.62-.09.51.12.36,0,.28.12.16.26.32.1.14.36-.08.55.17.15.1.34-.1.45.13.17,0,.17-.22.36s-1,.67-3.91,1.56a11,11,0,0,1-1.23,1c.25,0,1-.27.45.1s-1.71,1.22-2.4,1.57c.08.15-.05.19-.05.19.45.39.27.45.19.53.63.2.21.48.21.48.4.18.32.3.18.42.44.08.14.33.14.33.34.23.1.56-.45.38a9,9,0,0,1-1.87-1.12Z"/></g></g></svg>