<svg id="Layer_1" data-name="Layer 1" xmlns="http://www.w3.org/2000/svg" xmlns:xlink="http://www.w3.org/1999/xlink" viewBox="0 0 25 25"><defs><style>.cls-1{fill:none;}.cls-2{clip-path:url(#clip-path);}.cls-3{fill:#231f20;}</style><clipPath id="clip-path"><rect class="cls-1" width="25" height="25"/></clipPath></defs><title>AM WEBSITE ICONS</title><g class="cls-2"><g class="cls-2"><path class="cls-3" d="M0,13.9S1.79,11.85,2.76,11a2.3,2.3,0,0,1-.71-.63l-.11-.13c-.26-.31-.55-.7-.48-.86a.13.13,0,0,1,.13-.07s.17,0,.82.56a3,3,0,0,0,1.16.67c.23,0,.65,0,1.27,0a5.82,5.82,0,0,1,2.73-1,11.2,11.2,0,0,1,3.19,1l1.87,0c3.06,0,6.22.08,8.26.08,1.1,0,1.78,0,2.07,0a1.67,1.67,0,0,1,1.4.4,3.16,3.16,0,0,1,.39,2.28c-.07.83-.18,1.62-.27,2.32a13.54,13.54,0,0,0-.2,2A8.74,8.74,0,0,0,25,20.06s0,0,0,.06a22.62,22.62,0,0,0-.27,3.55.06.06,0,0,1,0,.06,4.33,4.33,0,0,1-.57,1.18.1.1,0,0,1-.08.05H22.89c-.07,0-.11-.05-.11-.11a.09.09,0,0,1,0-.07l.67-1.3a6.36,6.36,0,0,0-.06-2v0a12,12,0,0,0-.7-1.5h0a6.64,6.64,0,0,0-.46-.73h0a1.71,1.71,0,0,1-.16-.44,27.23,27.23,0,0,1-3.29,1.37,17.42,17.42,0,0,1-3.67-.45l-.24.16a7,7,0,0,1-3.11,1.33h-.24c-.06,1.48-.1,2.82-.1,2.82a.14.14,0,0,1,0,.06l-.66.87a.1.1,0,0,1-.08.05H9.47a.11.11,0,0,1-.11-.11.12.12,0,0,1,0-.08,5.54,5.54,0,0,0,.65-1.18,25.92,25.92,0,0,0-.61-2.83,5.31,5.31,0,0,1-2.72-1.13,7.55,7.55,0,0,1-.83-1.69c-.43-1.05-.92-2.25-1.51-2.58A4.61,4.61,0,0,0,2.5,15a7.33,7.33,0,0,0-1.31.12.08.08,0,0,1-.09,0L0,14a.1.1,0,0,1,0-.14"/></g></g></svg>