<svg id="Layer_1" data-name="Layer 1" xmlns="http://www.w3.org/2000/svg" xmlns:xlink="http://www.w3.org/1999/xlink" viewBox="0 0 25 25"><defs><style>.cls-1{fill:none;}.cls-2{clip-path:url(#clip-path);}.cls-3{fill:#231f20;}</style><clipPath id="clip-path"><rect class="cls-1" width="25" height="25"/></clipPath></defs><title>AM WEBSITE ICONS</title><g class="cls-2"><polygon class="cls-3" points="20.75 6.22 20.72 6.26 20.48 6.26 20.44 6.3 20.21 6.3 20.17 6.34 19.97 6.34 19.93 6.38 19.78 6.38 19.74 6.42 19.64 6.44 19.5 6.5 19.45 6.52 19.13 6.64 18.92 6.73 18.86 6.75 18.49 6.93 18.43 6.95 17.76 7.38 17.62 7.48 17.59 7.51 17.53 7.53 17.27 7.79 17.21 7.81 16.82 8.2 16.8 8.26 16.59 8.47 16.57 8.53 16.43 8.67 16.41 8.73 16.32 8.82 16.3 8.88 16.2 8.98 16.18 9.04 16.04 9.18 16.02 9.23 15.96 9.29 15.94 9.35 15.71 9.78 15.32 10.49 15.2 10.68 15.14 10.82 15.12 10.88 15.02 11.1 15.01 11.15 14.87 11.45 14.85 11.51 14.77 11.58 14.65 11.58 14.61 11.63 14.46 11.63 14.42 11.66 14.26 11.66 14.22 11.7 14.11 11.7 14.07 11.74 13.91 11.74 13.87 11.78 13.71 11.78 13.67 11.82 13.52 11.82 13.48 11.86 13.32 11.86 13.28 11.9 13.13 11.9 13.09 11.94 12.97 11.94 12.93 11.98 12.83 11.99 12.73 12.01 12.68 12.03 12.58 12.05 12.52 12.07 12.07 12.21 12.01 12.23 11.68 12.33 11.62 12.35 11.19 12.5 10.99 12.58 10.8 12.66 10.6 12.74 10.29 12.85 9.97 12.97 9.92 13.03 9.86 13.05 9.66 13.17 8.78 13.62 8.74 13.66 8.69 13.68 8.08 13.97 8.02 13.99 7.8 14.09 7.75 14.11 7.53 14.2 7.47 14.22 7.28 14.3 6.83 14.44 6.77 14.46 6.67 14.48 6.61 14.5 6.51 14.52 6.42 14.54 6.32 14.55 6.13 14.55 6.08 14.59 5.85 14.59 5.75 14.57 5.81 14.55 5.83 14.46 5.77 14.44 5.67 14.42 5.75 14.38 5.73 14.36 5.71 14.3 5.63 14.26 5.61 14.24 5.6 14.26 5.53 14.28 5.52 14.22 5.58 14.2 5.6 14.15 5.48 14.11 5.48 13.99 5.53 13.97 5.55 13.87 5.48 13.83 5.48 13.64 5.52 13.6 5.48 13.56 5.48 13.44 5.52 13.4 5.52 13.25 5.55 13.21 5.52 13.17 5.52 13.01 5.55 12.97 5.52 12.93 5.52 12.81 5.5 12.71 5.42 12.52 5.4 12.46 5.34 12.4 5.32 12.35 5.26 12.33 5.24 12.27 5.12 12.15 5.03 12.13 4.93 12.11 4.91 12.09 4.87 12.13 4.81 12.15 4.67 12.21 4.62 12.27 4.59 12.33 4.46 12.46 4.44 12.52 4.34 12.62 4.32 12.68 4.25 12.87 4.11 13.17 4.09 13.23 4.03 13.36 4.03 13.44 3.97 13.46 3.87 13.44 3.85 13.42 3.81 13.46 3.66 13.46 3.56 13.44 3.54 13.42 3.5 13.46 3.38 13.46 3.35 13.5 3.19 13.5 3.15 13.54 3.03 13.58 2.91 13.58 2.85 13.52 2.79 13.5 2.66 13.36 2.6 13.34 2.21 12.95 2.19 12.89 2.02 12.71 2 12.66 1.82 12.48 1.8 12.43 1.76 12.38 1.7 12.37 1.68 12.31 1.62 12.25 1.49 12.19 1.47 12.17 1.41 12.23 1.39 12.33 1.37 12.35 1.41 12.38 1.39 12.45 1.37 12.46 1.41 12.5 1.41 12.62 1.37 12.66 1.41 12.7 1.41 13.05 1.45 13.09 1.45 13.28 1.49 13.32 1.49 13.52 1.52 13.56 1.52 13.75 1.56 13.79 1.56 14.03 1.6 14.07 1.6 14.46 1.64 14.5 1.64 14.65 1.56 14.69 1.64 14.73 1.64 14.89 1.58 14.94 1.47 14.91 1.27 14.87 1.25 14.89 1.39 14.94 1.49 14.96 1.52 15.01 1.51 15.07 1.49 15.08 1.52 15.12 1.52 15.44 1.51 15.46 1.41 15.44 1.45 15.4 1.35 15.38 1.31 15.53 1.39 15.73 1.41 15.79 1.33 15.83 1.31 15.89 1.25 15.98 1.37 16.06 1.37 16.18 1.25 16.22 1.27 16.28 1.33 16.45 1.29 16.49 1.27 16.59 1.21 16.69 1.33 16.73 1.31 16.79 1.21 16.81 1.21 17 1.25 17.04 1.27 17.1 1.29 17.2 1.19 17.22 1.09 17.23 1.19 17.25 1.25 17.27 1.29 17.32 1.27 17.41 1.23 17.49 1.11 17.49 1.08 17.53 0.88 17.53 0.84 17.57 0.72 17.57 0.68 17.61 0.49 17.61 0.45 17.65 0.22 17.65 0.18 17.68 0.06 17.68 0 17.75 0.02 17.77 0.06 17.72 0.22 17.72 0.26 17.68 0.41 17.68 0.51 17.67 0.6 17.65 0.7 17.67 0.27 17.94 0.15 18.06 0.18 18.08 0.23 18.02 0.67 17.75 0.86 17.67 1.06 17.59 1.15 17.57 1.25 17.59 1.27 17.65 1.31 17.61 1.37 17.63 1.29 17.7 1.27 17.77 1.06 17.98 1.04 18.04 0.98 18.09 0.96 18.15 0.9 18.21 0.88 18.27 0.74 18.52 0.8 18.55 0.96 18.23 0.98 18.17 1.04 18.12 1.06 18.06 1.11 18 1.13 17.94 1.31 17.77 1.33 17.78 1.39 17.84 1.49 17.86 1.51 17.92 1.62 18.04 1.68 18.06 1.7 18.15 1.78 18.08 1.8 18.09 1.84 18.13 1.86 18.23 1.88 18.33 1.9 18.39 1.92 18.49 1.88 18.52 1.92 18.57 1.94 18.62 1.98 18.55 2 18.57 1.98 18.66 1.96 18.72 2 18.76 2.02 18.82 2.11 18.84 2.13 18.9 2.23 18.92 2.19 18.95 2.23 19 2.25 19.09 2.29 19.17 2.38 19.15 2.38 19 2.43 18.95 2.48 18.94 2.52 18.9 2.58 18.92 2.58 19.04 2.64 19.06 2.68 18.97 2.7 18.92 2.74 18.88 2.79 18.86 2.89 18.88 3.01 18.92 3.03 18.97 3.09 18.95 3.15 18.86 3.17 18.88 3.19 18.94 3.27 18.82 3.36 18.84 3.44 18.88 3.42 18.97 3.4 19 3.48 19.04 3.48 19.23 3.5 19.25 3.54 19.21 3.64 19.23 3.68 19.27 3.7 19.37 3.79 19.39 3.81 19.44 3.85 19.52 3.91 19.54 3.91 19.7 3.95 19.74 3.97 19.8 3.99 19.86 3.95 19.89 3.99 19.93 4 19.96 4.01 19.99 4.09 20.07 4.28 20.07 4.4 20.27 4.46 20.29 4.48 20.3 4.52 20.23 4.54 20.25 4.55 20.3 4.62 20.33 4.77 20.41 4.79 20.5 4.83 20.54 4.89 20.56 4.91 20.58 4.93 20.52 4.95 20.42 5 20.44 5.09 20.52 5.11 20.58 5.16 20.6 5.22 20.66 5.34 20.62 5.38 20.58 5.4 20.6 5.42 20.66 5.5 20.62 5.6 20.64 5.63 20.68 5.63 20.87 5.67 20.91 5.67 21.19 5.71 21.23 5.71 21.38 5.75 21.42 5.75 21.58 5.79 21.62 5.79 21.77 5.83 21.81 5.83 21.97 5.87 22.01 5.87 22.36 5.91 22.4 5.91 22.71 5.95 22.75 5.95 23.26 5.83 23.38 5.81 23.44 5.75 23.49 5.73 23.59 5.67 23.73 5.67 23.92 5.61 23.94 5.52 23.92 5.42 23.91 5.32 23.89 5.3 23.86 5.26 23.91 5.14 23.91 5.11 23.94 4.99 23.94 4.95 24.02 4.89 24.04 4.74 24.2 4.71 24.3 4.66 24.39 4.7 24.43 4.71 24.53 4.74 24.63 4.75 24.69 4.83 24.76 4.89 24.78 4.95 24.84 5.07 24.84 5.11 24.88 5.14 24.84 5.24 24.86 5.44 24.9 5.53 24.92 5.63 24.94 5.65 24.96 5.69 24.92 5.81 24.92 5.91 24.94 5.93 24.96 5.97 24.92 6.13 24.92 6.34 24.86 6.4 24.84 6.49 24.82 6.59 24.8 6.63 24.76 6.75 24.76 6.84 24.67 6.91 24.65 6.95 24.61 7.1 24.34 7.14 24.14 7.16 24.08 7.18 23.98 7.2 23.92 7.22 23.83 7.24 23.77 7.25 23.67 7.28 23.57 7.31 23.53 7.31 23.3 7.36 23.26 7.36 23.06 7.39 23.02 7.39 22.79 7.43 22.75 7.43 22.64 7.47 22.44 7.49 22.34 7.51 22.28 7.53 22.18 7.55 22.13 7.57 22.03 7.59 21.97 7.61 21.87 7.63 21.81 7.65 21.72 7.67 21.62 7.73 21.48 7.8 21.28 7.86 21.3 7.84 21.4 7.82 21.42 7.92 21.44 8.04 21.4 8.14 21.42 8.16 21.48 8.2 21.52 8.25 21.54 8.24 21.64 8.18 21.73 8.31 21.8 8.37 21.81 8.33 21.85 8.37 21.89 8.37 22.05 8.45 22.09 8.47 22.18 8.53 22.4 8.55 22.46 8.58 22.61 8.53 22.64 8.55 22.73 8.58 22.77 8.74 22.77 8.77 22.87 8.72 22.91 8.7 22.97 8.69 22.99 8.72 23.02 8.72 23.14 8.74 23.16 8.82 23.12 8.86 23.08 8.88 23.1 8.92 23.14 8.88 23.18 8.86 23.24 8.78 23.32 8.72 23.34 8.74 23.44 8.84 23.45 8.86 23.48 8.94 23.44 8.98 23.4 9 23.42 8.98 23.48 8.96 23.49 9 23.53 9 23.73 8.92 23.77 8.94 23.86 9 23.92 8.98 23.98 8.92 24 8.82 24.1 8.77 24.12 8.7 24.18 8.65 24.2 8.55 24.3 8.49 24.31 8.45 24.35 8.43 24.45 8.35 24.65 8.33 24.67 8.37 24.71 8.39 24.76 8.45 24.82 8.47 24.88 8.7 24.88 8.74 24.92 8.8 24.94 8.9 25 8.94 24.96 9 24.98 9.02 25 9.1 24.96 9.19 24.94 9.29 24.92 9.39 24.94 9.6 25 10.12 25 10.13 24.94 10.19 24.92 10.31 24.8 10.33 24.75 10.39 24.69 10.41 24.63 10.45 24.59 10.45 24.39 10.48 24.35 10.45 24.31 10.45 24.12 10.48 24.08 10.45 24.04 10.45 23.81 10.46 23.71 10.48 23.61 10.53 23.57 10.53 23.26 10.56 23.22 10.53 23.18 10.53 22.79 10.56 22.75 10.56 22.28 10.6 22.24 10.6 21.73 10.64 21.7 10.6 21.66 10.6 21.23 10.64 21.19 10.64 20.8 10.68 20.76 10.68 20.6 10.72 20.56 10.72 20.44 10.82 20.23 10.84 20.17 11.04 19.96 11.11 19.89 11.17 19.88 11.25 19.8 11.74 19.54 11.79 19.52 11.93 19.46 11.99 19.44 12.09 19.43 12.19 19.41 12.4 19.31 12.5 19.29 12.54 19.25 12.65 19.25 12.75 19.27 12.79 19.31 12.81 19.37 12.87 19.5 12.89 19.56 12.97 19.76 13.06 19.96 13.07 19.97 13.09 20.03 13.11 20.13 13.13 20.19 13.22 20.41 13.24 20.46 13.46 20.87 13.5 20.91 13.52 20.97 13.63 21.17 13.7 21.23 13.71 21.28 13.81 21.38 13.83 21.44 13.89 21.5 13.91 21.56 13.97 21.7 13.99 21.75 14.01 21.85 14.01 21.97 13.97 22.01 13.97 22.2 13.93 22.24 13.91 22.34 13.75 22.61 13.42 23.1 13.36 23.16 13.3 23.18 13.21 23.24 13.05 23.24 12.95 23.22 12.93 23.2 12.91 23.22 12.85 23.24 12.75 23.22 12.73 23.2 12.69 23.24 12.6 23.26 12.46 23.32 12.16 23.89 12.21 23.92 12.25 24.12 12.27 24.18 12.31 24.22 12.4 24.24 12.58 24.34 12.62 24.3 12.77 24.3 12.87 24.31 12.97 24.34 13.09 24.34 13.13 24.38 13.24 24.38 13.28 24.41 13.32 24.38 13.48 24.38 13.58 24.39 13.6 24.41 13.67 24.38 13.77 24.35 13.87 24.34 13.91 24.3 14.03 24.3 14.08 24.24 14.14 24.22 14.16 24.16 14.22 24.14 14.42 23.94 14.44 23.89 14.58 23.75 14.6 23.69 14.65 23.63 14.67 23.57 14.73 23.51 14.75 23.45 14.85 23.36 14.87 23.3 15.01 23.16 15.02 23.1 15.06 23.06 15.28 22.73 15.3 22.67 15.36 22.61 15.38 22.55 15.55 22.26 15.57 22.2 15.63 22.15 15.71 21.95 15.82 21.64 15.85 21.58 15.88 21.54 15.88 21.42 15.92 21.38 15.92 21.27 15.98 21.21 16.04 21.27 16.06 21.32 16.08 21.42 16.1 21.48 16.12 21.58 16.14 21.64 16.16 21.73 16.16 21.97 16.12 22.01 16.12 22.16 16.08 22.2 16.08 22.36 16.04 22.4 16.04 22.55 16 22.6 16 22.71 15.96 22.75 15.96 22.87 15.92 22.91 15.92 23.02 15.88 23.06 15.86 23.16 15.71 23.44 15.65 23.45 15.18 23.61 15.16 23.67 15.1 23.69 14.95 23.85 14.95 24 14.91 24.04 14.91 24.16 14.87 24.2 14.95 24.24 14.97 24.3 15.02 24.31 15.12 24.38 15.24 24.34 15.34 24.35 15.51 24.45 15.55 24.41 15.65 24.43 15.67 24.45 15.73 24.39 15.79 24.38 15.88 24.39 16.02 24.45 16.08 24.47 16.24 24.51 16.26 24.49 16.37 24.49 16.47 24.51 16.49 24.53 16.63 24.47 16.73 24.45 16.76 24.41 16.79 24.35 17.12 23.67 17.14 23.61 17.2 23.55 17.39 23 17.41 22.95 17.47 22.81 17.55 22.61 17.57 22.55 17.61 22.52 17.61 22.36 17.65 22.32 17.65 22.16 17.69 22.13 17.69 21.97 17.72 21.93 17.72 21.62 17.76 21.58 17.76 21.3 17.8 21.27 17.76 21.23 17.76 20.33 17.8 20.29 17.76 20.25 17.76 19.97 17.72 19.93 17.72 19.66 17.69 19.62 17.69 19.31 17.65 19.27 17.65 18.37 17.69 18.33 17.69 17.67 17.72 17.63 17.72 17.27 17.76 17.23 17.76 16.84 17.8 16.81 17.76 16.77 17.76 16.49 17.8 16.45 17.8 16.02 17.84 15.98 17.8 15.94 17.8 15.04 17.84 15.01 17.8 14.96 17.8 14.73 17.76 14.69 17.76 14.54 17.74 14.44 17.72 14.38 17.7 14.28 17.69 14.22 17.66 14.12 17.65 14.03 17.59 13.81 17.47 13.5 17.45 13.44 17.31 13.15 17.24 12.95 17.21 12.89 17.18 12.85 17.18 12.38 17.14 12.35 17.14 11.53 17.18 11.49 17.18 11.13 17.35 10.57 17.43 10.37 17.45 10.31 17.66 9.86 17.78 9.67 17.8 9.61 17.86 9.55 17.88 9.49 17.98 9.39 18 9.33 18.1 9.23 18.11 9.18 18.21 9.08 18.23 9.02 18.51 8.75 18.57 8.73 18.86 8.43 18.92 8.41 19.01 8.31 19.07 8.3 19.21 8.16 19.27 8.14 19.33 8.08 19.52 7.96 19.72 7.85 19.99 7.69 20.05 7.67 20.5 7.46 20.81 7.34 20.87 7.32 21.09 7.26 21.19 7.24 21.23 7.2 21.34 7.2 21.38 7.16 21.77 7.16 21.81 7.13 22.55 7.13 22.66 7.14 22.75 7.16 22.87 7.16 22.91 7.2 23.1 7.2 23.14 7.24 23.24 7.26 23.45 7.36 23.55 7.38 23.77 7.44 23.83 7.46 23.93 7.48 23.98 7.5 24.08 7.51 24.14 7.53 24.24 7.55 24.3 7.58 24.32 7.59 24.36 7.55 24.71 7.55 24.81 7.58 24.82 7.59 24.9 7.55 25 7.53 25 7.34 24.96 7.3 24.9 7.28 24.73 7.1 24.67 7.08 24.53 6.95 24.47 6.93 24.4 6.85 23.75 6.52 23.69 6.5 23.65 6.46 23.53 6.46 23.5 6.42 23.38 6.42 23.34 6.38 23.22 6.38 23.18 6.34 23.07 6.34 23.03 6.3 22.91 6.3 22.87 6.26 22.63 6.26 22.54 6.25 22.44 6.22 20.75 6.22"/></g></svg>