<svg id="Layer_1" data-name="Layer 1" xmlns="http://www.w3.org/2000/svg" xmlns:xlink="http://www.w3.org/1999/xlink" viewBox="0 0 25 25"><defs><style>.cls-1{fill:none;}.cls-2{clip-path:url(#clip-path);}.cls-3{fill:#231f20;}</style><clipPath id="clip-path"><rect class="cls-1" width="25" height="25"/></clipPath></defs><title>AM WEBSITE ICONS</title><g class="cls-2"><g class="cls-2"><path class="cls-3" d="M3.18,10.9,3,10.53l0,0c0-.17-.13-.57,0-.72s.17-.1.3,0a6.12,6.12,0,0,0,1.43.78s0,0,0,0,1.54.55,11.56.55c3.16,0,6,0,7.13-.06h0a1.37,1.37,0,0,1,1,.35c.38.4.33,1.08.28,1.87v.08c-.07.82-.18,1.61-.27,2.3a13.43,13.43,0,0,0-.2,2,8.75,8.75,0,0,0,.71,2.4.07.07,0,0,1,0,.05,21.46,21.46,0,0,0-.27,3.55,0,0,0,0,1,0,.05A4.33,4.33,0,0,1,24.16,25a.1.1,0,0,1-.08.05H22.9a.1.1,0,0,1-.11-.11.11.11,0,0,1,0-.07l.66-1.3a6.25,6.25,0,0,0-.05-2l0,0a9.82,9.82,0,0,0-1.1-2.12,1.88,1.88,0,0,1-.54.49,1,1,0,0,1,0,.79.28.28,0,0,1-.24.12c-.2,0-.34-.28-.49-.63A1.12,1.12,0,0,1,21,20h-.15l-.63,0c-.05.2-.19.68-.51.68a.31.31,0,0,1-.18,0c-.42-.22-.23-.63-.15-.8a.16.16,0,0,1,0-.06c0-.08-.21-.34-.35-.56s-.4-.6-.54-.85l-.24.15-.08,0c-.47.29-1.9,1.18-6.48,1.18h0c-.12,1.95-.21,4.23-.22,4.25s0,.05,0,.06l-.65.88a.13.13,0,0,1-.09,0H9.52a.11.11,0,0,1-.11-.11.12.12,0,0,1,0-.08,5.1,5.1,0,0,0,.65-1.18c0-.15-.31-2.13-.53-3.4-1.79-.06-3.05-2.17-4.06-3.87S1.28,15.2,1.27,15.21a.19.19,0,0,1-.1,0l-1-1.06a.09.09,0,0,1,0-.15Z"/></g></g></svg>