<svg id="Layer_1" data-name="Layer 1" xmlns="http://www.w3.org/2000/svg" xmlns:xlink="http://www.w3.org/1999/xlink" viewBox="0 0 25 25"><defs><style>.cls-1{fill:none;}.cls-2{clip-path:url(#clip-path);}.cls-3{fill:#231f20;}</style><clipPath id="clip-path"><rect class="cls-1" width="25" height="25"/></clipPath></defs><title>AM WEBSITE ICONS</title><g class="cls-2"><g class="cls-2"><path class="cls-3" d="M1.32,5.86a.26.26,0,0,1,.35.07A2.15,2.15,0,0,0,3,6.91,3.47,3.47,0,0,0,3.83,7h.32a1.62,1.62,0,0,0,0-.22,2.29,2.29,0,0,0-.07-.36,2.07,2.07,0,0,0-.32-.65.24.24,0,0,1,0-.32.26.26,0,0,1,.35,0,2.49,2.49,0,0,1,.48.77,2.15,2.15,0,0,1,.14.45,1.45,1.45,0,0,1,0,.28h.35A2.93,2.93,0,0,1,5.83,7l.08,0a7.53,7.53,0,0,0-.86-1.46.24.24,0,0,1,0-.33.25.25,0,0,1,.35,0A7.35,7.35,0,0,1,6.6,7a4,4,0,0,1,.34,1,2.86,2.86,0,0,1,0,.58,1.71,1.71,0,0,1-.14.55l.15,0H7a1.56,1.56,0,0,1,.51-.08,2.18,2.18,0,0,1,.6.09.14.14,0,0,1,.07.08.1.1,0,0,1,0,.1l-.07.07a1.22,1.22,0,0,1-.94.54l.18.34c.33.62.67,1.27,1.16,1.43a2.94,2.94,0,0,0,.78.06c.68,0,1.69,0,2.87-.1,1.9-.09,4.33-.2,6.41-.16,3.23.06,3.86,1.32,4.29,2.16a2.07,2.07,0,0,0,.36.58c.46.43.48.7.43.85a.27.27,0,0,1-.23.17h-.06a2.43,2.43,0,0,1-.6-.37,3.38,3.38,0,0,1-.61,1.46l1.58,3.21c.15.29,0,4.44,0,5.27a.1.1,0,0,1-.1.1h-.92c-.37,0-.37,0-.4,0a.1.1,0,0,1,0-.09c.05-.18.24-.78.28-.89l0-3.19-3.08-2.92a34.52,34.52,0,0,1-5.44.57A6.38,6.38,0,0,1,11.55,18c.31,2.12.56,5.23.56,5.27l.1,1.56a.11.11,0,0,1,0,.07.13.13,0,0,1-.07,0h-1a.11.11,0,0,1-.11-.09L9.93,19a7.65,7.65,0,0,0-.65-.73A19.55,19.55,0,0,1,6.33,15c-.16-.36-.35-.94-.54-1.51a8.88,8.88,0,0,0-.66-1.71,6.26,6.26,0,0,0-1-.12,3,3,0,0,1-1-.16,2.05,2.05,0,0,1-.48-.84c0-.13.09-.2,1.43-.71a7.88,7.88,0,0,0,1.12-.47A2.22,2.22,0,0,1,6,9.16L6,9a.32.32,0,0,1,0-.14,1.85,1.85,0,0,0,0-.75.46.46,0,0,0-.38-.35,3.28,3.28,0,0,0-.72-.06H4.29A5.15,5.15,0,0,1,2.8,7.56,2.58,2.58,0,0,1,1.23,6.18a.24.24,0,0,1,.09-.32"/></g></g></svg>