<svg id="Layer_1" data-name="Layer 1" xmlns="http://www.w3.org/2000/svg" xmlns:xlink="http://www.w3.org/1999/xlink" viewBox="0 0 25 25"><defs><style>.cls-1{fill:none;}.cls-2{clip-path:url(#clip-path);}.cls-3{fill:#231f20;}</style><clipPath id="clip-path"><rect class="cls-1" width="25" height="25"/></clipPath></defs><title>AM WEBSITE ICONS</title><g class="cls-2"><polygon class="cls-3" points="4.89 10.92 4.84 10.93 4.81 10.96 4.76 10.97 4.76 11.01 4.52 11.25 4.52 11.33 4.48 11.37 4.48 11.46 4.44 11.49 4.44 11.53 4.4 11.57 4.4 11.61 4.36 11.65 4.36 11.69 4.29 11.77 4.24 11.77 4.17 11.84 4.12 11.85 4.05 11.92 4 11.94 3.97 11.96 3.89 11.96 3.85 12 3.77 12 3.73 12.04 3.65 12.04 3.61 12.08 3.53 12.08 3.49 12.12 3.45 12.08 3.44 12.09 3.41 12.12 3.33 12.12 3.29 12.16 3.21 12.16 3.17 12.24 2.97 12.44 2.92 12.46 2.92 12.53 2.88 12.57 2.88 12.7 2.84 12.73 2.84 12.85 2.69 13 2.64 13.02 2.61 13.05 2.56 13.05 2.53 13.08 2.45 13.08 2.41 13.13 2.33 13.13 2.29 13.16 2.21 13.16 2.17 13.21 2.09 13.21 2.05 13.25 2.01 13.25 1.97 13.21 1.96 13.22 1.93 13.25 1.88 13.26 1.85 13.28 1.77 13.28 1.73 13.32 1.65 13.32 1.61 13.37 1.53 13.37 1.49 13.4 1.41 13.4 1.37 13.45 1.32 13.46 1.25 13.52 1.2 13.54 1.2 13.57 1.16 13.62 1.16 13.94 1.2 13.98 1.21 14.03 1.25 14.07 1.29 14.07 1.33 14.11 1.37 14.11 1.4 14.14 1.41 14.19 1.45 14.19 1.49 14.23 1.5 14.21 1.53 14.19 1.57 14.23 1.65 14.23 1.69 14.27 1.73 14.27 1.77 14.31 1.78 14.3 1.81 14.27 2.33 14.27 2.36 14.3 2.25 14.41 2.2 14.42 2.08 14.54 2.08 14.58 2.05 14.61 2 14.62 1.92 14.7 1.92 14.78 2 14.82 2.05 14.87 2.09 14.87 2.13 14.91 2.17 14.91 2.21 14.95 2.22 14.94 2.25 14.91 2.33 14.91 2.37 14.95 2.41 14.91 2.49 14.91 2.54 14.9 2.57 14.87 2.81 14.87 2.85 14.91 2.89 14.87 2.93 14.87 2.98 14.86 3.01 14.83 3.05 14.83 3.09 14.87 3.13 14.83 3.25 14.83 3.29 14.79 3.33 14.79 3.38 14.78 3.41 14.75 3.45 14.75 3.49 14.79 3.53 14.75 3.57 14.75 3.62 14.74 3.65 14.71 3.85 14.71 3.88 14.74 3.89 14.79 3.92 14.82 3.93 14.87 4 14.94 4.01 14.99 4.04 15.02 4.05 15.07 4.08 15.1 4.09 15.15 4.2 15.26 4.21 15.31 4.24 15.34 4.25 15.39 4.28 15.42 4.29 15.47 4.32 15.5 4.33 15.55 4.36 15.58 4.37 15.63 4.4 15.66 4.41 15.71 4.44 15.74 4.44 15.94 4.48 15.98 4.48 16.06 4.56 16.1 4.64 16.18 4.65 16.23 4.69 16.23 4.84 16.38 4.85 16.43 4.88 16.46 4.88 16.54 4.96 16.62 4.97 16.67 5 16.7 5 16.78 5.04 16.82 5.05 16.87 5.13 16.87 5.17 16.91 5.21 16.91 5.25 16.95 5.29 16.95 5.33 16.99 5.37 16.99 5.48 17.1 5.49 17.15 5.52 17.18 5.53 17.23 5.56 17.26 5.57 17.31 5.6 17.34 5.62 17.39 5.64 17.42 5.65 17.47 5.68 17.5 5.69 17.55 5.76 17.62 5.77 17.67 5.8 17.7 5.81 17.75 5.84 17.78 5.85 17.83 5.96 17.94 5.97 17.99 6.08 18.1 6.09 18.15 6.12 18.18 6.13 18.23 6.17 18.23 6.28 18.34 6.29 18.39 6.36 18.46 6.37 18.51 6.4 18.54 6.41 18.59 6.48 18.66 6.5 18.71 6.56 18.78 6.57 18.83 6.6 18.86 6.6 18.94 6.64 18.98 6.64 19.1 6.68 19.14 6.68 19.3 6.72 19.34 6.72 19.5 6.76 19.54 6.76 19.94 6.8 19.98 6.8 20.18 6.76 20.22 6.8 20.26 6.8 20.5 6.84 20.54 6.84 20.74 6.8 20.78 6.84 20.82 6.84 21.06 6.88 21.1 6.88 21.34 6.92 21.39 6.92 21.58 6.88 21.63 6.92 21.66 6.92 21.9 6.96 21.95 6.96 22.59 6.92 22.63 6.92 22.82 6.88 22.87 6.88 23.02 6.84 23.07 6.84 23.23 6.8 23.27 6.8 23.31 6.76 23.35 6.76 23.39 6.72 23.43 6.72 23.55 6.68 23.59 6.68 23.63 6.61 23.7 6.41 23.7 6.37 23.66 6.36 23.66 6.33 23.7 6.17 23.7 6.09 23.78 6.04 23.79 6 23.83 6 23.95 5.96 23.99 6 24.03 5.96 24.07 6 24.11 6.01 24.16 6.05 24.16 6.08 24.19 6.09 24.24 6.13 24.24 6.21 24.32 6.29 24.32 6.33 24.36 6.37 24.36 6.41 24.4 6.46 24.4 6.5 24.44 6.61 24.44 6.66 24.48 6.67 24.47 6.69 24.44 6.81 24.44 6.85 24.48 6.89 24.44 7.01 24.44 7.06 24.4 7.09 24.4 7.13 24.36 7.21 24.36 7.25 24.32 7.33 24.32 7.38 24.28 7.46 24.28 7.53 24.2 7.58 24.2 7.62 24.16 7.66 24.16 7.71 24.11 7.71 24.03 7.75 23.99 7.71 23.95 7.71 23.75 7.75 23.71 7.75 23.59 7.79 23.55 7.75 23.51 7.75 22.27 7.79 22.22 7.79 22.11 7.83 22.07 7.79 22.02 7.79 21.98 7.83 21.95 7.86 21.92 7.88 21.95 7.88 22.07 7.92 22.11 7.92 22.35 7.88 22.39 7.92 22.43 7.92 22.54 7.96 22.59 7.96 22.7 7.92 22.75 7.96 22.79 7.96 22.91 8 22.94 8 23.07 7.96 23.11 7.96 23.23 7.92 23.27 7.96 23.31 7.96 23.63 7.92 23.66 7.92 23.79 7.88 23.83 7.92 23.87 7.92 23.95 7.88 23.99 7.88 24.11 7.84 24.15 7.84 24.27 7.8 24.31 7.8 24.39 7.78 24.42 7.7 24.42 7.66 24.45 7.46 24.45 7.42 24.42 7.4 24.43 7.38 24.45 7.3 24.45 7.25 24.54 7.2 24.55 7.2 24.59 7.12 24.67 7.16 24.71 7.12 24.75 7.12 24.79 7.08 24.83 7.08 24.91 7.04 24.95 7.13 25 8.5 25 8.54 24.96 8.7 24.96 8.78 24.88 8.81 24.88 8.86 24.84 8.94 24.84 8.98 24.8 8.99 24.75 9.03 24.71 8.99 24.67 8.99 24.47 9.03 24.43 9.03 24.31 9.07 24.27 9.07 24.11 9.11 24.07 9.11 23.99 9.14 23.96 9.15 23.91 9.18 23.88 9.19 23.83 9.22 23.8 9.23 23.75 9.31 23.66 9.31 23.59 9.34 23.56 9.35 23.51 9.39 23.46 9.39 23.31 9.43 23.27 9.43 23.07 9.47 23.02 9.47 22.87 9.51 22.82 9.47 22.79 9.47 22.63 9.51 22.59 9.51 22.43 9.55 22.39 9.51 22.35 9.51 21.26 9.55 21.22 9.51 21.18 9.51 21.02 9.47 20.98 9.47 19.78 9.5 19.75 9.58 19.75 9.63 19.74 9.66 19.71 9.74 19.71 9.78 19.75 9.82 19.71 9.98 19.71 10.02 19.68 10.14 19.68 10.18 19.63 10.3 19.63 10.35 19.62 10.38 19.59 10.5 19.59 10.54 19.63 10.58 19.59 10.7 19.59 10.74 19.55 10.78 19.55 10.82 19.51 10.9 19.51 10.94 19.47 11.1 19.47 11.14 19.43 11.22 19.43 11.26 19.39 11.34 19.39 11.38 19.35 11.58 19.35 11.62 19.31 11.7 19.31 11.74 19.27 11.86 19.27 11.9 19.23 11.98 19.23 12.02 19.19 12.14 19.19 12.18 19.15 12.26 19.15 12.3 19.11 12.42 19.11 12.46 19.07 12.5 19.07 12.54 19.03 12.62 19.03 12.66 18.99 12.7 18.99 12.74 18.95 12.82 18.95 12.86 18.91 13.1 18.91 13.15 18.9 13.18 18.87 13.34 18.87 13.38 18.91 13.42 18.87 13.58 18.87 13.7 18.75 13.74 18.75 13.94 18.55 13.98 18.55 14.1 18.43 14.34 18.43 14.39 18.42 14.42 18.39 14.62 18.39 14.66 18.43 14.9 18.43 14.97 18.5 14.98 18.55 15.01 18.58 15.02 18.63 15.05 18.66 15.06 18.71 15.09 18.74 15.09 18.82 15.21 18.94 15.22 18.99 15.33 19.1 15.34 19.15 15.38 19.19 15.43 19.19 15.65 19.42 15.66 19.47 15.7 19.47 15.82 19.59 15.86 19.59 15.98 19.71 16.02 19.71 16.09 19.78 16.1 19.84 16.15 19.84 16.27 19.95 16.3 19.95 16.34 20 16.38 20 16.43 20.03 16.46 20.03 16.51 20.07 16.54 20.07 16.63 20.15 16.67 20.15 16.78 20.26 16.79 20.32 16.82 20.32 16.95 20.43 16.98 20.43 17.21 20.66 17.23 20.72 17.25 20.74 17.25 20.86 17.29 20.9 17.29 21.02 17.33 21.06 17.33 21.14 17.29 21.18 17.33 21.22 17.33 21.34 17.37 21.39 17.37 21.43 17.33 21.46 17.37 21.5 17.37 21.63 17.41 21.66 17.41 22.7 17.37 22.75 17.37 22.87 17.33 22.91 17.33 23.02 17.29 23.07 17.33 23.11 17.33 23.19 17.27 23.25 17.21 23.27 17.19 23.29 17.14 23.31 17.14 23.35 17.11 23.38 17.05 23.39 17.02 23.41 16.97 23.43 16.95 23.46 16.91 23.41 16.89 23.43 16.86 23.46 16.79 23.46 16.74 23.5 16.69 23.51 16.67 23.53 16.61 23.55 16.59 23.57 16.53 23.59 16.53 23.63 16.38 23.78 16.33 23.79 16.33 23.83 16.29 23.87 16.29 23.91 16.25 23.95 16.29 23.99 16.29 24.19 16.37 24.23 16.43 24.28 16.46 24.28 16.51 24.32 16.52 24.31 16.54 24.28 17.15 24.28 17.19 24.32 17.23 24.28 17.3 24.28 17.36 24.27 17.39 24.24 17.55 24.24 17.59 24.28 17.63 24.24 17.66 24.24 17.71 24.2 17.75 24.2 17.79 24.16 17.8 24.11 17.88 24.03 17.88 23.95 17.91 23.92 17.92 23.87 17.99 23.8 18 23.75 18.03 23.72 18.07 23.72 18.15 23.64 18.19 23.64 18.23 23.6 18.24 23.55 18.31 23.48 18.32 23.43 18.4 23.35 18.4 23.23 18.44 23.19 18.44 23.07 18.48 23.02 18.48 22.87 18.52 22.82 18.52 22.7 18.56 22.67 18.52 22.63 18.52 21.98 18.55 21.95 18.62 22.02 18.62 22.11 18.66 22.14 18.66 22.22 18.7 22.27 18.7 22.35 18.74 22.39 18.74 22.5 18.78 22.54 18.78 22.63 18.74 22.67 18.78 22.7 18.78 22.82 18.82 22.87 18.82 22.94 18.78 22.99 18.78 23.11 18.74 23.15 18.78 23.19 18.78 23.63 18.74 23.66 18.74 23.79 18.7 23.83 18.7 23.95 18.66 23.99 18.66 24.07 18.62 24.11 18.62 24.19 18.57 24.23 18.57 24.31 18.55 24.34 18.23 24.34 18.19 24.3 18.17 24.31 18.15 24.34 18.07 24.34 18.03 24.37 17.95 24.37 17.91 24.45 17.82 24.55 17.82 24.83 17.77 24.87 17.82 24.91 17.83 24.96 17.86 25 19.07 25 19.11 24.96 19.15 24.96 19.19 24.92 19.23 24.92 19.24 24.87 19.36 24.75 19.44 24.71 19.44 24.59 19.48 24.55 19.48 24.47 19.51 24.44 19.55 24.44 19.59 24.4 19.63 24.4 19.67 24.36 19.71 24.36 19.75 24.32 19.76 24.27 19.87 24.16 19.88 24.11 19.91 24.08 19.92 24.03 19.96 23.99 19.96 23.87 20 23.83 19.96 23.79 19.96 23.23 20 23.19 20 22.91 20.04 22.87 20 22.82 20 22.75 20.04 22.7 20.04 22.59 20.08 22.54 20.04 22.5 20.04 21.95 20.08 21.9 20.04 21.86 20.04 21.75 20 21.7 20 21.66 19.96 21.63 19.96 21.54 19.92 21.5 19.92 21.46 19.88 21.43 19.88 21.39 19.84 21.34 19.84 21.3 19.8 21.26 19.8 21.18 19.68 21.06 19.68 21.02 19.56 20.9 19.56 20.86 19.52 20.82 19.52 20.78 19.48 20.74 19.48 20.7 19.36 20.58 19.36 20.54 19.32 20.5 19.32 20.46 19.28 20.42 19.28 20.38 19.24 20.34 19.24 20.3 19.2 20.26 19.2 20.18 19.16 20.14 19.16 20.06 19.2 20.02 19.16 19.98 19.16 19.82 19.12 19.78 19.12 19.7 19.16 19.66 19.16 19.5 19.2 19.46 19.2 19.34 19.24 19.3 19.24 19.14 19.28 19.1 19.28 18.98 19.31 18.95 19.32 18.9 19.35 18.87 19.36 18.82 19.4 18.78 19.4 18.62 19.44 18.58 19.44 18.42 19.48 18.38 19.48 18.3 19.51 18.27 19.52 18.22 19.56 18.18 19.52 18.14 19.52 18.06 19.56 18.02 19.56 17.94 19.6 17.9 19.56 17.86 19.56 17.78 19.6 17.74 19.6 17.66 19.64 17.62 19.6 17.58 19.6 17.22 19.64 17.18 19.6 17.14 19.6 17.06 19.56 17.02 19.56 16.94 19.6 16.9 19.56 16.86 19.56 16.78 19.52 16.74 19.52 16.62 19.48 16.58 19.48 16.5 19.44 16.46 19.47 16.43 19.55 16.51 19.59 16.51 19.71 16.63 19.75 16.63 19.94 16.82 19.95 16.87 20.06 16.98 20.07 17.03 20.11 17.03 20.18 17.1 20.19 17.15 20.3 17.26 20.31 17.31 20.42 17.42 20.43 17.47 20.54 17.58 20.55 17.63 20.58 17.66 20.59 17.71 20.62 17.74 20.62 17.82 20.74 17.94 20.75 17.99 20.78 18.02 20.79 18.07 20.82 18.1 20.82 18.18 20.86 18.22 20.87 18.27 20.9 18.3 20.91 18.35 20.94 18.38 20.94 18.54 20.98 18.58 20.99 18.63 21.02 18.66 21.02 18.74 21.06 18.78 21.06 18.94 21.11 18.95 21.23 18.95 21.3 19.02 21.31 19.07 21.34 19.1 21.35 19.15 21.46 19.26 21.47 19.31 21.58 19.42 21.59 19.47 21.7 19.58 21.71 19.63 21.75 19.63 21.86 19.74 21.87 19.79 21.91 19.79 21.95 19.84 21.99 19.84 22.03 19.87 22.11 19.87 22.15 19.91 22.19 19.91 22.23 19.95 22.27 19.95 22.31 20 22.35 20 22.39 20.03 22.43 20.03 22.47 20.07 22.51 20.07 22.55 20.11 22.63 20.11 22.67 20.15 22.71 20.15 22.75 20.2 22.87 20.2 22.91 20.23 22.92 20.22 22.95 20.2 23.23 20.2 23.27 20.23 23.31 20.2 23.47 20.2 23.51 20.15 23.55 20.15 23.59 20.11 23.63 20.11 23.68 20.1 23.76 20.06 23.84 20.02 23.84 19.9 23.8 19.86 23.8 19.82 23.76 19.78 23.76 19.74 23.68 19.66 23.68 19.62 23.63 19.61 23.48 19.46 23.48 19.42 23.43 19.41 23.32 19.3 23.32 19.26 23.28 19.22 23.23 19.21 23.16 19.14 23.11 19.13 23.04 19.06 22.99 19.05 22.84 18.9 22.84 18.86 22.79 18.85 22.72 18.78 22.67 18.77 22.64 18.74 22.64 18.7 22.59 18.69 22.4 18.5 22.4 18.46 22.24 18.3 22.24 18.26 22.12 18.14 22.12 18.1 22.04 18.02 22.04 17.98 21.92 17.86 21.92 17.82 21.76 17.66 21.76 17.62 21.64 17.5 21.64 17.46 21.56 17.38 21.56 17.34 21.4 17.18 21.4 17.14 21.2 16.94 21.2 16.9 21.04 16.74 21.04 16.7 20.88 16.54 20.88 16.5 20.84 16.46 20.79 16.45 20.08 15.74 20.08 15.7 20.03 15.69 19.88 15.54 19.83 15.53 19.72 15.42 19.67 15.41 19.56 15.3 19.51 15.29 19.48 15.26 19.43 15.25 19.36 15.18 19.31 15.17 19.28 15.14 19.23 15.13 19.16 15.06 19.11 15.05 19.08 15.02 19.03 15.01 18.95 14.93 18.87 14.93 18.84 14.9 18.79 14.89 18.75 14.85 18.67 14.85 18.63 14.8 18.55 14.8 18.51 14.77 18.43 14.77 18.4 14.74 18.35 14.73 18.31 14.69 18.23 14.69 18.19 14.64 18.11 14.64 18.07 14.61 17.99 14.61 17.95 14.56 17.86 14.56 17.83 14.53 17.59 14.53 17.55 14.48 17.34 14.48 17.3 14.45 17.29 14.46 17.27 14.48 15.5 14.48 15.46 14.45 15.45 14.46 15.43 14.48 15.3 14.48 15.26 14.53 15.14 14.53 15.11 14.48 15.09 14.5 15.06 14.53 14.86 14.53 14.82 14.56 14.7 14.56 14.66 14.53 14.65 14.54 14.62 14.56 14.46 14.56 14.42 14.61 14.26 14.61 14.22 14.56 14.21 14.58 14.18 14.61 13.98 14.61 13.94 14.64 13.1 14.64 13.06 14.61 12.86 14.61 12.82 14.56 12.81 14.58 12.78 14.61 12.62 14.61 12.58 14.56 12.34 14.56 12.3 14.53 12.1 14.53 12.06 14.48 12.05 14.5 12.02 14.53 11.18 14.53 11.14 14.48 10.94 14.48 10.9 14.45 10.89 14.46 10.86 14.48 10.5 14.48 10.46 14.45 10.3 14.45 10.26 14.41 10.1 14.41 10.06 14.37 9.78 14.37 9.74 14.33 9.73 14.34 9.7 14.37 9.66 14.37 9.62 14.33 9.61 14.34 9.58 14.37 9.46 14.37 9.43 14.34 9.38 14.33 9.31 14.26 9.26 14.24 9.19 14.18 9.14 14.16 9.03 14.06 8.98 14.04 8.95 14.02 8.9 14.01 8.83 13.94 8.78 13.93 8.75 13.9 8.7 13.88 8.63 13.82 8.58 13.8 8.51 13.74 8.46 13.73 8.39 13.66 8.34 13.64 8.31 13.62 8.26 13.61 8.19 13.54 8.14 13.52 8.11 13.5 8.05 13.48 8.03 13.46 7.97 13.45 7.91 13.38 7.86 13.37 7.75 13.26 7.7 13.25 7.67 13.22 7.62 13.21 7.58 13.16 7.46 13.16 7.43 13.13 7.38 13.13 7.26 13.02 7.21 13 7.19 12.97 7.19 12.94 7.15 12.9 7.15 12.85 7.11 12.81 7.11 12.78 6.99 12.66 6.99 12.62 6.93 12.6 6.82 12.49 6.82 12.46 6.78 12.44 6.71 12.38 6.66 12.36 6.55 12.26 6.5 12.24 6.42 12.18 6.37 12.16 6.34 12.13 6.29 12.12 6.26 12.09 6.26 11.97 6.22 11.94 6.26 11.89 6.22 11.85 6.22 11.77 6.18 11.73 6.18 11.65 6.22 11.61 6.18 11.57 6.18 11.53 6.14 11.49 6.18 11.46 6.14 11.41 6.14 11.37 6.1 11.33 6.1 11.25 6.07 11.21 6.1 11.17 6.07 11.13 6.07 11.1 6.03 11.05 6.03 11.01 6.01 10.96 6 10.97 5.97 11 5.92 11.01 5.85 11.08 5.77 11.08 5.73 11.12 5.68 11.13 5.65 11.16 5.6 11.17 5.53 11.24 5.48 11.25 5.44 11.3 5.44 11.33 5.41 11.36 5.36 11.37 5.36 11.41 5.21 11.56 5.18 11.53 5.18 11.49 5.14 11.46 5.14 11.37 5.1 11.33 5.14 11.3 5.1 11.25 5.1 11.21 5.09 11.16 5.05 11.08 5.01 11 4.97 10.92 4.89 10.92"/></g></svg>