<svg id="Layer_1" data-name="Layer 1" xmlns="http://www.w3.org/2000/svg" xmlns:xlink="http://www.w3.org/1999/xlink" viewBox="0 0 25 25"><defs><style>.cls-1{fill:none;}.cls-2{clip-path:url(#clip-path);}.cls-3{fill:#231f20;}</style><clipPath id="clip-path"><rect class="cls-1" width="25" height="25"/></clipPath></defs><title>AM WEBSITE ICONS</title><g class="cls-2"><g class="cls-2"><path class="cls-3" d="M20,17.77c.15-.37.7-.58.28-1.06.1-.32.71-.52.21-1l.41-.59,0-.07a1.42,1.42,0,0,0-.31.11,9.2,9.2,0,0,1-3.22,1,3.39,3.39,0,0,1-2.69-.66,5.48,5.48,0,0,0-3.91-1.23,2.18,2.18,0,0,1-.51,0c-.51-.07-.68-.29-.51-.77a14.89,14.89,0,0,1,.65-1.47,8.72,8.72,0,0,0,1-4,4.85,4.85,0,0,0-.21-1.31A2.61,2.61,0,0,0,7.26,5.39a3.5,3.5,0,0,0-.63.82c-.08.12-.14.29-.26.37a5.53,5.53,0,0,1-1.8,1c-.19.07-.49.31-.47.43,0,.29.37.27.6.24.53-.07,1.06-.18,1.58-.28a2,2,0,0,1,1.84.49,1.65,1.65,0,0,1,.24,2c-.42.74-.92,1.42-1.39,2.13a9,9,0,0,0-1.36,2.79,3.85,3.85,0,0,0,.93,3.72A10.49,10.49,0,0,0,11,21.88c.53.19,1.09.28,1.63.43.09,0,.24.11.25.18a4.61,4.61,0,0,1,0,1.11.76.76,0,0,1-.47.42,11.05,11.05,0,0,1-1.62.32c-.4.06-.82.06-1.23.09-.2,0-.42,0-.42.29s.23.28.43.28h4c.45,0,.59-.15.43-.6a3.41,3.41,0,0,1-.09-1.79c0-.11.14-.28.24-.29A7.45,7.45,0,0,0,18,20.44c.67-.59,1.27-1.26,1.88-1.91.19-.2.43-.45.14-.76"/></g></g></svg>