<svg xmlns="http://www.w3.org/2000/svg"><symbol id="facebook" viewBox="0 0 32 32"><defs><style>.cls-1{fill:none}.cls-2{clip-path:url(#clip-path)}.cls-3{fill:#4273b9}.cls-4{fill:#fff}</style><clipPath id="clip-path"><path d="M0 0h32v32H0z" class="cls-1"/></clipPath></defs><g class="cls-2"><g class="cls-2"><path d="M4.8 0h22.4A4.8 4.8 0 0 1 32 4.8v22.4a4.8 4.8 0 0 1-4.8 4.8H4.8A4.8 4.8 0 0 1 0 27.2V4.8A4.8 4.8 0 0 1 4.8 0" class="cls-3"/><path d="M22.23 20.63l.71-4.63H18.5v-3a2.32 2.32 0 0 1 2.61-2.5h2V6.56a25 25 0 0 0-3.59-.31c-3.65 0-6 2.21-6 6.23V16H9.44v4.63h4.06V32h5V20.63z" class="cls-4"/></g></g></symbol><symbol id="instagram" viewBox="0 0 32 32"><defs><style>.cls-1,.cls-4{fill:none}.cls-2{clip-path:url(#clip-path)}.cls-3{fill:#d43478}.cls-4{stroke:#fff;stroke-width:1.81px}.cls-5{fill:#fff}</style><clipPath id="clip-path"><path d="M0 0h32v32H0z" class="cls-1"/></clipPath></defs><g class="cls-2"><g class="cls-2"><path d="M4.8 0h22.4A4.8 4.8 0 0 1 32 4.8v22.4a4.8 4.8 0 0 1-4.8 4.8H4.8A4.8 4.8 0 0 1 0 27.2V4.8A4.8 4.8 0 0 1 4.8 0" class="cls-3"/><path d="M16 11.69A4.31 4.31 0 1 1 11.69 16 4.31 4.31 0 0 1 16 11.69zm-4.37-4.94h8.75a4.87 4.87 0 0 1 4.87 4.88v8.75a4.87 4.87 0 0 1-4.87 4.87h-8.75a4.87 4.87 0 0 1-4.88-4.87v-8.75a4.87 4.87 0 0 1 4.88-4.88z" class="cls-4"/><path d="M21.44 9.38a1.19 1.19 0 1 1-1.19 1.18 1.18 1.18 0 0 1 1.19-1.18" class="cls-5"/></g></g></symbol><symbol id="hamburger" viewBox="0 0 24 21"><defs><style>.cls-1{fill:none}.cls-2{clip-path:url(#clip-path)}.cls-3{fill:#231f20}</style><clipPath id="clip-path"><path d="M0 0h24v21H0z" class="cls-1"/></clipPath></defs><g class="cls-2"><g class="cls-2"><path d="M12 15.65H1.72a1.72 1.72 0 0 0-.1 3.43h20.61a1.72 1.72 0 1 0 0-3.43H12m0-6.87H1.71a1.72 1.72 0 0 0-.08 3.44h20.6a1.72 1.72 0 1 0 0-3.44H12m0-3.43h10.26a1.72 1.72 0 0 0 .08-3.43H1.74a1.72 1.72 0 1 0 0 3.43H12" class="cls-3"/></g></g></symbol><symbol id="linked-in" viewBox="0 0 32 32"><defs><style>.cls-1,.cls-5{fill:none}.cls-2{clip-path:url(#clip-path)}.cls-3{fill:#0178b5}.cls-4{fill:#fff}.cls-5{stroke:#fff;stroke-width:4.13px}</style><clipPath id="clip-path"><path d="M0 0h32v32H0z" class="cls-1"/></clipPath></defs><g class="cls-2"><g class="cls-2"><path d="M4.8 0h22.4A4.8 4.8 0 0 1 32 4.8v22.4a4.8 4.8 0 0 1-4.8 4.8H4.8A4.8 4.8 0 0 1 0 27.2V4.8A4.8 4.8 0 0 1 4.8 0" class="cls-3"/><path d="M8.88 6.31a2.32 2.32 0 1 1-2.32 2.32 2.32 2.32 0 0 1 2.32-2.32" class="cls-4"/><path d="M8.88 12.13V24.5m6.37-12.37V24.5" class="cls-5"/><path d="M17.25 17.63a2.34 2.34 0 0 1 2.25-2.5c1.5 0 2.06 1.12 2.06 2.81v6.56h4.13v-7.06c0-3.81-2-5.56-4.75-5.56a4.08 4.08 0 0 0-3.69 2" class="cls-4"/></g></g></symbol><symbol id="pinterest" viewBox="0 0 32 32"><defs><style>.cls-1{fill:none}.cls-2{clip-path:url(#clip-path)}.cls-3{fill:#bc2026}.cls-4{fill:#fff}</style><clipPath id="clip-path"><path d="M0 0h32v32H0z" class="cls-1"/></clipPath></defs><g class="cls-2"><g class="cls-2"><path d="M4.8 0h22.4A4.8 4.8 0 0 1 32 4.8v22.4a4.8 4.8 0 0 1-4.8 4.8H4.8A4.8 4.8 0 0 1 0 27.2V4.8A4.8 4.8 0 0 1 4.8 0" class="cls-3"/><path d="M16.56 4.06c-6.5 0-9.81 4.69-9.81 8.63 0 2.31.87 4.44 2.81 5.19a.55.55 0 0 0 .75-.32l.19-1.12c.13-.38.06-.44-.12-.75A4 4 0 0 1 9.44 13a6.5 6.5 0 0 1 6.75-6.62c3.75 0 5.75 2.31 5.75 5.31 0 4-1.75 7.25-4.38 7.25a2.06 2.06 0 0 1-2.12-2.63c.37-1.68 1.18-3.56 1.18-4.81s-.56-2.13-1.87-2.13c-1.5 0-2.62 1.57-2.62 3.63a5.29 5.29 0 0 0 .43 2.13l-1.81 7.49a15.43 15.43 0 0 0 .13 5.38l.18-.06a13.88 13.88 0 0 0 2.5-4.5l1-3.81a3.77 3.77 0 0 0 3.31 1.74c4.44 0 7.44-4 7.44-9.43 0-4.13-3.5-7.88-8.75-7.88" class="cls-4"/></g></g></symbol><symbol id="search" viewBox="0 0 100 100"><path d="M93.828 88.171a4 4 0 1 1-5.656 5.658L65.914 71.57a40.123 40.123 0 0 0 5.657-5.657zM40.775 76.55A35.775 35.775 0 1 1 76.55 40.775 35.816 35.816 0 0 1 40.775 76.55zM68.55 40.775A27.775 27.775 0 1 0 40.775 68.55 27.806 27.806 0 0 0 68.55 40.775z"/></symbol><symbol id="arrow-down" viewBox="0 0 100 100"><path d="M-192 0H-7v99h-185zM0-36h100v30H0z"/><text font-family="'Helvetica'" font-size="2.4" transform="translate(66 -19.5)">http://thenounproject.com</text><text transform="translate(7.166 -24.5)"><tspan x="0" y="0" font-family="'Helvetica-Bold'" font-size="6.16">The Noun Project</tspan><tspan x="1.12" y="4.8" font-family="'Helvetica-Bold'" font-size="4">Icon Template</tspan></text><text font-family="'Helvetica-Bold'" font-size="6.16" transform="translate(-178.5 10.5)">Reminders</text><path stroke="#000" stroke-miterlimit="10" d="M8-14.5h10m-197 31h17"/><path d="M-170.8 31.32h8.72v8.64h-8.72z"/><path d="M-164.455 42.312h4.747v-4.703h-4.747v4.703zm5.189.437h-5.63V37.17h5.63v5.579zm-6.955 1.313h8.279v-8.203h-8.279v8.203zm8.721.438h-9.163v-9.079h9.163V44.5z"/><path d="M-166.15 44.13l-.14-.14 8.28-8.2.14.14z"/><path fill="none" d="M-179 58h35v32.5h-35z"/><text transform="translate(-179 60.157)"><tspan x="0" y="0" font-family="'Helvetica-Bold'" font-size="3">Strokes</tspan><tspan x="0" y="5" font-family="'Helvetica'" font-size="2.4">Try to keep strokes at 4px</tspan><tspan x="0" y="10" font-family="'Helvetica'" font-size="2.4">Minimum stroke weight is 2px</tspan><tspan x="0" y="14.5" font-family="'Helvetica'" font-size="2.4">For thicker strokes use even </tspan><tspan x="0" y="17.5" font-family="'Helvetica'" font-size="2.4">numbers: 6px, 8px etc.</tspan><tspan x="0" y="22" font-family="'Helvetica-Bold'" font-size="2.4">Remember to expand strokes </tspan><tspan x="0" y="25" font-family="'Helvetica-Bold'" font-size="2.4">before saving as an SVG</tspan></text><path fill="none" d="M-136.5 58h35v32.5h-35z"/><text transform="translate(-136.5 60.157)"><tspan x="0" y="0" font-family="'Helvetica-Bold'" font-size="3">Size</tspan><tspan x="0" y="5" font-family="'Helvetica'" font-size="2.4">Cannot be wider or taller than </tspan><tspan x="0" y="8.5" font-family="'Helvetica'" font-size="2.4">100px (artboard size)</tspan><tspan x="0" y="13.5" font-family="'Helvetica'" font-size="2.4">Scale your icon to fill as much of </tspan><tspan x="0" y="16.5" font-family="'Helvetica'" font-size="2.4">the artboard as possible</tspan></text><path fill="none" d="M-94 58h35v32.5h-35z"/><text transform="translate(-94 60.157)"><tspan x="0" y="0" font-family="'Helvetica-Bold'" font-size="3">Ungroup</tspan><tspan x="0" y="5" font-family="'Helvetica'" font-size="2.4">If your design has more than one </tspan><tspan x="0" y="8" font-family="'Helvetica'" font-size="2.4">shape, make sure to ungroup</tspan></text><path fill="none" d="M-50 58h35v32.5h-35z"/><text transform="translate(-50 60.157)"><tspan x="0" y="0" font-family="'Helvetica-Bold'" font-size="3">Save as</tspan><tspan x="0" y="5" font-family="'Helvetica'" font-size="2.4">Save as .SVG and make sure </tspan><tspan x="0" y="8" font-family="'Helvetica'" font-size="2.4">“Use Artboards” is checked</tspan></text><text font-family="'Helvetica'" font-size="2.57" transform="matrix(1.0074 0 0 1 -125.542 30.593)">100px</text><text font-family="'Helvetica-Bold'" font-size="5.15" transform="matrix(1.0074 0 0 1 -41 39)">.SVG</text><path d="M-126.51 34.81h10.26V45h-10.26zm.03-3.04h.52v2.34h-.52zm9.67 0h.52v2.34h-.52z"/><path d="M-127 32.34h11.23v.57H-127zm43.19 1.5h10.3V44h-10.3zm7-5.13h3.31v3.26h-3.31z"/><path stroke="#000" stroke-miterlimit="10" d="M-178.5 22.5h30v30h-30zm42 0h30v30h-30zm43 0h30v30h-30zm44 0h30v30h-30z"/><path d="M84.256 34.154a3.202 3.202 0 0 0-4.514-.41L49 59.373 18.258 33.744a3.209 3.209 0 0 0-4.514.41 3.204 3.204 0 0 0 .408 4.514l32.795 27.338A3.198 3.198 0 0 0 49 66.75c.73 0 1.459-.248 2.053-.744l32.795-27.338a3.204 3.204 0 0 0 .408-4.514z"/></symbol><symbol id="arrow-left" viewBox="0 0 100 100"><path d="M-192 0H-7v99h-185zM0-36h100v30H0z"/><text font-family="'Helvetica'" font-size="2.4" transform="translate(66 -19.5)">http://thenounproject.com</text><text transform="translate(7.166 -24.5)"><tspan x="0" y="0" font-family="'Helvetica-Bold'" font-size="6.16">The Noun Project</tspan><tspan x="1.12" y="4.8" font-family="'Helvetica-Bold'" font-size="4">Icon Template</tspan></text><text font-family="'Helvetica-Bold'" font-size="6.16" transform="translate(-178.5 10.5)">Reminders</text><path stroke="#000" stroke-miterlimit="10" d="M8-14.5h10m-197 31h17"/><path d="M-170.8 31.32h8.72v8.64h-8.72z"/><path d="M-164.455 42.312h4.747v-4.703h-4.747v4.703zm5.189.437h-5.63V37.17h5.63v5.579zm-6.955 1.313h8.279v-8.203h-8.279v8.203zm8.721.438h-9.163v-9.079h9.163V44.5z"/><path d="M-166.15 44.13l-.14-.14 8.28-8.2.14.14z"/><path fill="none" d="M-179 58h35v32.5h-35z"/><text transform="translate(-179 60.157)"><tspan x="0" y="0" font-family="'Helvetica-Bold'" font-size="3">Strokes</tspan><tspan x="0" y="5" font-family="'Helvetica'" font-size="2.4">Try to keep strokes at 4px</tspan><tspan x="0" y="10" font-family="'Helvetica'" font-size="2.4">Minimum stroke weight is 2px</tspan><tspan x="0" y="14.5" font-family="'Helvetica'" font-size="2.4">For thicker strokes use even </tspan><tspan x="0" y="17.5" font-family="'Helvetica'" font-size="2.4">numbers: 6px, 8px etc.</tspan><tspan x="0" y="22" font-family="'Helvetica-Bold'" font-size="2.4">Remember to expand strokes </tspan><tspan x="0" y="25" font-family="'Helvetica-Bold'" font-size="2.4">before saving as an SVG</tspan></text><path fill="none" d="M-136.5 58h35v32.5h-35z"/><text transform="translate(-136.5 60.157)"><tspan x="0" y="0" font-family="'Helvetica-Bold'" font-size="3">Size</tspan><tspan x="0" y="5" font-family="'Helvetica'" font-size="2.4">Cannot be wider or taller than </tspan><tspan x="0" y="8.5" font-family="'Helvetica'" font-size="2.4">100px (artboard size)</tspan><tspan x="0" y="13.5" font-family="'Helvetica'" font-size="2.4">Scale your icon to fill as much of </tspan><tspan x="0" y="16.5" font-family="'Helvetica'" font-size="2.4">the artboard as possible</tspan></text><path fill="none" d="M-94 58h35v32.5h-35z"/><text transform="translate(-94 60.157)"><tspan x="0" y="0" font-family="'Helvetica-Bold'" font-size="3">Ungroup</tspan><tspan x="0" y="5" font-family="'Helvetica'" font-size="2.4">If your design has more than one </tspan><tspan x="0" y="8" font-family="'Helvetica'" font-size="2.4">shape, make sure to ungroup</tspan></text><path fill="none" d="M-50 58h35v32.5h-35z"/><text transform="translate(-50 60.157)"><tspan x="0" y="0" font-family="'Helvetica-Bold'" font-size="3">Save as</tspan><tspan x="0" y="5" font-family="'Helvetica'" font-size="2.4">Save as .SVG and make sure </tspan><tspan x="0" y="8" font-family="'Helvetica'" font-size="2.4">“Use Artboards” is checked</tspan></text><text font-family="'Helvetica'" font-size="2.57" transform="matrix(1.0074 0 0 1 -125.542 30.593)">100px</text><text font-family="'Helvetica-Bold'" font-size="5.15" transform="matrix(1.0074 0 0 1 -41 39)">.SVG</text><path d="M-126.51 34.81h10.26V45h-10.26zm.03-3.04h.52v2.34h-.52zm9.67 0h.52v2.34h-.52z"/><path d="M-127 32.34h11.23v.57H-127zm43.19 1.5h10.3V44h-10.3zm7-5.13h3.31v3.26h-3.31z"/><path stroke="#000" stroke-miterlimit="10" d="M-178.5 22.5h30v30h-30zm42 0h30v30h-30zm43 0h30v30h-30zm44 0h30v30h-30z"/><path d="M66.006 82.742L40.377 52l25.629-30.742c1.133-1.361.947-3.379-.41-4.514s-3.381-.951-4.514.408L33.744 49.947A3.187 3.187 0 0 0 33 52c0 .73.246 1.459.744 2.053l27.338 32.795a3.204 3.204 0 0 0 4.514.408 3.202 3.202 0 0 0 .41-4.514z"/></symbol><symbol id="arrow-right" viewBox="0 0 100 100"><path d="M-192 0H-7v99h-185zM0-36h100v30H0z"/><text font-family="'Helvetica'" font-size="2.4" transform="translate(66 -19.5)">http://thenounproject.com</text><text transform="translate(7.166 -24.5)"><tspan x="0" y="0" font-family="'Helvetica-Bold'" font-size="6.16">The Noun Project</tspan><tspan x="1.12" y="4.8" font-family="'Helvetica-Bold'" font-size="4">Icon Template</tspan></text><text font-family="'Helvetica-Bold'" font-size="6.16" transform="translate(-178.5 10.5)">Reminders</text><path stroke="#000" stroke-miterlimit="10" d="M8-14.5h10m-197 31h17"/><path d="M-170.8 31.32h8.72v8.64h-8.72z"/><path d="M-164.455 42.312h4.747v-4.703h-4.747v4.703zm5.189.437h-5.63V37.17h5.63v5.579zm-6.955 1.313h8.279v-8.203h-8.279v8.203zm8.721.438h-9.163v-9.079h9.163V44.5z"/><path d="M-166.15 44.13l-.14-.14 8.28-8.2.14.14z"/><path fill="none" d="M-179 58h35v32.5h-35z"/><text transform="translate(-179 60.157)"><tspan x="0" y="0" font-family="'Helvetica-Bold'" font-size="3">Strokes</tspan><tspan x="0" y="5" font-family="'Helvetica'" font-size="2.4">Try to keep strokes at 4px</tspan><tspan x="0" y="10" font-family="'Helvetica'" font-size="2.4">Minimum stroke weight is 2px</tspan><tspan x="0" y="14.5" font-family="'Helvetica'" font-size="2.4">For thicker strokes use even </tspan><tspan x="0" y="17.5" font-family="'Helvetica'" font-size="2.4">numbers: 6px, 8px etc.</tspan><tspan x="0" y="22" font-family="'Helvetica-Bold'" font-size="2.4">Remember to expand strokes </tspan><tspan x="0" y="25" font-family="'Helvetica-Bold'" font-size="2.4">before saving as an SVG</tspan></text><path fill="none" d="M-136.5 58h35v32.5h-35z"/><text transform="translate(-136.5 60.157)"><tspan x="0" y="0" font-family="'Helvetica-Bold'" font-size="3">Size</tspan><tspan x="0" y="5" font-family="'Helvetica'" font-size="2.4">Cannot be wider or taller than </tspan><tspan x="0" y="8.5" font-family="'Helvetica'" font-size="2.4">100px (artboard size)</tspan><tspan x="0" y="13.5" font-family="'Helvetica'" font-size="2.4">Scale your icon to fill as much of </tspan><tspan x="0" y="16.5" font-family="'Helvetica'" font-size="2.4">the artboard as possible</tspan></text><path fill="none" d="M-94 58h35v32.5h-35z"/><text transform="translate(-94 60.157)"><tspan x="0" y="0" font-family="'Helvetica-Bold'" font-size="3">Ungroup</tspan><tspan x="0" y="5" font-family="'Helvetica'" font-size="2.4">If your design has more than one </tspan><tspan x="0" y="8" font-family="'Helvetica'" font-size="2.4">shape, make sure to ungroup</tspan></text><path fill="none" d="M-50 58h35v32.5h-35z"/><text transform="translate(-50 60.157)"><tspan x="0" y="0" font-family="'Helvetica-Bold'" font-size="3">Save as</tspan><tspan x="0" y="5" font-family="'Helvetica'" font-size="2.4">Save as .SVG and make sure </tspan><tspan x="0" y="8" font-family="'Helvetica'" font-size="2.4">“Use Artboards” is checked</tspan></text><text font-family="'Helvetica'" font-size="2.57" transform="matrix(1.0074 0 0 1 -125.542 30.593)">100px</text><text font-family="'Helvetica-Bold'" font-size="5.15" transform="matrix(1.0074 0 0 1 -41 39)">.SVG</text><path d="M-126.51 34.81h10.26V45h-10.26zm.03-3.04h.52v2.34h-.52zm9.67 0h.52v2.34h-.52z"/><path d="M-127 32.34h11.23v.57H-127zm43.19 1.5h10.3V44h-10.3zm7-5.13h3.31v3.26h-3.31z"/><path stroke="#000" stroke-miterlimit="10" d="M-178.5 22.5h30v30h-30zm42 0h30v30h-30zm43 0h30v30h-30zm44 0h30v30h-30z"/><path d="M66.254 46.947L38.916 14.152a3.201 3.201 0 0 0-4.512-.408 3.202 3.202 0 0 0-.412 4.512L59.621 49 33.992 79.742a3.208 3.208 0 0 0 .412 4.514 3.202 3.202 0 0 0 4.512-.408l27.338-32.793a3.198 3.198 0 0 0 0-4.108z"/></symbol><symbol id="youtube" viewBox="0 0 32 32"><defs><style>.cls-1{fill:none}.cls-2{clip-path:url(#clip-path)}.cls-3{fill:#ec2026}.cls-4{fill:#fff}</style><clipPath id="clip-path"><path d="M0 0h32v32H0z" class="cls-1"/></clipPath></defs><g class="cls-2"><g class="cls-2"><path d="M4.8 0h22.4A4.8 4.8 0 0 1 32 4.8v22.4a4.8 4.8 0 0 1-4.8 4.8H4.8A4.8 4.8 0 0 1 0 27.2V4.8A4.8 4.8 0 0 1 4.8 0" class="cls-3"/><path d="M26.69 10.56a2.84 2.84 0 0 0-2-1.93c-2.13-.57-14.94-.63-17.38 0a2.86 2.86 0 0 0-2 1.93 33.66 33.66 0 0 0 0 10.88 2.85 2.85 0 0 0 2 1.94c2.25.62 15.07.62 17.38 0a2.84 2.84 0 0 0 2-1.94 35.44 35.44 0 0 0 0-10.88" class="cls-4"/></g><path d="M13.75 12.69v6.62L19.56 16" class="cls-3"/></g></symbol><symbol id="arrow-up" viewBox="0 0 100 100"><path d="M-192 0H-7v99h-185zM0-36h100v30H0z"/><text font-family="'Helvetica'" font-size="2.4" transform="translate(66 -19.5)">http://thenounproject.com</text><text transform="translate(7.166 -24.5)"><tspan x="0" y="0" font-family="'Helvetica-Bold'" font-size="6.16">The Noun Project</tspan><tspan x="1.12" y="4.8" font-family="'Helvetica-Bold'" font-size="4">Icon Template</tspan></text><text font-family="'Helvetica-Bold'" font-size="6.16" transform="translate(-178.5 10.5)">Reminders</text><path stroke="#000" stroke-miterlimit="10" d="M8-14.5h10m-197 31h17"/><path d="M-170.8 31.32h8.72v8.64h-8.72z"/><path d="M-164.455 42.312h4.747v-4.703h-4.747v4.703zm5.189.437h-5.63V37.17h5.63v5.579zm-6.955 1.313h8.279v-8.203h-8.279v8.203zm8.721.438h-9.163v-9.079h9.163V44.5z"/><path d="M-166.15 44.13l-.14-.14 8.28-8.2.14.14z"/><path fill="none" d="M-179 58h35v32.5h-35z"/><text transform="translate(-179 60.157)"><tspan x="0" y="0" font-family="'Helvetica-Bold'" font-size="3">Strokes</tspan><tspan x="0" y="5" font-family="'Helvetica'" font-size="2.4">Try to keep strokes at 4px</tspan><tspan x="0" y="10" font-family="'Helvetica'" font-size="2.4">Minimum stroke weight is 2px</tspan><tspan x="0" y="14.5" font-family="'Helvetica'" font-size="2.4">For thicker strokes use even </tspan><tspan x="0" y="17.5" font-family="'Helvetica'" font-size="2.4">numbers: 6px, 8px etc.</tspan><tspan x="0" y="22" font-family="'Helvetica-Bold'" font-size="2.4">Remember to expand strokes </tspan><tspan x="0" y="25" font-family="'Helvetica-Bold'" font-size="2.4">before saving as an SVG</tspan></text><path fill="none" d="M-136.5 58h35v32.5h-35z"/><text transform="translate(-136.5 60.157)"><tspan x="0" y="0" font-family="'Helvetica-Bold'" font-size="3">Size</tspan><tspan x="0" y="5" font-family="'Helvetica'" font-size="2.4">Cannot be wider or taller than </tspan><tspan x="0" y="8.5" font-family="'Helvetica'" font-size="2.4">100px (artboard size)</tspan><tspan x="0" y="13.5" font-family="'Helvetica'" font-size="2.4">Scale your icon to fill as much of </tspan><tspan x="0" y="16.5" font-family="'Helvetica'" font-size="2.4">the artboard as possible</tspan></text><path fill="none" d="M-94 58h35v32.5h-35z"/><text transform="translate(-94 60.157)"><tspan x="0" y="0" font-family="'Helvetica-Bold'" font-size="3">Ungroup</tspan><tspan x="0" y="5" font-family="'Helvetica'" font-size="2.4">If your design has more than one </tspan><tspan x="0" y="8" font-family="'Helvetica'" font-size="2.4">shape, make sure to ungroup</tspan></text><path fill="none" d="M-50 58h35v32.5h-35z"/><text transform="translate(-50 60.157)"><tspan x="0" y="0" font-family="'Helvetica-Bold'" font-size="3">Save as</tspan><tspan x="0" y="5" font-family="'Helvetica'" font-size="2.4">Save as .SVG and make sure </tspan><tspan x="0" y="8" font-family="'Helvetica'" font-size="2.4">“Use Artboards” is checked</tspan></text><text font-family="'Helvetica'" font-size="2.57" transform="matrix(1.0074 0 0 1 -125.542 30.593)">100px</text><text font-family="'Helvetica-Bold'" font-size="5.15" transform="matrix(1.0074 0 0 1 -41 39)">.SVG</text><path d="M-126.51 34.81h10.26V45h-10.26zm.03-3.04h.52v2.34h-.52zm9.67 0h.52v2.34h-.52z"/><path d="M-127 32.34h11.23v.57H-127zm43.19 1.5h10.3V44h-10.3zm7-5.13h3.31v3.26h-3.31z"/><path stroke="#000" stroke-miterlimit="10" d="M-178.5 22.5h30v30h-30zm42 0h30v30h-30zm43 0h30v30h-30zm44 0h30v30h-30z"/><path d="M84.848 58.083L52.055 30.745a3.203 3.203 0 0 0-4.108 0L15.152 58.083a3.203 3.203 0 0 0-.408 4.513 3.2 3.2 0 0 0 4.512.412L50 37.377l30.742 25.631a3.208 3.208 0 0 0 4.514-.412 3.203 3.203 0 0 0-.408-4.513z"/></symbol><symbol id="cart" viewBox="0 0 100 100"><path d="M80.6 63.9c.1-.1.1-.2.2-.3 0 0 0-.1.1-.1.1-.1.1-.3.2-.4V63c0-.1.1-.2.1-.4l.1-.3 7.4-26.1c.5-1.8-.8-3.5-2.7-3.6H27.5L24.8 23c-.6-2.5-2.4-4.2-4.5-4.2h-7c-1 0-2 .9-2.1 2.2-.1 1.5.8 2.8 2 2.8h7.1c.3 0 .6.3.7.7l10.7 37.7.1.3c0 .1.1.2.1.4v.1c.1.1.1.3.2.4 0 0 0 .1.1.1.1.1.1.2.2.3 0 .1.1.1.1.2l.2.2.1.1c.5.4 1.1.7 1.7.7h44.1c.6 0 1.2-.3 1.7-.7l.1-.1c.1-.2.2-.2.2-.3-.1.1 0 .1 0 0zm-45.3-3.3l-6.6-23.4h55.5l-6.6 23.4H35.3zm6.8 7.7c-3.6 0-6.5 2.9-6.5 6.5s2.9 6.5 6.5 6.5 6.5-2.9 6.5-6.5-2.9-6.5-6.5-6.5zm0 8.8c-1.3 0-2.3-1-2.3-2.3s1-2.3 2.3-2.3 2.3 1 2.3 2.3c0 1.1-1 2.3-2.3 2.3zm27.8-8.8c-3.6 0-6.5 2.9-6.5 6.5s2.9 6.5 6.5 6.5 6.5-2.9 6.5-6.5-3-6.5-6.5-6.5zm0 8.8c-1.3 0-2.3-1-2.3-2.3s1-2.3 2.3-2.3c1.3 0 2.3 1 2.3 2.3-.1 1.1-1.1 2.3-2.3 2.3z"/></symbol><symbol id="logo-gallagher" viewBox="0 0 485.23 128.82"><path d="M592.34 324.93v-5.84l-1.44-.09c-.72 1.43-1.82 3.7-2.16 4.47-.21-.77-1.26-3.09-1.93-4.58l-1.49-.06v5.91h1v-4.58c.67 1.71 1.33 3.2 2 4.63l.67.06c.72-1.44 1.44-2.93 2.1-4.53v4.58zm-.77-43.31c1.65-9.93-4.15-16.11-13.05-18.37l-4.42-1.16-13.1-3.42-8.57 46.45 11.72 3.09 3.31-17.87h.12l6.57 17.43 1.27 3.31 14.58 3.81-10.72-22.67c6.63.49 11.17-4.2 12.33-10.6zm-12.33-2.48c-.61 3.31-2.71 4.31-5.14 4.31a15.29 15.29 0 0 1-4.09-.61l-1.16-.34L571 271l1.1.27c.67.17 1.33.39 2 .61 3.15 1.1 5.91 3.14 5.14 7.28zm-28.08-11.92L553 257l-26.13-4.25-8.51 46.45 26.13 4.25 1.88-10.21-14.16-2.24 1.49-8.06 13.43 2.21 1.87-10.26-13.48-2.2 1.48-7.79 14.2 2.32zm-41.72 31.39l8.56-46.45-12.39.11-3.25 17.88-17.74.05 3.26-17.87h-12.32L467 298.84l12.32-.06 3.54-19.09 17.79-.05-3.54 19 12.33-.06zm-71.84-13l10.22-1.21c-1.49 5.46-6.14 8.66-11.61 9.32-8.29.94-11.38-5.85-10.06-13.07 1.27-7.07 7-15.18 15.26-16.17 5-.61 8.18 1.93 9.12 6.18l12.82-6.29c-2.6-8.17-9.51-11.53-19.46-10.37-15.63 1.87-28.07 13.07-30.89 28.19-2.65 14.57 6.14 23.28 21.33 21.46A33.37 33.37 0 0 0 456 292.16c5.3-6.34 6.91-12.19 8.29-19l-24.93 3-1.76 9.43zm-41.9 22.73l13.66-2.81-10.06-42.67-12.38 2.54-1.55.28-27.47 50.37 13.59-2.76 4.87-8.77 10.56-2.15 7.07-1.43 1.71 7.44zm-3.48-16l-5.3 1.1-5.31 1 5.31-10.44 2.65-5.34h.17l2.48 13.73zm-37.86 14.56l-15.14 2.1 6.69-36.2-12.6 1.72-8.57 46.48 27.75-3.81 1.87-10.21zm-33.82 4.7l-14.92 1 6.64-36.19-12.45.88-8.56 46.45 27.41-1.87 1.88-10.26zm-47.36 12.3l13.15-.06-9.33-46.35-12.11.05h-1.27l-26.75 46.56 13-.05 4.75-8.11 10.23-.06h6.69l1.6 8.06zM270 306.67h-5.14l-5.08.06 5.08-9.77 2.71-5.08h.11l2.32 14.79zm-59.35.11l10.83.06a12.85 12.85 0 0 1-10.83 9.7 19.28 19.28 0 0 1-2.66.17 11.12 11.12 0 0 1-7.9-3 14.66 14.66 0 0 1-4-9.76 20.69 20.69 0 0 1 0-2.49 24.71 24.71 0 0 1 .33-2.81 25.69 25.69 0 0 1 3.65-9.32c2.54-4 6.13-7.17 10.56-8.33a15.44 15.44 0 0 1 3.64-.45 10 10 0 0 1 8.51 4.31 13.8 13.8 0 0 1 1.94 5l1.38-.55.66-.27 6.14-2.43 3.7-1.49 3-1.16a25.46 25.46 0 0 0-3-6.9 18.71 18.71 0 0 0-3.7-4.25 21.42 21.42 0 0 0-6.14-3.53 2.44 2.44 0 0 1-.66-.22 29.29 29.29 0 0 0-3.32-.82 30 30 0 0 0-5.58-.5 37.84 37.84 0 0 0-6.57.55 34.61 34.61 0 0 0-10.56 3.53 30.05 30.05 0 0 0-4 2.49l-1 .66a35 35 0 0 0-5.14 4.91 38.21 38.21 0 0 0-5.15 7.78 40.57 40.57 0 0 0-3.34 10.34 1.85 1.85 0 0 0-.11.56 32 32 0 0 0 .11 13 21.79 21.79 0 0 0 3.42 7.84 20.92 20.92 0 0 0 5.15 5.13 21.83 21.83 0 0 0 5.14 2.7l1 .34a23.4 23.4 0 0 0 4 1 30.56 30.56 0 0 0 5.58.5c1.71 0 3.37-.12 5-.28a32.48 32.48 0 0 0 12.15-4.2 38.27 38.27 0 0 0 3.32-2.26 5.34 5.34 0 0 0 .66-.55 32.75 32.75 0 0 0 4.09-3.86c.72-.88 1.38-1.71 2-2.59a35.44 35.44 0 0 0 3.7-6.35 60.14 60.14 0 0 0 4-13.79H233l-6.14-.06h-4l-11.08-.13-1.1 6.07-1 5.74zm62.5-32.55h1.49c-.27-.94-2-6.07-2.71-6.07-.5 0-2.43 1.44-3.59 1.55l1-6.18a26 26 0 0 0-1.88-3.31c-.28-.45-1.83-3.31-2.55-3.31-.49 0-1.88 1.32-2.59 1.71v-3.2c-.28-.94 0-2-.39-2.65a23.88 23.88 0 0 0-5.14-5 .36.36 0 0 0-.28-.11c-.49 0-1.71 1.49-2.37 2.2-.5-1.76-.44-4.08-1.55-5.46a14.48 14.48 0 0 0-4.2-3 9.33 9.33 0 0 0-2.21-.88c-.83 0-1.77 2.21-2.15 2.7-.61-1.15-1.06-2.48-1.78-3.64a5.47 5.47 0 0 0-1.25-1.48 12.85 12.85 0 0 0-4.37-1.72 16.85 16.85 0 0 0-2.21-.44c-.66 0-1.16.94-1.49 1.77-.23.6-.39 1.16-.44 1.27-1.28-1.27-2.21-3.48-3.93-4.14a9.17 9.17 0 0 0-1.77-.44 2.55 2.55 0 0 0-.66-.12c-1.11-.1-2.21-.1-3.32-.16-.6 0-1.21-.05-1.82-.11-.44 1.21-.61 2.37-.94 3.48-1.66-1.16-4.7-3.48-5.19-3.48-.33 0-2.27.27-4.2.5-1.11.11-2.21.27-3 .33a1.85 1.85 0 0 0-.39.38 28.34 28.34 0 0 0 0 3.2l-5.59-2.31a16 16 0 0 1-1.54.55c-1.22.38-2.76.88-4 1.38-.38.11-.66.27-1 .38-.67.34-1.11.61-1.11.78a18.93 18.93 0 0 0 .77 2.53c-.16.17-.88.11-.88.11-1.05-.22-2.82-.49-3.92-.66-.39 0-.72-.05-.89-.05a1.48 1.48 0 0 0-.6.05 38.8 38.8 0 0 1-3.66 2c-1.76.88-3.25 1.6-3.25 2.15a6.6 6.6 0 0 0 1.32 2.54c-.39 0-.78 0-1.49.11a17.69 17.69 0 0 0-2.43.22 5.14 5.14 0 0 0-2.32.28 19.73 19.73 0 0 0-2.66 1.87c-1.82 1.43-3.53 3-3.53 3.37s1.32 1.59 1.88 2.32c-1.66.55-3.6.49-5.2 1.15a3.76 3.76 0 0 0-1.05.55 22.53 22.53 0 0 0-4.8 5.63 4.23 4.23 0 0 0-.39.77 1.37 1.37 0 0 0 .39.67 12.07 12.07 0 0 0 1.93 1.54 9 9 0 0 1-1.93 1c-2.22.83-4.54 1.27-5.31 4.09L153.2 270l-7.13-3.53-2.6-1.27-.33-.16-10.66-5.25a32.1 32.1 0 0 0-3.82 1.61c-1 .6-1.16 1.87-1.71 2.53-.28-.16-.72-.38-1.11-.55a2.31 2.31 0 0 0-1-.33 11.06 11.06 0 0 0-4.15 3c-.71.94-.66 2.32-1 3.43h-.49a7 7 0 0 0-2.21-.94c-.94 0-2.76 4-2.81 4.24a33.54 33.54 0 0 1-1.17 5.14c-.5 0-1.1-.22-1.49-.17a9.78 9.78 0 0 0-2.16 5c0 .49.39 3.75.39 4.25s0 .66-.11.82a5.77 5.77 0 0 0-2.54.06v5.85c0 .38.94 2.2.94 2.64s-.94 2.32-.94 2.76v6a1.5 1.5 0 0 0 1.33.45c.49 0 1-.22 1.37-.06-.21 2.26-.44 4.14-.44 4.58 0 1.27 1.6 4.08 2.1 5.13a5.13 5.13 0 0 0 1.55-.17 35.53 35.53 0 0 1 1.17 5.14c0 .22 2 4.25 3 4.25a23.27 23.27 0 0 0 2.48-.72c.34 1 .67 2.21 1 3.31.16.55 3.37 3.14 4.31 3.14a2.33 2.33 0 0 0 .88-.27 9.39 9.39 0 0 0 1.49-.72c.06 2.65 3.38 3.42 5.2 4.08l10.61-5.13.33-.16 2.6-1.27 3.87-1.88c.33.88.33 2.1.94 2.81a6.91 6.91 0 0 0 2.32 1.66 31 31 0 0 1 2.76 1.54c-.28.12-2.65 1.16-2.65 1.83 0 .5 1.93 4.91 3.81 6.45 1.17.94 2.76 1.1 4.21 1.38.49.11.93.17 1.32.28-.33.33-.89.77-1.32 1.21s-1 .94-1 1.16a4.74 4.74 0 0 0 1 1.38 22.16 22.16 0 0 0 4.08 3.91 3.18 3.18 0 0 0 1.77.28h.39c2.43.28 3.15.17 3.86.33-.54.66-1.87 2-1.87 2.54s2.54 2 4.47 3.14a9.12 9.12 0 0 0 2.22 1c.44 0 4.53-.72 5.19-.77h.05c.5 0 .33.16.33.16-.11.22-.27.44-.38.71a5.29 5.29 0 0 0-.78 1.72.75.75 0 0 0 .45.77l.33.17c1 .38 2.26.82 3.42 1.27a28.68 28.68 0 0 0 3.1 1 10.14 10.14 0 0 0 2-.66c1.16-.45 2.48-.94 3.42-1.27.45 1-.39 1.6-.39 2.37a1 1 0 0 0 .45.83l1.66.16a6.66 6.66 0 0 0 1 .11c1.55.22 3.2.44 4 .5a2 2 0 0 0 .49.05c1.33 0 5-2.7 5.7-3.08.5 1.82-.78 3.08 1.16 3.08.28 0 1.66 0 3.21-.16a14.44 14.44 0 0 0 3.75-.72c1.82-.72 3.26-2.81 4.7-4.13.27.71-.06 3.08 1.44 3.08a16.71 16.71 0 0 0 2.26-.44 28.79 28.79 0 0 0 3.32-1l.66-.33a3.89 3.89 0 0 0 .83-.45c1.88-1.21 2.93-3.36 3.92-4.79.29.33.5 1.92 1.39 2.31a.59.59 0 0 0 .44.11 14.4 14.4 0 0 0 3.26-1.27 15.07 15.07 0 0 0 3.37-2.26 14.73 14.73 0 0 0 2.26-4 16.33 16.33 0 0 1 1-1.82c.5.72 1.55 2.26 2 2.26a16.42 16.42 0 0 0 3.15-2 17.93 17.93 0 0 0 3.43-3.2c1.05-1.44.88-3.48 1.16-5.08.72.66 2.1 2 2.6 2 .16 0 .6-.38 1.21-1a29.46 29.46 0 0 0 4.09-5.35c.28-.89.06-1.93.28-2.87v-6.57c-1.44-.77-2.93-1.54-4.37-2.2-.77-.39-1.55-.72-2.32-1.05-1.55 1.65-1.88 6.12-5 5 2.16 1.77 5 3.81 7.35 5.8a28.77 28.77 0 0 1 2.22 2.09 25.31 25.31 0 0 0-2.22 2.71c-.49.6-.88 1.21-1.33 1.76l-7.07-6.62-5.85-5.57h-7.8c-.66.61-1.27 1.21-1.82 1.76a11.41 11.41 0 0 1-1.6 1.44 34.37 34.37 0 0 1-4.54 2.53l-.66.34c-1.11.49-2.21 1-3.32 1.43a72.42 72.42 0 0 1-7 2.37 41 41 0 0 1-5.19.78c-1.55.11-2.88.22-3.1.22a64.21 64.21 0 0 1-7.46-.72 2.55 2.55 0 0 0-.61-.11c-1.1-.28-2.26-.55-3.37-.94a5.25 5.25 0 0 1-1-.28c-1.11-.38-2.27-.77-3.32-1.15-.56-.22-1.16-.5-1.82-.83a26.85 26.85 0 0 1-5.15-3.48 30.82 30.82 0 0 1-3.42-3.14 22 22 0 0 1-4.31-6.07c-.44-1-1.33-1.82-1.83-2.87s-.88-2-1.27-3.09c-.44-1.32-.88-2.65-1.21-4a39.36 39.36 0 0 1-.5-6.29c0-.55-.5-1.05-.5-1.49a81.26 81.26 0 0 1 1.22-9.76c.27-1.16.61-2.38 1-3.59.5-1.55 1.11-3.09 1.66-4.58a37.83 37.83 0 0 1 3.15-5.35 17.79 17.79 0 0 1 1-2c.5-.61 1.05-1.22 1.55-1.82 1.1-1.33 2.21-2.65 3.42-3.92.51-.5.95-1 1.44-1.49a41.18 41.18 0 0 1 3.71-2.81 3.51 3.51 0 0 0 .71-.56 12.9 12.9 0 0 1 2.34-1.72c.72-.39 1.44-.77 2.16-1.21l1-.5a34.36 34.36 0 0 1 4-2 .85.85 0 0 1 .38-.11 63.39 63.39 0 0 1 8.18-2.48c.56-.11 1.28-.22 2-.33 2.54-.28 5.57-.28 6-.28s3.65.17 6.19.5c.61.11 1.16.22 1.66.33a16.6 16.6 0 0 1 1.66.39l.66.16a18.28 18.28 0 0 1 5.09 2.1 9.48 9.48 0 0 1 1 .61c1.16.71 2.43 1.49 3.7 2.37a31.83 31.83 0 0 1 5.63 4.74 21.63 21.63 0 0 1 1.78 2.1 55.15 55.15 0 0 1 4.36 7c.11.27.28.55.39.77 1.16 2.31 1.82 5.19 3 7.72 2.82.61 3.76-2.31 5-4.85a10.32 10.32 0 0 1 1.44-2.38l-1.44.61-5.31 2c-.33-.88-.71-2-1.1-2.92l6.41-3 14.64-7a43.16 43.16 0 0 1 1.72 4zM236.65 335l-3.26-4.52a24.4 24.4 0 0 1 2.76-2.38l.5.56 5.63 6.34 6.14 6.85 1.6 1.81-1.6 1.39-2.87 2.37-3.27-4.53-5.63-7.89zm-9.84 2.76l-.66-1.71-.17-.39V335c.06-.06.12-.06.17-.11.22-.11.44-.28.66-.39.78-.44 1.61-.88 2.32-1.27l3.82 7.4 3.7 7.17 2.1 4.08-2.1 1.1-3 1.55-.72-1.82-6.14-15zm-9.28.33c1-.38 2.15-.6 3.59-1l1.71 6.67 3.32 13.19.16.66-.16.06-3.32 1-1.82.55-3.48-21.13zm-9.73 23.23l1.2-22.16h3.38l1 21.52-2.65.33c-1 .11-1.94.17-2.88.28zm-13-.61l.34-1.38 1-3.64 4-15.12.44-1.54h2.93a.71.71 0 0 1 .28.61l-3.65 21.51v.17c-1.33-.11-2.66-.28-4-.44-.33-.06-.66-.06-1-.11-.11 0-.22-.06-.34-.06zm-12.43-3.47l2.48-5.08 5.15-10.51 2.53-5.13 2.61.82.38.17-.38.94-5.14 13.62-2.55 6.74c-.93-.28-1.76-.56-2.6-.83s-1.65-.55-2.48-.77zm-10.95-5.69l2.6-3.47 7.41-9.76 3.42-4.59.62-.83a13.36 13.36 0 0 1 2.59 1.61l-3.21 5.07-3.41 5.42-5.64 8.88c-.55-.28-1.16-.55-1.77-.89-.88-.49-1.77-1-2.6-1.49zm-4.25-12.8l6.85-6.34 5.37-4.91a15.51 15.51 0 0 1 2 1.88l.33.33-.33.33-7.39 7.86-6.85 7.33-1.33 1.38c-1.21-1-2.37-2.15-3.59-3.36l4.92-4.53zm-5.85-9.37l5.85-3.65 6.85-4.24.78-.45c.77.28 1.16 1.66 1.83 2.43l-2.63 1.85-6.85 5.13-5.85 4.3-3.3 2.54a23.71 23.71 0 0 1-2.76-4.19l6.14-3.75zm-10-5.25c.6-.33 1.21-.6 1.82-.93 2.59-1.33 5.36-2.54 8.13-4.2a28.64 28.64 0 0 0 4.47-3.25 5.75 5.75 0 0 1 1.38-.83c1.44-.66 3.21-.94 4.75-1.49a16.19 16.19 0 0 1 1 3.2l-5.8 2.7-5.85 2.76-8.13 3.81-1 .44a14.19 14.19 0 0 0-.82-2.21zm-20.45 7l12.21-5.8.33-.16 2.6-1.22 7.13-3.36H155l-1.82.88-7.11 3.53-2.6 1.27-.33.16-10.61 5.3c-.38-.22-1-.39-1.6-.66zm-7.8-4.09l2.71-1.21 17.3-7.67.33-.11 2.6-1.16.33-.16a9.93 9.93 0 0 1 1.71 1.43l-2 .94-2.6 1.16-.33.16-17.3 7.89-.88.39a7.59 7.59 0 0 1-1.83-1.66zm-7.07-6.62l9.78-3.47 16.64-5.8a4.54 4.54 0 0 1 .66.78l.33.49c.06.12.17.28.23.39l-.23.11-.33.11-17.3 6.68-8.4 3.3c-.39-.82-1-1.76-1.38-2.59zm-4.81-9.21l14.59-3.09 14.2-3c.23.61.39 1.22.62 1.88l-14.82 3.48-13.54 3.2a11.6 11.6 0 0 1-1-2.43zm-2.6-10.7l17.19-.66 13-.5a7 7 0 0 0 0 2l-13 1.16-17.13 1.49v-3.58zm17.19-9.82l12.82 1a16.93 16.93 0 0 1 0 2.21l-12.82-.55-17.19-.72v-3.42l17.19 1.44zm0-7.78l14.82 3.69a14.51 14.51 0 0 1-.78 1.66l-14-3.09-14.75-3.26a23.73 23.73 0 0 1 1.21-2.42l13.54 3.42zm0-9.22l17.3 6.68.33.11h.06s-.06.11-.06.16a6.73 6.73 0 0 0-.33.61c-.11.28-.27.55-.44.88l-16.86-5.79-10-3.42c.39-.83 1-1.76 1.39-2.59l8.56 3.36zm17.3-.66l.33.17 2.6 1.16 2.65 1.21a11.11 11.11 0 0 1-1.93 1.27l-.72-.33-2.6-1.16-.33-.11-17.3-7.51-2.92-1.32a9.78 9.78 0 0 1 2-1.65l.93.49 17.3 7.78zm12.05-.11a5.2 5.2 0 0 0-1.49.28l-.5-.28-7.13-3.42-2.6-1.27-.33-.16-12-5.85c.44-.28 1.06-.45 1.44-.66l10.61 5.29.33.17 2.6 1.32 7.13 3.53 2 1.05zm6.14 5.85c2.81 2.42 4.8 6.4 5.85 9.65a17.7 17.7 0 0 1 .83 4 55.59 55.59 0 0 1 0 8.56 18.1 18.1 0 0 1-.83 4c-1.05 3.3-3 7.44-5.85 9.93a7.77 7.77 0 0 1-5.21 2.15 13.74 13.74 0 0 1-2.92-.45 5.44 5.44 0 0 1-1.16-.38c-2.49-1.22-4.76-4.19-6-6.68a7.64 7.64 0 0 1-.39-.71 39.67 39.67 0 0 1-2.21-10.26c-.05-.61-.11-1.27-.11-1.83 0-.11.06-.44.11-.93.17-1.71.61-5.24 1.05-7.45a17.21 17.21 0 0 1 1.55-4.19 16 16 0 0 1 5.2-6.13 6.94 6.94 0 0 1 1.93-.94 9.75 9.75 0 0 1 2.76-.49 8.14 8.14 0 0 1 5.37 2.15zm5.85-3.42l6.85 3.53 2.77 1.38a15.8 15.8 0 0 1-1.77 3.42l-1-.33c-1.88-.72-3.86-1.49-5.74-2.43-.39-.22-.61-1-.88-1.33a.68.68 0 0 1-.23-.21 22 22 0 0 0-4.64-4.42c-.39-.27-.78-.5-1.21-.77-1.16-.66-2.49-1.21-3.82-1.82 0-.44.39-1.05.61-1.66l3.21 1.66 5.85 3zm6.85-9.16l7.41 6.45.71.61a10.94 10.94 0 0 1-.71 1.16c-.45.61-.94 1.22-1.44 1.82L174 272l-6.85-4.91-4.31-3 3.7-4.46.61.49 6.85 6.07zm10.83-4.8l4.15 5.79c-1 .83-1.94 1.38-3 2.15l-1.17-1.32-3.34-4.01-7.44-8.42-1.65-1.82 1.65-1.27 2.88-2.26 4.53 6.29 3.42 4.8zm10.35-2.39l1 2.31.39.94c-.11.11-.28.22-.39.33l-1 .67c-.5.33-1.11.66-1.61.93l-3.54-6.5-5.15-9.44-1.32-2.48a12.77 12.77 0 0 1 1.32-.72 39.89 39.89 0 0 1 3.71-1.82l1.44 3.42 5.15 12.36zm9.34.38a24 24 0 0 0-3.16 1l-1.21-4.53-4-14.56-.38-1.44.38-.1 4-1.33.88-.42 3.49 20.08v1.21zm9.78-23.55l-1.16 22.12h-3.43l-1-21.57c.61-.06 1.22-.17 1.94-.22 1-.11 2.09-.22 3.59-.33zm13 .38l-.5 1.77-.66 2.59-3.32 12.41-1.32 4.8a31.05 31.05 0 0 0-3.21 0l3.74-22.22c.28.05.55.05.88.11 1.11.11 2.21.22 3.32.38.22 0 .44.06.66.06a1.7 1.7 0 0 0 .5 0zm12.21 3.09l-2.87 5.91-3.7 7.72-3.43 7.06c-.89-.33-1.82-.66-2.71-1.05-.17-.05-.27-.11-.44-.16l.44-1.16 6.23-15.33 1.82-4.64 1.88.66 2.87.94zm11.32 5.7l-2.38 3.2-6.14 8.17-5.52 7.39c-.06 0-.06 0-.11-.06-1-.55-1.88-1.1-2.87-1.71l2.87-4.52 5.63-8.77 4-6.24c.72.39 1.44.77 2.16 1.22s1.55.88 2.38 1.32zm9.39 8l-3.37 3-8.4 7.72-5.52 5.08-.62-.55-1.6-1.6 1.6-1.77 6.14-6.62 8.24-8.88.16.17 3.37 3.41zm7.41 10.26l-10.78 6.57-8.4 5.13-.61.39a20.86 20.86 0 0 1-1.77-2.6l2.38-1.81 8.4-6.29 7.85-5.91c1 1.38 2 2.92 2.93 4.52zm-106.27 18.47a6.93 6.93 0 0 0-4.93-2 7.42 7.42 0 0 0-3.2.71c-5.36 2.54-6.91 11.15-7.13 15.29a6.18 6.18 0 0 0 0 .93 5.62 5.62 0 0 0 0 .89c.22 4 2 12.91 7.13 15.61a6.81 6.81 0 0 0 3.2.77 9.41 9.41 0 0 0 4-1.43 6.54 6.54 0 0 0 .89-.78c3.92-4 5-10.92 5-15.06 0-3.09-1-11.19-5-14.95zm0 8.72a11.4 11.4 0 0 1 1.7 6.23 12 12 0 0 1-1.7 6.3 11 11 0 0 1-1.72 2.2 26.17 26.17 0 0 0 1.49-8.5 35.35 35.35 0 0 0-1.27-8.1 10.79 10.79 0 0 1 1.5 1.87zm423.1 28.41l-5.08-.16v.77l1.94.06v5.07l1.21.06v-5.08l1.93.06v-.78z" transform="translate(-107.11 -234.01)"/></symbol></svg>