<svg xmlns="http://www.w3.org/2000/svg"><symbol id="cart" viewBox="0 0 24 24"><path d="M5.65 13.68l-.1-1.98h16.794v-2H5.45l-.42-7.98v-.04H1.04v2h2.09l.62 12h18.58v-2H5.65z"/><circle cx="7.77" cy="19.7" r="2"/><circle cx="18.67" cy="19.7" r="2"/></symbol><symbol id="check" viewBox="0 0 24 24"><path d="M10 15.586l-3.293-3.293-1.414 1.414L10 18.414l9.707-9.707-1.414-1.414z"/></symbol><symbol id="linkedin" viewBox="0 0 24 24"><circle cx="4.98" cy="5.01" r="2.19"/><path d="M9.237 8.855v12.139h3.769v-6.003c0-1.584.298-3.118 2.262-3.118 1.937 0 1.961 1.811 1.961 3.218v5.904H21v-6.657c0-3.27-.704-5.783-4.526-5.783-1.835 0-3.065 1.007-3.568 1.96h-.051v-1.66H9.237zm-6.142 0H6.87v12.139H3.095z"/></symbol><symbol id="arrow-left" viewBox="0 0 24 24"><path d="M13.293 6.293L7.586 12l5.707 5.707 1.414-1.414L10.414 12l4.293-4.293z"/></symbol><symbol id="cross" viewBox="0 0 24 24"><path d="M16.192 6.344l-4.243 4.242-4.242-4.242-1.414 1.414L10.535 12l-4.242 4.242 1.414 1.414 4.242-4.242 4.243 4.242 1.414-1.414L13.364 12l4.242-4.242z"/></symbol><symbol id="facebook" viewBox="0 0 24 24"><path d="M13.397 20.997v-8.196h2.765l.411-3.209h-3.176V7.548c0-.926.258-1.56 1.587-1.56h1.684V3.127A22.336 22.336 0 0 0 14.201 3c-2.444 0-4.122 1.492-4.122 4.231v2.355H7.332v3.209h2.753v8.202h3.312z"/></symbol><symbol id="user" viewBox="0 0 24 24"><circle cx="12" cy="7" r="3" fill="none"/><path d="M12 2C9.243 2 7 4.243 7 7s2.243 5 5 5 5-2.243 5-5-2.243-5-5-5zm0 8c-1.654 0-3-1.346-3-3s1.346-3 3-3 3 1.346 3 3-1.346 3-3 3zm9 11v-1c0-3.859-3.141-7-7-7h-4c-3.86 0-7 3.141-7 7v1h2v-1c0-2.757 2.243-5 5-5h4c2.757 0 5 2.243 5 5v1h2z"/></symbol><symbol id="search" viewBox="0 0 24 24"><path d="M10 18a7.952 7.952 0 0 0 4.897-1.688l4.396 4.396 1.414-1.414-4.396-4.396A7.952 7.952 0 0 0 18 10c0-4.411-3.589-8-8-8s-8 3.589-8 8 3.589 8 8 8zm0-14c3.309 0 6 2.691 6 6s-2.691 6-6 6-6-2.691-6-6 2.691-6 6-6z"/></symbol><symbol id="youtube" viewBox="0 0 24 24"><path d="M21.593 7.203a2.506 2.506 0 0 0-1.762-1.766C18.265 5.007 12 5 12 5s-6.264-.007-7.831.404a2.56 2.56 0 0 0-1.766 1.778c-.413 1.566-.417 4.814-.417 4.814s-.004 3.264.406 4.814c.23.857.905 1.534 1.763 1.765 1.582.43 7.83.437 7.83.437s6.265.007 7.831-.403a2.515 2.515 0 0 0 1.767-1.763c.414-1.565.417-4.812.417-4.812s.02-3.265-.407-4.831zM9.996 15.005l.005-6 5.207 3.005-5.212 2.995z"/></symbol><symbol id="arrow-right" viewBox="0 0 24 24"><path d="M10.707 17.707L16.414 12l-5.707-5.707-1.414 1.414L13.586 12l-4.293 4.293z"/></symbol><symbol id="arrow-up" viewBox="0 0 24 24"><path d="M6.293 13.293l1.414 1.414L12 10.414l4.293 4.293 1.414-1.414L12 7.586z"/></symbol><symbol id="arrow-down" viewBox="0 0 24 24"><path d="M16.293 9.293L12 13.586 7.707 9.293l-1.414 1.414L12 16.414l5.707-5.707z"/></symbol><symbol id="refine" viewBox="0 0 24 24"><path d="M7.5 14.5c-1.58 0-2.903 1.06-3.337 2.5H2v2h2.163c.434 1.44 1.757 2.5 3.337 2.5s2.903-1.06 3.337-2.5H22v-2H10.837c-.434-1.44-1.757-2.5-3.337-2.5zm0 5c-.827 0-1.5-.673-1.5-1.5s.673-1.5 1.5-1.5S9 17.173 9 18s-.673 1.5-1.5 1.5zm9-11c-1.58 0-2.903 1.06-3.337 2.5H2v2h11.163c.434 1.44 1.757 2.5 3.337 2.5s2.903-1.06 3.337-2.5H22v-2h-2.163c-.434-1.44-1.757-2.5-3.337-2.5zm0 5c-.827 0-1.5-.673-1.5-1.5s.673-1.5 1.5-1.5 1.5.673 1.5 1.5-.673 1.5-1.5 1.5zM12.837 5C12.403 3.56 11.08 2.5 9.5 2.5S6.597 3.56 6.163 5H2v2h4.163C6.597 8.44 7.92 9.5 9.5 9.5s2.903-1.06 3.337-2.5h9.288V5h-9.288zM9.5 7.5C8.673 7.5 8 6.827 8 6s.673-1.5 1.5-1.5S11 5.173 11 6s-.673 1.5-1.5 1.5z"/></symbol><symbol id="instagram" viewBox="0 0 24 24"><path d="M11.999 7.377a4.623 4.623 0 1 0 0 9.248 4.623 4.623 0 0 0 0-9.248zm0 7.627a3.004 3.004 0 1 1 0-6.008 3.004 3.004 0 0 1 0 6.008z"/><circle cx="16.81" cy="7.21" r="1.08"/><path d="M20.533 6.111A4.605 4.605 0 0 0 17.9 3.479a6.606 6.606 0 0 0-2.186-.42c-.963-.042-1.268-.054-3.71-.054s-2.755 0-3.71.054a6.554 6.554 0 0 0-2.184.42 4.6 4.6 0 0 0-2.633 2.632 6.585 6.585 0 0 0-.419 2.186c-.043.962-.056 1.267-.056 3.71 0 2.442 0 2.753.056 3.71.015.748.156 1.486.419 2.187a4.61 4.61 0 0 0 2.634 2.632 6.584 6.584 0 0 0 2.185.45c.963.042 1.268.055 3.71.055s2.755 0 3.71-.055a6.615 6.615 0 0 0 2.186-.419 4.613 4.613 0 0 0 2.633-2.633c.263-.7.404-1.438.419-2.186.043-.962.056-1.267.056-3.71s0-2.753-.056-3.71a6.581 6.581 0 0 0-.421-2.217zm-1.218 9.532a5.043 5.043 0 0 1-.311 1.688 2.987 2.987 0 0 1-1.712 1.711 4.985 4.985 0 0 1-1.67.311c-.95.044-1.218.055-3.654.055-2.438 0-2.687 0-3.655-.055a4.96 4.96 0 0 1-1.669-.311 2.985 2.985 0 0 1-1.719-1.711 5.08 5.08 0 0 1-.311-1.669c-.043-.95-.053-1.218-.053-3.654 0-2.437 0-2.686.053-3.655a5.038 5.038 0 0 1 .311-1.687c.305-.789.93-1.41 1.719-1.712a5.01 5.01 0 0 1 1.669-.311c.951-.043 1.218-.055 3.655-.055s2.687 0 3.654.055a4.96 4.96 0 0 1 1.67.311 2.991 2.991 0 0 1 1.712 1.712 5.08 5.08 0 0 1 .311 1.669c.043.951.054 1.218.054 3.655 0 2.436 0 2.698-.043 3.654h-.011z"/></symbol><symbol id="twitter" viewBox="0 0 24 24"><path d="M19.633 7.997c.013.175.013.349.013.523 0 5.325-4.053 11.461-11.46 11.461-2.282 0-4.402-.661-6.186-1.809.324.037.636.05.973.05a8.07 8.07 0 0 0 5.001-1.721 4.036 4.036 0 0 1-3.767-2.793c.249.037.499.062.761.062.361 0 .724-.05 1.061-.137a4.027 4.027 0 0 1-3.23-3.953v-.05c.537.299 1.16.486 1.82.511a4.022 4.022 0 0 1-1.796-3.354c0-.748.199-1.434.548-2.032a11.457 11.457 0 0 0 8.306 4.215c-.062-.3-.1-.611-.1-.923a4.026 4.026 0 0 1 4.028-4.028c1.16 0 2.207.486 2.943 1.272a7.957 7.957 0 0 0 2.556-.973 4.02 4.02 0 0 1-1.771 2.22 8.073 8.073 0 0 0 2.319-.624 8.645 8.645 0 0 1-2.019 2.083z"/></symbol></svg>