<svg id="Layer_1" data-name="Layer 1" xmlns="http://www.w3.org/2000/svg" xmlns:xlink="http://www.w3.org/1999/xlink" viewBox="0 0 25 25"><defs><style>.cls-1{fill:none;}.cls-2{clip-path:url(#clip-path);}.cls-3{fill:#231f20;}</style><clipPath id="clip-path"><rect class="cls-1" width="25" height="25"/></clipPath></defs><title>AM WEBSITE ICONS</title><g class="cls-2"><g class="cls-2"><path class="cls-3" d="M5.16,11.88a6,6,0,0,1,.63-.79s0-.25.06-.53c.19-.79,2.2-1.37,2-1.17s-1.35.83-1.29,1.28l.06.18s.12-.07.53,0a1.22,1.22,0,0,1,.59.25s0,.17-.26.22a2.51,2.51,0,0,1-.8-.08l0,0C7.73,12.3,9.38,14,11,14c1.41,0,8.41-.1,8.41-.1a4.11,4.11,0,0,1,2.23.27,2.57,2.57,0,0,1-.9.57,2.42,2.42,0,0,1,.46,1.51c0,1.5-.59,1.89-.53,2.45a24,24,0,0,0,.69,2.31c0,.29,0,2.58,0,2.86a2.49,2.49,0,0,1-.52.95,1,1,0,0,1-.74,0c-.16-.1.48-.9.51-1.18a7.91,7.91,0,0,0-.21-2.66A17.83,17.83,0,0,1,19,19.21c-1.53-.51-4.73.87-7,0-.36,1.27-.86,5.51-1,5.68a1,1,0,0,1-.91,0c-.09-.12.12-.72.12-.72a.45.45,0,0,0,.08-.23c0-.13.23-2.53.21-2.24S10.36,19,10.36,19s-.81-.15-1.34-1.7a9.91,9.91,0,0,0-2.5-3.25l-1.22.49s.37.61-.07.9-.78.26-.76.17.19,0,.16-.3a1.06,1.06,0,0,0-.31-.54,1.89,1.89,0,0,1-.58,0,1,1,0,0,1-.37-.45S5,12.14,5.16,11.88"/></g></g></svg>