<svg id="Layer_1" data-name="Layer 1" xmlns="http://www.w3.org/2000/svg" xmlns:xlink="http://www.w3.org/1999/xlink" viewBox="0 0 25 25"><defs><style>.cls-1{fill:none;}.cls-2{clip-path:url(#clip-path);}.cls-3{fill:#231f20;}</style><clipPath id="clip-path"><rect class="cls-1" width="25" height="25"/></clipPath></defs><title>AM WEBSITE ICONS</title><g class="cls-2"><polygon class="cls-3" points="5.6 4.38 5.49 4.48 5.41 4.6 5.32 4.72 5.21 4.76 5.05 4.74 4.92 4.72 4.79 4.76 4.76 4.91 4.75 5.05 4.68 5.07 4.59 5 4.48 4.93 4.33 4.96 4.21 5.21 4.17 5.47 4.06 5.69 4.05 5.98 3.94 6.21 3.85 6.27 3.28 6.89 4.05 6.99 4.24 7.31 4.48 7.77 4.71 8.26 4.79 8.7 4.73 9.03 4.55 9.36 4.4 9.85 4.33 10.69 4.43 11.74 4.66 12.32 4.88 12.65 4.99 12.92 5.09 14.57 5.37 15.85 5.88 16.87 6.56 17.69 7.19 18.22 7.58 18.45 7.84 18.54 8.05 18.64 8.31 18.9 8.61 19.26 8.86 19.66 9.01 20.02 9.07 20.36 9.14 20.7 9.28 21 9.53 21.21 9.74 21.38 9.79 21.56 9.75 21.71 9.72 21.78 9.7 22.01 9.53 22.3 9.44 22.43 9.48 22.59 9.38 22.88 9.14 23.37 8.87 23.89 8.63 24.19 8.41 24.32 8.12 24.41 7.78 24.49 7.44 24.58 7.1 24.68 6.88 24.77 6.74 24.84 6.7 24.86 9.34 24.86 9.29 24.8 9.16 24.7 8.99 24.58 8.83 24.52 8.76 24.46 8.83 24.35 8.94 24.25 9.01 24.19 9.62 23.05 9.68 23.02 9.8 22.93 9.95 22.81 10.05 22.64 10.05 22.15 10.24 21.81 10.38 21.39 10.45 21.32 10.6 21.16 10.74 20.91 10.81 20.64 11.28 20.64 11.39 21.1 11.64 21.46 11.95 21.69 12.18 21.82 12.35 21.9 12.46 22.02 12.49 22.13 12.29 22.43 12.37 22.68 12.38 22.98 12.3 23.45 12.17 23.96 12 24.3 11.85 24.4 11.61 24.51 11.32 24.61 11.02 24.71 10.76 24.8 10.55 24.85 10.44 24.9 10.47 24.91 10.76 24.91 11.14 24.93 11.55 24.95 11.96 24.95 12.33 24.97 12.62 24.99 12.84 25 12.92 25 12.86 24.95 12.73 24.84 12.56 24.73 12.42 24.63 12.32 24.35 12.46 24.01 12.59 23.51 12.63 23.01 12.76 22.78 12.92 22.53 12.91 22.28 12.88 22.06 12.96 21.78 13.16 21.49 13.24 21.27 13.32 20.97 13.41 20.64 13.58 20.36 13.75 20.22 14.04 20.06 14.39 19.88 14.81 19.67 15.22 19.45 15.6 19.23 15.92 18.99 16.14 18.74 16.43 18.47 16.68 18.51 16.95 18.55 17.28 18.32 17.71 17.73 18.15 17.01 18.49 16.35 18.6 15.93 18.77 15.62 19.19 15.16 19.52 14.63 19.51 14.01 19.55 13.79 20.02 13.76 20.57 13.04 20.88 10.73 20.85 10.69 20.83 10.57 20.88 10.37 21.12 10.12 21.45 9.8 21.67 9.43 21.72 9.1 21.54 8.83 21.17 8.74 20.72 8.84 20.32 9.07 20.07 9.36 19.86 9.47 19.54 9.42 19.15 9.49 18.76 9.97 18.59 9.98 18.18 10.06 17.65 10.28 17.14 10.69 16.75 11.11 16.43 11.34 16.17 11.38 15.91 11.3 15.56 11.18 14.88 10.99 13.95 10.73 12.91 10.46 11.87 10.19 10.9 9.96 10.11 9.78 9.62 9.69 9.26 9.47 8.84 8.95 8.37 8.23 7.9 7.39 7.47 6.58 7.11 5.88 6.88 5.38 6.78 5.19 7.01 4.96 7.1 4.66 7.03 4.41 6.78 4.34 6.54 4.41 6.45 4.49 6.41 4.55 6.28 4.57 6.13 4.52 6.05 4.39 5.97 4.29 5.79 4.29 5.6 4.38"/></g></svg>