<svg id="Layer_1" data-name="Layer 1" xmlns="http://www.w3.org/2000/svg" xmlns:xlink="http://www.w3.org/1999/xlink" viewBox="0 0 25 25"><defs><style>.cls-1{fill:none;}.cls-2{clip-path:url(#clip-path);}.cls-3{fill:#231f20;}</style><clipPath id="clip-path"><rect class="cls-1" width="25" height="25"/></clipPath></defs><title>AM WEBSITE ICONS</title><g class="cls-2"><g class="cls-2"><path class="cls-3" d="M1.5,7.32c.31-.43.67-.92.69-1a2.11,2.11,0,0,1,.66-1l0-1A.11.11,0,0,1,3,4.22a.11.11,0,0,1,.12,0l1.1,1C5.65,5.27,7.5,7,9,8.35A11.66,11.66,0,0,0,10.8,9.86a3.23,3.23,0,0,0,1.67.38c.49,0,1-.05,1.76-.12S15.87,10,17,9.92c.72,0,1.34,0,1.83,0H19l.35,0a4.08,4.08,0,0,1,1.29.28,5.49,5.49,0,0,1,2.05,1.18,1.5,1.5,0,0,1,.23.2.87.87,0,0,1,.18.19c1.28,1.5,1.08,4.38,1.07,4.41a7,7,0,0,0,.22,2.64l.26.49c.22.41.34.63.18.74l-.09,0a3,3,0,0,1-1.14-.56s0,0,0,0c-.48-.75-1.28-2.66-1.27-7a.51.51,0,0,0-.16-.4.57.57,0,0,0-.39-.16.14.14,0,0,1-.11,0,.16.16,0,0,1-.07.07.56.56,0,0,0-.39.53c0,4,.66,6.15,1.22,7.24a.14.14,0,0,1,0,.06c0,.75-.14,1.93-.19,2.55q0,.27,0,.36c0,.37,0,1.45,0,1.48l-.13.67a.11.11,0,0,1-.09.09l-.38.07H20.3a.09.09,0,0,1-.08,0,.16.16,0,0,1-.06-.12,3.15,3.15,0,0,1,.2-.91s0,0,0,0l.11-.16.09-.17c.06-.86.2-3.06.16-3.35a4,4,0,0,0-1.41-2,16.23,16.23,0,0,1-2.06-2.3c-.26.09-1.22.39-3.48.93a13.16,13.16,0,0,1-3.06.39,7.24,7.24,0,0,1-1.14-.08c0,.66-.16,3.57-.22,4s.16,2.91.16,2.95,0,.29-.1.83a.1.1,0,0,1-.11.1H7.58A.11.11,0,0,1,7.49,25c-.07-.1-.06-.3.15-1l0,0a1.19,1.19,0,0,1,0-.33h0a13.82,13.82,0,0,0,.18-2.86c-.1-1.05-.64-3.52-.73-3.91A3.57,3.57,0,0,1,6.2,16,14.38,14.38,0,0,1,5,12.37c-.12-.49-.21-.87-.27-1a11.46,11.46,0,0,0-1-2.25A7.6,7.6,0,0,0,2,10.38a.83.83,0,0,1-.59.25h0A1.44,1.44,0,0,1,.28,10a.7.7,0,0,1-.13-.66,16.13,16.13,0,0,1,1.35-2"/></g></g></svg>