<svg id="Layer_1" data-name="Layer 1" xmlns="http://www.w3.org/2000/svg" xmlns:xlink="http://www.w3.org/1999/xlink" viewBox="0 0 25 25"><defs><style>.cls-1{fill:none;}.cls-2{clip-path:url(#clip-path);}.cls-3{fill:#231f20;}</style><clipPath id="clip-path"><rect class="cls-1" width="25" height="25"/></clipPath></defs><title>AM WEBSITE ICONS</title><g class="cls-2"><g class="cls-2"><path class="cls-3" d="M25,24.72c0-.27-.34-.79-1.49-.85s-5-.25-5.37-.38a1.51,1.51,0,0,1-1-1c-.18-.52-.64-2.65-1.08-3.74A7.43,7.43,0,0,0,14.7,16a5,5,0,0,0-2.17-2,12.42,12.42,0,0,0-3.85-.46,7.61,7.61,0,0,1-2.56-.91c-.35-.12-.58,0-.93-.14a2.59,2.59,0,0,1-.91-1.1c-.23-.24-.48-.65-.33-.72a2.72,2.72,0,0,0,.78-1c.07-.2.1-.32,0-.3s-.6.46-.84.46c0-.24,0-.59-.1-.6A1.11,1.11,0,0,0,3,9.59c-.22.24-.25.59-.26,1.18a5.32,5.32,0,0,0-.95.34c-.36.23-.72.7-1.08.93s-.71.34-.72.57.11.6.69.74A3.08,3.08,0,0,0,1.78,13c.28-.07.63.15,1.15,0,0,0,.13.2.2.34s.26.64.48,1.12c.44,1.33.78,1.6.54,2.05-.16.29-1,.22-1.25.31a3.94,3.94,0,0,0-.64.12c-.7.27-.61,1.06.2,1.2.12.12,0,.24.11.36s.08.36.3.36h.22c.15,0,.3-.23.08-.71C4,17.86,5.29,17.65,5.89,17l1.38,1c.35.25.81.62,1.15.87a4.17,4.17,0,0,0,1,.51c.12.12,0,.13.34.5a3.05,3.05,0,0,0,.8.84,11.39,11.39,0,0,0,1.27.63,1.54,1.54,0,0,1,.1.6c0,.19.11.36.1.48s.15.41.11.6a1,1,0,0,0,0,.51,7.17,7.17,0,0,1-1.06.09c-.46,0-.81-.14-1.4-.15s-1.81.07-1.65.67c-.43,0-.75.13-.76.45S7.9,25,8,25h4c1,0,.92-.49.93-.61a.57.57,0,0,0,.44-.17c.13-.23,0-.47-.07-.73a11.9,11.9,0,0,1,0-1.39c0-.24-.1-.48,0-.72s.59-.1.71-.34a1.21,1.21,0,0,1,.6-.46,14.85,14.85,0,0,1,.88,2.29A2.61,2.61,0,0,0,17,24.44c1.1.54,5.09.51,5.76.51S25,25,25,24.72M3.07,17.48c-.12.11-.24.11-.24.23H2.59v-.12a.31.31,0,0,0,.23-.11h.24"/></g></g></svg>