<svg id="Layer_1" data-name="Layer 1" xmlns="http://www.w3.org/2000/svg" xmlns:xlink="http://www.w3.org/1999/xlink" viewBox="0 0 25 25"><defs><style>.cls-1{fill:none;}.cls-2{clip-path:url(#clip-path);}.cls-3{fill:#231f20;}</style><clipPath id="clip-path"><rect class="cls-1" width="25" height="25"/></clipPath></defs><title>AM WEBSITE ICONS</title><g class="cls-2"><g class="cls-2"><path class="cls-3" d="M22.29,16.13c.14.19.55.16.85-.07s.45-.61.31-.8a.37.37,0,0,0-.31-.13.93.93,0,0,0-.55.2c-.31.24-.45.6-.3.8M1,17.22c.05,0,.11,0,.24.16a2.06,2.06,0,0,0,1.38-.09l1.08-.59a1.21,1.21,0,0,1-.49-1.27,1.16,1.16,0,0,0,0-.18c0-.14.06-.29.2-.29s.17.07.3.26a1.88,1.88,0,0,0,.95.46l.29.09c1.18-1.47,3.84-2.11,7.6-1.83,4.27.33,7.15.82,8.26,2.29a3.76,3.76,0,0,0,.71.08,1.51,1.51,0,0,1,.7-1.45,1.78,1.78,0,0,1,1.08-.4.9.9,0,0,1,.74.33.86.86,0,0,1,.15.64,1.9,1.9,0,0,1-1.93,1.48,1.4,1.4,0,0,0,.93.43.28.28,0,0,1,.2.12.32.32,0,0,1,.06.23.31.31,0,0,1-.31.27h0c-1-.15-1.4-.62-1.51-1h0l-.41,0a2.72,2.72,0,0,1,.14.86,1,1,0,0,1,0,.17v0a.09.09,0,0,1,0,.05l0,.07a2.82,2.82,0,0,1-.23.85,4.07,4.07,0,0,1-.88,1.51,5.57,5.57,0,0,1-1,1.52c.28.35.73,1,.75,1a.1.1,0,0,1,0,.09l-.63,1.87a.1.1,0,0,1-.1.07H18a.11.11,0,0,1-.11-.11.11.11,0,0,1,0-.07l.28-.58c0-.22.06-.53.08-.67h0a4.91,4.91,0,0,1-2.36-1.25,14.83,14.83,0,0,1-6.26,0,12.69,12.69,0,0,1-1.31-.16c0,.41-.06,1.46-.09,1.95v.75a.11.11,0,0,1-.11.1H6.68a.09.09,0,0,1-.08,0,.11.11,0,0,1,0-.08L6.73,24c-.07-.19-.47-1.31-.6-1.81a1.23,1.23,0,0,1,0-.35,2.07,2.07,0,0,1-1-.63,2.13,2.13,0,0,0-.59-.13,1.43,1.43,0,0,1-1.29-.89c-.64-.24-1.22-.53-1.53-.68S1,19.28,1,19.16s-.3-1.65-.12-1.81c0-.1.08-.13.13-.13"/></g></g></svg>