<svg id="Layer_1" data-name="Layer 1" xmlns="http://www.w3.org/2000/svg" xmlns:xlink="http://www.w3.org/1999/xlink" viewBox="0 0 25 25"><defs><style>.cls-1{fill:none;}.cls-2{clip-path:url(#clip-path);}.cls-3{fill:#231f20;}</style><clipPath id="clip-path"><rect class="cls-1" width="25" height="25"/></clipPath></defs><title>AM WEBSITE ICONS</title><g class="cls-2"><g class="cls-2"><path class="cls-3" d="M20.76,21.49c-.33,0-.75.09-.8-.33.19-3.81-.71-7.76-4.28-9.35-1.79-1.6-5.75.56-6.22-2.73,1.89-1.22,4.19-2.53,5.18-4.75A11.76,11.76,0,0,0,8.43,8.09c-1.65-.37-2.78.47-3.86,1.46a4.23,4.23,0,0,0-1.46,2.91c.09,1.13,1.32.9,2,1.27s1.37-.56,1.7.19a9.21,9.21,0,0,0,3.06,7c-.62,1-.38,3.15-2.26,2.82-.29.14-.19.42-.24.7l2.5-.14c.8-.66.71-2.35,1.83-2.26.57.47,1.41.71,1.7,1.37-.57.23-1.23.37-1.51,1l.38.33c2.21-.14,4.75.28,6.64-.33.65.24,1.5,1,2.16.19a3.32,3.32,0,0,0,.8-1.46c0-.7-.33-1.6-1.13-1.69"/></g></g></svg>