<svg id="Layer_1" data-name="Layer 1" xmlns="http://www.w3.org/2000/svg" xmlns:xlink="http://www.w3.org/1999/xlink" viewBox="0 0 25 25"><defs><style>.cls-1{fill:none;}.cls-2{clip-path:url(#clip-path);}.cls-3{fill:#231f20;}</style><clipPath id="clip-path"><rect class="cls-1" width="25" height="25"/></clipPath></defs><title>AM WEBSITE ICONS</title><g class="cls-2"><g class="cls-2"><path class="cls-3" d="M2.2,12.82a18.52,18.52,0,0,1,1.36-2.48c.36-.5.71-.91,1.29-.91h0A.67.67,0,0,1,5.08,9a1.16,1.16,0,0,1,.83-.28,1.53,1.53,0,0,1,.45.06.11.11,0,0,1,.08.14,4.46,4.46,0,0,1-.51.89l.06,0a1.45,1.45,0,0,1,1-.35,1.47,1.47,0,0,1,1.29.77,1.91,1.91,0,0,1,2,.15A1.66,1.66,0,0,1,11.34,10a1.69,1.69,0,0,1,1.25.55,1.24,1.24,0,0,1,1.22.12,1.9,1.9,0,0,1,2.27.38,1.85,1.85,0,0,1,1-.31,1.75,1.75,0,0,1,1.33.6A2,2,0,0,1,19.57,11a2.07,2.07,0,0,1,1.88,1.22,1.45,1.45,0,0,1,1.26,1.43,1.49,1.49,0,0,1-.2.74,2.28,2.28,0,0,1-.79,3.29,2.11,2.11,0,0,1,0,.25,1.64,1.64,0,0,1-.49,1.16v0a2.47,2.47,0,0,1-.52,1,.61.61,0,0,1,.07.31,3.94,3.94,0,0,0,.24,1h0s0,0,0,.11h0s0,0,0,0c0,.25-.17,1-.61,3.17a.13.13,0,0,1-.12.1h-1a.12.12,0,0,1-.12-.12.15.15,0,0,1,0-.07,7.8,7.8,0,0,1,.24-.88,13.06,13.06,0,0,0,.37-2.16,3.15,3.15,0,0,0-.47-.9l-.2-.13L19,20.59a1.35,1.35,0,0,1-.73.21,1.38,1.38,0,0,1-1.07-.51,1.66,1.66,0,0,1-1.72.18,1.15,1.15,0,0,1-.81.32,1.2,1.2,0,0,1-1-.62,1.9,1.9,0,0,1-1.45.12,1.43,1.43,0,0,1-.69.33l-.17,3.13.06,1.05a.16.16,0,0,1,0,.09.18.18,0,0,1-.09,0H10.06a.12.12,0,0,1-.12-.12.11.11,0,0,1,0-.06l.19-1-.35-4.6H9.71a1.8,1.8,0,0,1-1.8-1.8h0A2.29,2.29,0,0,1,6,15.13V15a1.7,1.7,0,0,1-.87-1.44l-.23-.23c-.18.1-.67.37-1.26.73a1.07,1.07,0,0,1-.54.16,1,1,0,0,1-.78-.47l-.11-.12c-.24-.19-.15-.47-.06-.74Z"/></g></g></svg>