<svg id="Layer_1" data-name="Layer 1" xmlns="http://www.w3.org/2000/svg" viewBox="0 0 60 60"><defs><style>.cls-1{fill:#fff;}.cls-2{fill:#231f20;}.cls-3,.cls-4{fill:#373535;}.cls-4{font-size:26px;font-family:GalaxiePolaris-Bold, Galaxie Polaris;font-weight:700;}</style></defs><rect class="cls-1" x="0.75" y="0.75" width="58.5" height="58.5" rx="6.15"/><path class="cls-2" d="M53.1,1.5a5.4,5.4,0,0,1,5.4,5.4V53.1a5.4,5.4,0,0,1-5.4,5.4H6.9a5.4,5.4,0,0,1-5.4-5.4V6.9A5.4,5.4,0,0,1,6.9,1.5H53.1m0-1.5H6.9A6.9,6.9,0,0,0,0,6.9V53.1A6.9,6.9,0,0,0,6.9,60H53.1A6.9,6.9,0,0,0,60,53.1V6.9A6.9,6.9,0,0,0,53.1,0Z"/><path class="cls-3" d="M8.6,18.47c1,0,1.43-.37,1.56-1.26l1.34.15c-.15,1.42-1,2.34-2.9,2.34-2.29,0-3.18-1.53-3.18-3.84S6.31,12,8.6,12c1.9,0,2.75.93,2.9,2.35l-1.34.14c-.13-.88-.57-1.25-1.56-1.25-1.53,0-1.82,1.23-1.82,2.6S7.07,18.47,8.6,18.47Z"/><path class="cls-3" d="M12.1,15.86c0-2.33,1-3.84,3.33-3.84s3.32,1.51,3.32,3.84-1,3.84-3.32,3.84S12.1,18.2,12.1,15.86Zm1.35,0c0,1.41.39,2.61,2,2.61s2-1.2,2-2.61-.38-2.6-2-2.6S13.45,14.46,13.45,15.86Z"/><path class="cls-3" d="M21.66,15.75l-.73-1.14v5H19.61V12.16h1.23L23.4,16l.73,1.14,0-1.78V12.16h1.33v7.41H24.21Z"/><path class="cls-3" d="M29.49,19.57H28.15V13.39H26V12.16h5.64v1.23H29.49Z"/><path class="cls-3" d="M37.46,12.16v1.23H33.53v1.77H37V16.4H33.53v1.94h4.11v1.23H32.2V12.16Z"/><path class="cls-3" d="M40.59,15.75l-.73-1.14,0,1.78v3.18H38.55V12.16h1.22L42.33,16l.73,1.14,0-1.78V12.16h1.33v7.41H43.15Z"/><path class="cls-3" d="M48.42,19.57H47.09V13.39H44.93V12.16h5.65v1.23H48.42Z"/><path class="cls-3" d="M50.89,17.43l1.35-.14c.1.87.63,1.18,1.64,1.18.74,0,1.58-.29,1.58-1.1,0-.65-.39-.93-1.62-1s-2.69-.47-2.7-2S52.38,12,53.81,12c1.94,0,2.83.86,3,2.27l-1.35.14c-.1-.88-.6-1.17-1.61-1.17-.5,0-1.34.19-1.34,1,0,.51.3.73,1.44.84,1.82.16,2.86.5,2.87,2.24s-1.43,2.33-2.9,2.33C51.88,19.7,51,18.91,50.89,17.43Z"/><text class="cls-4" transform="translate(3.8 50.56)">275</text></svg>