<svg id="Layer_1" data-name="Layer 1" xmlns="http://www.w3.org/2000/svg" viewBox="0 0 60 60"><defs><style>.cls-1{fill:#fff;}.cls-2{fill:#231f20;}.cls-3,.cls-4{fill:#373535;}.cls-4{font-size:26px;font-family:GalaxiePolaris-Bold, Galaxie Polaris;font-weight:700;}</style></defs><rect class="cls-1" x="0.75" y="0.75" width="58.5" height="58.5" rx="6.15"/><path class="cls-2" d="M53.1,1.5a5.4,5.4,0,0,1,5.4,5.4V53.1a5.4,5.4,0,0,1-5.4,5.4H6.9a5.4,5.4,0,0,1-5.4-5.4V6.9A5.4,5.4,0,0,1,6.9,1.5H53.1m0-1.5H6.9A6.9,6.9,0,0,0,0,6.9V53.1A6.9,6.9,0,0,0,6.9,60H53.1A6.9,6.9,0,0,0,60,53.1V6.9A6.9,6.9,0,0,0,53.1,0Z"/><path class="cls-3" d="M7.49,18.47c1,0,1.44-.37,1.57-1.26l1.34.15c-.15,1.42-1,2.34-2.91,2.34-2.28,0-3.17-1.53-3.17-3.84S5.21,12,7.49,12c1.91,0,2.76.93,2.91,2.35l-1.34.14c-.13-.88-.57-1.25-1.57-1.25-1.52,0-1.81,1.23-1.81,2.6S6,18.47,7.49,18.47Z"/><path class="cls-3" d="M11,15.86C11,13.53,12,12,14.33,12s3.32,1.51,3.32,3.84-1,3.84-3.32,3.84S11,18.2,11,15.86Zm1.35,0c0,1.41.39,2.61,2,2.61s2-1.2,2-2.61-.38-2.6-2-2.6S12.35,14.46,12.35,15.86Z"/><path class="cls-3" d="M20.56,15.75l-.74-1.14,0,1.78v3.18H18.51V12.16h1.23L22.3,16,23,17.12l0-1.78V12.16h1.33v7.41H23.11Z"/><path class="cls-3" d="M28.39,19.57H27.05V13.39H24.9V12.16h5.64v1.23H28.39Z"/><path class="cls-3" d="M36.36,12.16v1.23H32.43v1.77h3.48V16.4H32.43v1.94h4.11v1.23H31.1V12.16Z"/><path class="cls-3" d="M39.49,15.75l-.73-1.14,0,1.78v3.18H37.45V12.16h1.22L41.23,16,42,17.12l0-1.78V12.16h1.33v7.41H42.05Z"/><path class="cls-3" d="M47.32,19.57H46V13.39H43.83V12.16h5.65v1.23H47.32Z"/><path class="cls-3" d="M49.79,17.43l1.35-.14c.1.87.63,1.18,1.64,1.18.74,0,1.58-.29,1.58-1.1,0-.65-.39-.93-1.62-1s-2.69-.47-2.7-2S51.28,12,52.71,12c1.94,0,2.83.86,3,2.27l-1.35.14c-.1-.88-.6-1.17-1.61-1.17-.5,0-1.34.19-1.34,1,0,.51.3.73,1.44.84,1.81.16,2.86.5,2.87,2.24s-1.43,2.33-2.9,2.33C50.77,19.7,49.94,18.91,49.79,17.43Z"/><text class="cls-4" transform="translate(2.7 50.56)">200</text></svg>