<svg id="Layer_1" data-name="Layer 1" xmlns="http://www.w3.org/2000/svg" viewBox="0 0 60 60"><defs><style>.cls-1{fill:#fff;}.cls-2{fill:#231f20;}</style></defs><title>Joule Icon Library</title><rect class="cls-1" x="0.75" y="0.75" width="58.5" height="58.5" rx="6.15"/><path class="cls-2" d="M53.1,1.5a5.4,5.4,0,0,1,5.4,5.4V53.1a5.4,5.4,0,0,1-5.4,5.4H6.9a5.4,5.4,0,0,1-5.4-5.4V6.9A5.4,5.4,0,0,1,6.9,1.5H53.1m0-1.5H6.9A6.9,6.9,0,0,0,0,6.9V53.1A6.9,6.9,0,0,0,6.9,60H53.1A6.9,6.9,0,0,0,60,53.1V6.9A6.9,6.9,0,0,0,53.1,0Z"/><path class="cls-2" d="M16.88,41.43v4.78a1.72,1.72,0,0,1-2,2c-1.62,0-1.94-.82-2-1.79l1.18-.15c0,.53.19.84.79.84s.81-.28.81-.81V41.43Z"/><path class="cls-2" d="M17.6,44.74c0-2.09.87-3.43,3-3.43s3,1.34,3,3.43-.88,3.44-3,3.44S17.6,46.83,17.6,44.74Zm1.2,0c0,1.26.35,2.33,1.77,2.33s1.76-1.07,1.76-2.33-.34-2.32-1.76-2.32S18.8,43.49,18.8,44.74Z"/><path class="cls-2" d="M24.19,45.64V41.43h1.19v4.21c0,.8.26,1.43,1.52,1.43s1.51-.63,1.51-1.43V41.43H29.6v4.21c0,1.44-.64,2.54-2.7,2.54S24.19,47.08,24.19,45.64Z"/><path class="cls-2" d="M32,47H35.1v1.11H30.76V41.43H32Z"/><path class="cls-2" d="M40.51,41.43v1.1H37v1.58h3.11v1.11H37V47h3.67v1.11H35.81V41.43Z"/><path class="cls-2" d="M41.52,46.15l1.2-.13c.1.77.57,1,1.47,1,.67,0,1.41-.25,1.41-1s-.34-.83-1.44-.93-2.41-.42-2.41-1.84,1.1-2,2.38-2c1.74,0,2.53.77,2.65,2l-1.21.13c-.09-.78-.53-1-1.44-1-.45,0-1.19.16-1.19.91,0,.46.26.66,1.28.76,1.62.14,2.56.44,2.57,2s-1.28,2.09-2.6,2.09C42.4,48.18,41.65,47.46,41.52,46.15Z"/><path class="cls-2" d="M26.65,21.72c0,4.1-3.13,5.29-6.32,6.69S15,30.84,14.74,32.92H27.08v3.46H10.72v-.27c0-7,3.27-8.83,7.75-10.61,2.08-.89,4.48-1.7,4.48-3.78,0-2.3-2.11-2.84-3.86-2.84-2.59,0-4.08.81-4.29,3.32L11,21.8c.35-4,2.73-6.42,8.1-6.42C23.17,15.38,26.65,17.45,26.65,21.72Z"/><path class="cls-2" d="M32.59,36.38H28.54V32.33h4.05Z"/><path class="cls-2" d="M50.14,21.72c0,4.1-3.14,5.29-6.32,6.69s-5.32,2.43-5.59,4.51H50.57v3.46H34.21v-.27c0-7,3.27-8.83,7.75-10.61,2.08-.89,4.48-1.7,4.48-3.78,0-2.3-2.11-2.84-3.86-2.84-2.59,0-4.08.81-4.29,3.32l-3.81-.4c.35-4,2.73-6.42,8.1-6.42C46.65,15.38,50.14,17.45,50.14,21.72Z"/></svg>