<svg id="Layer_1" data-name="Layer 1" xmlns="http://www.w3.org/2000/svg" viewBox="0 0 60 60"><defs><style>.cls-1{fill:#fff;}.cls-2{fill:#231f20;}</style></defs><title>Joule Icon Library</title><rect class="cls-1" x="0.75" y="0.84" width="58.5" height="58.5" rx="6.15"/><path class="cls-2" d="M53.1,1.59A5.4,5.4,0,0,1,58.5,7V53.18a5.41,5.41,0,0,1-5.4,5.41H6.9a5.41,5.41,0,0,1-5.4-5.41V7a5.4,5.4,0,0,1,5.4-5.4H53.1m0-1.5H6.9A6.9,6.9,0,0,0,0,7V53.18a6.9,6.9,0,0,0,6.9,6.91H53.1A6.9,6.9,0,0,0,60,53.18V7A6.9,6.9,0,0,0,53.1.09Z"/><path class="cls-2" d="M16.88,41.39v4.77a1.73,1.73,0,0,1-2,2c-1.62,0-1.94-.82-2-1.79l1.18-.15c0,.53.19.84.79.84s.81-.28.81-.82V41.39Z"/><path class="cls-2" d="M17.6,44.7c0-2.09.87-3.43,3-3.43s3,1.34,3,3.43-.88,3.44-3,3.44S17.6,46.79,17.6,44.7Zm1.21,0c0,1.26.34,2.33,1.76,2.33S22.33,46,22.33,44.7s-.34-2.33-1.76-2.33S18.81,43.44,18.81,44.7Z"/><path class="cls-2" d="M24.2,45.59v-4.2h1.18v4.2c0,.81.26,1.44,1.52,1.44s1.51-.63,1.51-1.44v-4.2H29.6v4.2c0,1.45-.64,2.55-2.7,2.55S24.2,47,24.2,45.59Z"/><path class="cls-2" d="M32,46.91H35.1V48H30.77V41.39H32Z"/><path class="cls-2" d="M40.51,41.39v1.1H37v1.58h3.11v1.11H37v1.73h3.68V48H35.81V41.39Z"/><path class="cls-2" d="M41.52,46.1l1.2-.12c.1.77.57,1.05,1.47,1.05.67,0,1.42-.25,1.42-1,0-.58-.35-.83-1.45-.93s-2.4-.42-2.41-1.84,1.1-2,2.38-2c1.74,0,2.53.76,2.65,2l-1.21.13c-.09-.78-.53-1.05-1.44-1.05-.45,0-1.19.17-1.19.92,0,.46.26.66,1.28.76,1.62.14,2.56.44,2.57,2s-1.28,2.09-2.6,2.09C42.4,48.14,41.65,47.42,41.52,46.1Z"/><path class="cls-2" d="M19,26.77c0,6.58-2.08,9.9-7.45,9.9s-7.45-3.32-7.45-9.9,2.07-9.89,7.45-9.89S19,20.2,19,26.77Zm-3.5,0c0-4.79-1.13-6.69-3.95-6.69S7.55,22,7.55,26.77s1.12,6.7,4,6.7S15.45,31.57,15.45,26.77Z"/><path class="cls-2" d="M24.25,36.32H20.5V32.57h3.75Z"/><path class="cls-2" d="M40.5,22.75c0,3.8-2.9,4.9-5.85,6.2s-4.93,2.25-5.18,4.17H40.9v3.2H25.75v-.25c0-6.45,3-8.17,7.17-9.82,1.93-.83,4.15-1.57,4.15-3.5,0-2.12-2-2.62-3.57-2.62-2.4,0-3.78.75-4,3.07L26,22.83c.32-3.7,2.52-5.95,7.5-5.95C37.27,16.88,40.5,18.8,40.5,22.75Z"/><path class="cls-2" d="M57.14,26.77c0,6.58-2.07,9.9-7.44,9.9s-7.45-3.32-7.45-9.9,2.07-9.89,7.45-9.89S57.14,20.2,57.14,26.77Zm-3.49,0c0-4.79-1.13-6.69-3.95-6.69s-4,1.9-4,6.69,1.12,6.7,4,6.7S53.65,31.57,53.65,26.77Z"/></svg>