<svg id="Layer_1" data-name="Layer 1" xmlns="http://www.w3.org/2000/svg" viewBox="0 0 60 60"><defs><style>.cls-1{fill:#fff;}.cls-2{fill:#231f20;}</style></defs><title>Joule Icon Library</title><rect class="cls-1" x="0.75" y="0.76" width="58.5" height="58.5" rx="6.15"/><path class="cls-2" d="M53.1,1.51a5.4,5.4,0,0,1,5.4,5.4v46.2a5.4,5.4,0,0,1-5.4,5.4H6.9a5.4,5.4,0,0,1-5.4-5.4V6.91a5.4,5.4,0,0,1,5.4-5.4H53.1m0-1.5H6.9A6.9,6.9,0,0,0,0,6.91v46.2A6.9,6.9,0,0,0,6.9,60H53.1a6.9,6.9,0,0,0,6.9-6.9V6.91A6.9,6.9,0,0,0,53.1,0Z"/><path class="cls-2" d="M16.88,41.44v4.77a1.73,1.73,0,0,1-2,2c-1.62,0-1.94-.82-2-1.79l1.18-.15c0,.53.19.84.79.84s.81-.28.81-.82V41.44Z"/><path class="cls-2" d="M17.6,44.75c0-2.09.88-3.43,3-3.43s3,1.34,3,3.43-.88,3.44-3,3.44S17.6,46.84,17.6,44.75Zm1.21,0c0,1.26.35,2.33,1.76,2.33s1.76-1.07,1.76-2.33-.34-2.33-1.76-2.33S18.81,43.5,18.81,44.75Z"/><path class="cls-2" d="M24.2,45.65V41.44h1.19v4.21c0,.8.25,1.43,1.51,1.43s1.51-.63,1.51-1.43V41.44H29.6v4.21c0,1.44-.64,2.54-2.7,2.54S24.2,47.09,24.2,45.65Z"/><path class="cls-2" d="M32,47H35.1v1.11H30.77V41.44H32Z"/><path class="cls-2" d="M40.52,41.44v1.1H37v1.58h3.12v1.11H37V47h3.68v1.11H35.81V41.44Z"/><path class="cls-2" d="M41.52,46.16,42.73,46c.09.77.56,1,1.47,1,.66,0,1.41-.25,1.41-1s-.35-.83-1.45-.93-2.4-.42-2.41-1.84,1.1-2,2.39-2c1.73,0,2.52.76,2.64,2l-1.21.13c-.09-.78-.53-1-1.43-1-.45,0-1.2.17-1.2.92,0,.46.26.66,1.28.76,1.62.14,2.56.44,2.57,2s-1.28,2.09-2.59,2.09C42.4,48.19,41.65,47.47,41.52,46.16Z"/><path class="cls-2" d="M29.51,21.73c0,4.1-3.13,5.29-6.32,6.69s-5.31,2.43-5.58,4.51H29.94v3.45H13.58v-.27c0-7,3.27-8.82,7.75-10.6,2.08-.89,4.48-1.7,4.48-3.78,0-2.3-2.1-2.84-3.86-2.84-2.59,0-4.07.81-4.29,3.32l-3.81-.4c.36-4,2.73-6.43,8.1-6.43C26,15.38,29.51,17.46,29.51,21.73Z"/><path class="cls-2" d="M31.38,30.72c0-2.81,1.4-4.4,2.94-5a4.81,4.81,0,0,1-2.4-4.46c0-4.37,3.53-5.86,7.53-5.86S47,16.87,47,21.24a4.81,4.81,0,0,1-2.4,4.46c1.54.62,2.94,2.21,2.94,5,0,3.86-2.59,6-8.07,6S31.38,34.58,31.38,30.72Zm12.41-.25c0-2.59-2.29-3.07-4.34-3.07s-4.35.48-4.35,3.07c0,2,1.68,2.78,4.35,2.78S43.79,32.44,43.79,30.47Zm-.56-9c0-2-1.65-2.56-3.78-2.56s-3.78.59-3.78,2.56c0,2.35,1.83,2.73,3.78,2.73S43.23,23.83,43.23,21.48Z"/></svg>