<svg id="Layer_1" data-name="Layer 1" xmlns="http://www.w3.org/2000/svg" viewBox="0 0 60 60"><defs><style>.cls-1{fill:#fff;}.cls-2{fill:#231f20;}</style></defs><title>Joule Icon Library</title><rect class="cls-1" x="0.75" y="0.8" width="58.5" height="58.5" rx="6.15"/><path class="cls-2" d="M53.1,1.55A5.41,5.41,0,0,1,58.5,7V53.15a5.4,5.4,0,0,1-5.4,5.4H6.9a5.4,5.4,0,0,1-5.4-5.4V7A5.41,5.41,0,0,1,6.9,1.55H53.1m0-1.5H6.9A6.9,6.9,0,0,0,0,7V53.15a6.9,6.9,0,0,0,6.9,6.9H53.1a6.9,6.9,0,0,0,6.9-6.9V7A6.9,6.9,0,0,0,53.1.05Z"/><path class="cls-2" d="M16.88,41.48v4.78a1.72,1.72,0,0,1-2,2c-1.62,0-1.94-.81-2-1.78l1.18-.16c0,.53.19.84.79.84s.81-.28.81-.81V41.48Z"/><path class="cls-2" d="M17.6,44.8c0-2.09.87-3.44,3-3.44s3,1.35,3,3.44-.88,3.43-3,3.43S17.6,46.89,17.6,44.8Zm1.21,0c0,1.26.34,2.33,1.76,2.33s1.76-1.07,1.76-2.33-.34-2.33-1.76-2.33S18.81,43.54,18.81,44.8Z"/><path class="cls-2" d="M24.2,45.69V41.48h1.19v4.21c0,.81.25,1.44,1.51,1.44s1.51-.63,1.51-1.44V41.48H29.6v4.21c0,1.44-.64,2.54-2.7,2.54S24.2,47.13,24.2,45.69Z"/><path class="cls-2" d="M32,47H35.1v1.1H30.77V41.48H32Z"/><path class="cls-2" d="M40.51,41.48v1.11H37v1.58h3.11v1.1H37V47h3.68v1.1H35.81V41.48Z"/><path class="cls-2" d="M41.52,46.2l1.2-.13c.1.78.57,1.06,1.47,1.06.67,0,1.42-.26,1.42-1s-.35-.82-1.45-.93-2.4-.41-2.41-1.83,1.1-2,2.39-2c1.73,0,2.52.77,2.64,2l-1.21.12c-.09-.78-.53-1-1.43-1-.45,0-1.2.17-1.2.92,0,.46.26.65,1.28.75,1.62.15,2.56.44,2.57,2s-1.28,2.09-2.6,2.09C42.4,48.23,41.65,47.52,41.52,46.2Z"/><path class="cls-2" d="M25.71,36.43l7.45-15.2.94-1.94-3.67,0H22.6v-3.5h16v2.4L29.73,36.43Z"/></svg>