<svg id="Layer_1" data-name="Layer 1" xmlns="http://www.w3.org/2000/svg" viewBox="0 0 60 60"><defs><style>.cls-1{fill:#fff;}.cls-2{fill:#231f20;}</style></defs><title>Joule Icon Library</title><rect class="cls-1" x="0.71" y="0.78" width="58.5" height="58.5" rx="6.15"/><path class="cls-2" d="M53.06,1.53a5.4,5.4,0,0,1,5.4,5.4V53.12a5.41,5.41,0,0,1-5.4,5.41H6.87a5.42,5.42,0,0,1-5.41-5.41V6.93a5.41,5.41,0,0,1,5.41-5.4H53.06m0-1.5H6.87A6.9,6.9,0,0,0,0,6.93V53.12A6.91,6.91,0,0,0,6.87,60H53.06A6.9,6.9,0,0,0,60,53.12V6.93A6.9,6.9,0,0,0,53.06,0Z"/><path class="cls-2" d="M16.84,41.46v4.77a1.72,1.72,0,0,1-2,2c-1.62,0-1.95-.81-2-1.78l1.18-.15c0,.52.2.84.79.84s.81-.28.81-.82V41.46Z"/><path class="cls-2" d="M17.56,44.77c0-2.09.88-3.43,3-3.43s3,1.34,3,3.43-.87,3.43-3,3.43S17.56,46.86,17.56,44.77Zm1.21,0c0,1.26.35,2.33,1.77,2.33S22.3,46,22.3,44.77s-.34-2.33-1.76-2.33S18.77,43.51,18.77,44.77Z"/><path class="cls-2" d="M24.16,45.66v-4.2h1.19v4.2c0,.81.25,1.44,1.51,1.44s1.51-.63,1.51-1.44v-4.2h1.19v4.2c0,1.45-.63,2.54-2.7,2.54S24.16,47.11,24.16,45.66Z"/><path class="cls-2" d="M31.92,47h3.14v1.1H30.73V41.46h1.19Z"/><path class="cls-2" d="M40.48,41.46v1.1H37v1.58h3.11v1.11H37V47h3.67v1.1H35.78V41.46Z"/><path class="cls-2" d="M41.48,46.17l1.21-.12c.09.77.57,1.05,1.47,1.05.66,0,1.41-.26,1.41-1,0-.57-.35-.82-1.44-.92s-2.41-.42-2.42-1.84,1.11-2,2.39-2c1.73,0,2.52.76,2.64,2l-1.2.13c-.1-.78-.54-1.05-1.44-1.05-.45,0-1.2.17-1.2.92,0,.46.27.65,1.28.76,1.63.14,2.56.44,2.57,2s-1.27,2.09-2.59,2.09C42.37,48.2,41.62,47.49,41.48,46.17Z"/><path class="cls-2" d="M22.46,30.73c0-2.8,1.4-4.4,2.94-5A4.78,4.78,0,0,1,23,21.26c0-4.37,3.53-5.86,7.53-5.86s7.53,1.49,7.53,5.86a4.78,4.78,0,0,1-2.4,4.45c1.54.62,2.94,2.22,2.94,5,0,3.86-2.59,6.05-8.07,6.05S22.46,34.59,22.46,30.73Zm12.42-.24c0-2.59-2.3-3.08-4.35-3.08s-4.35.49-4.35,3.08c0,2,1.68,2.78,4.35,2.78S34.88,32.46,34.88,30.49Zm-.57-9c0-2-1.65-2.56-3.78-2.56s-3.78.59-3.78,2.56c0,2.35,1.83,2.73,3.78,2.73S34.31,23.85,34.31,21.5Z"/></svg>