<svg id="Layer_1" data-name="Layer 1" xmlns="http://www.w3.org/2000/svg" viewBox="0 0 60 60"><defs><style>.cls-1{fill:#fff;}.cls-2{fill:#231f20;}</style></defs><title>Joule Icon Library</title><rect class="cls-1" x="0.75" y="0.79" width="58.5" height="58.5" rx="6.15"/><path class="cls-2" d="M53.1,1.54a5.4,5.4,0,0,1,5.4,5.4V53.13a5.41,5.41,0,0,1-5.4,5.41H6.9a5.41,5.41,0,0,1-5.4-5.41V6.94a5.4,5.4,0,0,1,5.4-5.4H53.1m0-1.5H6.9A6.9,6.9,0,0,0,0,6.94V53.13A6.9,6.9,0,0,0,6.9,60H53.1A6.9,6.9,0,0,0,60,53.13V6.94A6.9,6.9,0,0,0,53.1,0Z"/><path class="cls-2" d="M16.88,41.46v4.78a1.72,1.72,0,0,1-2,2c-1.62,0-1.94-.81-2-1.78l1.18-.15c0,.52.19.84.79.84s.81-.28.81-.82V41.46Z"/><path class="cls-2" d="M17.6,44.78c0-2.09.87-3.43,3-3.43s3,1.34,3,3.43-.88,3.43-3,3.43S17.6,46.87,17.6,44.78Zm1.21,0c0,1.26.34,2.33,1.76,2.33s1.76-1.07,1.76-2.33-.34-2.33-1.76-2.33S18.81,43.52,18.81,44.78Z"/><path class="cls-2" d="M24.19,45.67V41.46h1.19v4.21c0,.81.26,1.44,1.52,1.44s1.51-.63,1.51-1.44V41.46H29.6v4.21c0,1.45-.64,2.54-2.7,2.54S24.19,47.12,24.19,45.67Z"/><path class="cls-2" d="M32,47H35.1v1.1H30.77V41.46H32Z"/><path class="cls-2" d="M40.51,41.46v1.11H37v1.58h3.11v1.11H37V47h3.68v1.1H35.81V41.46Z"/><path class="cls-2" d="M41.52,46.18l1.2-.13c.1.78.57,1.06,1.47,1.06.67,0,1.42-.26,1.42-1,0-.58-.35-.82-1.45-.92s-2.4-.42-2.41-1.84,1.1-2,2.38-2c1.74,0,2.53.76,2.65,2l-1.21.13c-.09-.79-.53-1-1.44-1-.45,0-1.19.17-1.19.92,0,.46.26.65,1.28.76,1.62.14,2.56.44,2.57,2s-1.28,2.09-2.6,2.09C42.4,48.21,41.65,47.5,41.52,46.18Z"/><path class="cls-2" d="M26.65,21.69c0,4.11-3.13,5.29-6.32,6.7S15,30.82,14.74,32.9H27.08v3.45H10.72v-.27c0-7,3.27-8.83,7.75-10.61,2.08-.89,4.48-1.7,4.48-3.78,0-2.29-2.11-2.83-3.86-2.83-2.59,0-4.08.81-4.29,3.32L11,21.77c.35-4,2.73-6.42,8.1-6.42C23.17,15.35,26.65,17.43,26.65,21.69Z"/><path class="cls-2" d="M32.59,36.35H28.54V32.3h4.05Z"/><path class="cls-2" d="M34.24,30.68c0-2.8,1.4-4.4,2.94-5a4.79,4.79,0,0,1-2.4-4.45c0-4.38,3.53-5.86,7.53-5.86s7.53,1.48,7.53,5.86a4.79,4.79,0,0,1-2.4,4.45c1.54.62,2.94,2.22,2.94,5,0,3.86-2.59,6-8.07,6S34.24,34.54,34.24,30.68Zm12.42-.24c0-2.59-2.3-3.08-4.35-3.08S38,27.85,38,30.44c0,2,1.68,2.78,4.35,2.78S46.66,32.41,46.66,30.44Zm-.57-9c0-2-1.65-2.56-3.78-2.56s-3.78.59-3.78,2.56c0,2.35,1.84,2.73,3.78,2.73S46.09,23.8,46.09,21.45Z"/></svg>