<svg id="Layer_1" data-name="Layer 1" xmlns="http://www.w3.org/2000/svg" viewBox="0 0 60 60"><defs><style>.cls-1{fill:#fff;}.cls-2{fill:#231f20;}</style></defs><title>Joule Icon Library</title><rect class="cls-1" x="0.71" y="0.76" width="58.5" height="58.5" rx="6.15"/><path class="cls-2" d="M53.06,1.51a5.4,5.4,0,0,1,5.4,5.4v46.2a5.4,5.4,0,0,1-5.4,5.4H6.87a5.41,5.41,0,0,1-5.41-5.4V6.91a5.41,5.41,0,0,1,5.41-5.4H53.06m0-1.5H6.87A6.9,6.9,0,0,0,0,6.91v46.2A6.9,6.9,0,0,0,6.87,60H53.06a6.9,6.9,0,0,0,6.9-6.9V6.91A6.9,6.9,0,0,0,53.06,0Z"/><path class="cls-2" d="M16.84,41.44v4.77a1.72,1.72,0,0,1-2,2c-1.63,0-1.95-.82-2-1.79l1.18-.15c0,.53.2.84.79.84s.81-.28.81-.82V41.44Z"/><path class="cls-2" d="M17.56,44.75c0-2.09.88-3.43,3-3.43s3,1.34,3,3.43-.87,3.44-3,3.44S17.56,46.84,17.56,44.75Zm1.21,0c0,1.26.35,2.33,1.77,2.33S22.3,46,22.3,44.75s-.34-2.33-1.76-2.33S18.77,43.5,18.77,44.75Z"/><path class="cls-2" d="M24.16,45.65V41.44h1.19v4.21c0,.8.25,1.43,1.51,1.43s1.51-.63,1.51-1.43V41.44h1.19v4.21c0,1.44-.63,2.54-2.7,2.54S24.16,47.09,24.16,45.65Z"/><path class="cls-2" d="M31.92,47h3.14v1.11H30.73V41.44h1.19Z"/><path class="cls-2" d="M40.48,41.44v1.1H37v1.58h3.11v1.11H37V47h3.67v1.11H35.78V41.44Z"/><path class="cls-2" d="M41.48,46.16,42.69,46c.09.77.57,1,1.47,1,.66,0,1.41-.25,1.41-1s-.35-.83-1.45-.93-2.4-.42-2.41-1.84,1.11-2,2.39-2c1.73,0,2.52.76,2.64,2l-1.2.13c-.1-.78-.54-1-1.44-1-.45,0-1.2.17-1.2.92,0,.46.26.66,1.28.76,1.63.14,2.56.44,2.57,2s-1.27,2.09-2.59,2.09C42.37,48.19,41.62,47.47,41.48,46.16Z"/><path class="cls-2" d="M21.4,36.76c-5.4,0-7.72-2.45-8.07-6.42l3.81-.41c.27,2.46,1.4,3.32,4.26,3.35,3.13,0,4.67-.86,4.67-3,0-2.67-1.86-2.78-4.05-2.78H19V24.08H22c2,0,3.3-.11,3.3-2.57,0-2-1.62-2.67-3.73-2.62-2.78,0-3.86.76-4.13,3.24l-3.78-.4c.33-4,2.57-6.35,7.91-6.35,4.08,0,7.48,1.7,7.48,6.13a4.26,4.26,0,0,1-2.43,4.13,4.82,4.82,0,0,1,3.18,4.67C29.82,34.09,27.21,36.76,21.4,36.76Z"/><path class="cls-2" d="M47.45,26.07c0,7.1-2.24,10.69-8,10.69s-8-3.59-8-10.69,2.24-10.69,8-10.69S47.45,19,47.45,26.07Zm-3.77,0c0-5.18-1.22-7.23-4.27-7.23s-4.26,2.05-4.26,7.23,1.21,7.24,4.26,7.24S43.68,31.26,43.68,26.07Z"/></svg>