<svg id="Layer_1" data-name="Layer 1" xmlns="http://www.w3.org/2000/svg" viewBox="0 0 60 60"><defs><style>.cls-1{fill:#fff;}.cls-2{fill:#231f20;}</style></defs><title>Joule Icon Library</title><rect class="cls-1" x="0.75" y="0.79" width="58.5" height="58.5" rx="6.15"/><path class="cls-2" d="M53.1,1.54a5.4,5.4,0,0,1,5.4,5.4V53.13a5.41,5.41,0,0,1-5.4,5.41H6.9a5.41,5.41,0,0,1-5.4-5.41V6.94a5.4,5.4,0,0,1,5.4-5.4H53.1m0-1.5H6.9A6.9,6.9,0,0,0,0,6.94V53.13A6.9,6.9,0,0,0,6.9,60H53.1A6.9,6.9,0,0,0,60,53.13V6.94A6.9,6.9,0,0,0,53.1,0Z"/><path class="cls-2" d="M16.88,41.34v4.77a1.73,1.73,0,0,1-2,2c-1.62,0-1.94-.82-2-1.79l1.18-.15c0,.53.19.84.79.84s.81-.28.81-.82V41.34Z"/><path class="cls-2" d="M17.6,44.65c0-2.09.87-3.43,3-3.43s3,1.34,3,3.43-.88,3.44-3,3.44S17.6,46.74,17.6,44.65Zm1.21,0c0,1.26.34,2.33,1.76,2.33s1.76-1.07,1.76-2.33-.34-2.33-1.76-2.33S18.81,43.39,18.81,44.65Z"/><path class="cls-2" d="M24.19,45.54v-4.2h1.19v4.2c0,.81.26,1.44,1.52,1.44s1.51-.63,1.51-1.44v-4.2H29.6v4.2c0,1.45-.64,2.55-2.7,2.55S24.19,47,24.19,45.54Z"/><path class="cls-2" d="M32,46.86H35.1V48H30.76V41.34H32Z"/><path class="cls-2" d="M40.51,41.34v1.1H37V44h3.11v1.11H37v1.73h3.67V48H35.81V41.34Z"/><path class="cls-2" d="M41.52,46.06l1.2-.13c.1.77.57,1,1.47,1,.67,0,1.42-.25,1.42-1s-.35-.83-1.45-.93-2.41-.42-2.41-1.84,1.1-2,2.38-2c1.74,0,2.53.76,2.65,2l-1.21.13c-.09-.78-.53-1-1.44-1-.45,0-1.19.17-1.19.92,0,.46.26.66,1.28.76,1.62.14,2.56.44,2.57,2s-1.28,2.09-2.6,2.09C42.4,48.09,41.65,47.37,41.52,46.06Z"/><path class="cls-2" d="M29.62,36.27V20.64a11.81,11.81,0,0,1-4.45,2.05V19.05a10.54,10.54,0,0,0,5.18-3.78h3v21Z"/></svg>