<svg id="Layer_1" data-name="Layer 1" xmlns="http://www.w3.org/2000/svg" viewBox="0 0 60 60"><defs><style>.cls-1{fill:#fff;}.cls-2{fill:#231f20;}</style></defs><title>Joule Icon Library</title><rect class="cls-1" x="0.75" y="0.76" width="58.5" height="58.5" rx="6.15"/><path class="cls-2" d="M53.1,1.51a5.4,5.4,0,0,1,5.4,5.4v46.2a5.4,5.4,0,0,1-5.4,5.4H6.9a5.4,5.4,0,0,1-5.4-5.4V6.91a5.4,5.4,0,0,1,5.4-5.4H53.1m0-1.5H6.9A6.9,6.9,0,0,0,0,6.91v46.2A6.9,6.9,0,0,0,6.9,60H53.1a6.9,6.9,0,0,0,6.9-6.9V6.91A6.9,6.9,0,0,0,53.1,0Z"/><path class="cls-2" d="M16.88,41.44v4.77a1.73,1.73,0,0,1-2,2c-1.62,0-1.94-.82-2-1.79l1.18-.15c0,.53.19.84.79.84s.81-.28.81-.82V41.44Z"/><path class="cls-2" d="M17.6,44.75c0-2.09.87-3.43,3-3.43s3,1.34,3,3.43-.88,3.44-3,3.44S17.6,46.84,17.6,44.75Zm1.21,0c0,1.26.34,2.33,1.76,2.33s1.76-1.07,1.76-2.33-.34-2.33-1.76-2.33S18.81,43.5,18.81,44.75Z"/><path class="cls-2" d="M24.19,45.65V41.44h1.19v4.21c0,.8.26,1.43,1.52,1.43s1.51-.63,1.51-1.43V41.44H29.6v4.21c0,1.44-.64,2.54-2.7,2.54S24.19,47.09,24.19,45.65Z"/><path class="cls-2" d="M32,47H35.1v1.11H30.77V41.44H32Z"/><path class="cls-2" d="M40.51,41.44v1.1H37v1.58h3.11v1.11H37V47h3.67v1.11H35.81V41.44Z"/><path class="cls-2" d="M41.52,46.16l1.2-.13c.1.77.57,1,1.47,1,.67,0,1.42-.25,1.42-1s-.35-.83-1.45-.93-2.41-.42-2.41-1.84,1.1-2,2.38-2c1.74,0,2.53.76,2.65,2l-1.21.13c-.09-.78-.53-1-1.44-1-.45,0-1.19.17-1.19.92,0,.46.26.66,1.28.76,1.62.14,2.56.44,2.57,2s-1.28,2.09-2.6,2.09C42.4,48.19,41.65,47.47,41.52,46.16Z"/><path class="cls-2" d="M21.44,36.76c-5.4,0-7.72-2.45-8.07-6.42l3.8-.41c.27,2.46,1.41,3.32,4.27,3.35,3.13,0,4.67-.86,4.67-3,0-2.67-1.86-2.78-4.05-2.78H19V24.08h3c2,0,3.29-.11,3.29-2.57,0-2-1.62-2.67-3.72-2.62-2.78,0-3.86.76-4.13,3.24l-3.78-.4c.32-4,2.56-6.35,7.91-6.35,4.07,0,7.47,1.7,7.47,6.13a4.24,4.24,0,0,1-2.43,4.13,4.82,4.82,0,0,1,3.19,4.67C29.86,34.09,27.24,36.76,21.44,36.76Z"/><path class="cls-2" d="M47.28,21.73c0,4.1-3.14,5.29-6.32,6.69s-5.32,2.43-5.59,4.51H47.71v3.45H31.35v-.27c0-7,3.27-8.82,7.75-10.6,2.07-.89,4.48-1.7,4.48-3.78,0-2.3-2.11-2.84-3.86-2.84-2.59,0-4.08.81-4.29,3.32l-3.81-.4c.35-4,2.73-6.43,8.1-6.43C43.79,15.38,47.28,17.46,47.28,21.73Z"/></svg>