<svg id="Layer_1" data-name="Layer 1" xmlns="http://www.w3.org/2000/svg" viewBox="0 0 60 60"><defs><style>.cls-1{fill:#fff;}.cls-2{fill:#231f20;}</style></defs><title>Joule Icon Library</title><rect class="cls-1" x="0.75" y="0.72" width="58.5" height="58.5" rx="6.15"/><path class="cls-2" d="M53.1,1.47a5.41,5.41,0,0,1,5.4,5.41V53.07a5.4,5.4,0,0,1-5.4,5.4H6.9a5.4,5.4,0,0,1-5.4-5.4V6.88A5.41,5.41,0,0,1,6.9,1.47H53.1m0-1.5H6.9A6.9,6.9,0,0,0,0,6.88V53.07A6.9,6.9,0,0,0,6.9,60H53.1a6.9,6.9,0,0,0,6.9-6.9V6.88A6.9,6.9,0,0,0,53.1,0Z"/><path class="cls-2" d="M16.88,41.4v4.78a1.72,1.72,0,0,1-2,2c-1.62,0-1.94-.82-2-1.78l1.18-.16c0,.53.19.84.79.84s.81-.28.81-.81V41.4Z"/><path class="cls-2" d="M17.6,44.72c0-2.09.87-3.44,3-3.44s3,1.35,3,3.44-.88,3.43-3,3.43S17.6,46.81,17.6,44.72Zm1.21,0c0,1.26.34,2.33,1.76,2.33s1.76-1.07,1.76-2.33-.34-2.33-1.76-2.33S18.81,43.46,18.81,44.72Z"/><path class="cls-2" d="M24.19,45.61V41.4h1.19v4.21c0,.81.26,1.44,1.52,1.44s1.51-.63,1.51-1.44V41.4H29.6v4.21c0,1.44-.64,2.54-2.7,2.54S24.19,47.05,24.19,45.61Z"/><path class="cls-2" d="M32,46.93H35.1V48H30.77V41.4H32Z"/><path class="cls-2" d="M40.51,41.4v1.11H37v1.58h3.11v1.1H37v1.74h3.68V48H35.81V41.4Z"/><path class="cls-2" d="M41.52,46.12l1.2-.13c.1.78.57,1.06,1.47,1.06.67,0,1.42-.26,1.42-1s-.35-.82-1.45-.93-2.4-.41-2.41-1.83,1.1-2,2.38-2c1.74,0,2.53.77,2.65,2l-1.21.12c-.09-.78-.53-1-1.44-1-.45,0-1.19.17-1.19.92,0,.46.26.65,1.28.75,1.62.15,2.56.44,2.57,2s-1.28,2.09-2.6,2.09C42.4,48.15,41.65,47.44,41.52,46.12Z"/><path class="cls-2" d="M16.82,36.35l7.45-15.2.95-1.94-3.67,0H13.72V15.73h16v2.4L20.85,36.35Z"/><path class="cls-2" d="M32.35,26.63l1.08-10.9H46.22v3.51h-9.5l-.38,3.86a6.24,6.24,0,0,1,3.51-.92c4.75,0,7.51,2.43,7.51,7.31s-3.51,7.24-7.94,7.24c-5.29,0-7.56-2.3-7.91-6.35L35.32,30c.29,2.51,1.54,3.26,4.1,3.24,2.13,0,4.18-1,4.21-3.76s-1.32-4-3.88-4a4.66,4.66,0,0,0-4.24,1.86Z"/></svg>