<svg id="Layer_1" data-name="Layer 1" xmlns="http://www.w3.org/2000/svg" viewBox="0 0 60 60"><defs><style>.cls-1{fill:#fff;}.cls-2{fill:#231f20;}</style></defs><title>Joule Icon Library</title><rect class="cls-1" x="0.75" y="0.8" width="58.5" height="58.5" rx="6.15"/><path class="cls-2" d="M53.1,1.55A5.41,5.41,0,0,1,58.5,7V53.15a5.4,5.4,0,0,1-5.4,5.4H6.9a5.4,5.4,0,0,1-5.4-5.4V7A5.41,5.41,0,0,1,6.9,1.55H53.1m0-1.5H6.9A6.9,6.9,0,0,0,0,7V53.15a6.9,6.9,0,0,0,6.9,6.9H53.1a6.9,6.9,0,0,0,6.9-6.9V7A6.9,6.9,0,0,0,53.1.05Z"/><path class="cls-2" d="M16.88,41.48v4.78a1.72,1.72,0,0,1-2,2c-1.62,0-1.94-.81-2-1.78l1.18-.16c0,.53.19.84.79.84s.81-.28.81-.81V41.48Z"/><path class="cls-2" d="M17.6,44.8c0-2.09.87-3.44,3-3.44s3,1.35,3,3.44-.88,3.43-3,3.43S17.6,46.89,17.6,44.8Zm1.2,0c0,1.26.35,2.33,1.77,2.33s1.76-1.07,1.76-2.33-.34-2.33-1.76-2.33S18.8,43.54,18.8,44.8Z"/><path class="cls-2" d="M24.19,45.69V41.48h1.19v4.21c0,.81.26,1.44,1.52,1.44s1.51-.63,1.51-1.44V41.48H29.6v4.21c0,1.44-.64,2.54-2.7,2.54S24.19,47.13,24.19,45.69Z"/><path class="cls-2" d="M32,47H35.1v1.1H30.76V41.48H32Z"/><path class="cls-2" d="M40.51,41.48v1.11H37v1.58h3.11v1.1H37V47h3.67v1.1H35.81V41.48Z"/><path class="cls-2" d="M41.52,46.2l1.2-.13c.1.78.57,1.06,1.47,1.06.67,0,1.41-.26,1.41-1s-.34-.82-1.44-.93-2.41-.41-2.41-1.83,1.1-2,2.38-2c1.74,0,2.53.77,2.65,2l-1.21.12c-.09-.78-.53-1-1.44-1-.45,0-1.19.17-1.19.92,0,.46.26.65,1.28.75,1.62.15,2.56.44,2.57,2s-1.28,2.09-2.6,2.09C42.4,48.23,41.65,47.52,41.52,46.2Z"/><path class="cls-2" d="M15.28,36.43V33h5.27V20.83a14.21,14.21,0,0,1-5.62,2.51V19.67a12.16,12.16,0,0,0,6.35-4.24h3V33h5.12v3.46Z"/><path class="cls-2" d="M31.38,30.76c0-2.81,1.4-4.4,2.94-5a4.79,4.79,0,0,1-2.4-4.45c0-4.38,3.53-5.86,7.53-5.86S47,16.91,47,21.29a4.79,4.79,0,0,1-2.4,4.45c1.53.62,2.94,2.21,2.94,5,0,3.86-2.59,6.05-8.07,6.05S31.38,34.62,31.38,30.76Zm12.41-.24c0-2.59-2.29-3.08-4.34-3.08s-4.35.49-4.35,3.08c0,2,1.67,2.78,4.35,2.78S43.79,32.49,43.79,30.52Zm-.56-9c0-2-1.65-2.57-3.78-2.57s-3.78.6-3.78,2.57c0,2.35,1.83,2.73,3.78,2.73S43.23,23.88,43.23,21.53Z"/></svg>