<svg id="Layer_1" data-name="Layer 1" xmlns="http://www.w3.org/2000/svg" viewBox="0 0 60 60"><defs><style>.cls-1{fill:#fff;}.cls-2{fill:#231f20;}</style></defs><title>Joule Icon Library</title><rect class="cls-1" x="0.75" y="0.8" width="58.5" height="58.5" rx="6.15"/><path class="cls-2" d="M53.1,1.55A5.41,5.41,0,0,1,58.5,7V53.15a5.4,5.4,0,0,1-5.4,5.4H6.9a5.4,5.4,0,0,1-5.4-5.4V7A5.41,5.41,0,0,1,6.9,1.55H53.1m0-1.5H6.9A6.9,6.9,0,0,0,0,7V53.15a6.9,6.9,0,0,0,6.9,6.9H53.1a6.9,6.9,0,0,0,6.9-6.9V7A6.9,6.9,0,0,0,53.1.05Z"/><path class="cls-2" d="M16.88,41.48v4.78a1.72,1.72,0,0,1-2,2c-1.62,0-1.94-.81-2-1.78l1.18-.16c0,.53.19.84.79.84s.81-.28.81-.81V41.48Z"/><path class="cls-2" d="M17.6,44.8c0-2.09.87-3.44,3-3.44s3,1.35,3,3.44-.88,3.43-3,3.43S17.6,46.89,17.6,44.8Zm1.21,0c0,1.26.35,2.33,1.76,2.33s1.76-1.07,1.76-2.33-.34-2.33-1.76-2.33S18.81,43.54,18.81,44.8Z"/><path class="cls-2" d="M24.2,45.69V41.48h1.19v4.21c0,.81.25,1.44,1.51,1.44s1.51-.63,1.51-1.44V41.48H29.6v4.21c0,1.44-.64,2.54-2.7,2.54S24.2,47.13,24.2,45.69Z"/><path class="cls-2" d="M32,47H35.1v1.1H30.77V41.48H32Z"/><path class="cls-2" d="M40.51,41.48v1.11H37v1.58h3.12v1.1H37V47h3.68v1.1H35.81V41.48Z"/><path class="cls-2" d="M41.52,46.2l1.2-.13c.1.78.57,1.06,1.48,1.06.66,0,1.41-.26,1.41-1s-.35-.82-1.45-.93-2.4-.41-2.41-1.83,1.1-2,2.39-2c1.73,0,2.52.77,2.64,2l-1.21.12c-.09-.78-.53-1-1.43-1-.45,0-1.2.17-1.2.92,0,.46.26.65,1.28.75,1.62.15,2.56.44,2.57,2s-1.28,2.09-2.59,2.09C42.4,48.23,41.65,47.52,41.52,46.2Z"/><path class="cls-2" d="M16.88,41.46v4.77c0,1.18-.47,2-2,2s-1.94-.81-2-1.78l1.18-.15c0,.52.19.84.79.84s.81-.28.81-.82V41.46Z"/><path class="cls-2" d="M17.6,44.77c0-2.09.87-3.43,3-3.43s3,1.34,3,3.43-.88,3.43-3,3.43S17.6,46.86,17.6,44.77Zm1.21,0c0,1.26.35,2.33,1.76,2.33s1.76-1.07,1.76-2.33-.34-2.33-1.76-2.33S18.81,43.51,18.81,44.77Z"/><path class="cls-2" d="M24.2,45.66v-4.2h1.19v4.2c0,.81.25,1.44,1.51,1.44s1.51-.63,1.51-1.44v-4.2H29.6v4.2c0,1.45-.64,2.54-2.7,2.54S24.2,47.11,24.2,45.66Z"/><path class="cls-2" d="M32,47H35.1v1.1H30.77V41.46H32Z"/><path class="cls-2" d="M40.51,41.46v1.1H37v1.58h3.12v1.11H37V47h3.68v1.1H35.81V41.46Z"/><path class="cls-2" d="M41.52,46.17l1.2-.12c.1.77.57,1.05,1.48,1.05.66,0,1.41-.26,1.41-1,0-.57-.35-.82-1.45-.92s-2.4-.42-2.41-1.84,1.1-2,2.39-2c1.73,0,2.52.76,2.64,2l-1.21.13c-.09-.78-.53-1.05-1.43-1.05-.45,0-1.2.17-1.2.92,0,.46.26.65,1.28.76,1.62.14,2.56.44,2.57,2S45.51,48.2,44.2,48.2C42.4,48.2,41.65,47.49,41.52,46.17Z"/><path class="cls-2" d="M26.46,31c.27,1.73,1.43,2.38,3.46,2.38,4.29,0,4.8-4,4.88-5.78-1,1.51-3.13,2.19-5,2.19-4.62,0-7.21-2.52-7.21-7.21s3.21-7.13,7.67-7.13c5.77,0,8.29,3.54,8.29,10.75,0,7-3.22,10.6-8.94,10.6-4.35,0-6.61-2.24-6.94-5.31Zm8-9.15c-.54-2.11-1.79-3-4.08-3s-3.94,1.1-3.94,3.75,1.51,3.78,3.72,3.78C32.78,26.39,34.75,24.63,34.43,21.8Z"/></svg>