<svg id="Layer_1" data-name="Layer 1" xmlns="http://www.w3.org/2000/svg" viewBox="0 0 60 60"><defs><style>.cls-1{fill:#fff;}.cls-2{fill:#231f20;}</style></defs><title>Joule Icon Library</title><rect class="cls-1" x="0.82" y="0.84" width="58.5" height="58.5" rx="6.15"/><path class="cls-2" d="M53.17,1.59A5.4,5.4,0,0,1,58.57,7V53.18a5.41,5.41,0,0,1-5.4,5.41H7a5.42,5.42,0,0,1-5.41-5.41V7A5.41,5.41,0,0,1,7,1.59H53.17m0-1.5H7A6.9,6.9,0,0,0,.07,7V53.18A6.91,6.91,0,0,0,7,60.09H53.17a6.9,6.9,0,0,0,6.9-6.91V7a6.9,6.9,0,0,0-6.9-6.9Z"/><path class="cls-2" d="M17,41.39v4.77a1.72,1.72,0,0,1-2,2c-1.63,0-2-.82-2-1.79l1.18-.15c0,.53.2.84.79.84s.81-.28.81-.82V41.39Z"/><path class="cls-2" d="M17.67,44.7c0-2.09.88-3.43,3-3.43s3,1.34,3,3.43-.87,3.44-3,3.44S17.67,46.79,17.67,44.7Zm1.21,0c0,1.26.35,2.33,1.77,2.33S22.41,46,22.41,44.7s-.34-2.33-1.76-2.33S18.88,43.44,18.88,44.7Z"/><path class="cls-2" d="M24.27,45.59v-4.2h1.19v4.2c0,.81.25,1.44,1.51,1.44s1.51-.63,1.51-1.44v-4.2h1.19v4.2c0,1.45-.63,2.55-2.7,2.55S24.27,47,24.27,45.59Z"/><path class="cls-2" d="M32,46.91h3.14V48H30.84V41.39H32Z"/><path class="cls-2" d="M40.59,41.39v1.1H37.08v1.58h3.11v1.11H37.08v1.73h3.67V48H35.89V41.39Z"/><path class="cls-2" d="M41.59,46.1,42.8,46c.09.77.57,1.05,1.47,1.05.66,0,1.41-.25,1.41-1,0-.58-.35-.83-1.45-.93s-2.4-.42-2.41-1.84,1.11-2,2.39-2c1.73,0,2.52.76,2.64,2l-1.2.13c-.1-.78-.54-1.05-1.44-1.05-.45,0-1.2.17-1.2.92,0,.46.26.66,1.28.76,1.63.14,2.56.44,2.57,2s-1.27,2.09-2.59,2.09C42.48,48.14,41.73,47.42,41.59,46.1Z"/><path class="cls-2" d="M19,26.77c0,6.58-2.08,9.9-7.45,9.9s-7.45-3.32-7.45-9.9,2.07-9.89,7.45-9.89S19,20.2,19,26.77Zm-3.5,0c0-4.79-1.13-6.69-3.95-6.69S7.55,22,7.55,26.77s1.12,6.7,4,6.7S15.45,31.57,15.45,26.77Z"/><path class="cls-2" d="M24.25,36.32H20.5V32.57h3.75Z"/><path class="cls-2" d="M26.67,27.32l1-10.09H39.52v3.25h-8.8l-.35,3.57a5.8,5.8,0,0,1,3.25-.85c4.4,0,7,2.25,7,6.77s-3.25,6.7-7.35,6.7c-4.9,0-7-2.12-7.32-5.87l3.52-.35c.28,2.32,1.43,3,3.8,3,2,0,3.88-1,3.9-3.48s-1.22-3.67-3.6-3.7A4.34,4.34,0,0,0,29.6,28Z"/><path class="cls-2" d="M57.15,26.77c0,6.58-2.08,9.9-7.45,9.9s-7.45-3.32-7.45-9.9,2.07-9.89,7.45-9.89S57.15,20.2,57.15,26.77Zm-3.5,0c0-4.79-1.13-6.69-3.95-6.69s-4,1.9-4,6.69,1.12,6.7,4,6.7S53.65,31.57,53.65,26.77Z"/></svg>