<svg id="Layer_1" data-name="Layer 1" xmlns="http://www.w3.org/2000/svg" viewBox="0 0 60 60"><defs><style>.cls-1{fill:#fff;}.cls-2{fill:#231f20;}</style></defs><title>Joule Icon Library</title><rect class="cls-1" x="0.71" y="0.72" width="58.5" height="58.5" rx="6.15"/><path class="cls-2" d="M53.06,1.47a5.41,5.41,0,0,1,5.4,5.41V53.07a5.4,5.4,0,0,1-5.4,5.4H6.87a5.41,5.41,0,0,1-5.41-5.4V6.88A5.42,5.42,0,0,1,6.87,1.47H53.06m0-1.5H6.87A6.91,6.91,0,0,0,0,6.88V53.07A6.9,6.9,0,0,0,6.87,60H53.06a6.9,6.9,0,0,0,6.9-6.9V6.88A6.9,6.9,0,0,0,53.06,0Z"/><path class="cls-2" d="M16.84,41.4v4.78a1.72,1.72,0,0,1-2,2c-1.63,0-1.95-.82-2-1.78l1.18-.16c0,.53.2.84.79.84s.81-.28.81-.81V41.4Z"/><path class="cls-2" d="M17.56,44.72c0-2.09.88-3.44,3-3.44s3,1.35,3,3.44-.87,3.43-3,3.43S17.56,46.81,17.56,44.72Zm1.21,0c0,1.26.35,2.33,1.77,2.33S22.3,46,22.3,44.72s-.34-2.33-1.76-2.33S18.77,43.46,18.77,44.72Z"/><path class="cls-2" d="M24.16,45.61V41.4h1.19v4.21c0,.81.25,1.44,1.51,1.44s1.51-.63,1.51-1.44V41.4h1.19v4.21c0,1.44-.63,2.54-2.7,2.54S24.16,47.05,24.16,45.61Z"/><path class="cls-2" d="M31.92,46.93h3.14V48H30.73V41.4h1.19Z"/><path class="cls-2" d="M40.48,41.4v1.11H37v1.58h3.11v1.1H37v1.74h3.67V48H35.78V41.4Z"/><path class="cls-2" d="M41.48,46.12,42.69,46c.09.78.57,1.06,1.47,1.06.66,0,1.41-.26,1.41-1s-.35-.82-1.45-.93-2.4-.41-2.41-1.83,1.11-2,2.39-2c1.73,0,2.52.77,2.64,2l-1.2.12c-.1-.78-.54-1-1.44-1-.45,0-1.2.17-1.2.92,0,.46.26.65,1.28.75,1.63.15,2.56.44,2.57,2s-1.27,2.09-2.59,2.09C42.37,48.15,41.62,47.44,41.48,46.12Z"/><path class="cls-2" d="M14.55,26.63l1.08-10.9H28.42v3.51h-9.5l-.38,3.86a6.24,6.24,0,0,1,3.51-.92c4.75,0,7.5,2.43,7.5,7.31S26,36.73,21.62,36.73c-5.29,0-7.56-2.3-7.91-6.35L17.52,30c.29,2.51,1.53,3.26,4.1,3.24,2.13,0,4.18-1,4.21-3.76s-1.32-4-3.89-4a4.68,4.68,0,0,0-4.24,1.86Z"/><path class="cls-2" d="M31.34,30.68c0-2.81,1.4-4.4,2.94-5a4.79,4.79,0,0,1-2.4-4.45c0-4.38,3.54-5.86,7.53-5.86s7.53,1.48,7.53,5.86a4.79,4.79,0,0,1-2.4,4.45c1.54.62,2.94,2.21,2.94,5,0,3.86-2.59,6-8.07,6S31.34,34.54,31.34,30.68Zm12.42-.24c0-2.59-2.3-3.08-4.35-3.08s-4.34.49-4.34,3.08c0,2,1.67,2.78,4.34,2.78S43.76,32.41,43.76,30.44Zm-.57-9c0-2-1.65-2.57-3.78-2.57s-3.78.6-3.78,2.57c0,2.35,1.84,2.72,3.78,2.72S43.19,23.8,43.19,21.45Z"/></svg>