<svg id="Layer_1" data-name="Layer 1" xmlns="http://www.w3.org/2000/svg" viewBox="0 0 60 60"><defs><style>.cls-1{fill:#fff;}.cls-2{fill:#231f20;}</style></defs><title>Joule Icon Library</title><rect class="cls-1" x="0.75" y="0.76" width="58.5" height="58.5" rx="6.15"/><path class="cls-2" d="M53.1,1.51a5.4,5.4,0,0,1,5.4,5.4v46.2a5.4,5.4,0,0,1-5.4,5.4H6.9a5.4,5.4,0,0,1-5.4-5.4V6.91a5.4,5.4,0,0,1,5.4-5.4H53.1m0-1.5H6.9A6.9,6.9,0,0,0,0,6.91v46.2A6.9,6.9,0,0,0,6.9,60H53.1a6.9,6.9,0,0,0,6.9-6.9V6.91A6.9,6.9,0,0,0,53.1,0Z"/><path class="cls-2" d="M16.88,41.44v4.77a1.73,1.73,0,0,1-2,2c-1.62,0-1.94-.82-2-1.79l1.18-.15c0,.53.19.84.79.84s.81-.28.81-.82V41.44Z"/><path class="cls-2" d="M17.6,44.75c0-2.09.88-3.43,3-3.43s3,1.34,3,3.43-.88,3.44-3,3.44S17.6,46.84,17.6,44.75Zm1.21,0c0,1.26.35,2.33,1.76,2.33s1.76-1.07,1.76-2.33-.34-2.33-1.76-2.33S18.81,43.49,18.81,44.75Z"/><path class="cls-2" d="M24.2,45.64v-4.2h1.19v4.2c0,.81.25,1.44,1.51,1.44s1.51-.63,1.51-1.44v-4.2H29.6v4.2c0,1.45-.64,2.55-2.7,2.55S24.2,47.09,24.2,45.64Z"/><path class="cls-2" d="M32,47H35.1v1.11H30.77V41.44H32Z"/><path class="cls-2" d="M40.51,41.44v1.1H37v1.58h3.12v1.11H37V47h3.68v1.11H35.81V41.44Z"/><path class="cls-2" d="M41.52,46.16l1.2-.13c.1.77.57,1,1.48,1,.66,0,1.41-.25,1.41-1s-.35-.83-1.45-.93-2.4-.42-2.41-1.84,1.1-2,2.39-2c1.73,0,2.52.76,2.64,2l-1.21.13c-.09-.78-.53-1-1.43-1-.45,0-1.2.17-1.2.92,0,.46.26.66,1.28.76,1.62.14,2.56.44,2.57,2s-1.28,2.09-2.59,2.09C42.4,48.19,41.65,47.47,41.52,46.16Z"/><path class="cls-2" d="M17.58,30.93c.27,1.73,1.43,2.38,3.45,2.38,4.3,0,4.81-4,4.89-5.78-1,1.51-3.13,2.19-5,2.19-4.62,0-7.21-2.51-7.21-7.21s3.21-7.13,7.66-7.13c5.78,0,8.29,3.54,8.29,10.75,0,7-3.21,10.6-8.93,10.6-4.35,0-6.62-2.24-6.94-5.31Zm8-9.15c-.54-2.11-1.78-3-4.07-3s-3.95,1.1-3.95,3.75,1.52,3.78,3.73,3.78C23.9,26.37,25.87,24.61,25.54,21.78Z"/><path class="cls-2" d="M31.38,30.71c0-2.8,1.4-4.39,2.94-5a4.78,4.78,0,0,1-2.4-4.45c0-4.37,3.53-5.86,7.53-5.86S47,16.87,47,21.24a4.78,4.78,0,0,1-2.4,4.45c1.54.63,2.94,2.22,2.94,5,0,3.87-2.59,6-8.07,6S31.38,34.58,31.38,30.71Zm12.41-.24c0-2.59-2.29-3.08-4.34-3.08s-4.35.49-4.35,3.08c0,2,1.68,2.78,4.35,2.78S43.79,32.44,43.79,30.47Zm-.56-9c0-2-1.65-2.56-3.78-2.56s-3.78.59-3.78,2.56c0,2.35,1.83,2.73,3.78,2.73S43.23,23.83,43.23,21.48Z"/></svg>