<svg id="Layer_1" data-name="Layer 1" xmlns="http://www.w3.org/2000/svg" viewBox="0 0 60 60"><defs><style>.cls-1{fill:#fff;}.cls-2{fill:#231f20;}</style></defs><title>Joule Icon Library</title><rect class="cls-1" x="0.71" y="0.75" width="58.5" height="58.5" rx="6.15"/><path class="cls-2" d="M53.06,1.5a5.4,5.4,0,0,1,5.4,5.4V53.1a5.4,5.4,0,0,1-5.4,5.4H6.87a5.41,5.41,0,0,1-5.41-5.4V6.9A5.41,5.41,0,0,1,6.87,1.5H53.06m0-1.5H6.87A6.9,6.9,0,0,0,0,6.9V53.1A6.9,6.9,0,0,0,6.87,60H53.06A6.9,6.9,0,0,0,60,53.1V6.9A6.9,6.9,0,0,0,53.06,0Z"/><path class="cls-2" d="M16.84,41.43v4.78a1.72,1.72,0,0,1-2,2c-1.63,0-1.95-.82-2-1.79l1.18-.15c0,.53.2.84.79.84s.81-.28.81-.81V41.43Z"/><path class="cls-2" d="M17.56,44.74c0-2.09.88-3.43,3-3.43s3,1.34,3,3.43-.87,3.44-3,3.44S17.56,46.83,17.56,44.74Zm1.21,0c0,1.26.35,2.33,1.77,2.33S22.3,46,22.3,44.74s-.34-2.32-1.76-2.32S18.77,43.49,18.77,44.74Z"/><path class="cls-2" d="M24.16,45.64V41.43h1.19v4.21c0,.8.25,1.43,1.51,1.43s1.51-.63,1.51-1.43V41.43h1.19v4.21c0,1.44-.63,2.54-2.7,2.54S24.16,47.08,24.16,45.64Z"/><path class="cls-2" d="M31.92,47h3.14v1.11H30.73V41.43h1.19Z"/><path class="cls-2" d="M40.48,41.43v1.1H37v1.58h3.11v1.11H37V47h3.67v1.11H35.78V41.43Z"/><path class="cls-2" d="M41.48,46.15,42.69,46c.09.77.57,1,1.47,1,.66,0,1.41-.25,1.41-1s-.35-.83-1.45-.93-2.4-.42-2.41-1.84,1.1-2,2.39-2c1.73,0,2.52.77,2.64,2l-1.21.13c-.09-.78-.53-1-1.43-1-.45,0-1.2.16-1.2.91,0,.46.26.66,1.28.76,1.63.14,2.56.44,2.57,2s-1.28,2.09-2.59,2.09C42.36,48.18,41.62,47.46,41.48,46.15Z"/><path class="cls-2" d="M17.84,36.38V20.75a11.78,11.78,0,0,1-4.46,2.05V19.15a10.45,10.45,0,0,0,5.19-3.77h3v21Z"/><path class="cls-2" d="M29.45,36.38H25.4V32.33h4.05Z"/><path class="cls-2" d="M35.06,30.92c.27,1.73,1.44,2.38,3.46,2.38,4.29,0,4.8-4,4.89-5.78-1,1.51-3.14,2.19-5,2.19-4.61,0-7.21-2.51-7.21-7.21s3.22-7.12,7.67-7.12c5.78,0,8.29,3.53,8.29,10.74,0,7-3.21,10.61-8.94,10.61-4.34,0-6.61-2.24-6.93-5.32Zm8-9.15c-.54-2.1-1.78-3-4.08-3S35,19.86,35,22.5s1.51,3.78,3.73,3.78C41.38,26.36,43.35,24.61,43,21.77Z"/></svg>