<svg id="Layer_1" data-name="Layer 1" xmlns="http://www.w3.org/2000/svg" viewBox="0 0 60 60"><defs><style>.cls-1{fill:#fff;}.cls-2{fill:#231f20;}</style></defs><title>Joule Icon Library</title><rect class="cls-1" x="0.75" y="0.75" width="58.5" height="58.5" rx="6.15"/><path class="cls-2" d="M53.1,1.5a5.4,5.4,0,0,1,5.4,5.4V53.1a5.4,5.4,0,0,1-5.4,5.4H6.9a5.4,5.4,0,0,1-5.4-5.4V6.9A5.4,5.4,0,0,1,6.9,1.5H53.1m0-1.5H6.9A6.9,6.9,0,0,0,0,6.9V53.1A6.9,6.9,0,0,0,6.9,60H53.1A6.9,6.9,0,0,0,60,53.1V6.9A6.9,6.9,0,0,0,53.1,0Z"/><path class="cls-2" d="M16.88,41.43v4.78a1.72,1.72,0,0,1-2,2c-1.62,0-1.94-.82-2-1.79l1.18-.15c0,.53.19.84.79.84s.81-.28.81-.82V41.43Z"/><path class="cls-2" d="M17.6,44.74c0-2.09.87-3.43,3-3.43s3,1.34,3,3.43-.88,3.44-3,3.44S17.6,46.83,17.6,44.74Zm1.21,0c0,1.26.34,2.33,1.76,2.33s1.76-1.07,1.76-2.33-.34-2.33-1.76-2.33S18.81,43.49,18.81,44.74Z"/><path class="cls-2" d="M24.19,45.64V41.43h1.19v4.21c0,.8.26,1.43,1.52,1.43s1.51-.63,1.51-1.43V41.43H29.6v4.21c0,1.44-.64,2.54-2.7,2.54S24.19,47.08,24.19,45.64Z"/><path class="cls-2" d="M32,47H35.1v1.11H30.77V41.43H32Z"/><path class="cls-2" d="M40.51,41.43v1.1H37v1.58h3.11v1.11H37V47h3.68v1.11H35.81V41.43Z"/><path class="cls-2" d="M41.52,46.15l1.2-.13c.1.77.57,1,1.47,1,.67,0,1.42-.25,1.42-1s-.35-.83-1.45-.93-2.4-.42-2.41-1.84,1.1-2,2.38-2c1.74,0,2.53.76,2.65,2l-1.21.13c-.09-.78-.53-1.05-1.44-1.05-.45,0-1.19.17-1.19.92,0,.46.26.66,1.28.76,1.62.14,2.56.44,2.57,2s-1.28,2.09-2.6,2.09C42.4,48.18,41.65,47.46,41.52,46.15Z"/><path class="cls-2" d="M17.88,36.31V20.69a11.78,11.78,0,0,1-4.46,2V19.09a10.44,10.44,0,0,0,5.18-3.78h3v21Z"/><path class="cls-2" d="M29.49,36.31h-4v-4h4Z"/><path class="cls-2" d="M43.25,21.15c-.27-1.73-1.43-2.38-3.45-2.38-4.29,0-4.81,4-4.89,5.78,1-1.52,3.13-2.19,5-2.19,4.61,0,7.2,2.51,7.2,7.21s-3.21,7.12-7.66,7.12c-5.78,0-8.29-3.53-8.29-10.74,0-7,3.21-10.61,8.94-10.61,4.34,0,6.61,2.24,6.93,5.32Zm-8,9.15c.54,2.1,1.78,3,4.08,3s3.94-1.11,3.94-3.75-1.51-3.78-3.73-3.78C36.94,25.71,35,27.46,35.29,30.3Z"/></svg>