<svg id="Layer_1" data-name="Layer 1" xmlns="http://www.w3.org/2000/svg" viewBox="0 0 60 60"><defs><style>.cls-1{fill:#fff;}.cls-2{fill:#231f20;}</style></defs><title>Joule Icon Library</title><rect class="cls-1" x="0.75" y="0.96" width="58.5" height="58.5" rx="6.15"/><path class="cls-2" d="M53.1,1.71a5.4,5.4,0,0,1,5.4,5.4v46.2a5.41,5.41,0,0,1-5.4,5.4H6.9a5.41,5.41,0,0,1-5.4-5.4V7.11a5.4,5.4,0,0,1,5.4-5.4H53.1m0-1.5H6.9A6.9,6.9,0,0,0,0,7.11v46.2a6.9,6.9,0,0,0,6.9,6.9H53.1a6.9,6.9,0,0,0,6.9-6.9V7.11A6.9,6.9,0,0,0,53.1.21Z"/><path class="cls-2" d="M16.88,41.51v4.78a1.72,1.72,0,0,1-2,2c-1.62,0-1.94-.82-2-1.79l1.18-.15c0,.53.19.84.79.84s.81-.28.81-.81V41.51Z"/><path class="cls-2" d="M17.6,44.82c0-2.09.87-3.43,3-3.43s3,1.34,3,3.43-.88,3.44-3,3.44S17.6,46.91,17.6,44.82Zm1.2,0c0,1.26.35,2.33,1.77,2.33s1.76-1.07,1.76-2.33S22,42.5,20.57,42.5,18.8,43.57,18.8,44.82Z"/><path class="cls-2" d="M24.19,45.72V41.51h1.19v4.21c0,.8.26,1.43,1.52,1.43s1.51-.63,1.51-1.43V41.51H29.6v4.21c0,1.44-.64,2.54-2.7,2.54S24.19,47.16,24.19,45.72Z"/><path class="cls-2" d="M32,47H35.1v1.11H30.76V41.51H32Z"/><path class="cls-2" d="M40.51,41.51v1.1H37v1.58h3.11V45.3H37V47h3.67v1.11H35.81V41.51Z"/><path class="cls-2" d="M41.52,46.23l1.2-.13c.1.77.57,1,1.47,1,.67,0,1.42-.25,1.42-1s-.35-.83-1.45-.93-2.41-.42-2.41-1.84,1.1-2,2.38-2c1.74,0,2.53.77,2.65,2l-1.21.13c-.09-.78-.53-1-1.44-1-.45,0-1.19.17-1.19.91,0,.46.26.66,1.28.76,1.62.14,2.56.44,2.57,2s-1.28,2.09-2.6,2.09C42.4,48.26,41.65,47.54,41.52,46.23Z"/><path class="cls-2" d="M17.88,36.44V20.81a11.81,11.81,0,0,1-4.46,2.06V19.22a10.44,10.44,0,0,0,5.18-3.78h3v21Z"/><path class="cls-2" d="M29.49,36.44h-4v-4h4Z"/><path class="cls-2" d="M47,21.79c0,4.1-3.13,5.29-6.31,6.69S35.4,30.91,35.13,33H47.46v3.45H31.11v-.27c0-7,3.26-8.82,7.74-10.6,2.08-.9,4.48-1.7,4.48-3.78,0-2.3-2.1-2.84-3.86-2.84-2.59,0-4.07.81-4.29,3.32l-3.8-.4c.35-4,2.72-6.43,8.09-6.43C43.55,15.44,47,17.52,47,21.79Z"/></svg>