<svg id="Layer_1" data-name="Layer 1" xmlns="http://www.w3.org/2000/svg" viewBox="0 0 60 60"><defs><style>.cls-1{fill:#fff;}.cls-2{fill:#231f20;}</style></defs><title>Joule Icon Library</title><rect class="cls-1" x="0.75" y="0.75" width="58.5" height="58.5" rx="6.15"/><path class="cls-2" d="M53.1,1.5a5.4,5.4,0,0,1,5.4,5.4V53.1a5.4,5.4,0,0,1-5.4,5.4H6.9a5.4,5.4,0,0,1-5.4-5.4V6.9A5.4,5.4,0,0,1,6.9,1.5H53.1m0-1.5H6.9A6.9,6.9,0,0,0,0,6.9V53.1A6.9,6.9,0,0,0,6.9,60H53.1A6.9,6.9,0,0,0,60,53.1V6.9A6.9,6.9,0,0,0,53.1,0Z"/><path class="cls-2" d="M16.88,41.43v4.78a1.72,1.72,0,0,1-2,2c-1.62,0-1.94-.82-2-1.79l1.18-.15c0,.53.19.84.79.84s.81-.28.81-.81V41.43Z"/><path class="cls-2" d="M17.6,44.74c0-2.09.87-3.43,3-3.43s3,1.34,3,3.43-.88,3.44-3,3.44S17.6,46.83,17.6,44.74Zm1.21,0c0,1.26.34,2.33,1.76,2.33s1.76-1.07,1.76-2.33-.34-2.32-1.76-2.32S18.81,43.49,18.81,44.74Z"/><path class="cls-2" d="M24.19,45.64V41.43h1.19v4.21c0,.8.26,1.43,1.52,1.43s1.51-.63,1.51-1.43V41.43H29.6v4.21c0,1.44-.64,2.54-2.7,2.54S24.19,47.08,24.19,45.64Z"/><path class="cls-2" d="M32,47H35.1v1.11H30.76V41.43H32Z"/><path class="cls-2" d="M40.51,41.43v1.1H37v1.58h3.11v1.11H37V47h3.67v1.11H35.81V41.43Z"/><path class="cls-2" d="M41.52,46.15l1.2-.13c.1.77.57,1,1.47,1,.67,0,1.42-.25,1.42-1s-.35-.83-1.45-.93-2.41-.42-2.41-1.84,1.1-2,2.38-2c1.74,0,2.53.77,2.65,2l-1.21.13c-.09-.78-.53-1-1.44-1-.45,0-1.19.16-1.19.91,0,.46.26.66,1.28.76,1.62.14,2.56.44,2.57,2s-1.28,2.09-2.6,2.09C42.4,48.18,41.65,47.46,41.52,46.15Z"/><path class="cls-2" d="M17.88,36.38V20.75a11.78,11.78,0,0,1-4.46,2.05V19.15a10.42,10.42,0,0,0,5.18-3.77h3v21Z"/><path class="cls-2" d="M29.49,36.38h-4V32.33h4Z"/><path class="cls-2" d="M31.13,30.71c0-2.81,1.41-4.4,2.95-5a4.81,4.81,0,0,1-2.41-4.46c0-4.37,3.54-5.85,7.53-5.85s7.54,1.48,7.54,5.85a4.81,4.81,0,0,1-2.41,4.46c1.54.62,3,2.21,3,5,0,3.86-2.6,6-8.08,6S31.13,34.57,31.13,30.71Zm12.42-.25c0-2.59-2.29-3.07-4.35-3.07s-4.34.48-4.34,3.07c0,2,1.67,2.78,4.34,2.78S43.55,32.44,43.55,30.46Zm-.57-9c0-2-1.64-2.57-3.78-2.57s-3.78.6-3.78,2.57c0,2.34,1.84,2.72,3.78,2.72S43,23.82,43,21.48Z"/></svg>