<svg id="Layer_1" data-name="Layer 1" xmlns="http://www.w3.org/2000/svg" viewBox="0 0 60 60"><defs><style>.cls-1{fill:#fff;}.cls-2{fill:#231f20;}</style></defs><title>Joule Icon Library</title><rect class="cls-1" x="0.71" y="0.79" width="58.5" height="58.5" rx="6.15"/><path class="cls-2" d="M53.06,1.54a5.4,5.4,0,0,1,5.4,5.4V53.13a5.41,5.41,0,0,1-5.4,5.41H6.86a5.42,5.42,0,0,1-5.4-5.41V6.94a5.41,5.41,0,0,1,5.4-5.4h46.2m0-1.5H6.86A6.9,6.9,0,0,0,0,6.94V53.13A6.9,6.9,0,0,0,6.86,60h46.2A6.9,6.9,0,0,0,60,53.13V6.94A6.9,6.9,0,0,0,53.06,0Z"/><path class="cls-2" d="M16.84,41.46v4.78a1.72,1.72,0,0,1-2,2c-1.63,0-1.95-.81-2-1.78l1.18-.15c0,.52.2.84.79.84s.81-.28.81-.82V41.46Z"/><path class="cls-2" d="M17.56,44.78c0-2.09.88-3.43,3-3.43s3,1.34,3,3.43-.87,3.43-3,3.43S17.56,46.87,17.56,44.78Zm1.21,0c0,1.26.35,2.33,1.77,2.33S22.3,46,22.3,44.78s-.34-2.33-1.76-2.33S18.77,43.52,18.77,44.78Z"/><path class="cls-2" d="M24.16,45.67V41.46h1.19v4.21c0,.81.25,1.44,1.51,1.44s1.51-.63,1.51-1.44V41.46h1.19v4.21c0,1.45-.63,2.54-2.7,2.54S24.16,47.12,24.16,45.67Z"/><path class="cls-2" d="M31.92,47h3.14v1.1H30.73V41.46h1.19Z"/><path class="cls-2" d="M40.48,41.46v1.11H37v1.58h3.11v1.11H37V47h3.67v1.1H35.78V41.46Z"/><path class="cls-2" d="M41.48,46.18l1.21-.13c.09.78.57,1.06,1.47,1.06.66,0,1.41-.26,1.41-1,0-.58-.35-.82-1.45-.92s-2.4-.42-2.41-1.84,1.1-2,2.39-2c1.73,0,2.52.76,2.64,2l-1.21.13c-.09-.79-.53-1-1.43-1-.45,0-1.2.17-1.2.92,0,.46.26.65,1.28.76,1.63.14,2.56.44,2.57,2s-1.28,2.09-2.59,2.09C42.36,48.21,41.62,47.5,41.48,46.18Z"/><path class="cls-2" d="M34.58,21.24c-.27-1.73-1.43-2.37-3.46-2.37-4.29,0-4.8,4-4.88,5.77,1-1.51,3.13-2.18,5-2.18,4.61,0,7.21,2.51,7.21,7.2s-3.22,7.13-7.67,7.13c-5.78,0-8.29-3.54-8.29-10.74,0-7,3.22-10.61,8.94-10.61,4.34,0,6.61,2.24,6.94,5.32Zm-8,9.15c.54,2.11,1.78,3,4.08,3s3.94-1.11,3.94-3.76-1.51-3.78-3.72-3.78C28.26,25.8,26.29,27.56,26.61,30.39Z"/></svg>