<svg id="Layer_1" data-name="Layer 1" xmlns="http://www.w3.org/2000/svg" viewBox="0 0 60 60"><defs><style>.cls-1{fill:#fff;}.cls-2{fill:#231f20;}</style></defs><title>Joule Icon Library</title><rect class="cls-1" x="0.75" y="0.92" width="58.5" height="58.5" rx="6.15"/><path class="cls-2" d="M53.1,1.67a5.41,5.41,0,0,1,5.4,5.4v46.2a5.4,5.4,0,0,1-5.4,5.4H6.9a5.4,5.4,0,0,1-5.4-5.4V7.07a5.41,5.41,0,0,1,5.4-5.4H53.1m0-1.5H6.9A6.9,6.9,0,0,0,0,7.07v46.2a6.9,6.9,0,0,0,6.9,6.9H53.1a6.9,6.9,0,0,0,6.9-6.9V7.07A6.9,6.9,0,0,0,53.1.17Z"/><path class="cls-2" d="M16.88,41.47v4.78a1.72,1.72,0,0,1-2,2c-1.62,0-1.94-.81-2-1.78l1.18-.16c0,.53.19.85.79.85s.81-.28.81-.82V41.47Z"/><path class="cls-2" d="M17.6,44.79c0-2.09.87-3.44,3-3.44s3,1.35,3,3.44-.88,3.43-3,3.43S17.6,46.88,17.6,44.79Zm1.21,0c0,1.26.34,2.33,1.76,2.33s1.76-1.07,1.76-2.33-.34-2.33-1.76-2.33S18.81,43.53,18.81,44.79Z"/><path class="cls-2" d="M24.19,45.68V41.47h1.19v4.21c0,.81.26,1.44,1.52,1.44s1.51-.63,1.51-1.44V41.47H29.6v4.21c0,1.45-.64,2.54-2.7,2.54S24.19,47.13,24.19,45.68Z"/><path class="cls-2" d="M32,47H35.1v1.1H30.76V41.47H32Z"/><path class="cls-2" d="M40.51,41.47v1.11H37v1.58h3.11v1.1H37V47h3.67v1.1H35.81V41.47Z"/><path class="cls-2" d="M41.52,46.19l1.2-.13c.1.78.57,1.06,1.47,1.06.67,0,1.42-.26,1.42-1s-.35-.82-1.45-.93-2.41-.41-2.41-1.83,1.1-2,2.38-2c1.74,0,2.53.77,2.65,2l-1.21.12c-.09-.78-.53-1-1.44-1-.45,0-1.19.17-1.19.92,0,.46.26.65,1.28.75,1.62.15,2.56.45,2.57,2s-1.28,2.09-2.6,2.09C42.4,48.22,41.65,47.51,41.52,46.19Z"/><path class="cls-2" d="M21.09,26.1c0,7.1-2.24,10.69-8,10.69S5,33.2,5,26.1s2.24-10.69,8-10.69S21.09,19,21.09,26.1Zm-3.78,0c0-5.19-1.22-7.24-4.27-7.24S8.78,20.91,8.78,26.1,10,33.33,13,33.33,17.31,31.28,17.31,26.1Z"/><path class="cls-2" d="M26.81,36.41h-4v-4h4Z"/><path class="cls-2" d="M32.48,36.41V20.78a11.81,11.81,0,0,1-4.45,2V19.19a10.54,10.54,0,0,0,5.18-3.78h3v21Z"/><path class="cls-2" d="M56.13,26.1c0,7.1-2.24,10.69-8,10.69S40,33.2,40,26.1s2.24-10.69,8.05-10.69S56.13,19,56.13,26.1Zm-3.78,0c0-5.19-1.21-7.24-4.26-7.24s-4.27,2.05-4.27,7.24,1.22,7.23,4.27,7.23S52.35,31.28,52.35,26.1Z"/></svg>