<svg id="Layer_1" data-name="Layer 1" xmlns="http://www.w3.org/2000/svg" viewBox="0 0 60 60"><defs><style>.cls-1{fill:#fff;}.cls-2{fill:#231f20;}</style></defs><title>Joule Icon Library</title><rect class="cls-1" x="0.75" y="0.96" width="58.5" height="58.5" rx="6.15"/><path class="cls-2" d="M53.1,1.71a5.4,5.4,0,0,1,5.4,5.4v46.2a5.41,5.41,0,0,1-5.4,5.4H6.9a5.41,5.41,0,0,1-5.4-5.4V7.11a5.4,5.4,0,0,1,5.4-5.4H53.1m0-1.5H6.9A6.9,6.9,0,0,0,0,7.11v46.2a6.9,6.9,0,0,0,6.9,6.9H53.1a6.9,6.9,0,0,0,6.9-6.9V7.11A6.9,6.9,0,0,0,53.1.21Z"/><path class="cls-2" d="M16.88,41.51v4.78a1.72,1.72,0,0,1-2,2c-1.62,0-1.94-.82-2-1.79l1.18-.15c0,.53.19.84.79.84s.81-.28.81-.81V41.51Z"/><path class="cls-2" d="M17.6,44.82c0-2.09.87-3.43,3-3.43s3,1.34,3,3.43-.88,3.44-3,3.44S17.6,46.91,17.6,44.82Zm1.21,0c0,1.26.34,2.33,1.76,2.33s1.76-1.07,1.76-2.33S22,42.5,20.57,42.5,18.81,43.57,18.81,44.82Z"/><path class="cls-2" d="M24.19,45.72V41.51h1.19v4.21c0,.8.26,1.43,1.52,1.43s1.51-.63,1.51-1.43V41.51H29.6v4.21c0,1.44-.64,2.54-2.7,2.54S24.19,47.16,24.19,45.72Z"/><path class="cls-2" d="M32,47H35.1v1.11H30.77V41.51H32Z"/><path class="cls-2" d="M40.51,41.51v1.1H37v1.58h3.11V45.3H37V47h3.68v1.11H35.81V41.51Z"/><path class="cls-2" d="M41.52,46.23l1.2-.13c.1.77.57,1,1.47,1,.67,0,1.42-.25,1.42-1s-.35-.83-1.45-.93-2.4-.42-2.41-1.84,1.1-2,2.38-2c1.74,0,2.53.77,2.65,2l-1.21.13c-.09-.78-.53-1-1.44-1-.45,0-1.19.17-1.19.91,0,.46.26.66,1.28.76,1.62.14,2.56.44,2.57,2s-1.28,2.09-2.6,2.09C42.4,48.26,41.65,47.54,41.52,46.23Z"/><path class="cls-2" d="M18.87,26.9c0,6.57-2.07,9.89-7.45,9.89S4,33.47,4,26.9,6.05,17,11.42,17,18.87,20.32,18.87,26.9Zm-3.5,0c0-4.8-1.12-6.7-3.95-6.7s-3.95,1.9-3.95,6.7,1.13,6.69,4,6.69S15.37,31.69,15.37,26.9Z"/><path class="cls-2" d="M24.17,36.44H20.42V32.69h3.75Z"/><path class="cls-2" d="M25.7,31.2c0-2.6,1.3-4.08,2.72-4.65a4.45,4.45,0,0,1-2.22-4.13c0-4.05,3.27-5.42,7-5.42s7,1.37,7,5.42a4.45,4.45,0,0,1-2.23,4.13c1.43.57,2.73,2.05,2.73,4.65,0,3.57-2.4,5.59-7.48,5.59S25.7,34.77,25.7,31.2ZM37.2,31c0-2.4-2.13-2.85-4-2.85s-4,.45-4,2.85c0,1.82,1.55,2.57,4,2.57S37.2,32.79,37.2,31Zm-.53-8.32c0-1.83-1.52-2.38-3.5-2.38s-3.5.55-3.5,2.38c0,2.17,1.7,2.52,3.5,2.52S36.67,24.82,36.67,22.65Z"/><path class="cls-2" d="M57.07,26.9c0,6.57-2.07,9.89-7.45,9.89s-7.45-3.32-7.45-9.89S44.25,17,49.62,17,57.07,20.32,57.07,26.9Zm-3.5,0c0-4.8-1.12-6.7-4-6.7s-3.95,1.9-3.95,6.7,1.13,6.69,3.95,6.69S53.57,31.69,53.57,26.9Z"/></svg>