<svg id="Layer_1" data-name="Layer 1" xmlns="http://www.w3.org/2000/svg" viewBox="0 0 60 60"><defs><style>.cls-1{fill:#fff;}.cls-2{fill:#231f20;}</style></defs><title>Joule Icon Library</title><rect class="cls-1" x="0.75" y="0.66" width="58.5" height="58.5" rx="6.15"/><path class="cls-2" d="M53.1,1.41a5.41,5.41,0,0,1,5.4,5.41V53a5.4,5.4,0,0,1-5.4,5.4H6.9A5.4,5.4,0,0,1,1.5,53V6.82A5.41,5.41,0,0,1,6.9,1.41H53.1m0-1.5H6.9A6.9,6.9,0,0,0,0,6.82V53a6.9,6.9,0,0,0,6.9,6.9H53.1A6.9,6.9,0,0,0,60,53V6.82A6.9,6.9,0,0,0,53.1-.09Z"/><path class="cls-2" d="M16.88,41.22V46c0,1.18-.47,2-2,2s-1.94-.81-2-1.78L14.09,46c0,.52.19.84.79.84s.81-.28.81-.82V41.22Z"/><path class="cls-2" d="M17.6,44.53c0-2.09.87-3.43,3-3.43s3,1.34,3,3.43-.88,3.43-3,3.43S17.6,46.62,17.6,44.53Zm1.21,0c0,1.26.34,2.33,1.76,2.33s1.76-1.07,1.76-2.33S22,42.2,20.57,42.2,18.81,43.27,18.81,44.53Z"/><path class="cls-2" d="M24.19,45.42v-4.2h1.19v4.2c0,.81.26,1.44,1.52,1.44s1.51-.63,1.51-1.44v-4.2H29.6v4.2C29.6,46.87,29,48,26.9,48S24.19,46.87,24.19,45.42Z"/><path class="cls-2" d="M32,46.74H35.1v1.11H30.77V41.22H32Z"/><path class="cls-2" d="M40.51,41.22v1.1H37V43.9h3.11V45H37v1.73h3.68v1.11H35.81V41.22Z"/><path class="cls-2" d="M41.52,45.93l1.2-.12c.1.77.57,1,1.47,1,.67,0,1.42-.26,1.42-1,0-.57-.35-.82-1.45-.92s-2.4-.42-2.41-1.84,1.1-2,2.38-2c1.74,0,2.53.76,2.65,2l-1.21.13c-.09-.78-.53-1-1.44-1-.45,0-1.19.17-1.19.92,0,.46.26.65,1.28.76,1.62.14,2.56.44,2.57,2S45.51,48,44.19,48C42.4,48,41.65,47.25,41.52,45.93Z"/><path class="cls-2" d="M18.87,26.6c0,6.58-2.07,9.9-7.45,9.9S4,33.18,4,26.6s2.07-9.89,7.44-9.89S18.87,20,18.87,26.6Zm-3.5,0c0-4.8-1.12-6.7-3.95-6.7s-3.95,1.9-3.95,6.7,1.13,6.7,4,6.7S15.37,31.4,15.37,26.6Z"/><path class="cls-2" d="M24.17,36.15H20.42V32.4h3.75Z"/><path class="cls-2" d="M36.92,22.1c-.25-1.6-1.32-2.2-3.2-2.2-4,0-4.45,3.7-4.52,5.35.9-1.4,2.9-2,4.62-2,4.28,0,6.68,2.32,6.68,6.67s-3,6.6-7.1,6.6c-5.35,0-7.67-3.27-7.67-9.95,0-6.47,3-9.82,8.27-9.82,4,0,6.12,2.07,6.42,4.92Zm-7.37,8.48c.5,2,1.65,2.8,3.77,2.8S37,32.35,37,29.9s-1.4-3.5-3.45-3.5A3.6,3.6,0,0,0,29.55,30.58Z"/><path class="cls-2" d="M57.07,26.6c0,6.58-2.07,9.9-7.45,9.9s-7.45-3.32-7.45-9.9,2.08-9.89,7.45-9.89S57.07,20,57.07,26.6Zm-3.5,0c0-4.8-1.12-6.7-4-6.7s-3.95,1.9-3.95,6.7,1.13,6.7,3.95,6.7S53.57,31.4,53.57,26.6Z"/></svg>