<svg id="Layer_1" data-name="Layer 1" xmlns="http://www.w3.org/2000/svg" viewBox="0 0 60 60"><defs><style>.cls-1{fill:#fff;}.cls-2{fill:#231f20;}</style></defs><title>Joule Icon Library</title><rect class="cls-1" x="0.75" y="0.79" width="58.5" height="58.5" rx="6.15"/><path class="cls-2" d="M53.1,1.54a5.4,5.4,0,0,1,5.4,5.4V53.13a5.41,5.41,0,0,1-5.4,5.41H6.9a5.41,5.41,0,0,1-5.4-5.41V6.94a5.4,5.4,0,0,1,5.4-5.4H53.1m0-1.5H6.9A6.9,6.9,0,0,0,0,6.94V53.13A6.9,6.9,0,0,0,6.9,60H53.1A6.9,6.9,0,0,0,60,53.13V6.94A6.9,6.9,0,0,0,53.1,0Z"/><path class="cls-2" d="M16.88,41.46v4.78a1.72,1.72,0,0,1-2,2c-1.62,0-1.94-.81-2-1.78l1.18-.15c0,.52.19.84.79.84s.81-.28.81-.82V41.46Z"/><path class="cls-2" d="M17.6,44.78c0-2.09.87-3.43,3-3.43s3,1.34,3,3.43-.88,3.43-3,3.43S17.6,46.87,17.6,44.78Zm1.2,0c0,1.26.35,2.33,1.77,2.33s1.76-1.07,1.76-2.33-.34-2.33-1.76-2.33S18.8,43.52,18.8,44.78Z"/><path class="cls-2" d="M24.19,45.67V41.46h1.19v4.21c0,.81.26,1.44,1.52,1.44s1.51-.63,1.51-1.44V41.46H29.6v4.21c0,1.45-.64,2.54-2.7,2.54S24.19,47.12,24.19,45.67Z"/><path class="cls-2" d="M32,47H35.1v1.1H30.76V41.46H32Z"/><path class="cls-2" d="M40.51,41.46v1.11H37v1.58h3.11v1.11H37V47h3.67v1.1H35.81V41.46Z"/><path class="cls-2" d="M41.52,46.18l1.2-.13c.1.78.57,1.06,1.47,1.06.67,0,1.41-.26,1.41-1,0-.58-.34-.82-1.44-.92s-2.41-.42-2.41-1.84,1.1-2,2.38-2c1.74,0,2.53.76,2.65,2l-1.21.13c-.09-.79-.53-1-1.44-1-.45,0-1.19.17-1.19.92,0,.46.26.65,1.28.76,1.62.14,2.56.44,2.57,2s-1.28,2.09-2.6,2.09C42.4,48.21,41.65,47.5,41.52,46.18Z"/><path class="cls-2" d="M22.87,21.24c-.27-1.73-1.43-2.37-3.46-2.37-4.29,0-4.8,4-4.88,5.77,1-1.51,3.13-2.18,5-2.18,4.62,0,7.21,2.51,7.21,7.2s-3.21,7.13-7.67,7.13c-5.77,0-8.28-3.54-8.28-10.74,0-7,3.21-10.61,8.93-10.61,4.35,0,6.61,2.24,6.94,5.32Zm-8,9.15c.53,2.11,1.78,3,4.07,3s3.94-1.11,3.94-3.76-1.51-3.78-3.72-3.78C16.55,25.8,14.58,27.56,14.91,30.39Z"/><path class="cls-2" d="M32.59,36.41H28.54v-4h4.05Z"/><path class="cls-2" d="M35.21,26.69l1.08-10.9H49.08V19.3h-9.5l-.38,3.86a6.27,6.27,0,0,1,3.51-.92c4.75,0,7.51,2.43,7.51,7.32s-3.51,7.23-7.94,7.23c-5.29,0-7.56-2.29-7.91-6.34l3.81-.38c.3,2.51,1.54,3.26,4.1,3.24,2.13,0,4.19-1,4.21-3.75s-1.32-4-3.88-4a4.66,4.66,0,0,0-4.24,1.86Z"/></svg>