<svg id="Layer_1" data-name="Layer 1" xmlns="http://www.w3.org/2000/svg" viewBox="0 0 60 60"><defs><style>.cls-1{fill:#fff;}.cls-2{fill:#231f20;}</style></defs><title>Joule Icon Library</title><rect class="cls-1" x="0.71" y="0.8" width="58.5" height="58.5" rx="6.15"/><path class="cls-2" d="M53.06,1.55A5.41,5.41,0,0,1,58.46,7V53.15a5.4,5.4,0,0,1-5.4,5.4H6.87a5.41,5.41,0,0,1-5.41-5.4V7A5.42,5.42,0,0,1,6.87,1.55H53.06m0-1.5H6.87A6.91,6.91,0,0,0,0,7V53.15a6.9,6.9,0,0,0,6.91,6.9H53.06a6.9,6.9,0,0,0,6.9-6.9V7A6.9,6.9,0,0,0,53.06.05Z"/><path class="cls-2" d="M16.84,41.48v4.78a1.72,1.72,0,0,1-2,2c-1.63,0-1.95-.81-2-1.78l1.18-.16c0,.53.2.84.79.84s.81-.28.81-.81V41.48Z"/><path class="cls-2" d="M17.56,44.8c0-2.09.88-3.44,3-3.44s3,1.35,3,3.44-.87,3.43-3,3.43S17.56,46.89,17.56,44.8Zm1.21,0c0,1.26.35,2.33,1.77,2.33s1.76-1.07,1.76-2.33-.34-2.33-1.76-2.33S18.77,43.54,18.77,44.8Z"/><path class="cls-2" d="M24.16,45.69V41.48h1.19v4.21c0,.81.25,1.44,1.51,1.44s1.51-.63,1.51-1.44V41.48h1.19v4.21c0,1.44-.63,2.54-2.7,2.54S24.16,47.13,24.16,45.69Z"/><path class="cls-2" d="M31.92,47h3.14v1.1H30.73V41.48h1.19Z"/><path class="cls-2" d="M40.48,41.48v1.11H37v1.58h3.11v1.1H37V47h3.67v1.1H35.78V41.48Z"/><path class="cls-2" d="M41.48,46.2l1.21-.13c.09.78.57,1.06,1.47,1.06.66,0,1.41-.26,1.41-1s-.35-.82-1.45-.93-2.4-.41-2.41-1.83,1.1-2,2.39-2c1.73,0,2.52.77,2.64,2l-1.21.12c-.09-.78-.53-1-1.43-1-.45,0-1.2.17-1.2.92,0,.46.26.65,1.28.75,1.63.15,2.56.44,2.57,2s-1.27,2.09-2.59,2.09C42.36,48.23,41.62,47.52,41.48,46.2Z"/><path class="cls-2" d="M15.25,36.43V33h5.26V20.83a14.23,14.23,0,0,1-5.61,2.51V19.67a12.09,12.09,0,0,0,6.34-4.24h3V33h5.13v3.46Z"/><path class="cls-2" d="M43.46,21.26C43.19,19.53,42,18.88,40,18.88c-4.29,0-4.8,4-4.88,5.78,1-1.51,3.13-2.19,5-2.19,4.62,0,7.21,2.51,7.21,7.21s-3.21,7.13-7.67,7.13c-5.77,0-8.28-3.54-8.28-10.75,0-7,3.21-10.6,8.93-10.6,4.35,0,6.62,2.24,6.94,5.31Zm-8,9.15c.54,2.11,1.78,3,4.07,3s3.94-1.1,3.94-3.75S42,25.9,39.79,25.9C37.14,25.82,35.17,27.58,35.5,30.41Z"/></svg>