<svg id="Layer_1" data-name="Layer 1" xmlns="http://www.w3.org/2000/svg" viewBox="0 0 60 60"><defs><style>.cls-1{fill:#fff;}.cls-2{fill:#231f20;}</style></defs><title>Joule Icon Library</title><rect class="cls-1" x="0.75" y="0.75" width="58.5" height="58.5" rx="6.15"/><path class="cls-2" d="M53.1,1.5a5.4,5.4,0,0,1,5.4,5.4V53.1a5.4,5.4,0,0,1-5.4,5.4H6.9a5.4,5.4,0,0,1-5.4-5.4V6.9A5.4,5.4,0,0,1,6.9,1.5H53.1m0-1.5H6.9A6.9,6.9,0,0,0,0,6.9V53.1A6.9,6.9,0,0,0,6.9,60H53.1A6.9,6.9,0,0,0,60,53.1V6.9A6.9,6.9,0,0,0,53.1,0Z"/><path class="cls-2" d="M16.88,41.3v4.78a1.72,1.72,0,0,1-2,2c-1.62,0-1.94-.82-2-1.78l1.18-.16c0,.53.19.84.79.84s.81-.28.81-.81V41.3Z"/><path class="cls-2" d="M17.6,44.62c0-2.09.87-3.44,3-3.44s3,1.35,3,3.44-.88,3.43-3,3.43S17.6,46.71,17.6,44.62Zm1.21,0c0,1.26.34,2.33,1.76,2.33s1.76-1.07,1.76-2.33-.34-2.33-1.76-2.33S18.81,43.36,18.81,44.62Z"/><path class="cls-2" d="M24.2,45.51V41.3h1.18v4.21c0,.81.26,1.44,1.52,1.44s1.51-.63,1.51-1.44V41.3H29.6v4.21c0,1.44-.64,2.54-2.7,2.54S24.2,47,24.2,45.51Z"/><path class="cls-2" d="M32,46.83H35.1v1.1H30.77V41.3H32Z"/><path class="cls-2" d="M40.51,41.3v1.11H37V44h3.11v1.1H37v1.74h3.68v1.1H35.81V41.3Z"/><path class="cls-2" d="M41.52,46l1.2-.13c.1.78.57,1.06,1.47,1.06.67,0,1.42-.26,1.42-1s-.35-.82-1.45-.93-2.4-.41-2.41-1.83,1.1-2,2.38-2c1.74,0,2.53.77,2.65,2l-1.21.12c-.09-.78-.53-1-1.44-1-.45,0-1.19.17-1.19.92,0,.46.26.65,1.28.75,1.62.15,2.56.44,2.57,2s-1.28,2.09-2.6,2.09C42.4,48.05,41.65,47.34,41.52,46Z"/><path class="cls-2" d="M24.19,25.93c0,7.09-2.24,10.68-8,10.68s-8-3.59-8-10.68,2.24-10.69,8-10.69S24.19,18.83,24.19,25.93Zm-3.78,0c0-5.19-1.21-7.24-4.26-7.24s-4.27,2-4.27,7.24,1.22,7.23,4.27,7.23S20.41,31.11,20.41,25.93Z"/><path class="cls-2" d="M29.92,36.24H25.87V32.19h4.05Z"/><path class="cls-2" d="M35.59,36.24V20.61a11.78,11.78,0,0,1-4.46,2.05V19a10.57,10.57,0,0,0,5.19-3.78h3v21Z"/><path class="cls-2" d="M47.14,36.24V20.61a11.81,11.81,0,0,1-4.45,2.05V19a10.54,10.54,0,0,0,5.18-3.78h3v21Z"/></svg>