<svg id="Layer_1" data-name="Layer 1" xmlns="http://www.w3.org/2000/svg" viewBox="0 0 60 60"><defs><style>.cls-1{fill:#fff;}.cls-2{fill:#231f20;}</style></defs><title>Joule Icon Library</title><rect class="cls-1" x="0.75" y="0.78" width="58.5" height="58.5" rx="6.15"/><path class="cls-2" d="M53.1,1.53a5.4,5.4,0,0,1,5.4,5.4V53.12a5.41,5.41,0,0,1-5.4,5.41H6.9a5.41,5.41,0,0,1-5.4-5.41V6.93a5.4,5.4,0,0,1,5.4-5.4H53.1m0-1.5H6.9A6.9,6.9,0,0,0,0,6.93V53.12A6.9,6.9,0,0,0,6.9,60H53.1A6.9,6.9,0,0,0,60,53.12V6.93A6.9,6.9,0,0,0,53.1,0Z"/><path class="cls-2" d="M16.88,41.46v4.77a1.72,1.72,0,0,1-2,2c-1.63,0-1.95-.81-2-1.78l1.18-.15c0,.52.2.84.79.84s.81-.28.81-.82V41.46Z"/><path class="cls-2" d="M17.6,44.77c0-2.09.88-3.43,3-3.43s3,1.34,3,3.43-.88,3.43-3,3.43S17.6,46.86,17.6,44.77Zm1.21,0c0,1.26.35,2.33,1.77,2.33s1.75-1.07,1.75-2.33-.34-2.33-1.75-2.33S18.81,43.51,18.81,44.77Z"/><path class="cls-2" d="M24.2,45.66v-4.2h1.19v4.2c0,.81.25,1.44,1.51,1.44s1.51-.63,1.51-1.44v-4.2H29.6v4.2c0,1.45-.64,2.54-2.7,2.54S24.2,47.11,24.2,45.66Z"/><path class="cls-2" d="M32,47H35.1v1.1H30.77V41.46H32Z"/><path class="cls-2" d="M40.52,41.46v1.1H37v1.58h3.11v1.11H37V47h3.67v1.1H35.82V41.46Z"/><path class="cls-2" d="M41.52,46.17l1.21-.12c.09.77.56,1.05,1.47,1.05.66,0,1.41-.26,1.41-1,0-.57-.35-.82-1.45-.92s-2.4-.42-2.41-1.84,1.1-2,2.39-2c1.73,0,2.52.76,2.64,2l-1.21.13c-.09-.78-.53-1.05-1.43-1.05-.45,0-1.2.17-1.2.92,0,.46.26.65,1.28.76,1.62.14,2.56.44,2.57,2S45.51,48.2,44.2,48.2C42.4,48.2,41.65,47.49,41.52,46.17Z"/><path class="cls-2" d="M26.19,31.81v4.53H22.52V31.81H13.45V29.3l9.58-14h3.16v13h3.64v3.48ZM22.52,21.58,18,28.33h4.51Z"/><path class="cls-2" d="M47.28,21.68c0,4.11-3.13,5.3-6.32,6.7s-5.32,2.43-5.59,4.51H47.71v3.45H31.35v-.27c0-7,3.27-8.82,7.75-10.61,2.08-.89,4.48-1.7,4.48-3.78,0-2.29-2.11-2.83-3.86-2.83-2.59,0-4.08.81-4.29,3.32l-3.81-.4c.35-4,2.73-6.43,8.1-6.43C43.79,15.34,47.28,17.42,47.28,21.68Z"/></svg>