<?xml version="1.0" encoding="utf-8"?>
<!-- Generator: Adobe Illustrator 15.1.0, SVG Export Plug-In . SVG Version: 6.00 Build 0)  -->
<!DOCTYPE svg PUBLIC "-//W3C//DTD SVG 1.1//EN" "http://www.w3.org/Graphics/SVG/1.1/DTD/svg11.dtd">
<svg version="1.1" id="Layer_1" xmlns="http://www.w3.org/2000/svg" xmlns:xlink="http://www.w3.org/1999/xlink" x="0px" y="0px"
	 width="148px" height="40px" viewBox="0 0 148 40" enable-background="new 0 0 148 40" xml:space="preserve">
<path d="M148.002,28.087v-1.78l-0.439-0.027c-0.221,0.436-0.555,1.128-0.66,1.363c-0.063-0.235-0.383-0.942-0.588-1.397
	l-0.455-0.019v1.803h0.307v-1.396c0.203,0.521,0.404,0.977,0.609,1.412l0.205,0.02c0.219-0.439,0.438-0.895,0.641-1.383v1.397
	L148.002,28.087z M147.766,14.877c0.504-3.027-1.266-4.914-3.979-5.604l-1.35-0.354l-3.994-1.043l-2.615,14.167l3.574,0.942
	l1.012-5.451h0.035l2.004,5.316l0.389,1.01l4.447,1.162l-3.271-6.916c2.023,0.15,3.408-1.28,3.762-3.232h-0.014V14.877z
	 M144.006,14.12c-0.188,1.01-0.826,1.315-1.568,1.315c-0.422-0.006-0.842-0.068-1.246-0.188l-0.354-0.104l0.654-3.508l0.338,0.082
	c0.203,0.053,0.404,0.119,0.607,0.186c0.961,0.336,1.803,0.959,1.568,2.222V14.12z M135.441,10.484l0.561-3.116l-7.969-1.296
	l-2.596,14.166l7.969,1.297l0.574-3.114l-4.318-0.685l0.453-2.457l4.098,0.674l0.57-3.13l-4.111-0.671l0.451-2.377l4.33,0.709
	H135.441L135.441,10.484z M122.717,20.059l2.609-14.166l-3.777,0.033l-0.992,5.454l-5.41,0.015l0.994-5.451h-3.758l-2.611,14.187
	l3.758-0.019l1.08-5.822l5.426-0.016l-1.08,5.795l3.762-0.02V20.059L122.717,20.059z M100.805,16.094l3.117-0.369
	c-0.455,1.666-1.873,2.642-3.541,2.842c-2.529,0.287-3.473-1.783-3.068-3.985c0.387-2.157,2.135-4.63,4.654-4.933
	c1.523-0.186,2.494,0.588,2.781,1.886l3.91-1.918c-0.793-2.492-2.9-3.517-5.936-3.163c-4.768,0.57-8.563,3.986-9.422,8.598
	c-0.809,4.443,1.873,7.1,6.506,6.545c2.566-0.287,4.932-1.539,6.609-3.505c1.615-1.934,2.107-3.718,2.527-5.795l-7.604,0.915
	l-0.537,2.876v0.007H100.805z M88.025,23.025l4.166-0.855L89.123,9.154L85.35,9.93l-0.475,0.086l-8.379,15.362l4.146-0.842
	l1.484-2.675l3.223-0.655l2.154-0.437l0.521,2.27V23.025z M86.963,18.146l-1.615,0.336l-1.619,0.305l1.619-3.186l0.809-1.629h0.051
	l0.758,4.188v-0.015H86.963z M75.416,22.588l-4.618,0.641l2.041-11.041l-3.843,0.523l-2.614,14.176l8.463-1.16l0.57-3.115V22.588
	L75.416,22.588z M65.101,24.02l-4.551,0.307l2.024-11.038l-3.797,0.269l-2.611,14.168l8.361-0.57l0.573-3.129V24.02z M50.657,27.771
	l4.01-0.019l-2.846-14.136l-3.693,0.015h-0.387l-8.16,14.202l3.965-0.016l1.449-2.475l3.121-0.019h2.041l0.487,2.459L50.657,27.771z
	 M49.686,22.518h-1.568l-1.549,0.019l1.549-2.979l0.828-1.55h0.033L49.686,22.518L49.686,22.518z M31.584,22.551l3.303,0.02
	c-0.385,1.574-1.696,2.75-3.303,2.957c-0.27,0.037-0.541,0.055-0.813,0.054c-0.893,0.022-1.758-0.306-2.408-0.915
	c-0.763-0.807-1.197-1.868-1.221-2.979c-0.016-0.252-0.016-0.506,0-0.758c0.018-0.289,0.051-0.574,0.102-0.857
	c0.181-1.012,0.56-1.979,1.112-2.844c0.775-1.22,1.87-2.187,3.222-2.541c0.362-0.09,0.735-0.136,1.109-0.137
	c1.032-0.029,2.01,0.465,2.596,1.314c0.295,0.465,0.496,0.982,0.592,1.525l0.422-0.168l0.201-0.084l1.873-0.74l1.127-0.455
	l0.916-0.354c-0.199-0.742-0.508-1.451-0.916-2.104c-0.309-0.487-0.688-0.924-1.127-1.297c-0.562-0.459-1.193-0.823-1.873-1.076
	c-0.07-0.014-0.139-0.035-0.201-0.067c-0.333-0.103-0.67-0.187-1.014-0.25c-0.562-0.104-1.131-0.155-1.701-0.153
	c-0.672-0.002-1.342,0.055-2.004,0.168c-1.125,0.184-2.211,0.547-3.221,1.078c-0.426,0.221-0.833,0.475-1.22,0.758l-0.306,0.201
	c-0.571,0.445-1.096,0.947-1.567,1.498c-0.618,0.725-1.146,1.521-1.571,2.373c-0.479,1.001-0.822,2.063-1.019,3.154
	c-0.021,0.055-0.031,0.113-0.033,0.171c-0.261,1.31-0.249,2.659,0.033,3.965c0.187,0.858,0.541,1.671,1.043,2.392
	c0.429,0.609,0.96,1.14,1.571,1.564c0.483,0.344,1.011,0.62,1.567,0.823l0.306,0.104c0.396,0.137,0.805,0.238,1.22,0.305
	c0.562,0.103,1.131,0.152,1.702,0.152c0.521,0,1.027-0.037,1.524-0.086c1.308-0.177,2.568-0.611,3.706-1.281
	c0.35-0.211,0.688-0.441,1.012-0.688c0.072-0.051,0.14-0.106,0.203-0.168c0.448-0.354,0.865-0.75,1.246-1.179
	c0.221-0.268,0.422-0.521,0.61-0.788c0.442-0.605,0.819-1.255,1.128-1.938c0.572-1.348,0.982-2.76,1.22-4.205h-2.333l-1.873-0.02
	h-1.22l-3.379-0.04l-0.335,1.853l-0.305,1.75L31.584,22.551z M50.647,12.623h0.454c-0.083-0.287-0.61-1.852-0.827-1.852
	c-0.152,0-0.74,0.439-1.095,0.474l0.305-1.886c-0.167-0.351-0.358-0.688-0.573-1.01c-0.086-0.138-0.559-1.01-0.778-1.01
	c-0.149,0-0.573,0.403-0.79,0.521V6.885c-0.085-0.287,0-0.609-0.119-0.808c-0.443-0.584-0.971-1.099-1.568-1.525
	c-0.021-0.022-0.053-0.034-0.084-0.034c-0.15,0-0.521,0.455-0.724,0.672c-0.151-0.537-0.134-1.246-0.474-1.666
	c-0.369-0.379-0.803-0.689-1.28-0.916C42.881,2.49,42.655,2.4,42.418,2.339c-0.252,0-0.539,0.675-0.655,0.824
	c-0.187-0.351-0.323-0.756-0.543-1.11c-0.099-0.172-0.229-0.324-0.382-0.451c-0.407-0.256-0.859-0.434-1.332-0.524
	c-0.221-0.06-0.446-0.104-0.674-0.134c-0.201,0-0.354,0.285-0.455,0.539c-0.07,0.184-0.119,0.354-0.135,0.388
	c-0.39-0.388-0.674-1.062-1.197-1.263C36.87,0.544,36.689,0.5,36.504,0.473c-0.064-0.021-0.133-0.033-0.2-0.037
	c-0.339-0.031-0.675-0.031-1.013-0.049c-0.184,0-0.369-0.016-0.555-0.033c-0.135,0.369-0.187,0.723-0.287,1.062
	c-0.507-0.354-1.435-1.062-1.584-1.062c-0.101,0-0.691,0.082-1.281,0.151c-0.338,0.034-0.674,0.083-0.914,0.101
	c-0.045,0.033-0.086,0.072-0.119,0.117c-0.02,0.325-0.02,0.65,0,0.976l-1.705-0.704c-0.154,0.063-0.311,0.12-0.471,0.167
	c-0.371,0.116-0.842,0.269-1.219,0.421c-0.117,0.034-0.201,0.083-0.306,0.116c-0.205,0.104-0.339,0.187-0.339,0.237
	c0.061,0.263,0.139,0.521,0.234,0.771c-0.049,0.052-0.268,0.034-0.268,0.034c-0.32-0.067-0.859-0.15-1.195-0.202
	c-0.119,0-0.221-0.016-0.271-0.016c-0.061-0.006-0.124-0.002-0.184,0.016c-0.36,0.225-0.732,0.427-1.115,0.609
	c-0.537,0.269-0.991,0.488-0.991,0.656c0.076,0.284,0.213,0.549,0.403,0.774c-0.119,0-0.238,0-0.455,0.034
	c-0.25,0.005-0.496,0.027-0.741,0.066c-0.239-0.025-0.481,0.004-0.708,0.086c-0.286,0.168-0.557,0.357-0.813,0.569
	c-0.555,0.437-1.076,0.915-1.076,1.028s0.402,0.484,0.572,0.707c-0.506,0.168-1.098,0.15-1.586,0.352
	c-0.115,0.039-0.223,0.096-0.32,0.168c-0.578,0.487-1.073,1.068-1.463,1.717c-0.047,0.074-0.088,0.152-0.119,0.234
	c0.019,0.079,0.06,0.148,0.119,0.205c0.18,0.176,0.377,0.334,0.588,0.47c-0.183,0.125-0.381,0.228-0.588,0.306
	c-0.678,0.252-1.386,0.388-1.621,1.248l-0.856-0.439l-2.175-1.077L11.09,9.866l-0.102-0.05l-3.25-1.602
	C7.339,8.354,6.95,8.518,6.573,8.706C6.267,8.889,6.218,9.275,6.051,9.477C5.966,9.428,5.831,9.361,5.713,9.311
	C5.62,9.253,5.516,9.219,5.409,9.209C4.92,9.411,4.487,9.725,4.142,10.124c-0.217,0.287-0.201,0.708-0.306,1.046H3.688
	c-0.207-0.134-0.436-0.23-0.674-0.287c-0.287,0-0.842,1.221-0.857,1.293C2.079,12.707,1.959,13.23,1.8,13.743
	c-0.152,0-0.335-0.067-0.454-0.052c-0.359,0.436-0.588,0.963-0.659,1.524c0,0.149,0.119,1.144,0.119,1.296s0,0.201-0.034,0.25
	c-0.256-0.051-0.521-0.045-0.773,0.019v1.784c0,0.117,0.287,0.672,0.287,0.806s-0.287,0.708-0.287,0.842v1.83
	c0.104,0.11,0.256,0.161,0.406,0.138c0.148,0,0.305-0.066,0.416-0.019c-0.063,0.688-0.134,1.263-0.134,1.396
	c0,0.389,0.488,1.244,0.64,1.564c0.16,0.007,0.319-0.012,0.474-0.053c0.157,0.515,0.276,1.037,0.356,1.568
	c0,0.066,0.61,1.297,0.916,1.297c0.256-0.061,0.508-0.134,0.756-0.221c0.104,0.307,0.205,0.674,0.305,1.01
	c0.049,0.168,1.027,0.957,1.314,0.957c0.094-0.009,0.186-0.037,0.269-0.082c0.157-0.06,0.31-0.133,0.455-0.219
	c0.018,0.809,1.03,1.043,1.586,1.244l3.235-1.564l0.102-0.049l0.793-0.388l1.18-0.573c0.102,0.268,0.102,0.641,0.287,0.856
	c0.198,0.217,0.439,0.389,0.708,0.507c0.289,0.143,0.569,0.299,0.843,0.47c-0.086,0.036-0.809,0.354-0.809,0.558
	c0,0.152,0.589,1.498,1.162,1.969c0.357,0.285,0.842,0.335,1.283,0.421c0.149,0.032,0.285,0.052,0.402,0.085
	c-0.101,0.102-0.271,0.234-0.402,0.369c-0.131,0.134-0.305,0.287-0.305,0.354c0.075,0.157,0.18,0.301,0.305,0.42
	c0.363,0.449,0.781,0.852,1.244,1.193c0.168,0.079,0.355,0.107,0.541,0.085h0.119c0.74,0.086,0.959,0.052,1.176,0.101
	c-0.164,0.201-0.569,0.61-0.569,0.774c0,0.165,0.774,0.61,1.362,0.958c0.211,0.132,0.438,0.234,0.678,0.307
	c0.134,0,1.382-0.221,1.583-0.235h0.016c0.152,0,0.101,0.049,0.101,0.049c-0.033,0.067-0.082,0.135-0.115,0.217
	c-0.11,0.159-0.189,0.337-0.238,0.524c-0.011,0.1,0.045,0.195,0.137,0.234l0.102,0.053c0.305,0.115,0.689,0.25,1.043,0.387
	c0.309,0.119,0.625,0.222,0.945,0.305c0.209-0.045,0.414-0.113,0.609-0.201c0.354-0.137,0.756-0.285,1.043-0.387
	c0.137,0.305-0.119,0.487-0.119,0.723c0,0.103,0.053,0.197,0.137,0.254l0.507,0.049c0.101,0.019,0.202,0.029,0.305,0.033
	c0.474,0.066,0.976,0.135,1.22,0.152c0.049,0.012,0.1,0.016,0.15,0.016c0.404,0,1.525-0.823,1.738-0.939
	c0.152,0.557-0.238,0.939,0.354,0.939c0.085,0,0.506,0,0.979-0.049c0.39-0.022,0.775-0.097,1.145-0.221
	c0.555-0.22,0.994-0.855,1.434-1.26c0.084,0.217-0.018,0.939,0.439,0.939c0.232-0.029,0.463-0.074,0.689-0.135
	c0.343-0.081,0.682-0.183,1.013-0.305l0.201-0.102c0.09-0.035,0.175-0.082,0.253-0.138c0.572-0.369,0.895-1.024,1.195-1.461
	c0.088,0.101,0.152,0.586,0.424,0.704c0.037,0.029,0.086,0.041,0.134,0.034c0.346-0.089,0.68-0.22,0.995-0.388
	c0.371-0.184,0.718-0.414,1.027-0.689c0.293-0.368,0.525-0.779,0.689-1.221c0.089-0.19,0.191-0.377,0.305-0.555
	c0.153,0.221,0.473,0.689,0.61,0.689c0.342-0.167,0.665-0.371,0.96-0.61c0.391-0.278,0.742-0.606,1.046-0.977
	c0.32-0.438,0.269-1.062,0.354-1.55c0.22,0.201,0.641,0.609,0.793,0.609c0.049,0,0.183-0.115,0.369-0.305
	c0.477-0.494,0.896-1.042,1.248-1.633c0.084-0.271,0.018-0.588,0.084-0.875v-2.004c-0.438-0.234-0.894-0.469-1.332-0.67
	c-0.235-0.119-0.474-0.221-0.709-0.32c-0.473,0.503-0.573,1.865-1.524,1.523c0.659,0.541,1.524,1.162,2.242,1.771
	c0.237,0.2,0.463,0.413,0.677,0.637c-0.245,0.261-0.471,0.536-0.677,0.827c-0.149,0.184-0.269,0.369-0.406,0.537l-2.156-2.02
	l-1.784-1.699h-2.379c-0.201,0.187-0.387,0.369-0.555,0.537c-0.148,0.16-0.313,0.309-0.488,0.438
	c-0.441,0.292-0.904,0.55-1.385,0.771l-0.201,0.104c-0.338,0.149-0.674,0.306-1.013,0.437c-0.699,0.277-1.412,0.52-2.136,0.724
	c-0.521,0.112-1.051,0.192-1.582,0.237c-0.473,0.033-0.879,0.066-0.946,0.066c-0.763-0.027-1.521-0.102-2.274-0.219
	c-0.062-0.02-0.123-0.03-0.187-0.034c-0.335-0.085-0.688-0.168-1.028-0.286c-0.104-0.019-0.205-0.047-0.305-0.086
	c-0.339-0.115-0.691-0.234-1.014-0.351c-0.17-0.067-0.354-0.152-0.555-0.253c-0.563-0.293-1.09-0.648-1.57-1.063
	c-0.371-0.293-0.721-0.611-1.043-0.958c-0.541-0.538-0.985-1.163-1.315-1.852c-0.134-0.306-0.405-0.556-0.558-0.875
	c-0.152-0.32-0.269-0.61-0.387-0.942c-0.135-0.402-0.27-0.809-0.369-1.22c-0.103-0.636-0.153-1.276-0.152-1.919
	c0-0.167-0.152-0.32-0.152-0.454c0.063-0.999,0.188-1.993,0.372-2.978c0.082-0.354,0.187-0.726,0.306-1.095
	c0.152-0.473,0.338-0.942,0.506-1.397c0.274-0.569,0.597-1.114,0.961-1.631c0.089-0.209,0.189-0.414,0.305-0.61
	c0.152-0.187,0.32-0.372,0.473-0.556c0.336-0.405,0.674-0.809,1.043-1.195c0.156-0.153,0.291-0.305,0.439-0.455
	c0.361-0.307,0.738-0.594,1.132-0.857c0.079-0.047,0.151-0.104,0.216-0.17c0.219-0.201,0.457-0.378,0.715-0.525
	c0.219-0.118,0.438-0.234,0.658-0.368l0.305-0.152c0.394-0.229,0.802-0.434,1.221-0.61c0.035-0.021,0.074-0.031,0.115-0.033
	c0.813-0.309,1.647-0.561,2.496-0.758c0.17-0.032,0.391-0.066,0.609-0.101c0.773-0.085,1.699-0.085,1.83-0.085
	s1.113,0.053,1.889,0.152c0.186,0.033,0.354,0.066,0.506,0.101c0.17,0.031,0.34,0.071,0.506,0.119l0.201,0.049
	c0.547,0.134,1.069,0.351,1.553,0.64c0.104,0.057,0.207,0.119,0.305,0.187c0.354,0.217,0.741,0.455,1.128,0.724
	c0.626,0.414,1.202,0.898,1.718,1.445c0.193,0.202,0.375,0.416,0.541,0.641c0.496,0.678,0.94,1.392,1.33,2.135
	c0.034,0.082,0.086,0.166,0.119,0.234c0.354,0.705,0.555,1.584,0.915,2.354c0.86,0.187,1.147-0.705,1.524-1.479
	c0.113-0.26,0.262-0.505,0.439-0.726l-0.439,0.187l-1.619,0.609c-0.102-0.268-0.217-0.609-0.336-0.891l1.955-0.916l4.466-2.135
	c0.194,0.397,0.37,0.806,0.524,1.221L50.647,12.623z M39.515,31.158l-0.995-1.379c0.262-0.264,0.544-0.506,0.842-0.727l0.152,0.172
	l1.717,1.934l1.873,2.089l0.488,0.553l-0.488,0.425l-0.875,0.723l-0.997-1.383L39.515,31.158z M36.514,32l-0.202-0.521l-0.052-0.119
	v-0.2c0.02-0.019,0.037-0.019,0.052-0.033c0.067-0.034,0.134-0.086,0.202-0.119c0.238-0.135,0.49-0.269,0.708-0.388l1.165,2.257
	l1.128,2.188l0.642,1.244l-0.642,0.336L38.6,37.117l-0.221-0.557l-1.872-4.574L36.514,32z M33.683,32.1
	c0.306-0.115,0.656-0.183,1.095-0.305l0.521,2.034l1.013,4.022l0.05,0.201l-0.05,0.018l-1.013,0.307l-0.555,0.167L33.683,32.1z
	 M30.715,39.186l0.365-6.76h1.031l0.305,6.563l-0.808,0.102c-0.305,0.034-0.592,0.053-0.878,0.086L30.715,39.186z M26.75,39
	l0.104-0.421l0.305-1.11l1.221-4.611l0.134-0.469h0.894c0.059,0.043,0.09,0.112,0.086,0.186l-1.113,6.561v0.053
	c-0.406-0.033-0.812-0.086-1.221-0.135c-0.101-0.019-0.201-0.019-0.305-0.033C26.821,39.018,26.788,39,26.75,39z M22.959,37.941
	l0.756-1.551l1.57-3.205l0.771-1.563l0.796,0.25l0.116,0.052l-0.116,0.287l-1.567,4.152l-0.778,2.057
	c-0.284-0.085-0.537-0.17-0.793-0.253c-0.257-0.082-0.503-0.168-0.757-0.233v0.008H22.959z M19.62,36.206l0.793-1.06l2.26-2.977
	l1.043-1.4l0.189-0.252c0.28,0.133,0.545,0.297,0.789,0.49l-0.979,1.547l-1.04,1.652l-1.72,2.709
	c-0.168-0.086-0.354-0.168-0.541-0.271c-0.268-0.148-0.539-0.306-0.793-0.455L19.62,36.206z M18.323,32.302l2.09-1.934l1.638-1.497
	c0.22,0.172,0.424,0.363,0.61,0.572l0.101,0.102l-0.101,0.102l-2.254,2.396l-2.09,2.234l-0.406,0.422
	c-0.369-0.305-0.723-0.655-1.095-1.024l1.5-1.382L18.323,32.302z M16.538,29.443l1.785-1.112l2.088-1.293l0.238-0.138
	c0.235,0.084,0.354,0.506,0.559,0.74l-0.801,0.564l-2.09,1.564l-1.783,1.312l-1.008,0.774c-0.324-0.396-0.607-0.823-0.842-1.278
	l1.873-1.144L16.538,29.443z M13.489,27.843c0.184-0.101,0.369-0.183,0.555-0.282c0.791-0.406,1.636-0.775,2.48-1.281
	c0.485-0.286,0.942-0.618,1.363-0.991c0.128-0.104,0.27-0.188,0.421-0.254c0.438-0.201,0.979-0.286,1.449-0.454
	c0.135,0.314,0.237,0.641,0.305,0.977l-1.769,0.823l-1.784,0.843l-2.479,1.161l-0.306,0.134c-0.063-0.229-0.147-0.455-0.25-0.674
	L13.489,27.843L13.489,27.843z M7.25,29.977l3.725-1.769l0.102-0.049l0.793-0.372l2.174-1.025h0.568l-0.556,0.27l-2.169,1.076
	l-0.793,0.389l-0.102,0.048l-3.235,1.617c-0.116-0.067-0.306-0.119-0.488-0.201L7.25,29.977z M4.872,28.73L5.7,28.361l5.276-2.34
	l0.101-0.033l0.793-0.354l0.102-0.049c0.189,0.125,0.365,0.271,0.521,0.437l-0.61,0.287l-0.794,0.354l-0.1,0.049l-5.277,2.406
	l-0.269,0.119C5.23,29.1,5.042,28.928,4.884,28.73H4.872z M2.716,26.711L5.7,25.652l5.074-1.77c0.076,0.071,0.145,0.151,0.202,0.238
	l0.101,0.148c0.019,0.037,0.053,0.086,0.07,0.119l-0.07,0.033l-0.101,0.033L5.7,26.493l-2.563,1.006
	C3.018,27.251,2.833,26.965,2.716,26.711L2.716,26.711z M1.249,23.902L5.7,22.96l4.33-0.915c0.07,0.186,0.119,0.372,0.189,0.573
	L5.698,23.68l-4.13,0.977c-0.129-0.234-0.231-0.483-0.305-0.741L1.249,23.902z M0.456,20.639L5.7,20.436l3.965-0.151
	c-0.029,0.202-0.029,0.407,0,0.61L5.7,21.248l-5.226,0.454v-1.093L0.456,20.639z M5.7,17.643l3.909,0.306
	c0.015,0.224,0.015,0.448,0,0.674L5.7,18.454l-5.244-0.22v-1.043L5.7,17.631V17.643z M5.7,15.27l4.521,1.125
	c-0.069,0.174-0.147,0.344-0.238,0.506l-4.271-0.941l-4.498-0.994c0.109-0.253,0.232-0.5,0.369-0.738l4.129,1.043H5.7z M5.7,12.458
	l5.276,2.038l0.101,0.033h0.019c0,0-0.019,0.033-0.019,0.049c-0.037,0.061-0.069,0.123-0.101,0.186
	c-0.034,0.086-0.083,0.168-0.134,0.27L5.7,13.268l-3.051-1.043c0.119-0.254,0.305-0.537,0.424-0.791l2.611,1.025L5.7,12.458
	L5.7,12.458z M10.975,12.257l0.102,0.052l0.793,0.354l0.808,0.369c-0.183,0.149-0.379,0.278-0.588,0.387l-0.22-0.101l-0.793-0.354
	l-0.102-0.032l-5.277-2.291l-0.891-0.404c0.18-0.193,0.385-0.362,0.609-0.502l0.285,0.148l5.275,2.373L10.975,12.257L10.975,12.257z
	 M14.651,12.223c-0.154,0.006-0.308,0.035-0.455,0.086l-0.152-0.086L11.87,11.18l-0.793-0.387l-0.102-0.049L7.315,8.96
	C7.45,8.875,7.638,8.823,7.754,8.759l3.236,1.613l0.101,0.052l0.793,0.402l2.175,1.076l0.609,0.32H14.651z M16.523,14.008
	c0.856,0.738,1.464,1.952,1.784,2.943c0.131,0.396,0.216,0.805,0.253,1.22c0.067,0.869,0.067,1.742,0,2.611
	c-0.038,0.415-0.123,0.823-0.253,1.22c-0.32,1.007-0.915,2.27-1.784,3.027c-0.429,0.41-0.995,0.646-1.589,0.656
	c-0.301-0.014-0.6-0.06-0.891-0.138c-0.123-0.024-0.24-0.063-0.354-0.114c-0.759-0.373-1.452-1.279-1.83-2.039
	c-0.043-0.068-0.083-0.143-0.118-0.215c-0.363-1.01-0.59-2.063-0.675-3.131c-0.015-0.186-0.034-0.387-0.034-0.558
	c0-0.034,0.02-0.134,0.034-0.284c0.052-0.521,0.187-1.598,0.32-2.271c0.103-0.445,0.26-0.875,0.473-1.278
	c0.361-0.748,0.907-1.392,1.587-1.87c0.18-0.125,0.379-0.223,0.588-0.287c0.272-0.09,0.557-0.141,0.842-0.148
	c0.608,0.01,1.19,0.243,1.639,0.655L16.523,14.008L16.523,14.008z M18.308,12.964l2.089,1.077l0.846,0.421
	c-0.138,0.368-0.318,0.72-0.541,1.043l-0.305-0.101c-0.572-0.221-1.177-0.455-1.75-0.741c-0.119-0.067-0.186-0.306-0.27-0.406
	c-0.027-0.016-0.051-0.038-0.069-0.063c-0.403-0.517-0.88-0.971-1.415-1.349c-0.119-0.081-0.238-0.151-0.369-0.235
	c-0.354-0.2-0.759-0.368-1.164-0.555c0-0.134,0.118-0.32,0.186-0.506l0.979,0.506l1.784,0.915V12.964L18.308,12.964z M20.397,10.171
	l2.26,1.968l0.217,0.186c-0.064,0.123-0.137,0.24-0.217,0.354c-0.138,0.186-0.287,0.372-0.438,0.555l-1.812-1.291l-2.09-1.498
	l-1.314-0.914l1.129-1.36l0.186,0.149l2.09,1.852L20.397,10.171L20.397,10.171z M23.7,8.706l1.267,1.767
	c-0.306,0.252-0.593,0.42-0.915,0.655l-0.357-0.401l-1.019-1.224l-2.269-2.567l-0.504-0.557l0.504-0.387l0.877-0.689l1.381,1.918
	l1.043,1.465L23.7,8.706z M26.857,7.979l0.306,0.703l0.119,0.287c-0.033,0.034-0.086,0.067-0.119,0.102l-0.306,0.205
	c-0.151,0.101-0.338,0.201-0.491,0.283l-1.08-1.982l-1.57-2.879l-0.402-0.758c0.131-0.08,0.264-0.153,0.402-0.219
	c0.367-0.205,0.744-0.39,1.132-0.555l0.438,1.043L26.857,7.979L26.857,7.979z M29.706,8.094c-0.328,0.079-0.65,0.182-0.963,0.305
	l-0.369-1.381l-1.221-4.441l-0.115-0.439l0.115-0.031L28.374,1.7l0.268-0.128l1.064,6.125v0.369V8.094z M32.688,0.911l-0.354,6.747
	h-1.047l-0.305-6.579c0.188-0.019,0.373-0.052,0.592-0.067c0.305-0.033,0.637-0.066,1.096-0.101H32.688z M36.655,1.027l-0.152,0.539
	L36.3,2.357l-1.013,3.785l-0.402,1.463c-0.326-0.017-0.653-0.017-0.979,0l1.141-6.776c0.085,0.015,0.167,0.015,0.269,0.034
	c0.339,0.033,0.675,0.066,1.013,0.115c0.066,0,0.133,0.02,0.201,0.02c0.051,0.007,0.103,0.007,0.152,0L36.655,1.027z M40.377,1.969
	l-0.875,1.803l-1.127,2.354l-1.047,2.153c-0.271-0.102-0.555-0.201-0.826-0.32C36.452,7.943,36.42,7.925,36.37,7.91l0.133-0.354
	l1.9-4.677l0.555-1.415l0.574,0.201l0.875,0.287L40.377,1.969z M43.831,3.708l-0.727,0.976l-1.873,2.492L39.547,9.43
	c-0.02,0-0.02,0-0.034-0.018c-0.306-0.168-0.573-0.336-0.875-0.521l0.875-1.379l1.717-2.675l1.22-1.903
	c0.221,0.119,0.439,0.235,0.659,0.373c0.22,0.137,0.474,0.269,0.726,0.402L43.831,3.708L43.831,3.708z M46.694,6.148l-1.027,0.914
	l-2.563,2.354l-1.684,1.549l-0.189-0.167l-0.488-0.488l0.488-0.539l1.873-2.021l2.514-2.708l0.049,0.052l1.027,1.04V6.148z
	 M48.954,9.277l-3.287,2.004l-2.563,1.563l-0.186,0.119c-0.2-0.25-0.381-0.515-0.541-0.792l0.727-0.552l2.563-1.918l2.395-1.804
	C48.366,8.318,48.67,8.789,48.954,9.277z M16.542,14.91c-0.399-0.396-0.94-0.615-1.504-0.61c-0.336-0.001-0.67,0.072-0.976,0.216
	c-1.635,0.775-2.106,3.401-2.175,4.664c-0.008,0.096-0.008,0.189,0,0.284c-0.008,0.091-0.008,0.181,0,0.271
	c0.066,1.221,0.609,3.938,2.175,4.762c0.302,0.156,0.636,0.236,0.976,0.234c0.436-0.051,0.853-0.199,1.221-0.437
	c0.097-0.071,0.188-0.149,0.271-0.237c1.194-1.221,1.524-3.332,1.524-4.594c0-0.941-0.306-3.413-1.524-4.561L16.542,14.91z
	 M16.542,17.57c0.353,0.57,0.533,1.229,0.519,1.899c0.008,0.677-0.171,1.341-0.519,1.923c-0.146,0.243-0.321,0.469-0.524,0.67
	c0.294-0.834,0.448-1.709,0.455-2.593c-0.033-0.835-0.163-1.665-0.388-2.47C16.257,17.172,16.411,17.363,16.542,17.57z
	 M145.588,26.234l-1.549-0.049v0.235l0.592,0.019v1.547L145,28.005v-1.55l0.588,0.02V26.234z"/>
</svg>
