<?xml version="1.0" encoding="utf-8"?>
<!-- Generator: Adobe Illustrator 15.1.0, SVG Export Plug-In . SVG Version: 6.00 Build 0)  -->
<!DOCTYPE svg PUBLIC "-//W3C//DTD SVG 1.1//EN" "http://www.w3.org/Graphics/SVG/1.1/DTD/svg11.dtd">
<svg version="1.1" id="Layer_1" xmlns="http://www.w3.org/2000/svg" xmlns:xlink="http://www.w3.org/1999/xlink" x="0px" y="0px"
	 width="148px" height="40px" viewBox="168.615 44.41 148 40" enable-background="new 168.615 44.41 148 40" xml:space="preserve">
<path fill="#FF7902" d="M316.61,72.503v-1.781l-0.439-0.027c-0.22,0.436-0.555,1.128-0.659,1.363
	c-0.063-0.235-0.384-0.942-0.588-1.397l-0.455-0.018v1.803h0.306v-1.397c0.204,0.521,0.405,0.977,0.609,1.412l0.205,0.019
	c0.219-0.439,0.438-0.894,0.641-1.382v1.397L316.61,72.503z M316.375,59.293c0.504-3.028-1.266-4.914-3.979-5.603l-1.349-0.354
	l-3.995-1.043l-2.614,14.167l3.574,0.942l1.01-5.451h0.037l2.004,5.316l0.388,1.01l4.446,1.162l-3.27-6.915
	c2.022,0.15,3.407-1.281,3.761-3.233H316.375z M312.614,58.536c-0.186,1.01-0.826,1.315-1.567,1.315
	c-0.422-0.005-0.842-0.068-1.247-0.187l-0.354-0.104l0.656-3.507l0.336,0.082c0.204,0.052,0.405,0.119,0.609,0.186
	c0.961,0.335,1.803,0.958,1.567,2.221V58.536z M304.05,54.901l0.562-3.117l-7.97-1.296l-2.596,14.167l7.97,1.296l0.573-3.114
	l-4.318-0.684l0.454-2.458l4.097,0.674l0.57-3.13l-4.111-0.671l0.451-2.376l4.331,0.708H304.05z M291.325,64.475l2.611-14.167
	l-3.779,0.034l-0.991,5.454l-5.411,0.015l0.994-5.451h-3.757l-2.611,14.186l3.758-0.019l1.08-5.822l5.426-0.016l-1.08,5.795
	l3.761-0.019V64.475z M269.414,60.51l3.117-0.369c-0.455,1.666-1.873,2.641-3.541,2.842c-2.529,0.287-3.472-1.784-3.068-3.986
	c0.387-2.157,2.135-4.63,4.654-4.932c1.524-0.186,2.495,0.588,2.781,1.885l3.91-1.918c-0.793-2.492-2.9-3.517-5.936-3.163
	c-4.767,0.57-8.562,3.986-9.421,8.598c-0.809,4.443,1.872,7.1,6.506,6.545c2.567-0.287,4.931-1.54,6.609-3.505
	c1.616-1.934,2.107-3.718,2.528-5.795l-7.604,0.915l-0.537,2.876V60.51z M256.635,67.442l4.166-0.856l-3.068-13.015l-3.775,0.775
	l-0.474,0.085l-8.378,15.363l4.145-0.842l1.485-2.675l3.222-0.655l2.155-0.437l0.522,2.27V67.442z M255.572,62.562l-1.615,0.336
	l-1.62,0.305l1.62-3.185l0.808-1.629h0.052l0.756,4.188V62.562z M244.025,67.004l-4.618,0.641l2.041-11.042l-3.843,0.524
	l-2.614,14.176l8.464-1.161l0.57-3.114V67.004z M233.71,68.436l-4.551,0.306l2.025-11.038l-3.797,0.269l-2.611,14.167l8.36-0.57
	l0.574-3.129V68.436z M219.265,72.188l4.011-0.019l-2.846-14.136l-3.694,0.015h-0.387L208.19,72.25l3.965-0.016l1.449-2.474
	l3.12-0.019h2.041l0.488,2.459L219.265,72.188z M218.295,66.933h-1.568l-1.549,0.019l1.549-2.98l0.827-1.549h0.034L218.295,66.933
	L218.295,66.933z M200.193,66.967l3.303,0.019c-0.384,1.574-1.696,2.75-3.303,2.958c-0.269,0.036-0.54,0.054-0.812,0.053
	c-0.892,0.023-1.758-0.305-2.409-0.915c-0.762-0.807-1.197-1.868-1.22-2.978c-0.015-0.253-0.015-0.506,0-0.759
	c0.017-0.288,0.051-0.574,0.101-0.857c0.181-1.011,0.56-1.978,1.113-2.843c0.775-1.22,1.87-2.187,3.221-2.541
	c0.363-0.09,0.736-0.136,1.11-0.137c1.032-0.029,2.009,0.465,2.596,1.314c0.295,0.465,0.496,0.983,0.592,1.525l0.421-0.168
	l0.201-0.083l1.873-0.741l1.128-0.454l0.915-0.354c-0.199-0.743-0.508-1.452-0.915-2.104c-0.309-0.487-0.689-0.923-1.128-1.296
	c-0.561-0.46-1.193-0.824-1.873-1.077c-0.07-0.013-0.138-0.035-0.201-0.067c-0.333-0.103-0.67-0.186-1.013-0.25
	c-0.562-0.104-1.131-0.155-1.702-0.153c-0.671-0.002-1.342,0.054-2.003,0.168c-1.125,0.183-2.212,0.546-3.221,1.077
	c-0.426,0.221-0.833,0.475-1.22,0.759l-0.305,0.201c-0.572,0.445-1.097,0.947-1.568,1.498c-0.618,0.724-1.146,1.521-1.571,2.373
	c-0.479,1.001-0.822,2.062-1.019,3.154c-0.02,0.055-0.031,0.113-0.033,0.171c-0.261,1.31-0.249,2.659,0.033,3.965
	c0.187,0.858,0.541,1.671,1.043,2.392c0.429,0.609,0.96,1.139,1.571,1.564c0.484,0.343,1.011,0.62,1.568,0.823l0.305,0.104
	c0.397,0.137,0.805,0.239,1.22,0.305c0.562,0.103,1.131,0.153,1.702,0.152c0.521,0,1.028-0.037,1.525-0.086
	c1.308-0.176,2.568-0.611,3.706-1.28c0.349-0.212,0.687-0.442,1.012-0.689c0.072-0.051,0.139-0.106,0.202-0.168
	c0.449-0.355,0.866-0.75,1.247-1.178c0.22-0.268,0.421-0.521,0.61-0.789c0.442-0.605,0.82-1.254,1.128-1.938
	c0.573-1.348,0.983-2.76,1.22-4.206h-2.333l-1.873-0.019h-1.22l-3.379-0.04l-0.335,1.852l-0.305,1.75L200.193,66.967z
	 M219.256,57.039h0.454c-0.083-0.287-0.61-1.851-0.827-1.851c-0.152,0-0.741,0.439-1.095,0.473l0.305-1.885
	c-0.167-0.351-0.358-0.688-0.574-1.01c-0.085-0.138-0.558-1.01-0.778-1.01c-0.149,0-0.573,0.403-0.79,0.521v-0.976
	c-0.085-0.287,0-0.61-0.119-0.808c-0.443-0.584-0.971-1.099-1.568-1.525c-0.022-0.023-0.053-0.035-0.085-0.034
	c-0.149,0-0.521,0.455-0.723,0.671c-0.152-0.537-0.134-1.245-0.473-1.666c-0.369-0.379-0.803-0.689-1.281-0.915
	c-0.212-0.118-0.438-0.208-0.674-0.269c-0.253,0-0.54,0.674-0.656,0.824c-0.186-0.351-0.323-0.756-0.543-1.11
	c-0.099-0.172-0.229-0.325-0.381-0.452c-0.408-0.255-0.86-0.433-1.333-0.524c-0.221-0.06-0.446-0.104-0.674-0.134
	c-0.201,0-0.354,0.286-0.455,0.54c-0.07,0.183-0.119,0.354-0.134,0.387c-0.39-0.387-0.674-1.061-1.198-1.263
	c-0.175-0.063-0.356-0.107-0.54-0.134c-0.065-0.021-0.133-0.034-0.201-0.037c-0.339-0.031-0.674-0.031-1.013-0.049
	c-0.183,0-0.369-0.016-0.555-0.034c-0.134,0.369-0.186,0.723-0.287,1.062c-0.506-0.354-1.434-1.062-1.583-1.062
	c-0.101,0-0.692,0.083-1.281,0.152c-0.338,0.034-0.674,0.083-0.915,0.101c-0.045,0.033-0.085,0.072-0.119,0.116
	c-0.019,0.326-0.019,0.651,0,0.976l-1.705-0.704c-0.154,0.063-0.311,0.12-0.47,0.167c-0.372,0.116-0.842,0.269-1.22,0.421
	c-0.116,0.034-0.201,0.083-0.305,0.116c-0.205,0.104-0.339,0.187-0.339,0.238c0.061,0.262,0.139,0.52,0.235,0.771
	c-0.049,0.052-0.268,0.034-0.268,0.034c-0.32-0.067-0.86-0.15-1.196-0.202c-0.119,0-0.22-0.015-0.271-0.015
	c-0.061-0.007-0.124-0.002-0.183,0.015c-0.361,0.224-0.733,0.427-1.116,0.61c-0.537,0.268-0.991,0.488-0.991,0.656
	c0.076,0.284,0.213,0.549,0.403,0.774c-0.119,0-0.238,0-0.455,0.034c-0.249,0.005-0.496,0.028-0.741,0.067
	c-0.239-0.026-0.481,0.003-0.708,0.085c-0.286,0.168-0.557,0.358-0.812,0.57c-0.555,0.437-1.077,0.915-1.077,1.028
	c0,0.113,0.403,0.485,0.573,0.708c-0.506,0.167-1.098,0.149-1.586,0.351c-0.115,0.039-0.223,0.095-0.32,0.168
	c-0.579,0.487-1.074,1.068-1.464,1.717c-0.047,0.074-0.087,0.152-0.119,0.234c0.019,0.079,0.06,0.149,0.119,0.205
	c0.18,0.176,0.377,0.334,0.589,0.47c-0.183,0.125-0.381,0.228-0.589,0.305c-0.677,0.253-1.385,0.388-1.62,1.248l-0.857-0.439
	l-2.175-1.077l-0.793-0.387l-0.101-0.049l-3.251-1.602c-0.399,0.139-0.788,0.302-1.166,0.491c-0.305,0.183-0.354,0.57-0.521,0.771
	c-0.085-0.049-0.22-0.116-0.338-0.167c-0.093-0.057-0.197-0.091-0.305-0.101c-0.488,0.202-0.921,0.516-1.266,0.915
	c-0.217,0.287-0.201,0.708-0.305,1.046h-0.149c-0.207-0.134-0.435-0.23-0.674-0.287c-0.287,0-0.842,1.22-0.857,1.293
	c-0.078,0.531-0.197,1.055-0.357,1.567c-0.152,0-0.335-0.067-0.454-0.052c-0.36,0.436-0.588,0.964-0.659,1.525
	c0,0.149,0.119,1.144,0.119,1.296s0,0.201-0.034,0.25c-0.256-0.051-0.521-0.045-0.774,0.018v1.785c0,0.116,0.287,0.671,0.287,0.805
	c0,0.134-0.287,0.708-0.287,0.842v1.83c0.104,0.11,0.256,0.161,0.406,0.137c0.149,0,0.305-0.066,0.417-0.018
	c-0.064,0.689-0.134,1.263-0.134,1.396c0,0.388,0.488,1.244,0.64,1.564c0.159,0.007,0.319-0.011,0.473-0.052
	c0.158,0.514,0.277,1.037,0.357,1.568c0,0.066,0.61,1.296,0.915,1.296c0.256-0.06,0.509-0.133,0.756-0.22
	c0.104,0.306,0.205,0.674,0.305,1.01c0.049,0.168,1.028,0.957,1.314,0.957c0.094-0.009,0.186-0.037,0.269-0.082
	c0.158-0.06,0.31-0.133,0.455-0.219c0.018,0.808,1.031,1.043,1.586,1.244l3.236-1.565l0.101-0.048l0.793-0.388l1.18-0.573
	c0.101,0.268,0.101,0.64,0.287,0.856c0.198,0.217,0.439,0.389,0.708,0.507c0.289,0.142,0.569,0.299,0.842,0.47
	c-0.085,0.036-0.808,0.354-0.808,0.558c0,0.152,0.589,1.498,1.162,1.968c0.357,0.286,0.842,0.335,1.284,0.421
	c0.149,0.033,0.284,0.052,0.402,0.085c-0.101,0.101-0.271,0.235-0.402,0.369c-0.131,0.134-0.305,0.287-0.305,0.354
	c0.075,0.157,0.179,0.3,0.305,0.42c0.362,0.449,0.78,0.851,1.244,1.193c0.168,0.079,0.355,0.108,0.54,0.085h0.119
	c0.741,0.086,0.96,0.052,1.177,0.101c-0.165,0.201-0.57,0.61-0.57,0.774c0,0.165,0.774,0.61,1.363,0.958
	c0.211,0.132,0.438,0.234,0.677,0.306c0.134,0,1.382-0.22,1.583-0.235h0.016c0.152,0,0.101,0.049,0.101,0.049
	c-0.034,0.067-0.083,0.135-0.116,0.217c-0.11,0.159-0.19,0.337-0.238,0.524c-0.011,0.1,0.045,0.195,0.137,0.234l0.101,0.053
	c0.305,0.115,0.689,0.25,1.043,0.387c0.309,0.119,0.625,0.222,0.945,0.305c0.21-0.045,0.415-0.113,0.61-0.201
	c0.354-0.137,0.756-0.286,1.043-0.387c0.137,0.305-0.119,0.487-0.119,0.723c0,0.102,0.052,0.197,0.137,0.253l0.506,0.049
	c0.101,0.019,0.203,0.03,0.305,0.033c0.473,0.067,0.976,0.135,1.22,0.153c0.049,0.011,0.099,0.016,0.15,0.015
	c0.405,0,1.525-0.823,1.738-0.939c0.152,0.556-0.238,0.939,0.354,0.939c0.085,0,0.506,0,0.979-0.049
	c0.389-0.022,0.774-0.096,1.144-0.22c0.555-0.22,0.994-0.856,1.434-1.26c0.083,0.217-0.018,0.939,0.439,0.939
	c0.233-0.028,0.463-0.073,0.689-0.134c0.343-0.081,0.682-0.183,1.013-0.305l0.201-0.101c0.09-0.036,0.175-0.082,0.253-0.138
	c0.573-0.369,0.894-1.024,1.195-1.461c0.088,0.101,0.153,0.586,0.424,0.704c0.038,0.029,0.086,0.041,0.134,0.034
	c0.346-0.088,0.68-0.219,0.995-0.388c0.372-0.183,0.718-0.414,1.028-0.689c0.292-0.368,0.525-0.779,0.689-1.22
	c0.089-0.191,0.191-0.377,0.305-0.556c0.153,0.221,0.473,0.69,0.61,0.69c0.342-0.167,0.665-0.371,0.96-0.61
	c0.39-0.278,0.742-0.606,1.046-0.977c0.32-0.438,0.268-1.062,0.354-1.549c0.22,0.201,0.641,0.609,0.793,0.609
	c0.049,0,0.183-0.115,0.369-0.305c0.477-0.494,0.896-1.042,1.248-1.632c0.085-0.271,0.018-0.589,0.085-0.875v-2.004
	c-0.439-0.235-0.894-0.47-1.333-0.671c-0.235-0.119-0.473-0.22-0.708-0.32c-0.473,0.503-0.574,1.866-1.525,1.524
	c0.659,0.54,1.525,1.162,2.242,1.77c0.237,0.2,0.463,0.413,0.677,0.637c-0.245,0.26-0.471,0.536-0.677,0.827
	c-0.149,0.183-0.269,0.369-0.406,0.537l-2.156-2.02l-1.784-1.699h-2.379c-0.201,0.187-0.387,0.369-0.555,0.537
	c-0.149,0.161-0.312,0.309-0.488,0.439c-0.441,0.292-0.904,0.55-1.385,0.771l-0.201,0.104c-0.338,0.149-0.674,0.306-1.013,0.437
	c-0.699,0.277-1.412,0.519-2.135,0.723c-0.522,0.113-1.051,0.192-1.583,0.238c-0.473,0.033-0.878,0.066-0.946,0.066
	c-0.762-0.028-1.521-0.102-2.275-0.219c-0.061-0.02-0.123-0.03-0.186-0.034c-0.335-0.085-0.689-0.168-1.028-0.286
	c-0.104-0.019-0.206-0.047-0.305-0.086c-0.339-0.115-0.692-0.234-1.013-0.351c-0.171-0.067-0.354-0.152-0.555-0.253
	c-0.563-0.292-1.09-0.648-1.571-1.062c-0.371-0.293-0.72-0.612-1.043-0.958c-0.541-0.538-0.985-1.164-1.315-1.852
	c-0.134-0.305-0.405-0.555-0.558-0.875c-0.152-0.32-0.268-0.61-0.387-0.942c-0.134-0.402-0.269-0.809-0.369-1.22
	c-0.102-0.635-0.153-1.276-0.152-1.919c0-0.167-0.152-0.32-0.152-0.454c0.063-0.999,0.188-1.993,0.372-2.977
	c0.082-0.354,0.186-0.726,0.305-1.095c0.153-0.473,0.339-0.943,0.506-1.397c0.275-0.57,0.597-1.115,0.961-1.632
	c0.089-0.209,0.19-0.413,0.305-0.61c0.153-0.186,0.32-0.372,0.473-0.555c0.335-0.406,0.674-0.809,1.043-1.196
	c0.156-0.153,0.29-0.305,0.439-0.455c0.361-0.307,0.739-0.593,1.132-0.857c0.079-0.047,0.152-0.104,0.216-0.171
	c0.218-0.201,0.457-0.377,0.714-0.524c0.22-0.119,0.439-0.235,0.659-0.369l0.305-0.152c0.393-0.229,0.801-0.434,1.22-0.61
	c0.036-0.021,0.075-0.032,0.116-0.034c0.813-0.308,1.647-0.561,2.495-0.757c0.171-0.033,0.391-0.067,0.61-0.101
	c0.774-0.085,1.699-0.085,1.83-0.085c0.131,0,1.113,0.052,1.888,0.152c0.186,0.033,0.354,0.067,0.506,0.101
	c0.171,0.031,0.34,0.071,0.506,0.119l0.201,0.049c0.547,0.133,1.07,0.35,1.553,0.64c0.105,0.056,0.207,0.118,0.305,0.186
	c0.354,0.217,0.741,0.455,1.128,0.723c0.626,0.414,1.202,0.899,1.717,1.446c0.194,0.202,0.375,0.416,0.542,0.64
	c0.496,0.678,0.94,1.392,1.33,2.135c0.034,0.082,0.085,0.167,0.119,0.235c0.354,0.705,0.555,1.583,0.915,2.354
	c0.86,0.186,1.147-0.705,1.525-1.479c0.113-0.26,0.261-0.505,0.439-0.726l-0.439,0.186l-1.62,0.61
	c-0.101-0.268-0.217-0.61-0.336-0.891l1.956-0.915l4.465-2.135c0.195,0.397,0.371,0.805,0.525,1.22L219.256,57.039z M208.124,75.574
	l-0.995-1.379c0.262-0.263,0.544-0.505,0.842-0.726l0.152,0.171l1.717,1.934l1.873,2.089l0.488,0.553l-0.488,0.424l-0.875,0.723
	l-0.997-1.382L208.124,75.574z M205.123,76.416l-0.202-0.521l-0.052-0.119v-0.201c0.019-0.019,0.037-0.019,0.052-0.033
	c0.067-0.034,0.134-0.086,0.202-0.119c0.238-0.135,0.491-0.269,0.708-0.388l1.165,2.257l1.128,2.188l0.641,1.244l-0.641,0.336
	l-0.915,0.473l-0.22-0.556l-1.873-4.575L205.123,76.416z M202.292,76.516c0.305-0.116,0.656-0.183,1.095-0.305l0.521,2.034
	l1.013,4.023l0.049,0.201l-0.049,0.018l-1.013,0.306l-0.555,0.167L202.292,76.516z M199.324,83.601l0.366-6.759h1.031l0.305,6.563
	l-0.808,0.101c-0.305,0.034-0.592,0.053-0.878,0.086L199.324,83.601z M195.359,83.416l0.104-0.421l0.305-1.11l1.22-4.611l0.134-0.47
	h0.894c0.058,0.044,0.09,0.113,0.085,0.186l-1.113,6.561v0.052c-0.406-0.033-0.811-0.085-1.22-0.134
	c-0.101-0.019-0.201-0.019-0.305-0.034C195.429,83.433,195.396,83.416,195.359,83.416z M191.568,82.357l0.756-1.55l1.571-3.205
	l0.771-1.564l0.796,0.25l0.116,0.052l-0.116,0.287l-1.568,4.153l-0.778,2.056c-0.284-0.085-0.537-0.17-0.793-0.253
	c-0.256-0.082-0.503-0.168-0.756-0.234V82.357z M188.228,80.622l0.793-1.059l2.26-2.977l1.043-1.4l0.189-0.253
	c0.281,0.133,0.546,0.298,0.79,0.491l-0.979,1.546l-1.04,1.653l-1.72,2.709c-0.167-0.086-0.354-0.168-0.54-0.271
	c-0.268-0.149-0.54-0.306-0.793-0.455L188.228,80.622z M186.932,76.718l2.089-1.934l1.638-1.497c0.22,0.172,0.424,0.364,0.61,0.573
	l0.101,0.101l-0.101,0.101l-2.254,2.397l-2.089,2.235l-0.406,0.421c-0.369-0.305-0.723-0.655-1.095-1.024l1.5-1.382L186.932,76.718z
	 M185.147,73.86l1.784-1.113l2.089-1.293l0.238-0.138c0.235,0.085,0.354,0.506,0.559,0.741l-0.802,0.564l-2.089,1.564l-1.784,1.312
	l-1.007,0.774c-0.325-0.395-0.607-0.823-0.842-1.278l1.873-1.144L185.147,73.86z M182.098,72.259
	c0.183-0.101,0.369-0.183,0.555-0.283c0.791-0.406,1.635-0.775,2.48-1.281c0.485-0.286,0.942-0.618,1.363-0.991
	c0.128-0.104,0.27-0.189,0.421-0.254c0.439-0.201,0.979-0.286,1.449-0.454c0.135,0.314,0.237,0.641,0.305,0.977l-1.769,0.823
	l-1.784,0.842l-2.48,1.162l-0.305,0.134c-0.064-0.23-0.148-0.456-0.25-0.674H182.098z M175.86,74.393l3.724-1.769l0.101-0.049
	l0.793-0.372l2.175-1.025h0.567l-0.555,0.269l-2.169,1.077l-0.793,0.388l-0.101,0.048l-3.236,1.617
	c-0.116-0.067-0.305-0.119-0.488-0.201L175.86,74.393z M173.481,73.146l0.827-0.369l5.277-2.34l0.101-0.033l0.793-0.354l0.101-0.049
	c0.19,0.125,0.365,0.271,0.521,0.436l-0.61,0.287l-0.793,0.354l-0.101,0.049l-5.277,2.406l-0.268,0.119
	c-0.213-0.137-0.401-0.308-0.559-0.506H173.481z M171.325,71.127l2.983-1.058l5.075-1.77c0.076,0.071,0.144,0.151,0.202,0.238
	l0.101,0.149c0.018,0.036,0.052,0.085,0.07,0.118l-0.07,0.034l-0.101,0.033l-5.277,2.038l-2.562,1.006
	C171.627,71.667,171.441,71.381,171.325,71.127L171.325,71.127z M169.858,68.318l4.45-0.942l4.331-0.915
	c0.07,0.186,0.119,0.372,0.189,0.573l-4.521,1.062l-4.13,0.976c-0.129-0.234-0.231-0.483-0.305-0.741L169.858,68.318z
	 M169.065,65.054l5.243-0.202l3.965-0.152c-0.029,0.203-0.029,0.408,0,0.61l-3.965,0.354l-5.225,0.454v-1.092L169.065,65.054z
	 M174.308,62.059l3.91,0.305c0.015,0.224,0.015,0.449,0,0.674l-3.91-0.168l-5.243-0.219v-1.043l5.243,0.439V62.059z M174.308,59.686
	l4.521,1.125c-0.069,0.173-0.148,0.343-0.238,0.506l-4.27-0.942l-4.499-0.994c0.109-0.253,0.232-0.5,0.369-0.738l4.129,1.043
	H174.308z M174.308,56.874l5.277,2.038l0.101,0.033h0.018c0,0-0.018,0.034-0.018,0.049c-0.037,0.061-0.07,0.123-0.101,0.186
	c-0.034,0.085-0.083,0.168-0.134,0.269l-5.143-1.766l-3.05-1.043c0.119-0.253,0.305-0.537,0.424-0.79l2.611,1.025H174.308z
	 M179.584,56.673l0.101,0.052l0.793,0.354l0.808,0.369c-0.182,0.149-0.379,0.279-0.588,0.387l-0.22-0.101l-0.793-0.354l-0.101-0.033
	l-5.277-2.291l-0.891-0.403c0.18-0.194,0.385-0.363,0.61-0.503l0.284,0.149l5.276,2.373H179.584z M183.26,56.639
	c-0.155,0.006-0.308,0.035-0.455,0.085l-0.153-0.085l-2.174-1.043l-0.793-0.387l-0.101-0.049l-3.66-1.784
	c0.134-0.085,0.323-0.137,0.439-0.201l3.236,1.613l0.101,0.052l0.793,0.402l2.175,1.077l0.61,0.32H183.26z M185.132,58.424
	c0.857,0.738,1.464,1.952,1.784,2.943c0.131,0.396,0.216,0.805,0.253,1.22c0.067,0.869,0.067,1.742,0,2.611
	c-0.038,0.415-0.123,0.824-0.253,1.22c-0.32,1.007-0.915,2.27-1.784,3.028c-0.429,0.41-0.996,0.645-1.589,0.656
	c-0.301-0.014-0.6-0.06-0.891-0.138c-0.122-0.024-0.24-0.063-0.354-0.115c-0.759-0.372-1.452-1.278-1.83-2.038
	c-0.043-0.069-0.083-0.143-0.119-0.216c-0.363-1.009-0.589-2.062-0.674-3.13c-0.015-0.186-0.034-0.387-0.034-0.558
	c0-0.034,0.019-0.134,0.034-0.284c0.052-0.521,0.186-1.598,0.32-2.272c0.102-0.445,0.26-0.875,0.473-1.278
	c0.361-0.748,0.907-1.392,1.586-1.87c0.18-0.125,0.379-0.222,0.589-0.287c0.272-0.09,0.556-0.141,0.842-0.149
	c0.608,0.011,1.19,0.244,1.638,0.656H185.132z M186.917,57.38l2.089,1.077l0.845,0.421c-0.137,0.368-0.318,0.719-0.54,1.043
	l-0.305-0.101c-0.573-0.22-1.177-0.455-1.75-0.741c-0.119-0.067-0.186-0.305-0.269-0.406c-0.028-0.016-0.052-0.038-0.07-0.064
	c-0.403-0.516-0.88-0.97-1.415-1.348c-0.119-0.082-0.238-0.152-0.369-0.235c-0.354-0.201-0.759-0.369-1.165-0.555
	c0-0.134,0.119-0.32,0.186-0.506l0.979,0.506l1.784,0.915V57.38z M189.006,54.587l2.26,1.967l0.216,0.186
	c-0.064,0.123-0.137,0.24-0.216,0.354c-0.138,0.186-0.287,0.372-0.439,0.555l-1.812-1.291l-2.089-1.498l-1.314-0.915l1.128-1.36
	l0.186,0.149l2.089,1.852H189.006z M192.309,53.122l1.266,1.766c-0.305,0.253-0.592,0.421-0.915,0.656l-0.357-0.402l-1.019-1.223
	l-2.269-2.568l-0.503-0.556l0.503-0.387l0.878-0.689l1.381,1.918l1.043,1.464L192.309,53.122z M195.466,52.394l0.305,0.704
	l0.119,0.287c-0.033,0.034-0.085,0.067-0.119,0.101l-0.305,0.205c-0.152,0.101-0.338,0.201-0.491,0.283l-1.08-1.982l-1.571-2.879
	l-0.402-0.757c0.13-0.081,0.264-0.154,0.402-0.219c0.367-0.205,0.745-0.39,1.132-0.555l0.439,1.043L195.466,52.394L195.466,52.394z
	 M198.314,52.51c-0.328,0.079-0.65,0.182-0.963,0.305l-0.369-1.382l-1.22-4.441l-0.116-0.439l0.116-0.031l1.22-0.406l0.268-0.128
	l1.064,6.125v0.369V52.51z M201.297,45.327l-0.354,6.747h-1.046l-0.305-6.579c0.187-0.018,0.373-0.052,0.592-0.067
	c0.305-0.034,0.637-0.067,1.095-0.101H201.297z M205.263,45.443l-0.152,0.54l-0.202,0.79l-1.013,3.785l-0.402,1.464
	c-0.326-0.017-0.653-0.017-0.979,0l1.141-6.777c0.085,0.015,0.167,0.015,0.269,0.034c0.338,0.034,0.674,0.067,1.012,0.116
	c0.067,0,0.134,0.019,0.202,0.019c0.05,0.007,0.102,0.007,0.152,0L205.263,45.443z M208.987,46.385l-0.875,1.803l-1.128,2.354
	l-1.046,2.153c-0.271-0.101-0.555-0.201-0.826-0.32c-0.052-0.016-0.083-0.034-0.134-0.049l0.134-0.354l1.9-4.676l0.555-1.415
	l0.573,0.201l0.875,0.287L208.987,46.385z M212.439,48.124l-0.726,0.976l-1.873,2.492l-1.684,2.254c-0.019,0-0.019,0-0.034-0.018
	c-0.305-0.168-0.573-0.336-0.875-0.521l0.875-1.379l1.717-2.675l1.22-1.903c0.22,0.119,0.439,0.235,0.659,0.372
	c0.219,0.137,0.473,0.269,0.726,0.403H212.439z M215.303,50.564l-1.028,0.915l-2.562,2.354l-1.684,1.549l-0.189-0.167l-0.488-0.488
	l0.488-0.54l1.873-2.02l2.513-2.708l0.049,0.052l1.028,1.04V50.564z M217.563,53.693l-3.288,2.004l-2.562,1.564l-0.186,0.119
	c-0.2-0.25-0.38-0.515-0.54-0.792l0.726-0.552l2.562-1.918l2.395-1.803C216.975,52.735,217.28,53.205,217.563,53.693z
	 M185.151,59.326c-0.4-0.396-0.941-0.615-1.504-0.61c-0.337-0.001-0.671,0.072-0.976,0.216c-1.635,0.775-2.107,3.401-2.175,4.664
	c-0.007,0.095-0.007,0.189,0,0.284c-0.007,0.09-0.007,0.181,0,0.271c0.067,1.22,0.61,3.938,2.175,4.761
	c0.301,0.157,0.636,0.237,0.976,0.234c0.435-0.05,0.852-0.199,1.22-0.436c0.097-0.071,0.188-0.15,0.271-0.238
	c1.195-1.22,1.525-3.331,1.525-4.593c0-0.942-0.305-3.413-1.525-4.56L185.151,59.326z M185.151,61.986
	c0.352,0.57,0.532,1.23,0.518,1.9c0.008,0.676-0.171,1.341-0.518,1.922c-0.146,0.244-0.322,0.47-0.525,0.67
	c0.294-0.833,0.448-1.708,0.455-2.592c-0.033-0.835-0.163-1.665-0.387-2.47C184.866,61.588,185.02,61.78,185.151,61.986z
	 M314.197,70.651l-1.549-0.049v0.235l0.592,0.018v1.547l0.369,0.019v-1.55l0.588,0.019V70.651z"/>
</svg>
