<svg id="Layer_1" data-name="Layer 1" xmlns="http://www.w3.org/2000/svg" viewBox="0 0 609.45 252.28"><defs><style>.cls-1{fill:#ff8400;}</style></defs><title>Gallagher logo - primary RGB 2</title><polygon class="cls-1" points="0 0 0 252.28 609.45 252.28 609.45 0 0 0 0 0"/><path d="M592.34,324.93v-5.84L590.9,319c-.72,1.43-1.82,3.7-2.16,4.47-.21-.77-1.26-3.09-1.93-4.58l-1.49-.06v5.91h1v-4.58c.67,1.71,1.33,3.2,2,4.63l.67.06c.72-1.44,1.44-2.93,2.1-4.53v4.58Zm-.77-43.31c1.65-9.93-4.15-16.11-13.05-18.37l-4.42-1.16L561,258.67l-8.57,46.45,11.72,3.09,3.31-17.87h.12l6.57,17.43,1.27,3.31L590,314.89l-10.72-22.67c6.63.49,11.17-4.2,12.33-10.6Zm-12.33-2.48c-.61,3.31-2.71,4.31-5.14,4.31a15.29,15.29,0,0,1-4.09-.61l-1.16-.34L571,271l1.1.27c.67.17,1.33.39,2,.61,3.15,1.1,5.91,3.14,5.14,7.28Zm-28.08-11.92L553,257l-26.13-4.25-8.51,46.45,26.13,4.25,1.88-10.21L532.21,291l1.49-8.06,13.43,2.21L549,274.89l-13.48-2.2L537,264.9l14.2,2.32Zm-41.72,31.39L518,252.16l-12.39.11-3.25,17.88-17.74.05,3.26-17.87-12.32,0L467,298.84l12.32-.06,3.54-19.09,17.79-.05-3.54,19,12.33-.06Zm-71.84-13,10.22-1.21c-1.49,5.46-6.14,8.66-11.61,9.32-8.29.94-11.38-5.85-10.06-13.07,1.27-7.07,7-15.18,15.26-16.17,5-.61,8.18,1.93,9.12,6.18l12.82-6.29c-2.6-8.17-9.51-11.53-19.46-10.37-15.63,1.87-28.07,13.07-30.89,28.19-2.65,14.57,6.14,23.28,21.33,21.46A33.37,33.37,0,0,0,456,292.16c5.3-6.34,6.91-12.19,8.29-19l-24.93,3-1.76,9.43Zm-41.9,22.73,13.66-2.81L399.3,262.86l-12.38,2.54-1.55.28L357.9,316.05l13.59-2.76,4.87-8.77,10.56-2.15,7.07-1.43,1.71,7.44Zm-3.48-16-5.3,1.1-5.31,1L386.92,284l2.65-5.34h.17l2.48,13.73Zm-37.86,14.56L339.22,309l6.69-36.2-12.6,1.72L324.74,321l27.75-3.81,1.87-10.21Zm-33.82,4.7-14.92,1,6.64-36.19-12.45.88-8.56,46.45,27.41-1.87,1.88-10.26Zm-47.36,12.3,13.15-.06L277,277.49l-12.11.05-1.27,0L236.87,324.1l13-.05,4.75-8.11,10.23-.06h6.69l1.6,8.06ZM270,306.67h-5.14l-5.08.06,5.08-9.77,2.71-5.08h.11L270,306.67Zm-59.35.11,10.83.06a12.85,12.85,0,0,1-10.83,9.7,19.28,19.28,0,0,1-2.66.17,11.12,11.12,0,0,1-7.9-3,14.66,14.66,0,0,1-4-9.76,20.69,20.69,0,0,1,0-2.49,24.71,24.71,0,0,1,.33-2.81,25.69,25.69,0,0,1,3.65-9.32c2.54-4,6.13-7.17,10.56-8.33a15.44,15.44,0,0,1,3.64-.45,10,10,0,0,1,8.51,4.31,13.8,13.8,0,0,1,1.94,5l1.38-.55.66-.27,6.14-2.43,3.7-1.49,3-1.16a25.46,25.46,0,0,0-3-6.9,18.71,18.71,0,0,0-3.7-4.25,21.42,21.42,0,0,0-6.14-3.53,2.44,2.44,0,0,1-.66-.22,29.29,29.29,0,0,0-3.32-.82,30,30,0,0,0-5.58-.5,37.84,37.84,0,0,0-6.57.55,34.61,34.61,0,0,0-10.56,3.53,30.05,30.05,0,0,0-4,2.49l-1,.66a35,35,0,0,0-5.14,4.91,38.21,38.21,0,0,0-5.15,7.78A40.57,40.57,0,0,0,181.44,298a1.85,1.85,0,0,0-.11.56,32,32,0,0,0,.11,13,21.79,21.79,0,0,0,3.42,7.84,20.92,20.92,0,0,0,5.15,5.13,21.83,21.83,0,0,0,5.14,2.7l1,.34a23.4,23.4,0,0,0,4,1,30.56,30.56,0,0,0,5.58.5c1.71,0,3.37-.12,5-.28a32.48,32.48,0,0,0,12.15-4.2,38.27,38.27,0,0,0,3.32-2.26,5.34,5.34,0,0,0,.66-.55,32.75,32.75,0,0,0,4.09-3.86c.72-.88,1.38-1.71,2-2.59a35.44,35.44,0,0,0,3.7-6.35,60.14,60.14,0,0,0,4-13.79H233l-6.14-.06h-4L211.78,295l-1.1,6.07-1,5.74Zm62.5-32.55h1.49c-.27-.94-2-6.07-2.71-6.07-.5,0-2.43,1.44-3.59,1.55l1-6.18a26,26,0,0,0-1.88-3.31c-.28-.45-1.83-3.31-2.55-3.31-.49,0-1.88,1.32-2.59,1.71v-3.2c-.28-.94,0-2-.39-2.65a23.88,23.88,0,0,0-5.14-5,.36.36,0,0,0-.28-.11c-.49,0-1.71,1.49-2.37,2.2-.5-1.76-.44-4.08-1.55-5.46a14.48,14.48,0,0,0-4.2-3,9.33,9.33,0,0,0-2.21-.88c-.83,0-1.77,2.21-2.15,2.7-.61-1.15-1.06-2.48-1.78-3.64A5.47,5.47,0,0,0,241,238.1a12.85,12.85,0,0,0-4.37-1.72,16.85,16.85,0,0,0-2.21-.44c-.66,0-1.16.94-1.49,1.77-.23.6-.39,1.16-.44,1.27-1.28-1.27-2.21-3.48-3.93-4.14a9.17,9.17,0,0,0-1.77-.44,2.55,2.55,0,0,0-.66-.12c-1.11-.1-2.21-.1-3.32-.16-.6,0-1.21-.05-1.82-.11-.44,1.21-.61,2.37-.94,3.48-1.66-1.16-4.7-3.48-5.19-3.48-.33,0-2.27.27-4.2.5-1.11.11-2.21.27-3,.33a1.85,1.85,0,0,0-.39.38,28.34,28.34,0,0,0,0,3.2l-5.59-2.31a16,16,0,0,1-1.54.55c-1.22.38-2.76.88-4,1.38-.38.11-.66.27-1,.38-.67.34-1.11.61-1.11.78a18.93,18.93,0,0,0,.77,2.53c-.16.17-.88.11-.88.11-1.05-.22-2.82-.49-3.92-.66-.39,0-.72-.05-.89-.05a1.48,1.48,0,0,0-.6.05,38.8,38.8,0,0,1-3.66,2c-1.76.88-3.25,1.6-3.25,2.15a6.6,6.6,0,0,0,1.32,2.54c-.39,0-.78,0-1.49.11a17.69,17.69,0,0,0-2.43.22,5.14,5.14,0,0,0-2.32.28,19.73,19.73,0,0,0-2.66,1.87c-1.82,1.43-3.53,3-3.53,3.37s1.32,1.59,1.88,2.32c-1.66.55-3.6.49-5.2,1.15a3.76,3.76,0,0,0-1.05.55,22.53,22.53,0,0,0-4.8,5.63,4.23,4.23,0,0,0-.39.77,1.37,1.37,0,0,0,.39.67,12.07,12.07,0,0,0,1.93,1.54,9,9,0,0,1-1.93,1c-2.22.83-4.54,1.27-5.31,4.09L153.2,270l-7.13-3.53-2.6-1.27-.33-.16-10.66-5.25a32.1,32.1,0,0,0-3.82,1.61c-1,.6-1.16,1.87-1.71,2.53-.28-.16-.72-.38-1.11-.55a2.31,2.31,0,0,0-1-.33,11.06,11.06,0,0,0-4.15,3c-.71.94-.66,2.32-1,3.43h-.49a7,7,0,0,0-2.21-.94c-.94,0-2.76,4-2.81,4.24a33.54,33.54,0,0,1-1.17,5.14c-.5,0-1.1-.22-1.49-.17a9.78,9.78,0,0,0-2.16,5c0,.49.39,3.75.39,4.25s0,.66-.11.82a5.77,5.77,0,0,0-2.54.06v5.85c0,.38.94,2.2.94,2.64s-.94,2.32-.94,2.76v6a1.5,1.5,0,0,0,1.33.45c.49,0,1-.22,1.37-.06-.21,2.26-.44,4.14-.44,4.58,0,1.27,1.6,4.08,2.1,5.13a5.13,5.13,0,0,0,1.55-.17,35.53,35.53,0,0,1,1.17,5.14c0,.22,2,4.25,3,4.25a23.27,23.27,0,0,0,2.48-.72c.34,1,.67,2.21,1,3.31.16.55,3.37,3.14,4.31,3.14a2.33,2.33,0,0,0,.88-.27,9.39,9.39,0,0,0,1.49-.72c.06,2.65,3.38,3.42,5.2,4.08l10.61-5.13.33-.16,2.6-1.27,3.87-1.88c.33.88.33,2.1.94,2.81a6.91,6.91,0,0,0,2.32,1.66,31,31,0,0,1,2.76,1.54c-.28.12-2.65,1.16-2.65,1.83,0,.5,1.93,4.91,3.81,6.45,1.17.94,2.76,1.1,4.21,1.38.49.11.93.17,1.32.28-.33.33-.89.77-1.32,1.21s-1,.94-1,1.16a4.74,4.74,0,0,0,1,1.38,22.16,22.16,0,0,0,4.08,3.91,3.18,3.18,0,0,0,1.77.28h.39c2.43.28,3.15.17,3.86.33-.54.66-1.87,2-1.87,2.54s2.54,2,4.47,3.14a9.12,9.12,0,0,0,2.22,1c.44,0,4.53-.72,5.19-.77h.05c.5,0,.33.16.33.16-.11.22-.27.44-.38.71a5.29,5.29,0,0,0-.78,1.72.75.75,0,0,0,.45.77l.33.17c1,.38,2.26.82,3.42,1.27a28.68,28.68,0,0,0,3.1,1,10.14,10.14,0,0,0,2-.66c1.16-.45,2.48-.94,3.42-1.27.45,1-.39,1.6-.39,2.37a1,1,0,0,0,.45.83l1.66.16a6.66,6.66,0,0,0,1,.11c1.55.22,3.2.44,4,.5a2,2,0,0,0,.49.05c1.33,0,5-2.7,5.7-3.08.5,1.82-.78,3.08,1.16,3.08.28,0,1.66,0,3.21-.16a14.44,14.44,0,0,0,3.75-.72c1.82-.72,3.26-2.81,4.7-4.13.27.71-.06,3.08,1.44,3.08a16.71,16.71,0,0,0,2.26-.44,28.79,28.79,0,0,0,3.32-1l.66-.33a3.89,3.89,0,0,0,.83-.45c1.88-1.21,2.93-3.36,3.92-4.79.29.33.5,1.92,1.39,2.31a.59.59,0,0,0,.44.11,14.4,14.4,0,0,0,3.26-1.27,15.07,15.07,0,0,0,3.37-2.26,14.73,14.73,0,0,0,2.26-4,16.33,16.33,0,0,1,1-1.82c.5.72,1.55,2.26,2,2.26a16.42,16.42,0,0,0,3.15-2,17.93,17.93,0,0,0,3.43-3.2c1.05-1.44.88-3.48,1.16-5.08.72.66,2.1,2,2.6,2,.16,0,.6-.38,1.21-1a29.46,29.46,0,0,0,4.09-5.35c.28-.89.06-1.93.28-2.87v-6.57c-1.44-.77-2.93-1.54-4.37-2.2-.77-.39-1.55-.72-2.32-1.05-1.55,1.65-1.88,6.12-5,5,2.16,1.77,5,3.81,7.35,5.8a28.77,28.77,0,0,1,2.22,2.09,25.31,25.31,0,0,0-2.22,2.71c-.49.6-.88,1.21-1.33,1.76l-7.07-6.62-5.85-5.57h-7.8c-.66.61-1.27,1.21-1.82,1.76a11.41,11.41,0,0,1-1.6,1.44,34.37,34.37,0,0,1-4.54,2.53l-.66.34c-1.11.49-2.21,1-3.32,1.43a72.42,72.42,0,0,1-7,2.37,41,41,0,0,1-5.19.78c-1.55.11-2.88.22-3.1.22a64.21,64.21,0,0,1-7.46-.72,2.55,2.55,0,0,0-.61-.11c-1.1-.28-2.26-.55-3.37-.94a5.25,5.25,0,0,1-1-.28c-1.11-.38-2.27-.77-3.32-1.15-.56-.22-1.16-.5-1.82-.83a26.85,26.85,0,0,1-5.15-3.48,30.82,30.82,0,0,1-3.42-3.14,22,22,0,0,1-4.31-6.07c-.44-1-1.33-1.82-1.83-2.87s-.88-2-1.27-3.09c-.44-1.32-.88-2.65-1.21-4a39.36,39.36,0,0,1-.5-6.29c0-.55-.5-1.05-.5-1.49a81.26,81.26,0,0,1,1.22-9.76c.27-1.16.61-2.38,1-3.59.5-1.55,1.11-3.09,1.66-4.58a37.83,37.83,0,0,1,3.15-5.35,17.79,17.79,0,0,1,1-2c.5-.61,1.05-1.22,1.55-1.82,1.1-1.33,2.21-2.65,3.42-3.92.51-.5.95-1,1.44-1.49a41.18,41.18,0,0,1,3.71-2.81,3.51,3.51,0,0,0,.71-.56A12.9,12.9,0,0,1,193,265.9c.72-.39,1.44-.77,2.16-1.21l1-.5a34.36,34.36,0,0,1,4-2,.85.85,0,0,1,.38-.11,63.39,63.39,0,0,1,8.18-2.48c.56-.11,1.28-.22,2-.33,2.54-.28,5.57-.28,6-.28s3.65.17,6.19.5c.61.11,1.16.22,1.66.33a16.6,16.6,0,0,1,1.66.39l.66.16a18.28,18.28,0,0,1,5.09,2.1,9.48,9.48,0,0,1,1,.61c1.16.71,2.43,1.49,3.7,2.37a31.83,31.83,0,0,1,5.63,4.74,21.63,21.63,0,0,1,1.78,2.1,55.15,55.15,0,0,1,4.36,7c.11.27.28.55.39.77,1.16,2.31,1.82,5.19,3,7.72,2.82.61,3.76-2.31,5-4.85a10.32,10.32,0,0,1,1.44-2.38l-1.44.61-5.31,2c-.33-.88-.71-2-1.1-2.92l6.41-3,14.64-7a43.16,43.16,0,0,1,1.72,4ZM236.65,335l-3.26-4.52a24.4,24.4,0,0,1,2.76-2.38l.5.56,5.63,6.34,6.14,6.85,1.6,1.81-1.6,1.39-2.87,2.37-3.27-4.53L236.65,335Zm-9.84,2.76-.66-1.71-.17-.39V335c.06-.06.12-.06.17-.11.22-.11.44-.28.66-.39.78-.44,1.61-.88,2.32-1.27l3.82,7.4,3.7,7.17,2.1,4.08-2.1,1.1-3,1.55-.72-1.82-6.14-15Zm-9.28.33c1-.38,2.15-.6,3.59-1l1.71,6.67,3.32,13.19.16.66-.16.06-3.32,1-1.82.55-3.48-21.13Zm-9.73,23.23L209,339.16h3.38l1,21.52-2.65.33c-1,.11-1.94.17-2.88.28Zm-13-.61.34-1.38,1-3.64,4-15.12.44-1.54h2.93a.71.71,0,0,1,.28.61l-3.65,21.51v.17c-1.33-.11-2.66-.28-4-.44-.33-.06-.66-.06-1-.11-.11,0-.22-.06-.34-.06Zm-12.43-3.47,2.48-5.08L190,341.65l2.53-5.13,2.61.82.38.17-.38.94L190,352.07l-2.55,6.74c-.93-.28-1.76-.56-2.6-.83s-1.65-.55-2.48-.77Zm-10.95-5.69,2.6-3.47,7.41-9.76,3.42-4.59.62-.83a13.36,13.36,0,0,1,2.59,1.61l-3.21,5.07L181.44,345l-5.64,8.88c-.55-.28-1.16-.55-1.77-.89-.88-.49-1.77-1-2.6-1.49Zm-4.25-12.8,6.85-6.34,5.37-4.91a15.51,15.51,0,0,1,2,1.88l.33.33-.33.33L174,337.9l-6.85,7.33-1.33,1.38c-1.21-1-2.37-2.15-3.59-3.36l4.92-4.53Zm-5.85-9.37,5.85-3.65,6.85-4.24.78-.45c.77.28,1.16,1.66,1.83,2.43L174,325.32l-6.85,5.13-5.85,4.3L158,337.29a23.71,23.71,0,0,1-2.76-4.19l6.14-3.75Zm-10-5.25c.6-.33,1.21-.6,1.82-.93,2.59-1.33,5.36-2.54,8.13-4.2a28.64,28.64,0,0,0,4.47-3.25,5.75,5.75,0,0,1,1.38-.83c1.44-.66,3.21-.94,4.75-1.49a16.19,16.19,0,0,1,1,3.2l-5.8,2.7-5.85,2.76-8.13,3.81-1,.44a14.19,14.19,0,0,0-.82-2.21Zm-20.45,7,12.21-5.8.33-.16,2.6-1.22,7.13-3.36H155l-1.82.88L146.07,325l-2.6,1.27-.33.16-10.61,5.3c-.38-.22-1-.39-1.6-.66Zm-7.8-4.09,2.71-1.21,17.3-7.67.33-.11,2.6-1.16.33-.16a9.93,9.93,0,0,1,1.71,1.43l-2,.94-2.6,1.16-.33.16-17.3,7.89-.88.39a7.59,7.59,0,0,1-1.83-1.66Zm-7.07-6.62,9.78-3.47,16.64-5.8a4.54,4.54,0,0,1,.66.78l.33.49c.06.12.17.28.23.39l-.23.11-.33.11-17.3,6.68-8.4,3.3c-.39-.82-1-1.76-1.38-2.59Zm-4.81-9.21,14.59-3.09,14.2-3c.23.61.39,1.22.62,1.88l-14.82,3.48-13.54,3.2a11.6,11.6,0,0,1-1-2.43Zm-2.6-10.7,17.19-.66,13-.5a7,7,0,0,0,0,2l-13,1.16L108.65,304v-3.58Zm17.19-9.82,12.82,1a16.93,16.93,0,0,1,0,2.21l-12.82-.55-17.19-.72v-3.42l17.19,1.44Zm0-7.78,14.82,3.69a14.51,14.51,0,0,1-.78,1.66l-14-3.09-14.75-3.26a23.73,23.73,0,0,1,1.21-2.42l13.54,3.42Zm0-9.22,17.3,6.68.33.11h.06s-.06.11-.06.16a6.73,6.73,0,0,0-.33.61c-.11.28-.27.55-.44.88l-16.86-5.79-10-3.42c.39-.83,1-1.76,1.39-2.59l8.56,3.36Zm17.3-.66.33.17,2.6,1.16,2.65,1.21a11.11,11.11,0,0,1-1.93,1.27l-.72-.33-2.6-1.16-.33-.11-17.3-7.51-2.92-1.32a9.78,9.78,0,0,1,2-1.65l.93.49,17.3,7.78Zm12.05-.11a5.2,5.2,0,0,0-1.49.28l-.5-.28-7.13-3.42-2.6-1.27-.33-.16-12-5.85c.44-.28,1.06-.45,1.44-.66l10.61,5.29.33.17,2.6,1.32,7.13,3.53,2,1.05Zm6.14,5.85c2.81,2.42,4.8,6.4,5.85,9.65a17.7,17.7,0,0,1,.83,4,55.59,55.59,0,0,1,0,8.56,18.1,18.1,0,0,1-.83,4c-1.05,3.3-3,7.44-5.85,9.93a7.77,7.77,0,0,1-5.21,2.15,13.74,13.74,0,0,1-2.92-.45,5.44,5.44,0,0,1-1.16-.38c-2.49-1.22-4.76-4.19-6-6.68a7.64,7.64,0,0,1-.39-.71,39.67,39.67,0,0,1-2.21-10.26c-.05-.61-.11-1.27-.11-1.83,0-.11.06-.44.11-.93.17-1.71.61-5.24,1.05-7.45a17.21,17.21,0,0,1,1.55-4.19,16,16,0,0,1,5.2-6.13,6.94,6.94,0,0,1,1.93-.94,9.75,9.75,0,0,1,2.76-.49,8.14,8.14,0,0,1,5.37,2.15Zm5.85-3.42,6.85,3.53,2.77,1.38a15.8,15.8,0,0,1-1.77,3.42l-1-.33c-1.88-.72-3.86-1.49-5.74-2.43-.39-.22-.61-1-.88-1.33a.68.68,0,0,1-.23-.21,22,22,0,0,0-4.64-4.42c-.39-.27-.78-.5-1.21-.77-1.16-.66-2.49-1.21-3.82-1.82,0-.44.39-1.05.61-1.66l3.21,1.66,5.85,3Zm6.85-9.16,7.41,6.45.71.61a10.94,10.94,0,0,1-.71,1.16c-.45.61-.94,1.22-1.44,1.82L174,272l-6.85-4.91-4.31-3,3.7-4.46.61.49,6.85,6.07Zm10.83-4.8,4.15,5.79c-1,.83-1.94,1.38-3,2.15l-1.17-1.32L181.44,264,174,255.58l-1.65-1.82,1.65-1.27,2.88-2.26,4.53,6.29,3.42,4.8ZM195.15,259l1,2.31.39.94c-.11.11-.28.22-.39.33l-1,.67c-.5.33-1.11.66-1.61.93L190,257.68l-5.15-9.44-1.32-2.48a12.77,12.77,0,0,1,1.32-.72,39.89,39.89,0,0,1,3.71-1.82l1.44,3.42L195.15,259Zm9.34.38a24,24,0,0,0-3.16,1l-1.21-4.53-4-14.56-.38-1.44.38-.1,4-1.33L201,238l3.49,20.08v1.21Zm9.78-23.55-1.16,22.12c-.72,0-1.55,0-2.43,0-.28,0-.61,0-1,0l-1-21.57c.61-.06,1.22-.17,1.94-.22,1-.11,2.09-.22,3.59-.33Zm13,.38-.5,1.77-.66,2.59-3.32,12.41-1.32,4.8a31.05,31.05,0,0,0-3.21,0L222,235.56c.28.05.55.05.88.11,1.11.11,2.21.22,3.32.38.22,0,.44.06.66.06a1.7,1.7,0,0,0,.5,0Zm12.21,3.09-2.87,5.91-3.7,7.72-3.43,7.06c-.89-.33-1.82-.66-2.71-1.05-.17-.05-.27-.11-.44-.16l.44-1.16L233,242.29l1.82-4.64,1.88.66,2.87.94ZM250.8,245l-2.38,3.2-6.14,8.17-5.52,7.39c-.06,0-.06,0-.11-.06-1-.55-1.88-1.1-2.87-1.71l2.87-4.52,5.63-8.77,4-6.24c.72.39,1.44.77,2.16,1.22s1.55.88,2.38,1.32Zm9.39,8-3.37,3-8.4,7.72-5.52,5.08-.62-.55-1.6-1.6,1.6-1.77,6.14-6.62,8.24-8.88.16.17,3.37,3.41Zm7.41,10.26-10.78,6.57-8.4,5.13-.61.39a20.86,20.86,0,0,1-1.77-2.6l2.38-1.81,8.4-6.29,7.85-5.91c1,1.38,2,2.92,2.93,4.52ZM161.33,281.73a6.93,6.93,0,0,0-4.93-2,7.42,7.42,0,0,0-3.2.71c-5.36,2.54-6.91,11.15-7.13,15.29a6.18,6.18,0,0,0,0,.93,5.62,5.62,0,0,0,0,.89c.22,4,2,12.91,7.13,15.61a6.81,6.81,0,0,0,3.2.77,9.41,9.41,0,0,0,4-1.43,6.54,6.54,0,0,0,.89-.78c3.92-4,5-10.92,5-15.06,0-3.09-1-11.19-5-14.95Zm0,8.72a11.4,11.4,0,0,1,1.7,6.23,12,12,0,0,1-1.7,6.3,11,11,0,0,1-1.72,2.2,26.17,26.17,0,0,0,1.49-8.5,35.35,35.35,0,0,0-1.27-8.1,10.79,10.79,0,0,1,1.5,1.87Zm423.1,28.41-5.08-.16v.77l1.94.06v5.07l1.21.06v-5.08l1.93.06v-.78Z" transform="translate(-45 -172.28)"/></svg>