<svg xmlns="http://www.w3.org/2000/svg" viewBox="0 0 60 60"><defs><style>.cls-1{fill:#fff;}.cls-2{fill:#231f20;}.cls-3{fill:none;stroke:#231f20;stroke-miterlimit:10;stroke-width:3px;}</style></defs><title>1</title><g id="Layer_2" data-name="Layer 2"><g id="Layer_1-2" data-name="Layer 1"><rect class="cls-1" x="0.75" y="0.75" width="58.5" height="58.5" rx="6.15"/><path class="cls-2" d="M53.1,1.5a5.4,5.4,0,0,1,5.4,5.4V53.1a5.4,5.4,0,0,1-5.4,5.4H6.9a5.4,5.4,0,0,1-5.4-5.4V6.9A5.4,5.4,0,0,1,6.9,1.5H53.1m0-1.5H6.9A6.9,6.9,0,0,0,0,6.9V53.1A6.9,6.9,0,0,0,6.9,60H53.1A6.9,6.9,0,0,0,60,53.1V6.9A6.9,6.9,0,0,0,53.1,0Z"/><path class="cls-2" d="M39.26,43.53V41.88h1.6c.35,0,.84.07.84.82a.73.73,0,0,1-.84.83Zm0,1.52h1.08l1.4,2.47h2l-1.63-2.68a2,2,0,0,0,1.29-2.14c0-2-1.41-2.34-2.7-2.34H37.56v7.16h1.7Zm-6.13-2.3.22-.73.21.73.67,2.17H32.46ZM35,47.52h1.82l-2.5-7.25h-2l-2.51,7.25h1.82L32,46.3h2.63ZM24,40.36v7.16h5.37V46H25.65V44.62h3V43.11h-3V41.88h3.5V40.36Zm-7.73,0L19,44.81v2.71h1.7V44.81l2.78-4.45h-2l-1.15,2-.48.85-.48-.84-1.14-2Z"/><path class="cls-2" d="M33.87,38.44V10.88H29.94a13.81,13.81,0,0,1-6.8,5v4.78A15.44,15.44,0,0,0,29,17.93V38.44Z"/><path class="cls-3" d="M54.43,12.52A8.87,8.87,0,0,1,47,5.39.56.56,0,0,0,46.76,5,.44.44,0,0,0,46.4,5,79.27,79.27,0,0,1,29.93,6.53,79.11,79.11,0,0,1,13.47,5a.48.48,0,0,0-.36.07.52.52,0,0,0-.24.36,8.82,8.82,0,0,1-7.3,7.13.57.57,0,0,0-.48.54c-.44,12.5,1.19,27.86,7.11,33.5l.08.08.06.08c0,.05,4.27,5.16,17.39,8.33h.1c13.51-3.2,17.66-8.29,17.7-8.34l.07-.08.08-.08c6-5.63,7.68-21,7.22-33.49A.57.57,0,0,0,54.43,12.52Z"/></g></g></svg>