<svg xmlns="http://www.w3.org/2000/svg" viewBox="0 0 60 60"><defs><style>.cls-1{fill:#fff;}.cls-2{fill:#231f20;}.cls-3{fill:none;stroke:#231f20;stroke-miterlimit:10;stroke-width:3px;}</style></defs><title>2</title><g id="Layer_2" data-name="Layer 2"><g id="Layer_1-2" data-name="Layer 1"><rect class="cls-1" x="0.75" y="0.75" width="58.5" height="58.5" rx="6.15"/><path class="cls-2" d="M53.1,1.5a5.4,5.4,0,0,1,5.4,5.4V53.1a5.4,5.4,0,0,1-5.4,5.4H6.9a5.4,5.4,0,0,1-5.4-5.4V6.9A5.4,5.4,0,0,1,6.9,1.5H53.1m0-1.5H6.9A6.9,6.9,0,0,0,0,6.9V53.1A6.9,6.9,0,0,0,6.9,60H53.1A6.9,6.9,0,0,0,60,53.1V6.9A6.9,6.9,0,0,0,53.1,0Z"/><path class="cls-3" d="M54.41,12.61A8.88,8.88,0,0,1,47,5.48a.6.6,0,0,0-.23-.36.49.49,0,0,0-.36-.07A79.24,79.24,0,0,1,29.93,6.62,79.8,79.8,0,0,1,13.48,5.06a.42.42,0,0,0-.35.06.53.53,0,0,0-.24.37A8.84,8.84,0,0,1,5.6,12.61a.57.57,0,0,0-.48.54C4.67,25.63,6.3,41,12.22,46.62l.07.07.07.09s4.26,5.15,17.37,8.32h.1c13.5-3.2,17.65-8.28,17.69-8.33l.07-.09.07-.07c6-5.63,7.68-21,7.22-33.46A.57.57,0,0,0,54.41,12.61Z"/><path class="cls-2" d="M41.9,47.31c1.39,0,2.77-.6,2.75-2.18s-1-1.88-2.75-2c-.92-.06-1.14-.13-1.15-.51,0-.6.57-.77,1-.77.83,0,1.27.25,1.29,1l1.58-.2c0-1.37-.94-2.19-2.87-2.19-1.38,0-2.61.67-2.57,2.19s1.29,1.76,2.63,1.82c1,0,1.27.23,1.28.68s-.61.74-1.21.75c-.83,0-1.27-.25-1.29-1l-1.58.2c0,1.37.75,2.19,2.87,2.19M35,43.52V42h1.47c.33,0,.77.07.77.76s-.44.76-.77.76Zm0,1.39h1l1.28,2.27h1.86L37.6,44.72a1.84,1.84,0,0,0,1.17-2c0-1.81-1.28-2.15-2.47-2.15H33.4v6.57H35ZM29.84,42.8l.2-.66.19.66.62,2H29.22Zm1.75,4.38h1.66L31,40.53H29.12l-2.3,6.65h1.67l.34-1.12h2.41Zm-9.66-6.57v6.57h4.93V45.79H23.49V44.52h2.75V43.13H23.49V42H26.7V40.61Zm-6.58,0,2.54,4.08v2.49h1.57V44.69L22,40.61H20.16l-1.05,1.84-.43.77-.44-.76-1-1.85Z"/><path class="cls-2" d="M30.24,11.27c-6.85,0-9.88,3.1-10.32,8.19l4.85.52c.28-3.2,2.17-4.23,5.47-4.23,2.24,0,4.92.68,4.92,3.61,0,2.65-3.06,3.68-5.71,4.82-5.71,2.27-9.88,4.64-9.88,13.52v.35H40.43V33.64H24.7c.35-2.65,3-4,7.12-5.75s8.06-3.3,8.06-8.53c0-5.44-4.44-8.09-9.64-8.09"/></g></g></svg>